<?xml version="1.0" encoding="utf-8"?>
<!-- Generator: Adobe Illustrator 23.0.1, SVG Export Plug-In . SVG Version: 6.00 Build 0)  -->
<svg version="1.1" id="Layer_1" xmlns="http://www.w3.org/2000/svg" xmlns:xlink="http://www.w3.org/1999/xlink" x="0px" y="0px"
	 viewBox="0 0 2560 950" style="enable-background:new 0 0 2560 950;" xml:space="preserve">
<style type="text/css">
	.st0{fill:#0A3F8E;}
	.st1{fill-rule:evenodd;clip-rule:evenodd;fill:url(#XMLID_2_);}
	.st2{fill-rule:evenodd;clip-rule:evenodd;fill:#414021;}
	.st3{fill-rule:evenodd;clip-rule:evenodd;fill:url(#XMLID_3_);}
	.st4{fill-rule:evenodd;clip-rule:evenodd;fill:#F7F6F4;}
	.st5{fill-rule:evenodd;clip-rule:evenodd;fill:#DBDCDC;}
	.st6{fill-rule:evenodd;clip-rule:evenodd;fill:#C8C8C9;}
	.st7{fill-rule:evenodd;clip-rule:evenodd;fill:#B4B5B5;}
	.st8{fill-rule:evenodd;clip-rule:evenodd;fill:url(#XMLID_4_);}
	.st9{fill-rule:evenodd;clip-rule:evenodd;fill:url(#XMLID_5_);}
	.st10{fill-rule:evenodd;clip-rule:evenodd;fill:url(#XMLID_6_);}
	.st11{fill-rule:evenodd;clip-rule:evenodd;fill:url(#XMLID_7_);}
	.st12{fill-rule:evenodd;clip-rule:evenodd;fill:url(#XMLID_8_);}
	.st13{fill-rule:evenodd;clip-rule:evenodd;fill:url(#XMLID_9_);}
	.st14{fill-rule:evenodd;clip-rule:evenodd;fill:url(#XMLID_10_);}
	.st15{fill-rule:evenodd;clip-rule:evenodd;fill:url(#XMLID_11_);}
	.st16{fill-rule:evenodd;clip-rule:evenodd;fill:url(#XMLID_12_);}
	.st17{fill-rule:evenodd;clip-rule:evenodd;fill:url(#XMLID_13_);}
	.st18{fill-rule:evenodd;clip-rule:evenodd;fill:url(#XMLID_14_);}
	.st19{fill-rule:evenodd;clip-rule:evenodd;fill:url(#XMLID_15_);}
	.st20{fill-rule:evenodd;clip-rule:evenodd;fill:url(#XMLID_16_);}
	.st21{fill-rule:evenodd;clip-rule:evenodd;fill:url(#XMLID_17_);}
	.st22{fill-rule:evenodd;clip-rule:evenodd;fill:url(#XMLID_18_);}
	.st23{fill-rule:evenodd;clip-rule:evenodd;fill:url(#XMLID_19_);}
	.st24{fill-rule:evenodd;clip-rule:evenodd;fill:url(#XMLID_20_);}
	.st25{fill-rule:evenodd;clip-rule:evenodd;fill:url(#XMLID_21_);}
	.st26{fill-rule:evenodd;clip-rule:evenodd;fill:url(#XMLID_22_);}
	.st27{fill-rule:evenodd;clip-rule:evenodd;fill:url(#XMLID_23_);}
	.st28{fill-rule:evenodd;clip-rule:evenodd;fill:url(#XMLID_24_);}
	.st29{fill-rule:evenodd;clip-rule:evenodd;fill:url(#XMLID_25_);}
	.st30{fill-rule:evenodd;clip-rule:evenodd;fill:url(#XMLID_26_);}
	.st31{fill-rule:evenodd;clip-rule:evenodd;fill:url(#XMLID_27_);}
	.st32{fill-rule:evenodd;clip-rule:evenodd;fill:url(#XMLID_28_);}
	.st33{fill-rule:evenodd;clip-rule:evenodd;fill:#DAD5D1;}
	.st34{fill-rule:evenodd;clip-rule:evenodd;fill:url(#XMLID_29_);}
	.st35{fill-rule:evenodd;clip-rule:evenodd;fill:url(#XMLID_30_);}
	.st36{fill-rule:evenodd;clip-rule:evenodd;fill:url(#XMLID_31_);}
	.st37{fill-rule:evenodd;clip-rule:evenodd;fill:url(#XMLID_32_);}
	.st38{fill-rule:evenodd;clip-rule:evenodd;fill:url(#XMLID_33_);}
	.st39{fill-rule:evenodd;clip-rule:evenodd;fill:url(#XMLID_34_);}
	.st40{fill-rule:evenodd;clip-rule:evenodd;fill:url(#XMLID_35_);}
	.st41{fill:url(#XMLID_36_);}
	.st42{fill-rule:evenodd;clip-rule:evenodd;fill:#808284;}
	.st43{fill-rule:evenodd;clip-rule:evenodd;fill:#929497;}
	.st44{fill-rule:evenodd;clip-rule:evenodd;fill:#6D6E70;}
	.st45{fill-rule:evenodd;clip-rule:evenodd;fill:url(#XMLID_37_);}
	.st46{fill-rule:evenodd;clip-rule:evenodd;fill:url(#XMLID_38_);}
	.st47{fill-rule:evenodd;clip-rule:evenodd;fill:url(#XMLID_39_);}
	.st48{fill:url(#XMLID_40_);}
	.st49{fill:url(#XMLID_41_);}
	.st50{fill:url(#XMLID_42_);}
	.st51{fill-rule:evenodd;clip-rule:evenodd;fill:url(#XMLID_43_);}
	.st52{fill-rule:evenodd;clip-rule:evenodd;fill:#FFFFFF;}
	.st53{fill:url(#XMLID_44_);}
	.st54{fill:url(#XMLID_45_);}
	.st55{fill:url(#XMLID_46_);}
	.st56{fill:url(#XMLID_47_);}
	.st57{fill-rule:evenodd;clip-rule:evenodd;fill:url(#XMLID_48_);}
	.st58{fill-rule:evenodd;clip-rule:evenodd;fill:url(#XMLID_49_);}
	.st59{fill-rule:evenodd;clip-rule:evenodd;fill:url(#XMLID_50_);}
	.st60{fill-rule:evenodd;clip-rule:evenodd;fill:url(#XMLID_51_);}
	.st61{fill-rule:evenodd;clip-rule:evenodd;fill:url(#XMLID_52_);}
	.st62{fill-rule:evenodd;clip-rule:evenodd;fill:url(#XMLID_53_);}
	.st63{fill-rule:evenodd;clip-rule:evenodd;fill:url(#XMLID_54_);}
	.st64{fill-rule:evenodd;clip-rule:evenodd;fill:url(#XMLID_55_);}
	.st65{opacity:0.1;fill-rule:evenodd;clip-rule:evenodd;fill:#231916;}
	.st66{fill-rule:evenodd;clip-rule:evenodd;fill:url(#XMLID_56_);}
	.st67{fill-rule:evenodd;clip-rule:evenodd;fill:url(#XMLID_57_);}
	.st68{fill-rule:evenodd;clip-rule:evenodd;fill:url(#XMLID_58_);}
	.st69{fill-rule:evenodd;clip-rule:evenodd;fill:url(#XMLID_59_);}
	.st70{fill-rule:evenodd;clip-rule:evenodd;fill:url(#XMLID_60_);}
	.st71{fill-rule:evenodd;clip-rule:evenodd;fill:url(#XMLID_61_);}
	.st72{fill-rule:evenodd;clip-rule:evenodd;fill:url(#XMLID_62_);}
	.st73{fill-rule:evenodd;clip-rule:evenodd;fill:url(#XMLID_63_);}
	.st74{fill-rule:evenodd;clip-rule:evenodd;fill:url(#XMLID_64_);}
	.st75{fill-rule:evenodd;clip-rule:evenodd;fill:url(#XMLID_65_);}
	.st76{fill-rule:evenodd;clip-rule:evenodd;fill:url(#XMLID_66_);}
	.st77{fill-rule:evenodd;clip-rule:evenodd;fill:url(#XMLID_67_);}
	.st78{fill-rule:evenodd;clip-rule:evenodd;fill:url(#XMLID_68_);}
	.st79{fill-rule:evenodd;clip-rule:evenodd;fill:url(#XMLID_69_);}
	.st80{fill-rule:evenodd;clip-rule:evenodd;fill:url(#XMLID_70_);}
	.st81{fill-rule:evenodd;clip-rule:evenodd;fill:url(#XMLID_71_);}
	.st82{fill-rule:evenodd;clip-rule:evenodd;fill:url(#XMLID_72_);}
	.st83{fill-rule:evenodd;clip-rule:evenodd;fill:url(#XMLID_73_);}
	.st84{fill-rule:evenodd;clip-rule:evenodd;fill:url(#XMLID_74_);}
	.st85{fill:url(#XMLID_75_);}
	.st86{fill:url(#XMLID_76_);}
	.st87{fill:url(#XMLID_77_);}
	.st88{fill:url(#XMLID_78_);}
	.st89{fill-rule:evenodd;clip-rule:evenodd;fill:url(#XMLID_79_);}
	.st90{fill-rule:evenodd;clip-rule:evenodd;fill:url(#XMLID_80_);}
	.st91{fill-rule:evenodd;clip-rule:evenodd;fill:url(#XMLID_81_);}
	.st92{fill-rule:evenodd;clip-rule:evenodd;fill:url(#XMLID_82_);}
	.st93{fill-rule:evenodd;clip-rule:evenodd;fill:url(#XMLID_83_);}
	.st94{fill-rule:evenodd;clip-rule:evenodd;fill:url(#XMLID_84_);}
	.st95{fill-rule:evenodd;clip-rule:evenodd;fill:#D5D3D4;}
	.st96{fill-rule:evenodd;clip-rule:evenodd;fill:url(#XMLID_85_);}
	.st97{fill-rule:evenodd;clip-rule:evenodd;fill:url(#XMLID_86_);}
	.st98{fill-rule:evenodd;clip-rule:evenodd;fill:url(#XMLID_87_);}
	.st99{fill-rule:evenodd;clip-rule:evenodd;fill:url(#XMLID_88_);}
	.st100{fill-rule:evenodd;clip-rule:evenodd;fill:url(#XMLID_89_);}
	.st101{fill-rule:evenodd;clip-rule:evenodd;fill:#FFF7FA;}
	.st102{fill-rule:evenodd;clip-rule:evenodd;fill:url(#XMLID_90_);}
	.st103{fill-rule:evenodd;clip-rule:evenodd;fill:url(#XMLID_91_);}
	.st104{fill-rule:evenodd;clip-rule:evenodd;fill:url(#XMLID_92_);}
	.st105{fill-rule:evenodd;clip-rule:evenodd;fill:url(#XMLID_93_);}
	.st106{fill-rule:evenodd;clip-rule:evenodd;fill:url(#XMLID_94_);}
	.st107{fill-rule:evenodd;clip-rule:evenodd;fill:url(#XMLID_95_);}
	.st108{fill-rule:evenodd;clip-rule:evenodd;fill:url(#XMLID_96_);}
	.st109{fill-rule:evenodd;clip-rule:evenodd;fill:url(#XMLID_97_);}
	.st110{fill-rule:evenodd;clip-rule:evenodd;fill:url(#XMLID_98_);}
	.st111{fill-rule:evenodd;clip-rule:evenodd;fill:url(#XMLID_99_);}
	.st112{fill-rule:evenodd;clip-rule:evenodd;fill:url(#XMLID_100_);}
	.st113{fill-rule:evenodd;clip-rule:evenodd;fill:url(#XMLID_101_);}
	.st114{fill-rule:evenodd;clip-rule:evenodd;fill:url(#XMLID_102_);}
	.st115{fill-rule:evenodd;clip-rule:evenodd;fill:url(#XMLID_103_);}
	.st116{fill-rule:evenodd;clip-rule:evenodd;fill:url(#XMLID_104_);}
	.st117{fill-rule:evenodd;clip-rule:evenodd;fill:url(#XMLID_105_);}
	.st118{fill-rule:evenodd;clip-rule:evenodd;fill:url(#XMLID_106_);}
	.st119{fill-rule:evenodd;clip-rule:evenodd;fill:url(#XMLID_107_);}
	.st120{fill-rule:evenodd;clip-rule:evenodd;fill:url(#XMLID_108_);}
	.st121{fill-rule:evenodd;clip-rule:evenodd;fill:url(#XMLID_109_);}
	.st122{fill-rule:evenodd;clip-rule:evenodd;fill:url(#XMLID_110_);}
	.st123{fill-rule:evenodd;clip-rule:evenodd;fill:url(#XMLID_111_);}
	.st124{fill-rule:evenodd;clip-rule:evenodd;fill:url(#XMLID_112_);}
	.st125{fill-rule:evenodd;clip-rule:evenodd;fill:url(#XMLID_113_);}
	.st126{fill-rule:evenodd;clip-rule:evenodd;fill:url(#XMLID_114_);}
	.st127{fill-rule:evenodd;clip-rule:evenodd;fill:url(#XMLID_115_);}
	.st128{fill-rule:evenodd;clip-rule:evenodd;fill:url(#XMLID_116_);}
	.st129{fill-rule:evenodd;clip-rule:evenodd;fill:url(#XMLID_117_);}
	.st130{fill-rule:evenodd;clip-rule:evenodd;fill:url(#XMLID_118_);}
	.st131{fill-rule:evenodd;clip-rule:evenodd;fill:url(#XMLID_119_);}
	.st132{fill-rule:evenodd;clip-rule:evenodd;fill:url(#XMLID_120_);}
	.st133{fill-rule:evenodd;clip-rule:evenodd;fill:url(#XMLID_121_);}
	.st134{fill-rule:evenodd;clip-rule:evenodd;fill:url(#XMLID_122_);}
</style>
<rect class="st0" width="2560" height="950"/>
<g id="XMLID_23217_">
	<g id="XMLID_23058_">
		<linearGradient id="XMLID_2_" gradientUnits="userSpaceOnUse" x1="1349.8053" y1="639.4946" x2="2236.0232" y2="639.4946">
			<stop  offset="0.125" style="stop-color:#A2A2A2"/>
			<stop  offset="1" style="stop-color:#EFEFEF"/>
		</linearGradient>
		<path id="XMLID_23184_" class="st1" d="M2231.7,585.9c-57.8-33.4-115.4-66.6-173-99.9c-57.5-33.2-115.2-66.5-173-99.9
			c-6.4-3.7-17.7-3.2-25,1c-84.4,48.7-168.5,97.3-252.5,145.8c-84.2,48.6-168.3,97.2-252.5,145.8c-7.2,4.2-8,10.5-1.7,14.1
			c57.6,33.3,115.4,66.6,173.2,100c57.9,33.4,115.6,66.8,173.2,100c6.2,3.6,17.1,3.2,24.2-1c84-48.5,168.3-97.1,252.7-145.9
			c84.2-48.6,168.5-97.3,252.6-145.8C2237.3,596,2238.1,589.6,2231.7,585.9"/>
		<path id="XMLID_23183_" class="st2" d="M2205.9,578.8c-56.1-32.4-112.1-64.7-168.1-97.1c-56.8-32.8-113.7-65.6-170.8-98.6
			c-6.3-3.6-17.5-3.2-24.7,1c-83.3,48.1-166.4,96.1-249.3,143.9C1510,576,1427,624,1343.7,672c-0.2,0.1-0.5,0.3-0.7,0.4h-5.2v7.4
			c0,0.1,0,0.1,0,0.2v0h0c0.1,2.2,1.4,4.4,4.2,5.9c56.9,32.9,114,65.8,171,98.7c57.1,33,114.2,65.9,171,98.7
			c6.2,3.6,16.9,3.1,23.9-1c82.9-47.9,166.1-95.9,249.5-144c83.1-48,166.3-96,249.4-144c3.3-1.9,5.3-4.3,5.8-6.7h0v0
			c0.2-0.8,0.2-1.6,0-2.4v-6.5H2205.9z"/>
		<linearGradient id="XMLID_3_" gradientUnits="userSpaceOnUse" x1="1337.8584" y1="625.4706" x2="2212.811" y2="625.4706">
			<stop  offset="0" style="stop-color:#130E3E"/>
			<stop  offset="0.53" style="stop-color:#523CA8"/>
			<stop  offset="1" style="stop-color:#7F6EC0"/>
		</linearGradient>
		<path id="XMLID_23182_" class="st3" d="M2208.6,572.6c-57-32.9-113.9-65.8-170.8-98.6c-56.8-32.8-113.7-65.6-170.8-98.6
			c-6.3-3.6-17.5-3.2-24.7,1c-83.3,48.1-166.4,96.1-249.3,143.9c-83.1,48-166.1,95.9-249.3,144c-7.1,4.1-7.9,10.4-1.7,14
			c56.9,32.9,114,65.8,171,98.7c57.1,33,114.2,65.9,171,98.7c6.2,3.6,16.9,3.1,23.9-1c82.9-47.9,166.1-95.9,249.5-144
			c83.1-48,166.3-96,249.4-144C2214,582.6,2214.8,576.2,2208.6,572.6"/>
		<polygon id="XMLID_23181_" class="st4" points="2196,557.4 1848.6,356.8 1348.4,645.6 1695.8,846.2 		"/>
		<polygon id="XMLID_23180_" class="st5" points="2199.6,557.4 1699.3,846.2 1699.3,870.3 2199.6,581.5 		"/>
		<polygon id="XMLID_23179_" class="st6" points="1351.9,645.6 1699.3,846.2 1699.3,870.3 1351.9,669.7 		"/>
		<path id="XMLID_23178_" class="st7" d="M2156.5,549c-2.5,1.5-2.5,3.8,0,5.3c2.5,1.5,6.6,1.5,9.1,0c2.5-1.5,2.5-3.8,0-5.3
			C2163.2,547.5,2159.1,547.5,2156.5,549"/>
		<linearGradient id="XMLID_4_" gradientUnits="userSpaceOnUse" x1="2158.7573" y1="539.7308" x2="2190.8975" y2="539.7308">
			<stop  offset="0.125" style="stop-color:#A2A2A2"/>
			<stop  offset="1" style="stop-color:#EFEFEF"/>
		</linearGradient>
		<path id="XMLID_23177_" class="st8" d="M2190.9,538.2c0,4-1.1,8.4-2.9,12.5l-2.1-1.2h0c1.3-3.2,2.1-6.5,2.1-9.6
			c0-8.6-6-12.1-13.5-7.8c-6.8,3.9-12.3,12.9-13.3,20.9h0l-2.4-1.4c1.9-9.1,8.3-18.5,15.8-22.9
			C2183.6,523.5,2190.9,527.7,2190.9,538.2"/>
		<path id="XMLID_23176_" class="st7" d="M2133.9,535.9c-2.5,1.5-2.5,3.8,0,5.3c2.5,1.5,6.6,1.5,9.1,0c2.5-1.5,2.5-3.8,0-5.3
			C2140.5,534.5,2136.4,534.5,2133.9,535.9"/>
		<linearGradient id="XMLID_5_" gradientUnits="userSpaceOnUse" x1="2136.1233" y1="526.6623" x2="2168.2634" y2="526.6623">
			<stop  offset="0.125" style="stop-color:#A2A2A2"/>
			<stop  offset="1" style="stop-color:#EFEFEF"/>
		</linearGradient>
		<path id="XMLID_23175_" class="st9" d="M2168.3,525.1c0,4-1.1,8.4-2.9,12.5l-2.1-1.2h0c1.3-3.2,2.1-6.5,2.1-9.6
			c0-8.6-6-12.1-13.5-7.8c-6.8,3.9-12.3,12.9-13.3,20.9h0l-2.4-1.4c1.9-9.1,8.3-18.5,15.8-22.9
			C2160.9,510.4,2168.3,514.7,2168.3,525.1"/>
		<path id="XMLID_23174_" class="st7" d="M2111.3,522.9c-2.5,1.5-2.5,3.8,0,5.3c2.5,1.5,6.6,1.5,9.1,0c2.5-1.5,2.5-3.8,0-5.3
			C2117.9,521.4,2113.8,521.4,2111.3,522.9"/>
		<linearGradient id="XMLID_6_" gradientUnits="userSpaceOnUse" x1="2113.4895" y1="513.5938" x2="2145.6294" y2="513.5938">
			<stop  offset="0.125" style="stop-color:#A2A2A2"/>
			<stop  offset="1" style="stop-color:#EFEFEF"/>
		</linearGradient>
		<path id="XMLID_23173_" class="st10" d="M2145.6,512c0,4-1.1,8.4-2.9,12.5l-2.1-1.2l0,0c1.3-3.2,2.1-6.5,2.1-9.6
			c0-8.6-6-12.1-13.5-7.8c-6.8,3.9-12.3,12.9-13.3,20.9h0l-2.4-1.4c1.9-9.1,8.3-18.5,15.8-22.9
			C2138.3,497.4,2145.6,501.6,2145.6,512"/>
		<path id="XMLID_23172_" class="st7" d="M2088.6,509.8c-2.5,1.5-2.5,3.8,0,5.3c2.5,1.5,6.6,1.5,9.1,0c2.5-1.5,2.5-3.8,0-5.3
			C2095.3,508.3,2091.2,508.3,2088.6,509.8"/>
		<linearGradient id="XMLID_7_" gradientUnits="userSpaceOnUse" x1="2090.8555" y1="500.5253" x2="2122.9958" y2="500.5253">
			<stop  offset="0.125" style="stop-color:#A2A2A2"/>
			<stop  offset="1" style="stop-color:#EFEFEF"/>
		</linearGradient>
		<path id="XMLID_23171_" class="st11" d="M2123,499c0,4-1.1,8.4-2.9,12.5l-2.1-1.2h0c1.3-3.2,2.1-6.5,2.1-9.6
			c0-8.6-6-12.1-13.5-7.8c-6.8,3.9-12.3,12.9-13.3,20.9h0l-2.4-1.4c1.9-9.1,8.3-18.5,15.8-22.9C2115.7,484.3,2123,488.5,2123,499"/>
		<path id="XMLID_23170_" class="st7" d="M2066,496.7c-2.5,1.5-2.5,3.8,0,5.3c2.5,1.5,6.6,1.5,9.1,0c2.5-1.5,2.5-3.8,0-5.3
			C2072.6,495.3,2068.5,495.3,2066,496.7"/>
		<linearGradient id="XMLID_8_" gradientUnits="userSpaceOnUse" x1="2068.2214" y1="487.4567" x2="2100.3616" y2="487.4567">
			<stop  offset="0.125" style="stop-color:#A2A2A2"/>
			<stop  offset="1" style="stop-color:#EFEFEF"/>
		</linearGradient>
		<path id="XMLID_23169_" class="st12" d="M2100.4,485.9c0,4-1.1,8.4-2.9,12.5l-2.1-1.2h0c1.3-3.2,2.1-6.5,2.1-9.6
			c0-8.6-6-12.1-13.5-7.8c-6.8,3.9-12.3,12.9-13.3,20.9h0l-2.4-1.4c1.9-9.1,8.3-18.5,15.8-22.9
			C2093,471.2,2100.4,475.5,2100.4,485.9"/>
		<path id="XMLID_23168_" class="st7" d="M2043.4,483.7c-2.5,1.5-2.5,3.8,0,5.3c2.5,1.5,6.6,1.5,9.1,0c2.5-1.5,2.5-3.8,0-5.3
			C2050,482.2,2045.9,482.2,2043.4,483.7"/>
		<linearGradient id="XMLID_9_" gradientUnits="userSpaceOnUse" x1="2045.5876" y1="474.3882" x2="2077.7278" y2="474.3882">
			<stop  offset="0.125" style="stop-color:#A2A2A2"/>
			<stop  offset="1" style="stop-color:#EFEFEF"/>
		</linearGradient>
		<path id="XMLID_23167_" class="st13" d="M2077.7,472.8c0,4-1.1,8.4-2.9,12.5l-2.1-1.2h0c1.3-3.2,2.1-6.5,2.1-9.6
			c0-8.6-6-12.1-13.5-7.8c-6.8,3.9-12.3,12.9-13.3,20.9h0l-2.4-1.4c1.9-9.1,8.3-18.5,15.8-22.9
			C2070.4,458.2,2077.7,462.4,2077.7,472.8"/>
		<path id="XMLID_23166_" class="st7" d="M2020.7,470.6c-2.5,1.5-2.5,3.8,0,5.3c2.5,1.5,6.6,1.5,9.1,0c2.5-1.5,2.5-3.8,0-5.3
			C2027.3,469.1,2023.3,469.1,2020.7,470.6"/>
		<linearGradient id="XMLID_10_" gradientUnits="userSpaceOnUse" x1="2022.9536" y1="461.3197" x2="2055.0938" y2="461.3197">
			<stop  offset="0.125" style="stop-color:#A2A2A2"/>
			<stop  offset="1" style="stop-color:#EFEFEF"/>
		</linearGradient>
		<path id="XMLID_23165_" class="st14" d="M2055.1,459.8c0,4-1.1,8.4-2.9,12.5l-2.1-1.2l0,0c1.3-3.2,2.1-6.5,2.1-9.6
			c0-8.6-6-12.1-13.5-7.8c-6.8,3.9-12.3,12.9-13.3,20.9h0l-2.4-1.4c1.9-9.1,8.3-18.5,15.8-22.9
			C2047.8,445.1,2055.1,449.3,2055.1,459.8"/>
		<path id="XMLID_23164_" class="st7" d="M1998.1,457.5c-2.5,1.5-2.5,3.8,0,5.3c2.5,1.5,6.6,1.5,9.1,0c2.5-1.5,2.5-3.8,0-5.3
			C2004.7,456.1,2000.6,456.1,1998.1,457.5"/>
		<linearGradient id="XMLID_11_" gradientUnits="userSpaceOnUse" x1="2000.3197" y1="448.2512" x2="2032.4598" y2="448.2512">
			<stop  offset="0.125" style="stop-color:#A2A2A2"/>
			<stop  offset="1" style="stop-color:#EFEFEF"/>
		</linearGradient>
		<path id="XMLID_23163_" class="st15" d="M2032.5,446.7c0,4-1.1,8.4-2.9,12.5l-2.1-1.2h0c1.3-3.2,2.1-6.5,2.1-9.6
			c0-8.6-6-12.1-13.5-7.8c-6.8,3.9-12.3,12.9-13.3,20.9h0l-2.4-1.4c1.9-9.1,8.3-18.5,15.8-22.9
			C2025.1,432,2032.5,436.2,2032.5,446.7"/>
		<path id="XMLID_23162_" class="st7" d="M1975.5,444.5c-2.5,1.5-2.5,3.8,0,5.3c2.5,1.5,6.6,1.5,9.1,0c2.5-1.5,2.5-3.8,0-5.3
			C1982.1,443,1978,443,1975.5,444.5"/>
		<linearGradient id="XMLID_12_" gradientUnits="userSpaceOnUse" x1="1977.6857" y1="435.1826" x2="2009.8258" y2="435.1826">
			<stop  offset="0.125" style="stop-color:#A2A2A2"/>
			<stop  offset="1" style="stop-color:#EFEFEF"/>
		</linearGradient>
		<path id="XMLID_23161_" class="st16" d="M2009.8,433.6c0,4-1.1,8.4-2.9,12.5l-2.1-1.2h0c1.3-3.2,2.1-6.5,2.1-9.6
			c0-8.6-6-12.1-13.5-7.8c-6.8,3.9-12.3,12.9-13.3,20.9h0l-2.4-1.4c1.9-9.1,8.3-18.5,15.8-22.9
			C2002.5,418.9,2009.8,423.2,2009.8,433.6"/>
		<path id="XMLID_23160_" class="st7" d="M1952.8,431.4c-2.5,1.5-2.5,3.8,0,5.3c2.5,1.5,6.6,1.5,9.1,0c2.5-1.5,2.5-3.8,0-5.3
			C1959.4,429.9,1955.4,429.9,1952.8,431.4"/>
		<linearGradient id="XMLID_13_" gradientUnits="userSpaceOnUse" x1="1955.0518" y1="422.1142" x2="1987.1919" y2="422.1142">
			<stop  offset="0.125" style="stop-color:#A2A2A2"/>
			<stop  offset="1" style="stop-color:#EFEFEF"/>
		</linearGradient>
		<path id="XMLID_23159_" class="st17" d="M1987.2,420.6c0,4-1.1,8.4-2.9,12.5l-2.1-1.2h0c1.3-3.2,2.1-6.5,2.1-9.6
			c0-8.6-6-12.1-13.5-7.8c-6.8,3.9-12.3,12.9-13.3,20.9h0l-2.4-1.4c1.9-9.1,8.3-18.5,15.8-22.9
			C1979.9,405.9,1987.2,410.1,1987.2,420.6"/>
		<path id="XMLID_23158_" class="st7" d="M1930.2,418.3c-2.5,1.5-2.5,3.8,0,5.3c2.5,1.5,6.6,1.5,9.1,0c2.5-1.5,2.5-3.8,0-5.3
			C1936.8,416.9,1932.7,416.9,1930.2,418.3"/>
		<linearGradient id="XMLID_14_" gradientUnits="userSpaceOnUse" x1="1932.4177" y1="409.0456" x2="1964.558" y2="409.0456">
			<stop  offset="0.125" style="stop-color:#A2A2A2"/>
			<stop  offset="1" style="stop-color:#EFEFEF"/>
		</linearGradient>
		<path id="XMLID_23157_" class="st18" d="M1964.6,407.5c0,4-1.1,8.4-2.9,12.5l-2.1-1.2h0c1.3-3.2,2.1-6.5,2.1-9.6
			c0-8.6-6-12.1-13.5-7.8c-6.8,3.9-12.3,12.9-13.3,20.9h0l-2.4-1.4c1.9-9.1,8.3-18.5,15.8-22.9
			C1957.2,392.8,1964.6,397,1964.6,407.5"/>
		<path id="XMLID_23156_" class="st7" d="M1907.6,405.2c-2.5,1.5-2.5,3.8,0,5.3c2.5,1.5,6.6,1.5,9.1,0c2.5-1.5,2.5-3.8,0-5.3
			C1914.2,403.8,1910.1,403.8,1907.6,405.2"/>
		<linearGradient id="XMLID_15_" gradientUnits="userSpaceOnUse" x1="1909.7839" y1="395.9771" x2="1941.9241" y2="395.9771">
			<stop  offset="0.125" style="stop-color:#A2A2A2"/>
			<stop  offset="1" style="stop-color:#EFEFEF"/>
		</linearGradient>
		<path id="XMLID_23155_" class="st19" d="M1941.9,394.4c0,4-1.1,8.4-2.9,12.5l-2.1-1.2h0c1.3-3.2,2.1-6.5,2.1-9.6
			c0-8.6-6-12.1-13.5-7.8c-6.8,3.9-12.3,12.9-13.3,20.9h0l-2.4-1.4c1.9-9.1,8.3-18.5,15.8-22.9
			C1934.6,379.7,1941.9,384,1941.9,394.4"/>
		<path id="XMLID_23154_" class="st7" d="M1884.9,392.2c-2.5,1.5-2.5,3.8,0,5.3c2.5,1.5,6.6,1.5,9.1,0c2.5-1.5,2.5-3.8,0-5.3
			C1891.5,390.7,1887.5,390.7,1884.9,392.2"/>
		<linearGradient id="XMLID_16_" gradientUnits="userSpaceOnUse" x1="1887.15" y1="382.9086" x2="1919.2902" y2="382.9086">
			<stop  offset="0.125" style="stop-color:#A2A2A2"/>
			<stop  offset="1" style="stop-color:#EFEFEF"/>
		</linearGradient>
		<path id="XMLID_23153_" class="st20" d="M1919.3,381.4c0,4-1.1,8.4-2.9,12.5l-2.1-1.2h0c1.3-3.2,2.1-6.5,2.1-9.6
			c0-8.6-6-12.1-13.5-7.8c-6.8,3.9-12.3,12.9-13.3,20.9h0l-2.4-1.4c1.9-9.1,8.3-18.5,15.8-22.9
			C1912,366.7,1919.3,370.9,1919.3,381.4"/>
		<path id="XMLID_23152_" class="st7" d="M1862.3,379.1c-2.5,1.5-2.5,3.8,0,5.3c2.5,1.5,6.6,1.5,9.1,0c2.5-1.5,2.5-3.8,0-5.3
			C1868.9,377.7,1864.8,377.7,1862.3,379.1"/>
		<linearGradient id="XMLID_17_" gradientUnits="userSpaceOnUse" x1="1864.516" y1="369.8401" x2="1896.6561" y2="369.8401">
			<stop  offset="0.125" style="stop-color:#A2A2A2"/>
			<stop  offset="1" style="stop-color:#EFEFEF"/>
		</linearGradient>
		<path id="XMLID_23151_" class="st21" d="M1896.7,368.3c0,4-1.1,8.4-2.9,12.5l-2.1-1.2h0c1.3-3.2,2.1-6.5,2.1-9.6
			c0-8.6-6-12.1-13.5-7.8c-6.8,3.9-12.3,12.9-13.3,20.9h0l-2.4-1.4c1.9-9.1,8.3-18.5,15.8-22.9
			C1889.3,353.6,1896.7,357.8,1896.7,368.3"/>
		<linearGradient id="XMLID_18_" gradientUnits="userSpaceOnUse" x1="1838.5304" y1="478.2723" x2="2139.8184" y2="478.2723">
			<stop  offset="0.125" style="stop-color:#A2A2A2"/>
			<stop  offset="1" style="stop-color:#EFEFEF"/>
		</linearGradient>
		<polygon id="XMLID_23150_" class="st22" points="2139.8,563.6 1841.4,391.3 1838.5,392.9 2137,565.2 		"/>
		<linearGradient id="XMLID_19_" gradientUnits="userSpaceOnUse" x1="1817.3262" y1="490.5146" x2="2118.6138" y2="490.5146">
			<stop  offset="0.125" style="stop-color:#A2A2A2"/>
			<stop  offset="1" style="stop-color:#EFEFEF"/>
		</linearGradient>
		<polygon id="XMLID_23149_" class="st23" points="2118.6,575.9 1820.2,403.5 1817.3,405.2 2115.8,577.5 		"/>
		<linearGradient id="XMLID_20_" gradientUnits="userSpaceOnUse" x1="1796.1218" y1="502.7569" x2="2097.4094" y2="502.7569">
			<stop  offset="0.125" style="stop-color:#A2A2A2"/>
			<stop  offset="1" style="stop-color:#EFEFEF"/>
		</linearGradient>
		<polygon id="XMLID_23148_" class="st24" points="2097.4,588.1 1798.9,415.8 1796.1,417.4 2094.6,589.7 		"/>
		<linearGradient id="XMLID_21_" gradientUnits="userSpaceOnUse" x1="1774.9174" y1="514.9992" x2="2076.2051" y2="514.9992">
			<stop  offset="0.125" style="stop-color:#A2A2A2"/>
			<stop  offset="1" style="stop-color:#EFEFEF"/>
		</linearGradient>
		<polygon id="XMLID_23147_" class="st25" points="2076.2,600.3 1777.7,428 1774.9,429.7 2073.4,602 		"/>
		<linearGradient id="XMLID_22_" gradientUnits="userSpaceOnUse" x1="1753.713" y1="527.2415" x2="2055.0007" y2="527.2415">
			<stop  offset="0.125" style="stop-color:#A2A2A2"/>
			<stop  offset="1" style="stop-color:#EFEFEF"/>
		</linearGradient>
		<polygon id="XMLID_23146_" class="st26" points="2055,612.6 1756.5,440.3 1753.7,441.9 2052.2,614.2 		"/>
		<linearGradient id="XMLID_23_" gradientUnits="userSpaceOnUse" x1="1732.5085" y1="539.4838" x2="2033.7965" y2="539.4838">
			<stop  offset="0.125" style="stop-color:#A2A2A2"/>
			<stop  offset="1" style="stop-color:#EFEFEF"/>
		</linearGradient>
		<polygon id="XMLID_23145_" class="st27" points="2033.8,624.8 1735.3,452.5 1732.5,454.1 2031,626.5 		"/>
		<linearGradient id="XMLID_24_" gradientUnits="userSpaceOnUse" x1="1711.3042" y1="551.7261" x2="2012.592" y2="551.7261">
			<stop  offset="0.125" style="stop-color:#A2A2A2"/>
			<stop  offset="1" style="stop-color:#EFEFEF"/>
		</linearGradient>
		<polygon id="XMLID_23144_" class="st28" points="2012.6,637.1 1714.1,464.8 1711.3,466.4 2009.8,638.7 		"/>
		<linearGradient id="XMLID_25_" gradientUnits="userSpaceOnUse" x1="1690.0999" y1="563.9685" x2="1991.3876" y2="563.9685">
			<stop  offset="0.125" style="stop-color:#A2A2A2"/>
			<stop  offset="1" style="stop-color:#EFEFEF"/>
		</linearGradient>
		<polygon id="XMLID_23143_" class="st29" points="1991.4,649.3 1692.9,477 1690.1,478.6 1988.6,650.9 		"/>
		<linearGradient id="XMLID_26_" gradientUnits="userSpaceOnUse" x1="1668.8954" y1="576.2108" x2="1970.1833" y2="576.2108">
			<stop  offset="0.125" style="stop-color:#A2A2A2"/>
			<stop  offset="1" style="stop-color:#EFEFEF"/>
		</linearGradient>
		<polygon id="XMLID_23142_" class="st30" points="1970.2,661.6 1671.7,489.2 1668.9,490.9 1967.4,663.2 		"/>
		<linearGradient id="XMLID_27_" gradientUnits="userSpaceOnUse" x1="1647.691" y1="588.4531" x2="1948.9789" y2="588.4531">
			<stop  offset="0.125" style="stop-color:#A2A2A2"/>
			<stop  offset="1" style="stop-color:#EFEFEF"/>
		</linearGradient>
		<polygon id="XMLID_23141_" class="st31" points="1949,673.8 1650.5,501.5 1647.7,503.1 1946.2,675.4 		"/>
		<linearGradient id="XMLID_28_" gradientUnits="userSpaceOnUse" x1="1626.4867" y1="600.6953" x2="1927.7745" y2="600.6953">
			<stop  offset="0.125" style="stop-color:#A2A2A2"/>
			<stop  offset="1" style="stop-color:#EFEFEF"/>
		</linearGradient>
		<polygon id="XMLID_23140_" class="st32" points="1927.8,686 1629.3,513.7 1626.5,515.4 1924.9,687.7 		"/>
		<polygon id="XMLID_23139_" class="st33" points="1906.6,698.3 1608.1,526 1605.3,527.6 1903.7,699.9 		"/>
		<linearGradient id="XMLID_29_" gradientUnits="userSpaceOnUse" x1="1584.0779" y1="625.1799" x2="1885.3657" y2="625.1799">
			<stop  offset="0.125" style="stop-color:#A2A2A2"/>
			<stop  offset="1" style="stop-color:#EFEFEF"/>
		</linearGradient>
		<polygon id="XMLID_23138_" class="st34" points="1885.4,710.5 1586.9,538.2 1584.1,539.8 1882.5,712.2 		"/>
		<polygon id="XMLID_23137_" class="st33" points="1864.2,722.8 1565.7,550.4 1562.9,552.1 1861.3,724.4 		"/>
		<linearGradient id="XMLID_30_" gradientUnits="userSpaceOnUse" x1="1541.6692" y1="649.6646" x2="1842.9569" y2="649.6646">
			<stop  offset="0.125" style="stop-color:#A2A2A2"/>
			<stop  offset="1" style="stop-color:#EFEFEF"/>
		</linearGradient>
		<polygon id="XMLID_23136_" class="st35" points="1843,735 1544.5,562.7 1541.7,564.3 1840.1,736.6 		"/>
		<linearGradient id="XMLID_31_" gradientUnits="userSpaceOnUse" x1="1520.4648" y1="661.9069" x2="1821.7526" y2="661.9069">
			<stop  offset="0.125" style="stop-color:#A2A2A2"/>
			<stop  offset="1" style="stop-color:#EFEFEF"/>
		</linearGradient>
		<polygon id="XMLID_23135_" class="st36" points="1821.8,747.2 1523.3,574.9 1520.5,576.6 1818.9,748.9 		"/>
		<linearGradient id="XMLID_32_" gradientUnits="userSpaceOnUse" x1="1499.2605" y1="674.1492" x2="1800.5482" y2="674.1492">
			<stop  offset="0.125" style="stop-color:#A2A2A2"/>
			<stop  offset="1" style="stop-color:#EFEFEF"/>
		</linearGradient>
		<polygon id="XMLID_23134_" class="st37" points="1800.5,759.5 1502.1,587.2 1499.3,588.8 1797.7,761.1 		"/>
		<linearGradient id="XMLID_33_" gradientUnits="userSpaceOnUse" x1="1478.056" y1="686.3915" x2="1779.3438" y2="686.3915">
			<stop  offset="0.125" style="stop-color:#A2A2A2"/>
			<stop  offset="1" style="stop-color:#EFEFEF"/>
		</linearGradient>
		<polygon id="XMLID_23133_" class="st38" points="1779.3,771.7 1480.9,599.4 1478.1,601 1776.5,773.4 		"/>
		<linearGradient id="XMLID_34_" gradientUnits="userSpaceOnUse" x1="1456.8518" y1="698.6337" x2="1758.1394" y2="698.6337">
			<stop  offset="0.125" style="stop-color:#A2A2A2"/>
			<stop  offset="1" style="stop-color:#EFEFEF"/>
		</linearGradient>
		<polygon id="XMLID_23132_" class="st39" points="1758.1,784 1459.7,611.7 1456.9,613.3 1755.3,785.6 		"/>
		<linearGradient id="XMLID_35_" gradientUnits="userSpaceOnUse" x1="1435.6473" y1="710.8761" x2="1736.9352" y2="710.8761">
			<stop  offset="0.125" style="stop-color:#A2A2A2"/>
			<stop  offset="1" style="stop-color:#EFEFEF"/>
		</linearGradient>
		<polygon id="XMLID_23131_" class="st40" points="1736.9,796.2 1438.5,623.9 1435.6,625.5 1734.1,797.9 		"/>
	</g>
	<g id="XMLID_23201_">
		<g id="XMLID_23204_">
			<linearGradient id="XMLID_36_" gradientUnits="userSpaceOnUse" x1="1930.7554" y1="391.0066" x2="2011.283" y2="391.0066">
				<stop  offset="0" style="stop-color:#3D0EAE"/>
				<stop  offset="1" style="stop-color:#7756E5"/>
			</linearGradient>
			<polygon id="XMLID_23213_" class="st41" points="1968.8,424.7 1930.8,358.8 1933.2,357.3 1969.9,421 2010.1,402.2 2011.3,404.8 
							"/>
		</g>
		<g id="XMLID_23187_">
			<path id="XMLID_23196_" class="st42" d="M1974.8,175v319h0l0,0c0,0.9-1.6,1.7-3.5,1.7c-1.9,0-3.5-0.7-3.5-1.7v0V175L1974.8,175z"
				/>
			<path id="XMLID_23195_" class="st43" d="M1971.4,495.7L1971.4,495.7c-1.9,0-3.4-0.7-3.5-1.6l0-319.1l3.5,0V495.7z"/>
			<path id="XMLID_23194_" class="st44" d="M1971.3,173.7c1.9,0,3.5,0.6,3.5,1.5c0,0.8-1.6,1.5-3.5,1.5c-1.9,0-3.5-0.6-3.5-1.5
				C1967.8,174.4,1969.4,173.7,1971.3,173.7L1971.3,173.7z"/>
			<linearGradient id="XMLID_37_" gradientUnits="userSpaceOnUse" x1="1958.683" y1="335.3253" x2="1985.4116" y2="335.3253">
				<stop  offset="0" style="stop-color:#3D0EAE"/>
				<stop  offset="1" style="stop-color:#7756E5"/>
			</linearGradient>
			<path id="XMLID_23193_" class="st45" d="M1974.8,175v319v0c0,0.9-1.6,1.7-3.5,1.7c-1.9,0-3.5-0.7-3.5-1.7l0,0V175L1974.8,175z"/>
			<linearGradient id="XMLID_38_" gradientUnits="userSpaceOnUse" x1="1983.897" y1="333.8503" x2="1990.6587" y2="333.1385">
				<stop  offset="0" style="stop-color:#3D0EAE"/>
				<stop  offset="1" style="stop-color:#7756E5"/>
			</linearGradient>
			<path id="XMLID_23192_" class="st46" d="M1971.3,495.7c-1.9,0-3.5-0.7-3.5-1.7l0,0V175l3.5,0V495.7z"/>
			<linearGradient id="XMLID_39_" gradientUnits="userSpaceOnUse" x1="1967.8442" y1="175.1685" x2="1974.7916" y2="175.1685">
				<stop  offset="0.125" style="stop-color:#A2A2A2"/>
				<stop  offset="1" style="stop-color:#EFEFEF"/>
			</linearGradient>
			<path id="XMLID_23191_" class="st47" d="M1971.3,173.7c1.9,0,3.5,0.6,3.5,1.5c0,0.8-1.6,1.5-3.5,1.5c-1.9,0-3.5-0.6-3.5-1.5
				C1967.8,174.4,1969.4,173.7,1971.3,173.7z"/>
		</g>
		<g id="XMLID_23186_">
			<linearGradient id="XMLID_40_" gradientUnits="userSpaceOnUse" x1="1847.478" y1="389.2544" x2="2129.7117" y2="389.2544">
				<stop  offset="0.125" style="stop-color:#A2A2A2"/>
				<stop  offset="1" style="stop-color:#EFEFEF"/>
			</linearGradient>
			<path id="XMLID_23188_" class="st48" d="M1851.8,308.9l277.9,160.8c-1.1-0.6-2.6-0.6-4.3,0.4l-277.9-160.8
				C1849.2,308.3,1850.7,308.2,1851.8,308.9z"/>
			<linearGradient id="XMLID_41_" gradientUnits="userSpaceOnUse" x1="1980.2937" y1="402.3188" x2="1985.2759" y2="393.778">
				<stop  offset="0.125" style="stop-color:#A2A2A2"/>
				<stop  offset="1" style="stop-color:#EFEFEF"/>
			</linearGradient>
			<path id="XMLID_23189_" class="st49" d="M2121.1,484.4l-277.9-160.8c-1.1-0.6-1.8-2-1.8-3.9c0-3.8,2.7-8.5,6-10.5L2125.4,470
				c-3.3,1.9-6,6.6-6,10.5C2119.4,482.4,2120,483.8,2121.1,484.4z"/>
			<linearGradient id="XMLID_42_" gradientUnits="userSpaceOnUse" x1="2119.3691" y1="477.0161" x2="2131.4834" y2="477.0161">
				<stop  offset="0.125" style="stop-color:#A2A2A2"/>
				<stop  offset="1" style="stop-color:#EFEFEF"/>
			</linearGradient>
			<path id="XMLID_23190_" class="st50" d="M2125.4,470c3.3-1.9,6.1-0.4,6.1,3.5c0,3.8-2.7,8.5-6,10.5c-3.3,1.9-6.1,0.4-6.1-3.5
				C2119.4,476.7,2122.1,472,2125.4,470z"/>
		</g>
		<linearGradient id="XMLID_43_" gradientUnits="userSpaceOnUse" x1="1855.7189" y1="298.6311" x2="2117.2861" y2="298.6311">
			<stop  offset="0" style="stop-color:#3D0EAE"/>
			<stop  offset="1" style="stop-color:#7756E5"/>
		</linearGradient>
		<polygon id="XMLID_23185_" class="st51" points="1855.7,319 1855.7,127.2 2117.3,278.2 2117.3,470 		"/>
		<polygon id="XMLID_23199_" class="st52" points="1860.6,135.7 2110.8,281.6 2110.8,458.7 1860.6,316.2 		"/>
		<linearGradient id="XMLID_44_" gradientUnits="userSpaceOnUse" x1="1844.9578" y1="199.876" x2="2125.4263" y2="199.876">
			<stop  offset="0.125" style="stop-color:#A2A2A2"/>
			<stop  offset="1" style="stop-color:#EFEFEF"/>
		</linearGradient>
		<polygon id="XMLID_23197_" class="st53" points="1845,121 2125.4,282.9 2125.4,278.2 1845,116.8 		"/>
		<g id="XMLID_23198_">
			<linearGradient id="XMLID_45_" gradientUnits="userSpaceOnUse" x1="1847.9368" y1="201.3399" x2="2126.2107" y2="201.3399">
				<stop  offset="0.125" style="stop-color:#A2A2A2"/>
				<stop  offset="1" style="stop-color:#EFEFEF"/>
			</linearGradient>
			<polygon id="XMLID_23212_" class="st54" points="2124.6,282.2 1970.5,180.7 1847.9,123 1849.1,120.5 1971.9,178.2 2126.2,279.8 
							"/>
		</g>
		<g id="XMLID_23200_">
			<linearGradient id="XMLID_46_" gradientUnits="userSpaceOnUse" x1="1929.4987" y1="491.5882" x2="1971.108" y2="491.5882">
				<stop  offset="0" style="stop-color:#3D0EAE"/>
				<stop  offset="1" style="stop-color:#7756E5"/>
			</linearGradient>
			<polygon id="XMLID_23215_" class="st55" points="1969.2,529.7 1966.4,529.6 1968.1,460 1931.4,492.6 1929.5,490.5 1971.1,453.5 
							"/>
		</g>
		<g id="XMLID_23202_">
			<linearGradient id="XMLID_47_" gradientUnits="userSpaceOnUse" x1="1968.6086" y1="474.1372" x2="2006.1616" y2="474.1372">
				<stop  offset="0" style="stop-color:#3D0EAE"/>
				<stop  offset="1" style="stop-color:#7756E5"/>
			</linearGradient>
			<polygon id="XMLID_23214_" class="st56" points="2004.2,492.6 1968.6,457.7 1970.6,455.7 2006.2,490.5 			"/>
		</g>
	</g>
	<linearGradient id="XMLID_48_" gradientUnits="userSpaceOnUse" x1="1610.0856" y1="616.041" x2="1962.1943" y2="616.041">
		<stop  offset="0.125" style="stop-color:#A2A2A2"/>
		<stop  offset="1" style="stop-color:#EFEFEF"/>
	</linearGradient>
	<path id="XMLID_23130_" class="st57" d="M1873.8,641.9l68.9,20.3c-43.8,50.1-149.5,70-236.1,44.5c-17.3-5.1-30.8-10.8-44.6-18.7
		c-68.9-39.8-69.2-104.2-0.8-144c68.4-39.8,179.7-39.8,248.6,0l0,0c55.1,31.8,68,78.1,33,118.2L1873.8,641.9z"/>
	<linearGradient id="XMLID_49_" gradientUnits="userSpaceOnUse" x1="1732.2676" y1="584.4026" x2="1930.6077" y2="477.1658">
		<stop  offset="0" style="stop-color:#130E3E"/>
		<stop  offset="1" style="stop-color:#543DAB"/>
	</linearGradient>
	<polygon id="XMLID_23115_" class="st58" points="1755.1,535.2 1655.4,593.1 1655.2,666.9 1754.9,609 1854.6,551.1 1854.9,477.2 	
		"/>
	<linearGradient id="XMLID_50_" gradientUnits="userSpaceOnUse" x1="1674.8893" y1="630.0254" x2="1605.6125" y2="580.6775">
		<stop  offset="0" style="stop-color:#130E3E"/>
		<stop  offset="0.53" style="stop-color:#523CA8"/>
		<stop  offset="1" style="stop-color:#7F6EC0"/>
	</linearGradient>
	<path id="XMLID_23114_" class="st59" d="M1626.8,569.5c-2-2.4-3.7-4.9-5.2-7.5c-2.3-3.8-4.1-7.6-5.4-11.5
		c-1.7-5.2-2.6-10.5-2.6-15.8v0v0l-0.2,73.8c-0.1,21.1,13.9,42.2,41.8,58.4l0.2-73.8C1643.2,586.1,1633.7,578.1,1626.8,569.5"/>
	<linearGradient id="XMLID_51_" gradientUnits="userSpaceOnUse" x1="1929.176" y1="589.7567" x2="1945.066" y2="589.7567">
		<stop  offset="0" style="stop-color:#3D0EAE"/>
		<stop  offset="1" style="stop-color:#7756E5"/>
	</linearGradient>
	<path id="XMLID_23112_" class="st60" d="M1929.2,646.2L1929.2,646.2L1929.2,646.2L1929.2,646.2l0-0.2l0,0v0l0,0l0.2-73.5l15.7-39.1
		V607c0.5,13.1-4.6,26.4-15.6,39l0,0l0,0C1929.4,646,1929.3,646.1,1929.2,646.2"/>
	<linearGradient id="XMLID_52_" gradientUnits="userSpaceOnUse" x1="2069.7156" y1="524.8143" x2="1750.1282" y2="524.8143">
		<stop  offset="0" style="stop-color:#3D0EAE"/>
		<stop  offset="0.56" style="stop-color:#7756E5"/>
		<stop  offset="1" style="stop-color:#A0A2FF"/>
	</linearGradient>
	<path id="XMLID_23111_" class="st61" d="M1902.8,477.2c44.3,25.6,54.7,62.9,26.5,95.1l-126.3-37.2L1902.8,477.2z"/>
	<linearGradient id="XMLID_53_" gradientUnits="userSpaceOnUse" x1="1802.9186" y1="590.6912" x2="1929.3879" y2="590.6912">
		<stop  offset="0" style="stop-color:#3D0EAE"/>
		<stop  offset="1" style="stop-color:#7756E5"/>
	</linearGradient>
	<polygon id="XMLID_23110_" class="st62" points="1929.4,572.4 1929.2,646.2 1802.9,609 1803.1,535.2 	"/>
	<linearGradient id="XMLID_54_" gradientUnits="userSpaceOnUse" x1="1892.4907" y1="650.707" x2="1539.4596" y2="650.707">
		<stop  offset="0" style="stop-color:#FF8200"/>
		<stop  offset="1" style="stop-color:#FFC500"/>
	</linearGradient>
	<path id="XMLID_23109_" class="st63" d="M1887.1,595c-0.4,0.4-0.8,0.8-1.2,1.1c-0.8,0.8-1.5,1.5-2.3,2.2c-0.7,0.6-1.5,1.3-2.2,1.9
		c-0.6,0.5-1.2,1.1-1.8,1.6c-0.8,0.6-1.6,1.2-2.4,1.8c-0.6,0.5-1.3,1-1.9,1.5c-0.8,0.6-1.7,1.2-2.6,1.8c-0.7,0.5-1.3,0.9-2,1.4
		c-0.9,0.6-1.9,1.2-2.8,1.8c-0.7,0.4-1.3,0.8-2,1.2c-0.2,0.1-0.5,0.3-0.8,0.4c-1.2,0.7-2.5,1.4-3.7,2.1c-0.5,0.3-0.9,0.5-1.4,0.8
		c-1.2,0.6-2.3,1.2-3.5,1.8c-0.4,0.2-0.8,0.4-1.2,0.6c-1.6,0.8-3.2,1.5-4.8,2.2c-0.3,0.1-0.6,0.2-0.9,0.4c-1.4,0.6-2.7,1.2-4.1,1.7
		c-0.5,0.2-1,0.4-1.6,0.6c-1.3,0.5-2.6,1-3.9,1.5c-0.5,0.2-0.9,0.3-1.4,0.5c-1.7,0.6-3.5,1.2-5.2,1.8c-2.1,0.7-4.2,1.3-6.3,1.9
		l-0.4,0.1c-2,0.6-4,1.1-6.1,1.6c-0.7,0.2-1.5,0.3-2.2,0.5c-1.4,0.3-2.9,0.7-4.4,1c-0.9,0.2-1.8,0.4-2.7,0.5c-1.3,0.3-2.7,0.5-4,0.8
		c-0.7,0.1-1.4,0.3-2.2,0.4c-2.1,0.4-4.2,0.7-6.3,1c-0.8,0.1-1.5,0.2-2.3,0.3c-2.7,0.4-5.5,0.7-8.2,1c-0.3,0-0.5,0-0.8,0.1
		c-2.2,0.2-4.3,0.4-6.5,0.5c-0.8,0.1-1.7,0.1-2.5,0.1c-1.6,0.1-3.2,0.2-4.9,0.2c-1,0-2.1,0.1-3.1,0.1c-1.3,0-2.5,0.1-3.8,0.1
		c-1.1,0-2.2,0-3.2,0c-1.3,0-2.5,0-3.8,0c-1.1,0-2.2-0.1-3.4-0.1c-1.1,0-2.3-0.1-3.4-0.1c-1.1-0.1-2.3-0.1-3.4-0.2
		c-1.1-0.1-2.3-0.1-3.4-0.2c-1.2-0.1-2.3-0.2-3.5-0.3c-1.1-0.1-2.3-0.2-3.4-0.3c-1.1-0.1-2.3-0.3-3.4-0.4c-1.1-0.1-2.3-0.3-3.4-0.4
		c-1.1-0.1-2.2-0.3-3.3-0.5c-1.2-0.2-2.4-0.4-3.6-0.6c-1.1-0.2-2.2-0.4-3.3-0.6c-1.2-0.2-2.4-0.4-3.6-0.7c-1-0.2-2.1-0.4-3.1-0.6
		c-1.4-0.3-2.8-0.6-4.3-1c-1-0.2-2-0.5-2.9-0.7c-1.4-0.4-2.9-0.8-4.3-1.1c-1.2-0.3-2.5-0.7-3.7-1c-1.6-0.5-3.2-1-4.7-1.4
		c-0.5-0.2-0.9-0.3-1.4-0.5c-1-0.3-2.1-0.7-3.1-1c-0.5-0.2-1.1-0.4-1.6-0.6c-1-0.3-1.9-0.7-2.8-1c-0.5-0.2-1-0.4-1.5-0.6
		c-0.6-0.3-1.3-0.5-1.9-0.8c-1.1-0.4-2.1-0.9-3.1-1.3c-0.6-0.3-1.2-0.5-1.8-0.8c-1-0.4-2-0.9-3-1.4c-0.6-0.3-1.2-0.6-1.7-0.8
		c-1.1-0.5-2.1-1.1-3.1-1.6c-0.5-0.3-1-0.5-1.5-0.8c-1.5-0.8-3-1.6-4.6-2.5l-0.2,73.8c1.5,0.9,3,1.7,4.6,2.5c0.5,0.3,1,0.5,1.5,0.8
		c1,0.5,2.1,1.1,3.2,1.6c0.6,0.3,1.2,0.6,1.7,0.8c1,0.5,2,0.9,3,1.4c0.6,0.3,1.2,0.5,1.8,0.8c1,0.4,2.1,0.9,3.1,1.3
		c0.4,0.2,0.8,0.3,1.2,0.5c0.2,0.1,0.5,0.2,0.7,0.3c0.5,0.2,1,0.4,1.5,0.6c0.9,0.4,1.9,0.7,2.8,1c0.5,0.2,1,0.4,1.6,0.6
		c1,0.4,2,0.7,3.1,1c0.5,0.2,0.9,0.3,1.4,0.5c1.5,0.5,3.1,1,4.7,1.4c0.6,0.2,1.1,0.3,1.7,0.5c0.7,0.2,1.3,0.3,2,0.5
		c1.4,0.4,2.9,0.8,4.3,1.1c1,0.2,1.9,0.5,2.9,0.7c1.4,0.3,2.8,0.7,4.3,1c0.5,0.1,1,0.2,1.5,0.3c0.5,0.1,1.1,0.2,1.6,0.3
		c1.2,0.2,2.4,0.5,3.6,0.7c1.1,0.2,2.2,0.4,3.3,0.6c1.2,0.2,2.4,0.4,3.6,0.6c0.6,0.1,1.3,0.2,1.9,0.3c0.5,0.1,1,0.1,1.4,0.2
		c1.1,0.2,2.3,0.3,3.4,0.4c1.1,0.1,2.3,0.3,3.4,0.4c1.1,0.1,2.3,0.2,3.4,0.3c0.7,0.1,1.3,0.1,2,0.2c0.5,0,1,0.1,1.5,0.1
		c1.1,0.1,2.3,0.2,3.4,0.2c1.1,0.1,2.3,0.1,3.4,0.2c1.1,0.1,2.3,0.1,3.4,0.1c0.7,0,1.3,0.1,2,0.1c0.5,0,0.9,0,1.4,0
		c1.3,0,2.5,0,3.8,0c1.1,0,2.2,0,3.2,0c1.3,0,2.5,0,3.8-0.1c0.7,0,1.4,0,2.1,0c0.3,0,0.7,0,1-0.1c1.6-0.1,3.3-0.2,4.9-0.2
		c0.8,0,1.7-0.1,2.5-0.1c2.2-0.2,4.3-0.3,6.5-0.5c0.2,0,0.5,0,0.7-0.1l0.1,0c2.8-0.3,5.5-0.6,8.2-1c0.8-0.1,1.5-0.2,2.3-0.3
		c2.1-0.3,4.2-0.6,6.3-1c0.5-0.1,0.9-0.1,1.4-0.2c0.3,0,0.5-0.1,0.8-0.2c1.4-0.3,2.7-0.5,4-0.8c0.9-0.2,1.8-0.4,2.7-0.5
		c1.5-0.3,2.9-0.7,4.4-1c0.7-0.2,1.5-0.3,2.2-0.5c2.1-0.5,4.1-1.1,6.1-1.6l0.3-0.1c2.1-0.6,4.2-1.2,6.3-1.9l0.2-0.1
		c1.7-0.5,3.3-1.1,5-1.7c0.5-0.2,0.9-0.3,1.4-0.5c1.3-0.5,2.6-1,3.9-1.5c0.5-0.2,1-0.4,1.6-0.6c1.4-0.6,2.8-1.1,4.1-1.7
		c0.3-0.1,0.6-0.2,0.9-0.4c1.6-0.7,3.2-1.5,4.8-2.2c0.4-0.2,0.8-0.4,1.2-0.6c1.2-0.6,2.4-1.2,3.5-1.8c0.5-0.3,0.9-0.5,1.4-0.8
		c1.3-0.7,2.5-1.4,3.7-2.1c0.3-0.1,0.5-0.3,0.8-0.4l0.2-0.1c0.6-0.4,1.2-0.8,1.8-1.1c1-0.6,1.9-1.2,2.8-1.8c0.7-0.4,1.3-0.9,2-1.4
		c0.9-0.6,1.7-1.2,2.6-1.8c0.7-0.5,1.3-1,1.9-1.5c0.8-0.6,1.6-1.2,2.4-1.9c0.6-0.5,1.2-1,1.8-1.6c0.7-0.6,1.5-1.3,2.2-1.9l0.4-0.3
		c0.7-0.6,1.3-1.3,1.9-1.9c0.4-0.4,0.8-0.8,1.2-1.1c1.1-1.2,2.2-2.3,3.3-3.5l0.2-73.8C1889.4,592.6,1888.3,593.8,1887.1,595"/>
	<linearGradient id="XMLID_55_" gradientUnits="userSpaceOnUse" x1="1854.6521" y1="679.0154" x2="1740.7727" y2="565.136">
		<stop  offset="0" style="stop-color:#FF8200"/>
		<stop  offset="1" style="stop-color:#FFC500"/>
	</linearGradient>
	<path id="XMLID_23108_" class="st64" d="M1890.4,591.4c-35.2,40.3-120.3,56.4-190.1,35.8c-13.9-4.1-24.8-8.7-35.9-15.1l99.7-57.9
		L1890.4,591.4z"/>
	<path id="XMLID_23093_" class="st65" d="M1608.4,695c-2.1-2.1-4.6-4-7.7-5.8c-12.5-7.2-30.1-9.6-46-7.3l0,0
		c-8.1,1.2-15.9,3.6-22.2,7.3c-14.4,8.3-17.8,20.6-10.1,30.8v0h0c2.3,3.1,5.7,6,10.1,8.6c18.8,10.9,49.4,10.9,68.3,0
		c4.5-2.6,7.9-5.5,10.2-8.7l0,0C1616.8,711.9,1616,702.6,1608.4,695"/>
	<linearGradient id="XMLID_56_" gradientUnits="userSpaceOnUse" x1="1387.0977" y1="486.6772" x2="1722.7448" y2="486.6772">
		<stop  offset="0.125" style="stop-color:#A2A2A2"/>
		<stop  offset="1" style="stop-color:#EFEFEF"/>
	</linearGradient>
	<polygon id="XMLID_23092_" class="st66" points="1439.8,583.6 1387.1,553.1 1431.7,527.4 1484.4,557.8 1431.7,527.4 1476.4,501.6 
		1476.4,501.6 1503.7,485.8 1556.4,516.2 1503.7,485.8 1548.4,460 1548.4,460 1575.7,444.2 1628.4,474.7 1575.7,444.2 1620.4,418.5 
		1620.4,418.5 1647.7,402.7 1700.4,433.1 1647.7,402.7 1670,389.8 1722.7,420.2 1700.4,433.1 1655.8,458.9 1655.8,458.9 
		1628.4,474.7 1583.8,500.4 1583.8,500.4 1556.4,516.2 1511.8,542 1511.8,542 1484.4,557.8 	"/>
	<g id="XMLID_23205_">
		<linearGradient id="XMLID_57_" gradientUnits="userSpaceOnUse" x1="1760.8174" y1="165.4117" x2="1663.9961" y2="165.4117">
			<stop  offset="0" style="stop-color:#FF8200"/>
			<stop  offset="1" style="stop-color:#FFC500"/>
		</linearGradient>
		<polygon id="XMLID_23091_" class="st67" points="1661.4,191.2 1616.8,165.4 1661.4,139.6 1706.1,165.4 		"/>
		<linearGradient id="XMLID_58_" gradientUnits="userSpaceOnUse" x1="1667.1147" y1="305.8598" x2="1711.7567" y2="305.8598">
			<stop  offset="0" style="stop-color:#FF8200"/>
			<stop  offset="1" style="stop-color:#FFC500"/>
		</linearGradient>
		<polygon id="XMLID_23090_" class="st68" points="1661.4,446.3 1706.1,420.5 1706.1,165.4 1661.4,191.2 		"/>
		<linearGradient id="XMLID_59_" gradientUnits="userSpaceOnUse" x1="1668.2902" y1="305.8598" x2="1605.6201" y2="305.8598">
			<stop  offset="0" style="stop-color:#FF8200"/>
			<stop  offset="1" style="stop-color:#FFC500"/>
		</linearGradient>
		<polygon id="XMLID_23089_" class="st69" points="1661.4,446.3 1616.8,420.5 1616.8,165.4 1661.4,191.2 		"/>
	</g>
	<g id="XMLID_23206_">
		<linearGradient id="XMLID_60_" gradientUnits="userSpaceOnUse" x1="1725.23" y1="234.3566" x2="1605.0454" y2="234.3566">
			<stop  offset="0" style="stop-color:#3D0EAE"/>
			<stop  offset="0.56" style="stop-color:#7756E5"/>
			<stop  offset="1" style="stop-color:#A0A2FF"/>
		</linearGradient>
		<polygon id="XMLID_23088_" class="st70" points="1616.8,260.1 1572.1,234.4 1616.8,208.6 1661.4,234.4 		"/>
		<linearGradient id="XMLID_61_" gradientUnits="userSpaceOnUse" x1="1616.7804" y1="353.2195" x2="1661.4208" y2="353.2195">
			<stop  offset="0" style="stop-color:#3D0EAE"/>
			<stop  offset="1" style="stop-color:#7756E5"/>
		</linearGradient>
		<polygon id="XMLID_23087_" class="st71" points="1616.8,472.1 1661.4,446.3 1661.4,234.4 1616.8,260.1 		"/>
		<linearGradient id="XMLID_62_" gradientUnits="userSpaceOnUse" x1="1685.3719" y1="353.2195" x2="1545.5922" y2="353.2195">
			<stop  offset="0" style="stop-color:#3D0EAE"/>
			<stop  offset="0.56" style="stop-color:#7756E5"/>
			<stop  offset="1" style="stop-color:#A0A2FF"/>
		</linearGradient>
		<polygon id="XMLID_23086_" class="st72" points="1616.8,472.1 1572.1,446.3 1572.1,234.4 1616.8,260.1 		"/>
	</g>
	<g id="XMLID_23207_">
		<linearGradient id="XMLID_63_" gradientUnits="userSpaceOnUse" x1="1643.379" y1="323.4616" x2="1557.8951" y2="323.4616">
			<stop  offset="0" style="stop-color:#3D0EAE"/>
			<stop  offset="0.56" style="stop-color:#7756E5"/>
			<stop  offset="1" style="stop-color:#A0A2FF"/>
		</linearGradient>
		<polygon id="XMLID_23085_" class="st73" points="1572.1,349.2 1527.5,323.5 1572.1,297.7 1616.8,323.5 		"/>
		<linearGradient id="XMLID_64_" gradientUnits="userSpaceOnUse" x1="1572.1385" y1="410.6585" x2="1616.7821" y2="410.6585">
			<stop  offset="0" style="stop-color:#3D0EAE"/>
			<stop  offset="1" style="stop-color:#7756E5"/>
		</linearGradient>
		<polygon id="XMLID_23084_" class="st74" points="1572.1,497.9 1616.8,472.1 1616.8,323.5 1572.1,349.2 		"/>
		<linearGradient id="XMLID_65_" gradientUnits="userSpaceOnUse" x1="1579.0884" y1="415.4699" x2="1509.8116" y2="404.0819">
			<stop  offset="0" style="stop-color:#3D0EAE"/>
			<stop  offset="0.56" style="stop-color:#7756E5"/>
			<stop  offset="1" style="stop-color:#A0A2FF"/>
		</linearGradient>
		<polygon id="XMLID_23083_" class="st75" points="1572.1,497.9 1527.5,472.1 1527.5,323.5 1572.1,349.2 		"/>
	</g>
	<g id="XMLID_23208_">
		<linearGradient id="XMLID_66_" gradientUnits="userSpaceOnUse" x1="1598.6564" y1="311.7464" x2="1510.6958" y2="311.7464">
			<stop  offset="0" style="stop-color:#3D0EAE"/>
			<stop  offset="0.56" style="stop-color:#7756E5"/>
			<stop  offset="1" style="stop-color:#A0A2FF"/>
		</linearGradient>
		<polygon id="XMLID_23082_" class="st76" points="1525.5,337.5 1480.8,311.7 1525.5,286 1570.1,311.7 		"/>
		<linearGradient id="XMLID_67_" gradientUnits="userSpaceOnUse" x1="1524.0872" y1="417.2598" x2="1568.726" y2="417.2598">
			<stop  offset="0" style="stop-color:#7756E5"/>
			<stop  offset="1" style="stop-color:#3D0EAE"/>
		</linearGradient>
		<polygon id="XMLID_23081_" class="st77" points="1524.1,522.8 1568.7,497 1568.7,311.7 1524.1,337.5 		"/>
		<linearGradient id="XMLID_68_" gradientUnits="userSpaceOnUse" x1="1558.0868" y1="417.2598" x2="1437.593" y2="417.2598">
			<stop  offset="0" style="stop-color:#3D0EAE"/>
			<stop  offset="0.56" style="stop-color:#7756E5"/>
			<stop  offset="1" style="stop-color:#A0A2FF"/>
		</linearGradient>
		<polygon id="XMLID_23080_" class="st78" points="1525.5,522.8 1480.8,497 1480.8,311.7 1525.5,337.5 		"/>
	</g>
	<g id="XMLID_23209_">
		<linearGradient id="XMLID_69_" gradientUnits="userSpaceOnUse" x1="1546.5813" y1="444.2227" x2="1476.5365" y2="444.2227">
			<stop  offset="0" style="stop-color:#3D0EAE"/>
			<stop  offset="0.56" style="stop-color:#7756E5"/>
			<stop  offset="1" style="stop-color:#A0A2FF"/>
		</linearGradient>
		<polygon id="XMLID_23079_" class="st79" points="1482.9,470 1438.2,444.2 1482.9,418.5 1527.5,444.2 		"/>
		<linearGradient id="XMLID_70_" gradientUnits="userSpaceOnUse" x1="1489.1329" y1="505.6547" x2="1558.8842" y2="467.2202">
			<stop  offset="0" style="stop-color:#3D0EAE"/>
			<stop  offset="1" style="stop-color:#7756E5"/>
		</linearGradient>
		<polygon id="XMLID_23078_" class="st80" points="1482.9,549.4 1527.5,523.6 1527.5,444.2 1482.9,470 		"/>
		<linearGradient id="XMLID_71_" gradientUnits="userSpaceOnUse" x1="1508.8588" y1="495.6961" x2="1408.7172" y2="495.6961">
			<stop  offset="0" style="stop-color:#3D0EAE"/>
			<stop  offset="0.56" style="stop-color:#7756E5"/>
			<stop  offset="1" style="stop-color:#A0A2FF"/>
		</linearGradient>
		<polygon id="XMLID_23077_" class="st81" points="1482.9,548.3 1438.2,522.5 1438.2,443.1 1482.9,468.9 		"/>
	</g>
	<g id="XMLID_23210_">
		<linearGradient id="XMLID_72_" gradientUnits="userSpaceOnUse" x1="1546.5813" y1="505.7637" x2="1418.4354" y2="505.7637">
			<stop  offset="0" style="stop-color:#3D0EAE"/>
			<stop  offset="0.56" style="stop-color:#7756E5"/>
			<stop  offset="1" style="stop-color:#A0A2FF"/>
		</linearGradient>
		<polygon id="XMLID_23076_" class="st82" points="1438.2,531.5 1393.6,505.8 1438.2,480 1482.9,505.8 		"/>
		<linearGradient id="XMLID_73_" gradientUnits="userSpaceOnUse" x1="1445.3636" y1="549.8309" x2="1521.5208" y2="502.8556">
			<stop  offset="0" style="stop-color:#3D0EAE"/>
			<stop  offset="1" style="stop-color:#7756E5"/>
		</linearGradient>
		<polygon id="XMLID_23075_" class="st83" points="1438.2,575.2 1482.9,549.4 1482.9,505.8 1438.2,531.5 		"/>
		<linearGradient id="XMLID_74_" gradientUnits="userSpaceOnUse" x1="1465.4421" y1="540.4688" x2="1340.5211" y2="540.4688">
			<stop  offset="0" style="stop-color:#3D0EAE"/>
			<stop  offset="0.56" style="stop-color:#7756E5"/>
			<stop  offset="1" style="stop-color:#A0A2FF"/>
		</linearGradient>
		<polygon id="XMLID_23074_" class="st84" points="1438.2,575.2 1393.6,549.4 1393.6,505.8 1438.2,531.5 		"/>
	</g>
	<g id="XMLID_23220_">
		<linearGradient id="XMLID_75_" gradientUnits="userSpaceOnUse" x1="1927.9896" y1="339.1624" x2="1927.9896" y2="267.9308">
			<stop  offset="0" style="stop-color:#3D0EAE"/>
			<stop  offset="1" style="stop-color:#7756E5"/>
		</linearGradient>
		<polyline id="XMLID_23221_" class="st85" points="1938.1,259.2 1918.1,247.7 1917.9,318.2 1937.9,329.7 1938.1,259.2 		"/>
		<linearGradient id="XMLID_76_" gradientUnits="userSpaceOnUse" x1="1954.4855" y1="339.1624" x2="1954.4855" y2="267.931">
			<stop  offset="0" style="stop-color:#3D0EAE"/>
			<stop  offset="1" style="stop-color:#7756E5"/>
		</linearGradient>
		<polyline id="XMLID_23222_" class="st86" points="1964.5,291.7 1944.6,280.2 1944.4,333.5 1964.4,345 1964.5,291.7 		"/>
		<linearGradient id="XMLID_77_" gradientUnits="userSpaceOnUse" x1="1981.0621" y1="339.1624" x2="1981.0621" y2="267.9308">
			<stop  offset="0" style="stop-color:#3D0EAE"/>
			<stop  offset="1" style="stop-color:#7756E5"/>
		</linearGradient>
		<polyline id="XMLID_23223_" class="st87" points="1991.2,267.2 1971.2,255.7 1971,348.8 1990.9,360.3 1991.2,267.2 		"/>
		<linearGradient id="XMLID_78_" gradientUnits="userSpaceOnUse" x1="2007.6248" y1="351.2622" x2="2007.6248" y2="245.7698">
			<stop  offset="0" style="stop-color:#FF8200"/>
			<stop  offset="1" style="stop-color:#FFC500"/>
		</linearGradient>
		<polyline id="XMLID_23224_" class="st88" points="2017.8,252.8 1997.8,241.3 1997.5,364.1 2017.4,375.6 2017.8,252.8 		"/>
	</g>
	<g id="XMLID_23211_">
		<linearGradient id="XMLID_79_" gradientUnits="userSpaceOnUse" x1="1560.259" y1="339.3432" x2="1584.3578" y2="339.3432">
			<stop  offset="0" style="stop-color:#FF8200"/>
			<stop  offset="1" style="stop-color:#FFC500"/>
		</linearGradient>
		<path id="XMLID_23100_" class="st89" d="M1570.3,347.6c-0.2,0.2-0.5,0.3-0.8,0.5c-3.5,1.7-8.3-0.6-9.2-4.3
			c-1.1-4.3,6.5-7.6,9.4-8.9c1.6-0.8,15-6.9,14.6-4.2c-0.1,0.7-0.8,1-1.4,1.3c-1.8,0.9-3.7,1.7-5.5,2.6c-1.2,0.6-2.5,1.2-3.1,2.4
			c-0.4,0.8-0.4,1.7-0.5,2.6C1573.6,342.3,1572.5,345.9,1570.3,347.6z"/>
		<linearGradient id="XMLID_80_" gradientUnits="userSpaceOnUse" x1="1478.8721" y1="351.0815" x2="1565.1644" y2="351.0815">
			<stop  offset="0" style="stop-color:#3D0EAE"/>
			<stop  offset="1" style="stop-color:#7756E5"/>
		</linearGradient>
		<path id="XMLID_23105_" class="st90" d="M1518,347.8c14.8,0.6,29.1-4.8,43-10.1c3.1,3.3,4.6,8,4,12.5c-8.3,2.8-16.5,5.5-24.8,8.3
			c-4.9,1.6-9.8,3.3-14.8,4.2c-5.3,1-10.7,1.2-16.1,1.4c-5.1,0.2-10.3,0.4-15.4,0.2c-8.8-0.5-18-4.9-14.1-15.6
			c0.6-1.5,1.5-3,2.8-3.9c3.3-2.2,12.6,0,16.4,0.4C1505.3,346.1,1511.6,347.5,1518,347.8z"/>
		<linearGradient id="XMLID_81_" gradientUnits="userSpaceOnUse" x1="1499.594" y1="533.0135" x2="1518.7666" y2="533.0135">
			<stop  offset="0" style="stop-color:#130E3E"/>
			<stop  offset="1" style="stop-color:#543DAB"/>
		</linearGradient>
		<path id="XMLID_23107_" class="st91" d="M1500.2,520c1.1,7.2-2.2,16.7,0.3,20.3c3.4,5,8.5,6.7,14.3,6.3c2.5-0.2,4.4-1.9,3.9-5.1
			c-1-8.6-4.5-14.2-5.2-22.2L1500.2,520z"/>
		<linearGradient id="XMLID_82_" gradientUnits="userSpaceOnUse" x1="1524.5231" y1="514.0308" x2="1560.6772" y2="514.0308">
			<stop  offset="0" style="stop-color:#130E3E"/>
			<stop  offset="1" style="stop-color:#543DAB"/>
		</linearGradient>
		<path id="XMLID_23104_" class="st92" d="M1525.5,503.2h11.4l3.8,1.7c7.2,3.5,13.1,8.5,18.7,13.6c3.7,3.3-1.4,6.9-7,6.2
			c-6-0.7-10.3-4.2-15.9-7.2c-4.2-2.3-8.5-2.9-12-5.5L1525.5,503.2z"/>
		<linearGradient id="XMLID_83_" gradientUnits="userSpaceOnUse" x1="1502.8177" y1="473.0099" x2="1514.2057" y2="438.846">
			<stop  offset="0" style="stop-color:#130E3E"/>
			<stop  offset="1" style="stop-color:#543DAB"/>
		</linearGradient>
		<path id="XMLID_23103_" class="st93" d="M1494.4,416.9c0,0,27.3,15.4,43.8,31.9c0,0,6.7,31.6,5.6,55.4c0,0-6,8.6-20.6,5.5
			l-5.5-52.9l-44.3-23.6l-3.9-14.9L1494.4,416.9z"/>
		<linearGradient id="XMLID_84_" gradientUnits="userSpaceOnUse" x1="1483.1194" y1="471.8428" x2="1493.5583" y2="425.8165">
			<stop  offset="0" style="stop-color:#130E3E"/>
			<stop  offset="1" style="stop-color:#543DAB"/>
		</linearGradient>
		<path id="XMLID_23102_" class="st94" d="M1469.6,423.7c0,0,40,28.2,44.3,34.8c-0.6-0.2,2.1,40.7,2.9,59.2c0,0-9.6,7.4-19.9,1.9
			c0.9,0-5.2-46.6-6.6-51.3c0,0-30.6-13-35.5-18.3c-4.9-5.3-7.6-19.3-5.3-23.9L1469.6,423.7z"/>
		<path id="XMLID_23096_" class="st95" d="M1546.4,373.7l-3-1.5l-22.8,13.5c-4.5,2.7-8.2,6.6-10.6,11.2l-13.6,26.1l3,1.5
			L1546.4,373.7z"/>
		<linearGradient id="XMLID_85_" gradientUnits="userSpaceOnUse" x1="1476.049" y1="393.2424" x2="1447.5791" y2="360.1462">
			<stop  offset="0" style="stop-color:#3D0EAE"/>
			<stop  offset="1" style="stop-color:#7756E5"/>
		</linearGradient>
		<path id="XMLID_23101_" class="st96" d="M1461.1,348.1c-3.9,2-7.5,4.3-10.4,7.6c-4.3,5-6.2,11.6-6.5,18.2
			c-0.6,10.8,1.6,22.7,2.8,33.4c0.2,1.9,1.4,18.6,2.6,18.8c0,0,25.8,4.9,45.7-9.3c-1.5-13,0.1-26.1,0.4-39.1
			c0.3-9.1,2-24.4-5.2-31.4c-3.5-3.4-8.6-5-13.5-4.4c-3.2,0.4-6.2,1.7-9.2,3C1465.5,346,1463.3,347,1461.1,348.1z"/>
		<linearGradient id="XMLID_86_" gradientUnits="userSpaceOnUse" x1="1466.033" y1="366.4583" x2="1481.6676" y2="366.4583">
			<stop  offset="0.125" style="stop-color:#A2A2A2"/>
			<stop  offset="1" style="stop-color:#EFEFEF"/>
		</linearGradient>
		<path id="XMLID_23219_" class="st97" d="M1481.6,358.8c-0.1-0.8-0.2-1.7-0.4-2.5c-4.4,2.2-10.2,2.7-15.2,1.1
			c1.9,2.8,4.7,5.6,6.5,8.1c2.8,3.8,5.6,7.5,8.4,11.2C1478.4,373.3,1482,363,1481.6,358.8z"/>
		<linearGradient id="XMLID_87_" gradientUnits="userSpaceOnUse" x1="1463.7683" y1="348.8154" x2="1481.282" y2="348.8154">
			<stop  offset="0" style="stop-color:#FF8200"/>
			<stop  offset="1" style="stop-color:#FFC500"/>
		</linearGradient>
		<path id="XMLID_23226_" class="st98" d="M1480.3,343l-14.4-3.7c-0.3,4.7-3.3,10.5-1.5,15c0.4,1,1,2,1.7,3c5,1.6,10.9,1.1,15.2-1.1
			C1480.5,351.9,1479.3,347.5,1480.3,343z"/>
		
			<linearGradient id="XMLID_88_" gradientUnits="userSpaceOnUse" x1="1456.0472" y1="348.6474" x2="1488.3719" y2="348.6474" gradientTransform="matrix(0.9921 -0.1251 0.1251 0.9921 -33.2816 166.6027)">
			<stop  offset="0" style="stop-color:#FF8200"/>
			<stop  offset="1" style="stop-color:#FFC500"/>
		</linearGradient>
		<path id="XMLID_23099_" class="st99" d="M1460.1,338.9c1.7,3.6,5.8,5.7,8.7,8.1c1.5,1.2,3,2.4,4.8,2.8c1.9,0.5,3.9,0.2,5.8-0.2
			c1.1-0.2,2.3-0.4,3.3-1.1c1.5-1.1,2.1-3.1,2.5-4.9c0.9-4,2.9-11.1,1.6-15.1c-0.3-1-0.9-1.8-1.2-2.8c-0.3-1.2-0.1-2.5,0.1-3.7
			c2.5-17.1-17-21.6-26.7-9.6C1452.4,320.7,1452.2,325.8,1460.1,338.9"/>
		<linearGradient id="XMLID_89_" gradientUnits="userSpaceOnUse" x1="1451.0823" y1="321.9848" x2="1486.4972" y2="321.9848">
			<stop  offset="0" style="stop-color:#130E3E"/>
			<stop  offset="1" style="stop-color:#543DAB"/>
		</linearGradient>
		<path id="XMLID_23098_" class="st100" d="M1459.2,334.1c-0.5-2.5-1.5-6.9,1.8-5.6c0,0,1.3,0.7,1.3,0.7c3,1.6,3.5-9.9,3.5-11.5
			c0-0.6,0-1.4,0.5-1.8c0.5-0.4,1.1-0.3,1.7-0.2c5.4,1,11,1.2,16.6,0.7c0.6-0.1,1.2-0.2,1.6-0.6c0.3-0.4,0.4-0.9,0.4-1.3
			c0-2.9-1.5-5.7-3.7-7.6c-2.2-1.9-5-3-7.9-3.5c-5.4-1-15.8-0.1-15.8,7.5c-4.1,1.1-7.3,4.7-8,8.9c-0.3,2.2,0,4.5,0.4,6.7
			c0.6,3.2,1.5,6.5,3.3,9.3c0.8,1.2,6.1,6.9,7.9,4.8C1464.2,339,1459.5,335.7,1459.2,334.1z"/>
		<path id="XMLID_23097_" class="st101" d="M1546.4,373.7l-25.6,15.2c-2.7,1.6-4.8,3.9-6.3,6.6l-15.1,29l27.3-15.6
			c3.7-2.1,6.7-5.4,8.4-9.3L1546.4,373.7z"/>
		<linearGradient id="XMLID_90_" gradientUnits="userSpaceOnUse" x1="1497.7781" y1="396.9622" x2="1441.1942" y2="388.0653">
			<stop  offset="0" style="stop-color:#3D0EAE"/>
			<stop  offset="1" style="stop-color:#7756E5"/>
		</linearGradient>
		<path id="XMLID_23094_" class="st102" d="M1450.5,360.1c9.6,0.4,10,23.2,10.4,29.3c0.3,5.4-0.2,10.9,0.7,16.2
			c11.2,3,22,4.1,33.5,4.8c0.4,0,0.9,0.1,1.2,0.3c0.3,0.2,0.4,0.6,0.5,1c0.7,3.2,0.7,6.6-0.3,9.8c-12.7,0.7-25.4,0-38-1.4
			c-8.2-0.9-9.3-4.1-11.6-11.2c-1.3-4.2-2.3-8.4-3-12.8c-1.5-9.2-2-17.5-1.1-26.8C1443.1,365.1,1445.9,360.9,1450.5,360.1"/>
	</g>
	<g id="XMLID_23203_">
		<linearGradient id="XMLID_91_" gradientUnits="userSpaceOnUse" x1="1699.9854" y1="261.9631" x2="1707.3624" y2="261.9631">
			<stop  offset="0" style="stop-color:#130E3E"/>
			<stop  offset="1" style="stop-color:#543DAB"/>
		</linearGradient>
		<path id="XMLID_23216_" class="st103" d="M1707.3,255.7c-1.1-3.3-7.5,1.5-7.3,4.4c0.2,3.6,1.1,7.7,4.3,9.3c1-4.3,2-8.7,3-13
			C1707.3,256.2,1707.4,255.9,1707.3,255.7z"/>
		<linearGradient id="XMLID_92_" gradientUnits="userSpaceOnUse" x1="1788.7611" y1="339.5132" x2="1820.1918" y2="339.5132">
			<stop  offset="0" style="stop-color:#FF8200"/>
			<stop  offset="1" style="stop-color:#FFC500"/>
		</linearGradient>
		<path id="XMLID_23117_" class="st104" d="M1791.9,336.6c2.5,0.1,4.9-0.2,7.3-0.9c2.8-0.8,5.8-2.2,8.6-1.3
			c-0.5,1.6-2.2,2.7-3.8,2.5c1.3-0.1,16.9,2,16.3,2.8c-3.1,3.8-8.9,5.1-13.7,5.3c-5.3,0.2-10.6-0.9-15.8-2c-0.8-0.2-1.8-0.8-1.4-1.5
			c-1.2-0.6,0-0.7,0.1-2c0.1-1.3,1.1-2.6,2.4-3"/>
		<linearGradient id="XMLID_93_" gradientUnits="userSpaceOnUse" x1="1633.8389" y1="331.9974" x2="1659.2035" y2="331.9974">
			<stop  offset="0" style="stop-color:#FF8200"/>
			<stop  offset="1" style="stop-color:#FFC500"/>
		</linearGradient>
		<path id="XMLID_23129_" class="st105" d="M1658.6,328.9c0.2,2.8,0.3,5.5,0.6,8.3c-4.5,1.7-10,3-14.6,1.2c-3.8-1.5-6.9-4.5-9.7-7.4
			c-0.8-0.8-1.5-2.3-0.6-2.9c0.3-0.2,0.8-0.2,1.2-0.2c3.8,0.2,10.3,1.7,13.5,0.3c-0.9-1.2-2.4-1.4-3.7-2.2c-0.3-0.2-0.9-0.8-0.2-1
			c1.9-0.5,4.1,0.3,5.9,0.9c1.3,0.4,2.5,0.9,3.7,1.4c0.6,0.3,1.3,0.6,1.9,1c0.4,0.2,1,0.8,1.4,0.8
			C1658.6,328.9,1658.1,329,1658.6,328.9z"/>
		<linearGradient id="XMLID_94_" gradientUnits="userSpaceOnUse" x1="1656.2006" y1="309.7889" x2="1706.828" y2="309.7889">
			<stop  offset="0" style="stop-color:#3D0EAE"/>
			<stop  offset="1" style="stop-color:#7756E5"/>
		</linearGradient>
		<path id="XMLID_23128_" class="st106" d="M1701.5,281.7c-8.7-1.3-15.5,27.6-16.9,40.2c-9.8,1.6-19.3,3.5-28.4,5.8
			c2.7,2.7,3.1,6.2,1.6,10.2c11.2-1.3,22.3-3,33.3-5c7.7-10.2,12.7-22.8,15.6-41.2C1707.2,288.1,1704.4,282.8,1701.5,281.7"/>
		<linearGradient id="XMLID_95_" gradientUnits="userSpaceOnUse" x1="1724.1002" y1="505.201" x2="1741.0986" y2="505.201">
			<stop  offset="0" style="stop-color:#130E3E"/>
			<stop  offset="1" style="stop-color:#543DAB"/>
		</linearGradient>
		<path id="XMLID_23127_" class="st107" d="M1740.5,493.7c-1,6.4,1.9,14.8-0.3,18c-3,4.4-7.6,5.9-12.6,5.6c-2.2-0.2-3.9-1.7-3.4-4.6
			c0.9-7.6,4-12.6,4.6-19.7L1740.5,493.7z"/>
		<linearGradient id="XMLID_96_" gradientUnits="userSpaceOnUse" x1="1686.9426" y1="489.5269" x2="1718.9967" y2="489.5269">
			<stop  offset="0" style="stop-color:#130E3E"/>
			<stop  offset="1" style="stop-color:#543DAB"/>
		</linearGradient>
		<path id="XMLID_23126_" class="st108" d="M1718.1,480H1708l-3.4,1.5c-6.4,3.1-11.6,7.5-16.6,12c-3.2,2.9,1.2,6.1,6.2,5.5
			c5.3-0.6,9.1-3.7,14.1-6.4c3.7-2,7.5-2.5,10.6-4.9L1718.1,480z"/>
		<linearGradient id="XMLID_97_" gradientUnits="userSpaceOnUse" x1="1693.2231" y1="422.8235" x2="1719.4131" y2="422.8235">
			<stop  offset="0" style="stop-color:#130E3E"/>
			<stop  offset="1" style="stop-color:#543DAB"/>
		</linearGradient>
		<path id="XMLID_23125_" class="st109" d="M1718.4,373.6c-8-3.3-16.8-5.8-24.5-9.6c-0.3,9.6-1.5,19.4,0.2,28.8
			c1.8,9.7,3.6,19.4,5.3,29.1c3.3,19.1,3.7,38.5,4.3,58c5,2.3,10.2,2.1,15.4,0c-0.4-18.6,1.4-36.9-1.6-55.3
			C1714.8,407.5,1719,390.4,1718.4,373.6"/>
		<linearGradient id="XMLID_98_" gradientUnits="userSpaceOnUse" x1="1711.8793" y1="435.9268" x2="1742.4076" y2="435.9268">
			<stop  offset="0" style="stop-color:#130E3E"/>
			<stop  offset="1" style="stop-color:#543DAB"/>
		</linearGradient>
		<path id="XMLID_23124_" class="st110" d="M1741.4,388.1l-26-10.7l-3.5-1.6c2.8,20.1,7,40.4,10.6,60.6c3.3,19.1,3.7,38.5,4.3,58
			c5,2.3,10.2,2.1,15.4,0c-0.4-18.6,1.4-36.9-1.6-55.3C1737.8,421.9,1742,404.8,1741.4,388.1"/>
		<linearGradient id="XMLID_99_" gradientUnits="userSpaceOnUse" x1="1711.3601" y1="382.9314" x2="1711.3601" y2="334.7567">
			<stop  offset="0.125" style="stop-color:#A2A2A2"/>
			<stop  offset="1" style="stop-color:#EFEFEF"/>
		</linearGradient>
		<path id="XMLID_23123_" class="st111" d="M1728.5,291.9c-0.5-0.1-17.1-5.8-17.1-5.8l-7.9,0.9c0,0-5.3,11.6-5.3,12.4
			s-3.9,22.4-3.9,22.4l4.3,48.1l16.8,7.5l8-3.1l-1.2-42.3L1728.5,291.9z"/>
		<linearGradient id="XMLID_100_" gradientUnits="userSpaceOnUse" x1="1690.3336" y1="330.5522" x2="1726.662" y2="330.5522">
			<stop  offset="0" style="stop-color:#3D0EAE"/>
			<stop  offset="1" style="stop-color:#7756E5"/>
		</linearGradient>
		<path id="XMLID_23122_" class="st112" d="M1726.7,286.8l-22-4.7c-12.1-2.3-14.9,16.3-13.9,25.8c2.3,22.4-0.2,50.6-0.4,70.2
			c3.1,1.5,5.7,1.6,7.5-0.4c3.3-28.7-2.5-56.6,9.9-89.3C1719,297.8,1713.7,288.5,1726.7,286.8"/>
		<linearGradient id="XMLID_101_" gradientUnits="userSpaceOnUse" x1="1707.0126" y1="288.1" x2="1726.6927" y2="288.1">
			<stop  offset="0" style="stop-color:#FF8200"/>
			<stop  offset="1" style="stop-color:#FFC500"/>
		</linearGradient>
		<path id="XMLID_23121_" class="st113" d="M1724.4,277.1c0,0,0.5,5.9,2.3,9.8c0.9,10.2-17.2,17.7-19.6,7.4c0,0,1.7-10.2,0.8-13.6
			L1724.4,277.1z"/>
		<linearGradient id="XMLID_102_" gradientUnits="userSpaceOnUse" x1="1701.0858" y1="265.9165" x2="1730.3632" y2="265.9165">
			<stop  offset="0" style="stop-color:#FF8200"/>
			<stop  offset="1" style="stop-color:#FFC500"/>
		</linearGradient>
		<path id="XMLID_23120_" class="st114" d="M1726.9,273.2c-1.7,5.1-6.2,8.4-10.4,11.3c-0.4,0.3-0.8,0.5-1.3,0.7
			c-0.4,0.1-0.9,0.1-1.4,0c-1.9-0.2-3.8-0.4-5.7-0.6c-1-0.1-2.1-0.3-2.8-0.9c-0.5-0.5-0.8-1.2-1-1.8c-1-2.7-2-5.4-2.2-8.3
			c-0.1-1.4,0-2.7-0.1-4.1c-0.2-1.6-0.7-3.2-0.9-4.8c-0.3-2.8,1.3-7.6,2.4-10.3c3.2-7.8,13.2-11.1,21.6-3
			C1731.4,257.4,1732.1,261.6,1726.9,273.2"/>
		<linearGradient id="XMLID_103_" gradientUnits="userSpaceOnUse" x1="1698.9543" y1="259.3004" x2="1733.7802" y2="259.3004">
			<stop  offset="0" style="stop-color:#130E3E"/>
			<stop  offset="1" style="stop-color:#543DAB"/>
		</linearGradient>
		<path id="XMLID_23119_" class="st115" d="M1725.9,275.5c0,0-1.1,0.4-1.6-0.8c-0.5-1.2,2.8-3.6,2.9-5.7c0.1-2.1,0.5-5.8-2.1-4.5
			l-1,0.7c-0.9,0.6-2-0.2-1.7-1.3c0.4-1.5,0.7-3.2,0.2-4.4c-0.9-2.2-9.8,0.4-11.5,0.5c-5.2,0.3-15.2-2-11.3-9.5
			c2.5-4.9,7.6-7.8,12.9-7.5c2,0.1,4,0.3,6,0.5c2.5,0.3,5.1,0.7,7.3,2c2.2,1.3,3.8,3.9,3.4,6.4c1.4-0.3,2.9,0.8,3.5,2.1
			C1735.4,259.7,1732.3,273.1,1725.9,275.5z"/>
		<linearGradient id="XMLID_104_" gradientUnits="userSpaceOnUse" x1="1712.9625" y1="340.1892" x2="1744.843" y2="340.1892">
			<stop  offset="0" style="stop-color:#3D0EAE"/>
			<stop  offset="1" style="stop-color:#7756E5"/>
		</linearGradient>
		<path id="XMLID_23118_" class="st116" d="M1726.7,286.8l14.5,8.9l-5.3,57.2c-1.5,16.5,8.3,18.1,9,33c-9.7,6.3-19.3,11.2-28.2,4.4
			c-3.3-33.6-4.6-52.5-2.9-61.8C1716.4,313.3,1722.3,300.7,1726.7,286.8"/>
		<linearGradient id="XMLID_105_" gradientUnits="userSpaceOnUse" x1="1731.7285" y1="320.599" x2="1794.447" y2="320.599">
			<stop  offset="0" style="stop-color:#3D0EAE"/>
			<stop  offset="1" style="stop-color:#7756E5"/>
		</linearGradient>
		<path id="XMLID_23116_" class="st117" d="M1738.4,295.8c4.4,0.1,7.5,3.7,10.2,7.3c3.6,4.7,6.8,9.7,9.5,14.9c1.6,3,3.1,6.2,5.7,8.4
			c3.1,2.6,7.3,3.4,11.2,4.1c6.5,1.2,12.9,2.3,19.4,3.5c-0.4,3.8-1.2,7.6-2.3,11.3c-11.5-1.9-23.9,0.2-34.3-5
			c-7.2-3.6-12.3-10.1-17.2-16.4c-2.4-3.1-5.7-4.8-7.2-8.3c-1.9-4.4-2.1-9.7-1.2-14.4c0.4-2.1,1.4-4.4,3.4-5
			C1736.6,295.9,1737.5,295.8,1738.4,295.8z"/>
	</g>
	<linearGradient id="XMLID_106_" gradientUnits="userSpaceOnUse" x1="1881.1843" y1="575.1944" x2="1645.8326" y2="497.3765">
		<stop  offset="0" style="stop-color:#130E3E"/>
		<stop  offset="0.53" style="stop-color:#523CA8"/>
		<stop  offset="1" style="stop-color:#7F6EC0"/>
	</linearGradient>
	<path id="XMLID_23113_" class="st118" d="M1854.9,477.2l-99.7,57.9l-99.7,57.9c-55.4-32-55.7-83.9-0.7-115.9
		C1709.9,445.2,1799.4,445.2,1854.9,477.2"/>
	<linearGradient id="XMLID_107_" gradientUnits="userSpaceOnUse" x1="1495.3099" y1="412.0181" x2="1518.2423" y2="412.0181">
		<stop  offset="0" style="stop-color:#FF8200"/>
		<stop  offset="1" style="stop-color:#FFC500"/>
	</linearGradient>
	<path id="XMLID_23095_" class="st119" d="M1504.3,406.8c-0.6,1.7-1.5,3.3-2.5,4.8c5.1-0.5,7.9-5.2,12.8-6.7
		c0.3,0.4,0.4,0.9,0.3,1.4c1.1-0.1,2.2,0,3.3,0.3c-1.7,3.4-4.1,6.5-7,9c-1,0.8-2.1,1.6-3.3,2.1c-3,1-11.4,2.8-12.5-1.1
		C1493.9,410.8,1502.9,410.3,1504.3,406.8z"/>
	<g id="XMLID_23225_">
		<linearGradient id="XMLID_108_" gradientUnits="userSpaceOnUse" x1="1595.9381" y1="536.7571" x2="1599.7341" y2="511.3714">
			<stop  offset="0" style="stop-color:#FF8200"/>
			<stop  offset="1" style="stop-color:#FFC500"/>
		</linearGradient>
		<path id="XMLID_23060_" class="st120" d="M1600.3,536.3c-4.1,0.6-7.3,4.6-11.3,6c1.6-2.4,3.2-4.7,4.8-7.1c-1.8-0.4-3.5,1-4.7,2.4
			c-1.8,2.1-3.1,4.6-3.9,7.3c-0.3,0.9-0.5,1.8-0.2,2.7c0.8,2.7,4.9,3.9,7.3,4.3c5.7,1,12.5-5.9,12.8-12.2
			C1605.4,533.3,1604.3,535.7,1600.3,536.3z"/>
		<linearGradient id="XMLID_109_" gradientUnits="userSpaceOnUse" x1="1540.125" y1="696.8702" x2="1564.8694" y2="696.8702">
			<stop  offset="0" style="stop-color:#130E3E"/>
			<stop  offset="1" style="stop-color:#543DAB"/>
		</linearGradient>
		<path id="XMLID_23066_" class="st121" d="M1540.2,703.2l14-15.6c5.6-1.6,11.4-1.9,10.7,3.2c-0.7,4.6-7.9,6.6-12.9,11l-4.6,4.1
			C1544,708.8,1539.7,706.3,1540.2,703.2"/>
		<g id="XMLID_23218_">
			<linearGradient id="XMLID_110_" gradientUnits="userSpaceOnUse" x1="1569.5162" y1="719.7155" x2="1606.9612" y2="719.7155">
				<stop  offset="0" style="stop-color:#3D0EAE"/>
				<stop  offset="1" style="stop-color:#7756E5"/>
			</linearGradient>
			<path id="XMLID_23071_" class="st122" d="M1606.4,712.7c1.7,5.5-0.7,6.8-2.6,8.4c-1.3,1.1-2.9,2.2-4.7,2.7c-5,1.3-10.4,1.3-16,1
				c-1.4-0.1-1.9,1.6-3.3,1.8c-3.3,0.3-7.4,0.4-10.4-1.1v-2.4c3.1,1.4,7.1,1.4,10.4,1.1c7.7-0.7,18.1,0.2,23.9-4.8
				C1605.1,718.3,1606,714.2,1606.4,712.7"/>
			<g id="XMLID_23106_">
				<linearGradient id="XMLID_111_" gradientUnits="userSpaceOnUse" x1="1595.9272" y1="558.8479" x2="1602.8075" y2="540.1052">
					<stop  offset="0" style="stop-color:#FF8200"/>
					<stop  offset="1" style="stop-color:#FFC500"/>
				</linearGradient>
				<path id="XMLID_23073_" class="st123" d="M1598.7,557.8c2.8-1.7,6.6-5.6,7.8-8.6c1.1-2.7,2.1-5.4,2.3-8.2
					c0.1-2.5-0.5-5.1-1.8-7.3c-0.1-0.2-0.2-0.4-0.4-0.5c-0.6-0.4-1.4,0.3-1.8,1c-2.3,3.7-4.4,7.8-7.3,11c0.2-1.2,0.7-2.7,1.2-3.9
					c0.9-1.9-0.7-1.8-0.7-1.8c-1.1,0.7-4.2,5.8-4.7,7.7c-0.4,1.9-1.6,6.7-1.6,6.7l0.6,0.5c-0.5,0.7-0.8,1.1-0.8,1.1
					C1591.5,555.4,1596.7,559,1598.7,557.8z"/>
				<linearGradient id="XMLID_112_" gradientUnits="userSpaceOnUse" x1="1529.899" y1="526.6531" x2="1540.239" y2="526.6531">
					<stop  offset="0" style="stop-color:#3D0EAE"/>
					<stop  offset="1" style="stop-color:#7756E5"/>
				</linearGradient>
				<path id="XMLID_23072_" class="st124" d="M1540.2,512.7c0,0-20,7.3-4.4,27.8L1540.2,512.7z"/>
				<linearGradient id="XMLID_113_" gradientUnits="userSpaceOnUse" x1="1552.8839" y1="501.6604" x2="1567.8306" y2="488.1372">
					<stop  offset="0" style="stop-color:#FF8200"/>
					<stop  offset="1" style="stop-color:#FFC500"/>
				</linearGradient>
				<path id="XMLID_23070_" class="st125" d="M1552.8,472.4c4.3-0.7,10.1-0.8,14.3,0.4c7,2.1,10.8,6.5,12.5,13.1
					c1.7,6.7,2.2,17.8-1.6,24c-2.4,3.9-7.7,3.1-11.5,2.1c-4.6-1.2-10.6-3.2-14.4-6c-5.2-4-8-12.6-8.3-18.9
					C1543.5,481.6,1546.3,473.4,1552.8,472.4"/>
				<linearGradient id="XMLID_114_" gradientUnits="userSpaceOnUse" x1="1549.0328" y1="510.8221" x2="1568.7902" y2="510.8221">
					<stop  offset="0" style="stop-color:#FF8200"/>
					<stop  offset="1" style="stop-color:#FFC500"/>
				</linearGradient>
				<path id="XMLID_23069_" class="st126" d="M1552.7,504.5c0.6,0.6,1.2,1.2,1.8,1.6c3.8,2.8,7.3,4.6,11.9,5.8
					c0.7,0.2,1.5,0.4,2.3,0.5l-0.4,4.2c-4.9,1.3-9.6-0.7-13-1.7c-2.5-0.7-6.4-1.3-6.4-4L1552.7,504.5L1552.7,504.5z"/>
				<linearGradient id="XMLID_115_" gradientUnits="userSpaceOnUse" x1="1543.7426" y1="489.9587" x2="1583.2422" y2="489.9587">
					<stop  offset="0" style="stop-color:#130E3E"/>
					<stop  offset="1" style="stop-color:#543DAB"/>
				</linearGradient>
				<path id="XMLID_23068_" class="st127" d="M1582.8,472.3c0,0-5.5,2.5-13.9-1c-4.3-1.8-16.1-1.3-19.4,2.4c-4.2,2.8-6,9-5.8,13.4
					c0.3,6.3,3.1,14.9,8.3,18.9c2.9,2.2,3,2.4,6.9,3.6c1.1-0.5,6.8-4.9,6.8-4.9c-2.2-1.3-3.9-8.6-1.6-9.8c2.3-1.3,3.9,3.3,3.9,3.3
					c1.3-0.5,3.4-2.1,2.3-4.7c-1.1-2.7,0-5.5,0-5.5c4.1,0.1,7.6-2.3,8.9-3C1579.2,484.8,1584.8,481,1582.8,472.3"/>
				<linearGradient id="XMLID_116_" gradientUnits="userSpaceOnUse" x1="1569.4244" y1="716.6942" x2="1606.6422" y2="716.6942">
					<stop  offset="0" style="stop-color:#130E3E"/>
					<stop  offset="1" style="stop-color:#543DAB"/>
				</linearGradient>
				<path id="XMLID_23067_" class="st128" d="M1582.4,709c0,0,2.3,3.9,5.7,1.7c1.1-0.7,12.5-1,14.6-0.5c1,0.2,3.1,0.9,3.5,2
					c1.2,2.9-0.3,5.4-2.4,7.2c-5.8,5-16.2,4.1-23.9,4.8c-3.3,0.3-7.4,0.4-10.4-1.1c0,0-0.5-11.8,0.9-13.4L1582.4,709z"/>
				<linearGradient id="XMLID_117_" gradientUnits="userSpaceOnUse" x1="1540.0292" y1="699.8655" x2="1564.869" y2="699.8655">
					<stop  offset="0" style="stop-color:#3D0EAE"/>
					<stop  offset="1" style="stop-color:#7756E5"/>
				</linearGradient>
				<path id="XMLID_23065_" class="st129" d="M1547.3,705.9l4.6-4.1c5-4.4,12.3-6.4,12.9-11l0,0l0,0l0,0l0,0l0,0l0,0l0,0l0,0v0v0
					l0,0l0,0v0l0,0v0l0,0v0l0,0l0,0l0,0l0,0l0,0l0,0l0,0l0,0l0,0l0,0l0,0l0,0c0.1,0.4,0.1,1,0,1.5c-0.7,4.6-7.9,6.6-12.9,11
					l-4.6,4.1c-3.9,3.5-8,1-7.1-4.1C1539.7,706.3,1544,708.8,1547.3,705.9"/>
				<linearGradient id="XMLID_118_" gradientUnits="userSpaceOnUse" x1="1537.4928" y1="644.4758" x2="1564.7054" y2="644.4758">
					<stop  offset="0" style="stop-color:#130E3E"/>
					<stop  offset="1" style="stop-color:#543DAB"/>
				</linearGradient>
				<path id="XMLID_23064_" class="st130" d="M1543.3,585.2c-4.8,6.8,3.4,38.8-1.9,60.1c-3.9,15.6-5.1,35.9-2.7,57.6
					c1.3,2.4,14,1,18.3-11.9c-1.7-23.8,4.4-35.2,6.6-52.8l1.1-50.5L1543.3,585.2z"/>
				<linearGradient id="XMLID_119_" gradientUnits="userSpaceOnUse" x1="1555.5942" y1="656.4466" x2="1591.9946" y2="656.4466">
					<stop  offset="0" style="stop-color:#130E3E"/>
					<stop  offset="1" style="stop-color:#543DAB"/>
				</linearGradient>
				<path id="XMLID_23063_" class="st131" d="M1555.7,594.3c-1.3,21.2,17,51.5,12.3,67c-5.1,16.9,0.1,38.2,0.1,57.3
					c0,0,14.3,1.4,22-7.1c-9.1-37.7,8.6-74.6-1-116.2L1555.7,594.3z"/>
				<linearGradient id="XMLID_120_" gradientUnits="userSpaceOnUse" x1="1532.6219" y1="554.795" x2="1589.0452" y2="554.795">
					<stop  offset="0" style="stop-color:#FF8200"/>
					<stop  offset="1" style="stop-color:#FFC500"/>
				</linearGradient>
				<path id="XMLID_23228_" class="st132" d="M1584.3,571c0.6-21.1-3.4-41.9-3.4-41.9c-1.9-2.7-4.2-5.1-6.9-7l-5.2-6.3
					c-6.6-1.6-13-3.6-19.3-5.9l-6.3,2.7l0,0h0l-3.1,0.1c-2.8,0.2-10.1,13.1-6.7,22.9c-0.1,0.4,11,21.2,11.9,29.5
					c0.1,0.8,1.5,11.5-2.9,19.6c0,0,0.4,2.1,2,3.4c11.3,14,40.9,12.7,41.3,9.3c2.8-0.3,3.2-3.4,3.3-5.9
					C1589.1,588.4,1584.3,571,1584.3,571z"/>
				<linearGradient id="XMLID_121_" gradientUnits="userSpaceOnUse" x1="1569.2087" y1="558.1766" x2="1599.3713" y2="558.1766">
					<stop  offset="0" style="stop-color:#3D0EAE"/>
					<stop  offset="1" style="stop-color:#7756E5"/>
				</linearGradient>
				<path id="XMLID_23061_" class="st133" d="M1592.4,552.9l-5.8,11.1c0,0,1.5-15.6,1.5-20.6c0-2.9-2.3-7.1-4.3-10.3
					c-1.7-2.7-5.2-3.6-7.9-2c-7.8,4.5-6.6,12-6.6,12l3.7,35.5c0.4,4.9,5.5,8.9,9.9,6.7c8.8-4.4,10.7-17.4,16.5-27.9
					C1598.7,552.4,1593.4,552.5,1592.4,552.9"/>
			</g>
		</g>
	</g>
	<linearGradient id="XMLID_122_" gradientUnits="userSpaceOnUse" x1="1642.6672" y1="550.448" x2="1691.0691" y2="550.448">
		<stop  offset="0.125" style="stop-color:#A2A2A2"/>
		<stop  offset="1" style="stop-color:#EFEFEF"/>
	</linearGradient>
	<polygon id="XMLID_23227_" class="st134" points="1642.7,550.2 1665.5,565.2 1691.1,547.6 1673,535.7 	"/>
	<polygon id="XMLID_23062_" class="st52" points="1640.1,550.7 1660.3,558.6 1682.9,537.4 1663.2,528.4 	"/>
</g>
</svg>
