<?xml version="1.0" encoding="utf-8"?>
<!-- Generator: Adobe Illustrator 23.0.1, SVG Export Plug-In . SVG Version: 6.00 Build 0)  -->
<svg version="1.1" id="Layer_1" xmlns="http://www.w3.org/2000/svg" xmlns:xlink="http://www.w3.org/1999/xlink" x="0px" y="0px"
	 viewBox="0 0 2560 1500" style="enable-background:new 0 0 2560 1500;" xml:space="preserve">
<style type="text/css">
	.st0{fill:#0A3F8E;}
	.st1{fill-rule:evenodd;clip-rule:evenodd;fill:url(#XMLID_2_);}
	.st2{fill-rule:evenodd;clip-rule:evenodd;fill:#414021;}
	.st3{fill-rule:evenodd;clip-rule:evenodd;fill:url(#XMLID_3_);}
	.st4{fill-rule:evenodd;clip-rule:evenodd;fill:#F7F6F4;}
	.st5{fill-rule:evenodd;clip-rule:evenodd;fill:#DBDCDC;}
	.st6{fill-rule:evenodd;clip-rule:evenodd;fill:#C8C8C9;}
	.st7{fill-rule:evenodd;clip-rule:evenodd;fill:#B4B5B5;}
	.st8{fill-rule:evenodd;clip-rule:evenodd;fill:url(#XMLID_4_);}
	.st9{fill-rule:evenodd;clip-rule:evenodd;fill:url(#XMLID_5_);}
	.st10{fill-rule:evenodd;clip-rule:evenodd;fill:url(#XMLID_6_);}
	.st11{fill-rule:evenodd;clip-rule:evenodd;fill:url(#XMLID_7_);}
	.st12{fill-rule:evenodd;clip-rule:evenodd;fill:url(#XMLID_8_);}
	.st13{fill-rule:evenodd;clip-rule:evenodd;fill:url(#XMLID_9_);}
	.st14{fill-rule:evenodd;clip-rule:evenodd;fill:url(#XMLID_10_);}
	.st15{fill-rule:evenodd;clip-rule:evenodd;fill:url(#XMLID_11_);}
	.st16{fill-rule:evenodd;clip-rule:evenodd;fill:url(#XMLID_12_);}
	.st17{fill-rule:evenodd;clip-rule:evenodd;fill:url(#XMLID_13_);}
	.st18{fill-rule:evenodd;clip-rule:evenodd;fill:url(#XMLID_14_);}
	.st19{fill-rule:evenodd;clip-rule:evenodd;fill:url(#XMLID_15_);}
	.st20{fill-rule:evenodd;clip-rule:evenodd;fill:url(#XMLID_16_);}
	.st21{fill-rule:evenodd;clip-rule:evenodd;fill:url(#XMLID_17_);}
	.st22{fill-rule:evenodd;clip-rule:evenodd;fill:url(#XMLID_18_);}
	.st23{fill-rule:evenodd;clip-rule:evenodd;fill:url(#XMLID_19_);}
	.st24{fill-rule:evenodd;clip-rule:evenodd;fill:url(#XMLID_20_);}
	.st25{fill-rule:evenodd;clip-rule:evenodd;fill:url(#XMLID_21_);}
	.st26{fill-rule:evenodd;clip-rule:evenodd;fill:url(#XMLID_22_);}
	.st27{fill-rule:evenodd;clip-rule:evenodd;fill:url(#XMLID_23_);}
	.st28{fill-rule:evenodd;clip-rule:evenodd;fill:url(#XMLID_24_);}
	.st29{fill-rule:evenodd;clip-rule:evenodd;fill:url(#XMLID_25_);}
	.st30{fill-rule:evenodd;clip-rule:evenodd;fill:url(#XMLID_26_);}
	.st31{fill-rule:evenodd;clip-rule:evenodd;fill:url(#XMLID_27_);}
	.st32{fill-rule:evenodd;clip-rule:evenodd;fill:url(#XMLID_28_);}
	.st33{fill-rule:evenodd;clip-rule:evenodd;fill:#DAD5D1;}
	.st34{fill-rule:evenodd;clip-rule:evenodd;fill:url(#XMLID_29_);}
	.st35{fill-rule:evenodd;clip-rule:evenodd;fill:url(#XMLID_30_);}
	.st36{fill-rule:evenodd;clip-rule:evenodd;fill:url(#XMLID_31_);}
	.st37{fill-rule:evenodd;clip-rule:evenodd;fill:url(#XMLID_32_);}
	.st38{fill-rule:evenodd;clip-rule:evenodd;fill:url(#XMLID_33_);}
	.st39{fill-rule:evenodd;clip-rule:evenodd;fill:url(#XMLID_34_);}
	.st40{fill-rule:evenodd;clip-rule:evenodd;fill:url(#XMLID_35_);}
	.st41{fill:url(#XMLID_36_);}
	.st42{fill-rule:evenodd;clip-rule:evenodd;fill:#808284;}
	.st43{fill-rule:evenodd;clip-rule:evenodd;fill:#929497;}
	.st44{fill-rule:evenodd;clip-rule:evenodd;fill:#6D6E70;}
	.st45{fill-rule:evenodd;clip-rule:evenodd;fill:url(#XMLID_37_);}
	.st46{fill-rule:evenodd;clip-rule:evenodd;fill:url(#XMLID_38_);}
	.st47{fill-rule:evenodd;clip-rule:evenodd;fill:url(#XMLID_39_);}
	.st48{fill:url(#XMLID_40_);}
	.st49{fill:url(#XMLID_41_);}
	.st50{fill:url(#XMLID_42_);}
	.st51{fill-rule:evenodd;clip-rule:evenodd;fill:url(#XMLID_43_);}
	.st52{fill-rule:evenodd;clip-rule:evenodd;fill:#FFFFFF;}
	.st53{fill:url(#XMLID_44_);}
	.st54{fill:url(#XMLID_45_);}
	.st55{fill:url(#XMLID_46_);}
	.st56{fill:url(#XMLID_47_);}
	.st57{fill-rule:evenodd;clip-rule:evenodd;fill:url(#XMLID_48_);}
	.st58{fill-rule:evenodd;clip-rule:evenodd;fill:url(#XMLID_49_);}
	.st59{fill-rule:evenodd;clip-rule:evenodd;fill:url(#XMLID_50_);}
	.st60{fill-rule:evenodd;clip-rule:evenodd;fill:url(#XMLID_51_);}
	.st61{fill-rule:evenodd;clip-rule:evenodd;fill:url(#XMLID_52_);}
	.st62{fill-rule:evenodd;clip-rule:evenodd;fill:url(#XMLID_53_);}
	.st63{fill-rule:evenodd;clip-rule:evenodd;fill:url(#XMLID_54_);}
	.st64{fill-rule:evenodd;clip-rule:evenodd;fill:url(#XMLID_55_);}
	.st65{opacity:0.1;fill-rule:evenodd;clip-rule:evenodd;fill:#231916;}
	.st66{fill-rule:evenodd;clip-rule:evenodd;fill:url(#XMLID_56_);}
	.st67{fill-rule:evenodd;clip-rule:evenodd;fill:url(#XMLID_57_);}
	.st68{fill-rule:evenodd;clip-rule:evenodd;fill:url(#XMLID_58_);}
	.st69{fill-rule:evenodd;clip-rule:evenodd;fill:url(#XMLID_59_);}
	.st70{fill-rule:evenodd;clip-rule:evenodd;fill:url(#XMLID_60_);}
	.st71{fill-rule:evenodd;clip-rule:evenodd;fill:url(#XMLID_61_);}
	.st72{fill-rule:evenodd;clip-rule:evenodd;fill:url(#XMLID_62_);}
	.st73{fill-rule:evenodd;clip-rule:evenodd;fill:url(#XMLID_63_);}
	.st74{fill-rule:evenodd;clip-rule:evenodd;fill:url(#XMLID_64_);}
	.st75{fill-rule:evenodd;clip-rule:evenodd;fill:url(#XMLID_65_);}
	.st76{fill-rule:evenodd;clip-rule:evenodd;fill:url(#XMLID_66_);}
	.st77{fill-rule:evenodd;clip-rule:evenodd;fill:url(#XMLID_67_);}
	.st78{fill-rule:evenodd;clip-rule:evenodd;fill:url(#XMLID_68_);}
	.st79{fill-rule:evenodd;clip-rule:evenodd;fill:url(#XMLID_69_);}
	.st80{fill-rule:evenodd;clip-rule:evenodd;fill:url(#XMLID_70_);}
	.st81{fill-rule:evenodd;clip-rule:evenodd;fill:url(#XMLID_71_);}
	.st82{fill-rule:evenodd;clip-rule:evenodd;fill:url(#XMLID_72_);}
	.st83{fill-rule:evenodd;clip-rule:evenodd;fill:url(#XMLID_73_);}
	.st84{fill-rule:evenodd;clip-rule:evenodd;fill:url(#XMLID_74_);}
	.st85{fill:url(#XMLID_75_);}
	.st86{fill:url(#XMLID_76_);}
	.st87{fill:url(#XMLID_77_);}
	.st88{fill:url(#XMLID_78_);}
	.st89{fill-rule:evenodd;clip-rule:evenodd;fill:url(#XMLID_79_);}
	.st90{fill-rule:evenodd;clip-rule:evenodd;fill:url(#XMLID_80_);}
	.st91{fill-rule:evenodd;clip-rule:evenodd;fill:url(#XMLID_81_);}
	.st92{fill-rule:evenodd;clip-rule:evenodd;fill:url(#XMLID_82_);}
	.st93{fill-rule:evenodd;clip-rule:evenodd;fill:url(#XMLID_83_);}
	.st94{fill-rule:evenodd;clip-rule:evenodd;fill:url(#XMLID_84_);}
	.st95{fill-rule:evenodd;clip-rule:evenodd;fill:#D5D3D4;}
	.st96{fill-rule:evenodd;clip-rule:evenodd;fill:url(#XMLID_85_);}
	.st97{fill-rule:evenodd;clip-rule:evenodd;fill:url(#XMLID_86_);}
	.st98{fill-rule:evenodd;clip-rule:evenodd;fill:url(#XMLID_87_);}
	.st99{fill-rule:evenodd;clip-rule:evenodd;fill:url(#XMLID_88_);}
	.st100{fill-rule:evenodd;clip-rule:evenodd;fill:url(#XMLID_89_);}
	.st101{fill-rule:evenodd;clip-rule:evenodd;fill:#FFF7FA;}
	.st102{fill-rule:evenodd;clip-rule:evenodd;fill:url(#XMLID_90_);}
	.st103{fill-rule:evenodd;clip-rule:evenodd;fill:url(#XMLID_91_);}
	.st104{fill-rule:evenodd;clip-rule:evenodd;fill:url(#XMLID_92_);}
	.st105{fill-rule:evenodd;clip-rule:evenodd;fill:url(#XMLID_93_);}
	.st106{fill-rule:evenodd;clip-rule:evenodd;fill:url(#XMLID_94_);}
	.st107{fill-rule:evenodd;clip-rule:evenodd;fill:url(#XMLID_95_);}
	.st108{fill-rule:evenodd;clip-rule:evenodd;fill:url(#XMLID_96_);}
	.st109{fill-rule:evenodd;clip-rule:evenodd;fill:url(#XMLID_97_);}
	.st110{fill-rule:evenodd;clip-rule:evenodd;fill:url(#XMLID_98_);}
	.st111{fill-rule:evenodd;clip-rule:evenodd;fill:url(#XMLID_99_);}
	.st112{fill-rule:evenodd;clip-rule:evenodd;fill:url(#XMLID_100_);}
	.st113{fill-rule:evenodd;clip-rule:evenodd;fill:url(#XMLID_101_);}
	.st114{fill-rule:evenodd;clip-rule:evenodd;fill:url(#XMLID_102_);}
	.st115{fill-rule:evenodd;clip-rule:evenodd;fill:url(#XMLID_103_);}
	.st116{fill-rule:evenodd;clip-rule:evenodd;fill:url(#XMLID_104_);}
	.st117{fill-rule:evenodd;clip-rule:evenodd;fill:url(#XMLID_105_);}
	.st118{fill-rule:evenodd;clip-rule:evenodd;fill:url(#XMLID_106_);}
	.st119{fill-rule:evenodd;clip-rule:evenodd;fill:url(#XMLID_107_);}
	.st120{fill-rule:evenodd;clip-rule:evenodd;fill:url(#XMLID_108_);}
	.st121{fill-rule:evenodd;clip-rule:evenodd;fill:url(#XMLID_109_);}
	.st122{fill-rule:evenodd;clip-rule:evenodd;fill:url(#XMLID_110_);}
	.st123{fill-rule:evenodd;clip-rule:evenodd;fill:url(#XMLID_111_);}
	.st124{fill-rule:evenodd;clip-rule:evenodd;fill:url(#XMLID_112_);}
	.st125{fill-rule:evenodd;clip-rule:evenodd;fill:url(#XMLID_113_);}
	.st126{fill-rule:evenodd;clip-rule:evenodd;fill:url(#XMLID_114_);}
	.st127{fill-rule:evenodd;clip-rule:evenodd;fill:url(#XMLID_115_);}
	.st128{fill-rule:evenodd;clip-rule:evenodd;fill:url(#XMLID_116_);}
	.st129{fill-rule:evenodd;clip-rule:evenodd;fill:url(#XMLID_117_);}
	.st130{fill-rule:evenodd;clip-rule:evenodd;fill:url(#XMLID_118_);}
	.st131{fill-rule:evenodd;clip-rule:evenodd;fill:url(#XMLID_119_);}
	.st132{fill-rule:evenodd;clip-rule:evenodd;fill:url(#XMLID_120_);}
	.st133{fill-rule:evenodd;clip-rule:evenodd;fill:url(#XMLID_121_);}
	.st134{fill-rule:evenodd;clip-rule:evenodd;fill:url(#XMLID_122_);}
</style>
<rect class="st0" width="2560" height="1500"/>
<g id="XMLID_23217_">
	<g id="XMLID_23058_">
		<linearGradient id="XMLID_2_" gradientUnits="userSpaceOnUse" x1="1310.6466" y1="951.3378" x2="2291.8752" y2="951.3378">
			<stop  offset="0.125" style="stop-color:#A2A2A2"/>
			<stop  offset="1" style="stop-color:#EFEFEF"/>
		</linearGradient>
		<path id="XMLID_23184_" class="st1" d="M2287.1,892c-64-36.9-127.8-73.8-191.6-110.6c-63.7-36.8-127.5-73.6-191.5-110.6
			c-7.1-4.1-19.6-3.5-27.7,1.1c-93.4,54-186.6,107.7-279.5,161.4c-93.2,53.8-186.3,107.6-279.6,161.4c-8,4.6-8.8,11.6-1.9,15.7
			c63.8,36.8,127.8,73.8,191.8,110.7c64.1,37,128,73.9,191.8,110.7c6.9,4,18.9,3.5,26.8-1.1c93-53.7,186.3-107.5,279.8-161.5
			c93.2-53.8,186.5-107.7,279.7-161.5C2293.3,903.2,2294.2,896.1,2287.1,892"/>
		<path id="XMLID_23183_" class="st2" d="M2258.5,884.1c-62.2-35.9-124.2-71.7-186.2-107.5c-62.9-36.3-125.9-72.7-189.1-109.2
			c-7-4-19.3-3.5-27.3,1.1c-92.3,53.3-184.2,106.4-276,159.3c-92,53.1-183.9,106.2-276.1,159.4c-0.3,0.1-0.5,0.3-0.7,0.4h-5.8v8.2
			c0,0.1,0,0.1,0,0.2v0.1h0c0.1,2.5,1.6,4.8,4.6,6.6c63,36.4,126.2,72.8,189.3,109.3c63.3,36.5,126.4,73,189.4,109.3
			c6.8,3.9,18.7,3.5,26.5-1.1c91.8-53,183.9-106.2,276.2-159.5c92-53.1,184.2-106.3,276.2-159.4c3.7-2.1,5.8-4.8,6.4-7.4h0v0
			c0.2-0.9,0.2-1.8,0-2.7v-7.2H2258.5z"/>
		<linearGradient id="XMLID_3_" gradientUnits="userSpaceOnUse" x1="1297.4189" y1="935.8102" x2="2266.1746" y2="935.8102">
			<stop  offset="0" style="stop-color:#130E3E"/>
			<stop  offset="0.53" style="stop-color:#523CA8"/>
			<stop  offset="1" style="stop-color:#7F6EC0"/>
		</linearGradient>
		<path id="XMLID_23182_" class="st3" d="M2261.5,877.2c-63.1-36.5-126.1-72.8-189.1-109.2c-62.9-36.3-125.9-72.7-189.1-109.2
			c-7-4-19.3-3.5-27.3,1.1c-92.3,53.3-184.2,106.4-276,159.3c-92,53.1-183.9,106.2-276.1,159.4c-7.9,4.6-8.7,11.5-1.9,15.5
			c63,36.4,126.2,72.8,189.3,109.3c63.3,36.5,126.4,73,189.4,109.3c6.8,3.9,18.7,3.5,26.5-1.1c91.8-53,183.9-106.2,276.2-159.5
			c92-53.1,184.2-106.3,276.2-159.4C2267.5,888.3,2268.4,881.2,2261.5,877.2"/>
		<polygon id="XMLID_23181_" class="st4" points="2247.6,860.4 1862.9,638.3 1309.1,958.1 1693.7,1180.2 		"/>
		<polygon id="XMLID_23180_" class="st5" points="2251.5,860.4 1697.6,1180.2 1697.6,1206.8 2251.5,887.1 		"/>
		<polygon id="XMLID_23179_" class="st6" points="1313,958.1 1697.6,1180.2 1697.6,1206.8 1313,984.8 		"/>
		<path id="XMLID_23178_" class="st7" d="M2203.9,851.1c-2.8,1.6-2.8,4.2,0,5.8c2.8,1.6,7.3,1.6,10.1,0c2.8-1.6,2.8-4.2,0-5.8
			C2211.2,849.5,2206.7,849.5,2203.9,851.1"/>
		<linearGradient id="XMLID_4_" gradientUnits="userSpaceOnUse" x1="2206.3259" y1="840.8783" x2="2241.9116" y2="840.8783">
			<stop  offset="0.125" style="stop-color:#A2A2A2"/>
			<stop  offset="1" style="stop-color:#EFEFEF"/>
		</linearGradient>
		<path id="XMLID_23177_" class="st8" d="M2241.9,839.2c0,4.5-1.2,9.3-3.3,13.9l-2.3-1.3h0c1.5-3.5,2.4-7.2,2.4-10.7
			c0-9.5-6.7-13.4-14.9-8.6c-7.5,4.3-13.7,14.2-14.8,23.1h0l-2.7-1.6c2.2-10,9.2-20.5,17.5-25.3
			C2233.8,822.9,2241.9,827.6,2241.9,839.2"/>
		<path id="XMLID_23176_" class="st7" d="M2178.8,836.7c-2.8,1.6-2.8,4.2,0,5.8c2.8,1.6,7.3,1.6,10.1,0c2.8-1.6,2.8-4.2,0-5.8
			C2186.1,835.1,2181.6,835.1,2178.8,836.7"/>
		<linearGradient id="XMLID_5_" gradientUnits="userSpaceOnUse" x1="2181.2651" y1="826.4088" x2="2216.8511" y2="826.4088">
			<stop  offset="0.125" style="stop-color:#A2A2A2"/>
			<stop  offset="1" style="stop-color:#EFEFEF"/>
		</linearGradient>
		<path id="XMLID_23175_" class="st9" d="M2216.9,824.7c0,4.5-1.2,9.3-3.3,13.9l-2.3-1.3h0c1.5-3.5,2.4-7.2,2.4-10.7
			c0-9.5-6.7-13.4-14.9-8.6c-7.5,4.3-13.7,14.2-14.8,23.1h0l-2.7-1.6c2.2-10,9.2-20.5,17.5-25.3
			C2208.7,808.4,2216.9,813.1,2216.9,824.7"/>
		<path id="XMLID_23174_" class="st7" d="M2153.8,822.2c-2.8,1.6-2.8,4.2,0,5.8c2.8,1.6,7.3,1.6,10.1,0c2.8-1.6,2.8-4.2,0-5.8
			C2161.1,820.6,2156.6,820.6,2153.8,822.2"/>
		<linearGradient id="XMLID_6_" gradientUnits="userSpaceOnUse" x1="2156.2048" y1="811.9392" x2="2191.7905" y2="811.9392">
			<stop  offset="0.125" style="stop-color:#A2A2A2"/>
			<stop  offset="1" style="stop-color:#EFEFEF"/>
		</linearGradient>
		<path id="XMLID_23173_" class="st10" d="M2191.8,810.2c0,4.5-1.2,9.3-3.3,13.9l-2.3-1.3h0c1.5-3.5,2.4-7.2,2.4-10.7
			c0-9.5-6.7-13.4-14.9-8.6c-7.5,4.3-13.7,14.2-14.8,23.1h0l-2.7-1.6c2.2-10,9.2-20.5,17.5-25.3
			C2183.7,794,2191.8,798.6,2191.8,810.2"/>
		<path id="XMLID_23172_" class="st7" d="M2128.7,807.7c-2.8,1.6-2.8,4.2,0,5.8c2.8,1.6,7.3,1.6,10.1,0c2.8-1.6,2.8-4.2,0-5.8
			C2136,806.1,2131.5,806.1,2128.7,807.7"/>
		<linearGradient id="XMLID_7_" gradientUnits="userSpaceOnUse" x1="2131.1443" y1="797.4696" x2="2166.7302" y2="797.4696">
			<stop  offset="0.125" style="stop-color:#A2A2A2"/>
			<stop  offset="1" style="stop-color:#EFEFEF"/>
		</linearGradient>
		<path id="XMLID_23171_" class="st11" d="M2166.7,795.7c0,4.5-1.2,9.3-3.3,13.9l-2.3-1.3h0c1.5-3.5,2.4-7.2,2.4-10.7
			c0-9.5-6.7-13.4-14.9-8.6c-7.5,4.3-13.7,14.2-14.8,23.1h0l-2.7-1.6c2.2-10,9.2-20.5,17.5-25.3
			C2158.6,779.5,2166.7,784.2,2166.7,795.7"/>
		<path id="XMLID_23170_" class="st7" d="M2103.6,793.3c-2.8,1.6-2.8,4.2,0,5.8c2.8,1.6,7.3,1.6,10.1,0c2.8-1.6,2.8-4.2,0-5.8
			C2111,791.7,2106.4,791.7,2103.6,793.3"/>
		<linearGradient id="XMLID_8_" gradientUnits="userSpaceOnUse" x1="2106.0837" y1="783" x2="2141.6694" y2="783">
			<stop  offset="0.125" style="stop-color:#A2A2A2"/>
			<stop  offset="1" style="stop-color:#EFEFEF"/>
		</linearGradient>
		<path id="XMLID_23169_" class="st12" d="M2141.7,781.3c0,4.5-1.2,9.3-3.3,13.9l-2.3-1.3h0c1.5-3.5,2.4-7.2,2.4-10.7
			c0-9.5-6.7-13.4-14.9-8.6c-7.5,4.3-13.7,14.2-14.7,23.1h0l-2.7-1.6c2.2-10,9.2-20.5,17.5-25.3
			C2133.6,765,2141.7,769.7,2141.7,781.3"/>
		<path id="XMLID_23168_" class="st7" d="M2078.6,778.8c-2.8,1.6-2.8,4.2,0,5.8c2.8,1.6,7.3,1.6,10.1,0c2.8-1.6,2.8-4.2,0-5.8
			C2085.9,777.2,2081.4,777.2,2078.6,778.8"/>
		<linearGradient id="XMLID_9_" gradientUnits="userSpaceOnUse" x1="2081.0234" y1="768.5304" x2="2116.6091" y2="768.5304">
			<stop  offset="0.125" style="stop-color:#A2A2A2"/>
			<stop  offset="1" style="stop-color:#EFEFEF"/>
		</linearGradient>
		<path id="XMLID_23167_" class="st13" d="M2116.6,766.8c0,4.5-1.2,9.3-3.3,13.9l-2.3-1.3h0c1.5-3.5,2.4-7.2,2.4-10.7
			c0-9.5-6.7-13.4-14.9-8.6c-7.5,4.3-13.7,14.2-14.8,23.1h0l-2.7-1.6c2.2-10,9.2-20.5,17.5-25.3
			C2108.5,750.6,2116.6,755.2,2116.6,766.8"/>
		<path id="XMLID_23166_" class="st7" d="M2053.5,764.3c-2.8,1.6-2.8,4.2,0,5.8c2.8,1.6,7.3,1.6,10.1,0c2.8-1.6,2.8-4.2,0-5.8
			C2060.8,762.7,2056.3,762.7,2053.5,764.3"/>
		<linearGradient id="XMLID_10_" gradientUnits="userSpaceOnUse" x1="2055.9626" y1="754.0608" x2="2091.5486" y2="754.0608">
			<stop  offset="0.125" style="stop-color:#A2A2A2"/>
			<stop  offset="1" style="stop-color:#EFEFEF"/>
		</linearGradient>
		<path id="XMLID_23165_" class="st14" d="M2091.5,752.3c0,4.5-1.2,9.3-3.3,13.9l-2.3-1.3h0c1.5-3.5,2.4-7.2,2.4-10.7
			c0-9.5-6.7-13.4-14.9-8.6c-7.5,4.3-13.7,14.2-14.8,23.1h0l-2.7-1.6c2.2-10,9.2-20.5,17.5-25.3
			C2083.4,736.1,2091.5,740.8,2091.5,752.3"/>
		<path id="XMLID_23164_" class="st7" d="M2028.5,749.9c-2.8,1.6-2.8,4.2,0,5.8c2.8,1.6,7.3,1.6,10.1,0c2.8-1.6,2.8-4.2,0-5.8
			C2035.8,748.2,2031.3,748.2,2028.5,749.9"/>
		<linearGradient id="XMLID_11_" gradientUnits="userSpaceOnUse" x1="2030.9022" y1="739.5912" x2="2066.488" y2="739.5912">
			<stop  offset="0.125" style="stop-color:#A2A2A2"/>
			<stop  offset="1" style="stop-color:#EFEFEF"/>
		</linearGradient>
		<path id="XMLID_23163_" class="st15" d="M2066.5,737.9c0,4.5-1.2,9.3-3.3,13.9l-2.3-1.3h0c1.5-3.5,2.4-7.2,2.4-10.7
			c0-9.5-6.7-13.4-14.9-8.6c-7.5,4.3-13.7,14.2-14.8,23.1h0l-2.7-1.6c2.2-10,9.2-20.5,17.5-25.3
			C2058.4,721.6,2066.5,726.3,2066.5,737.9"/>
		<path id="XMLID_23162_" class="st7" d="M2003.4,735.4c-2.8,1.6-2.8,4.2,0,5.8c2.8,1.6,7.3,1.6,10.1,0c2.8-1.6,2.8-4.2,0-5.8
			C2010.7,733.8,2006.2,733.8,2003.4,735.4"/>
		<linearGradient id="XMLID_12_" gradientUnits="userSpaceOnUse" x1="2005.8416" y1="725.1216" x2="2041.4275" y2="725.1216">
			<stop  offset="0.125" style="stop-color:#A2A2A2"/>
			<stop  offset="1" style="stop-color:#EFEFEF"/>
		</linearGradient>
		<path id="XMLID_23161_" class="st16" d="M2041.4,723.4c0,4.5-1.2,9.3-3.3,13.9l-2.3-1.3h0c1.5-3.5,2.4-7.2,2.4-10.7
			c0-9.5-6.7-13.4-14.9-8.6c-7.5,4.3-13.7,14.2-14.8,23.1h0l-2.7-1.6c2.2-10,9.2-20.5,17.5-25.3
			C2033.3,707.1,2041.4,711.8,2041.4,723.4"/>
		<path id="XMLID_23160_" class="st7" d="M1978.3,720.9c-2.8,1.6-2.8,4.2,0,5.8c2.8,1.6,7.3,1.6,10.1,0c2.8-1.6,2.8-4.2,0-5.8
			C1985.6,719.3,1981.1,719.3,1978.3,720.9"/>
		<linearGradient id="XMLID_13_" gradientUnits="userSpaceOnUse" x1="1980.7811" y1="710.6521" x2="2016.3671" y2="710.6521">
			<stop  offset="0.125" style="stop-color:#A2A2A2"/>
			<stop  offset="1" style="stop-color:#EFEFEF"/>
		</linearGradient>
		<path id="XMLID_23159_" class="st17" d="M2016.4,708.9c0,4.5-1.2,9.3-3.3,13.9l-2.3-1.3h0c1.5-3.5,2.4-7.2,2.4-10.7
			c0-9.5-6.7-13.4-14.9-8.6c-7.5,4.3-13.7,14.2-14.8,23.1h0l-2.7-1.6c2.2-10,9.2-20.5,17.5-25.3
			C2008.3,692.7,2016.4,697.4,2016.4,708.9"/>
		<path id="XMLID_23158_" class="st7" d="M1953.3,706.4c-2.8,1.6-2.8,4.2,0,5.8c2.8,1.6,7.3,1.6,10.1,0c2.8-1.6,2.8-4.2,0-5.8
			C1960.6,704.8,1956.1,704.8,1953.3,706.4"/>
		<linearGradient id="XMLID_14_" gradientUnits="userSpaceOnUse" x1="1955.7206" y1="696.1825" x2="1991.3065" y2="696.1825">
			<stop  offset="0.125" style="stop-color:#A2A2A2"/>
			<stop  offset="1" style="stop-color:#EFEFEF"/>
		</linearGradient>
		<path id="XMLID_23157_" class="st18" d="M1991.3,694.5c0,4.5-1.2,9.3-3.3,13.9l-2.3-1.3h0c1.5-3.5,2.4-7.2,2.4-10.7
			c0-9.5-6.7-13.4-14.9-8.6c-7.5,4.3-13.7,14.2-14.7,23.1h0l-2.7-1.6c2.2-10,9.2-20.5,17.5-25.3
			C1983.2,678.2,1991.3,682.9,1991.3,694.5"/>
		<path id="XMLID_23156_" class="st7" d="M1928.2,692c-2.8,1.6-2.8,4.2,0,5.8c2.8,1.6,7.3,1.6,10.1,0c2.8-1.6,2.8-4.2,0-5.8
			C1935.5,690.4,1931,690.4,1928.2,692"/>
		<linearGradient id="XMLID_15_" gradientUnits="userSpaceOnUse" x1="1930.6602" y1="681.7128" x2="1966.246" y2="681.7128">
			<stop  offset="0.125" style="stop-color:#A2A2A2"/>
			<stop  offset="1" style="stop-color:#EFEFEF"/>
		</linearGradient>
		<path id="XMLID_23155_" class="st19" d="M1966.2,680c0,4.5-1.2,9.3-3.3,13.9l-2.3-1.3h0c1.5-3.5,2.4-7.2,2.4-10.7
			c0-9.5-6.7-13.4-14.9-8.6c-7.5,4.3-13.7,14.2-14.8,23.1h0l-2.7-1.6c2.2-10,9.2-20.5,17.5-25.3
			C1958.1,663.7,1966.2,668.4,1966.2,680"/>
		<path id="XMLID_23154_" class="st7" d="M1903.2,677.5c-2.8,1.6-2.8,4.2,0,5.8c2.8,1.6,7.3,1.6,10.1,0c2.8-1.6,2.8-4.2,0-5.8
			C1910.5,675.9,1905.9,675.9,1903.2,677.5"/>
		<linearGradient id="XMLID_16_" gradientUnits="userSpaceOnUse" x1="1905.5997" y1="667.2433" x2="1941.1855" y2="667.2433">
			<stop  offset="0.125" style="stop-color:#A2A2A2"/>
			<stop  offset="1" style="stop-color:#EFEFEF"/>
		</linearGradient>
		<path id="XMLID_23153_" class="st20" d="M1941.2,665.5c0,4.5-1.2,9.3-3.3,13.9l-2.3-1.3h0c1.5-3.5,2.4-7.2,2.4-10.7
			c0-9.5-6.7-13.4-14.9-8.6c-7.5,4.3-13.7,14.2-14.7,23.1h0l-2.7-1.6c2.2-10,9.2-20.5,17.5-25.3
			C1933.1,649.3,1941.2,654,1941.2,665.5"/>
		<path id="XMLID_23152_" class="st7" d="M1878.1,663c-2.8,1.6-2.8,4.2,0,5.8c2.8,1.6,7.3,1.6,10.1,0c2.8-1.6,2.8-4.2,0-5.8
			C1885.4,661.4,1880.9,661.4,1878.1,663"/>
		<linearGradient id="XMLID_17_" gradientUnits="userSpaceOnUse" x1="1880.5392" y1="652.7737" x2="1916.125" y2="652.7737">
			<stop  offset="0.125" style="stop-color:#A2A2A2"/>
			<stop  offset="1" style="stop-color:#EFEFEF"/>
		</linearGradient>
		<path id="XMLID_23151_" class="st21" d="M1916.1,651.1c0,4.5-1.2,9.3-3.3,13.9l-2.3-1.3h0c1.5-3.5,2.4-7.2,2.4-10.7
			c0-9.5-6.7-13.4-14.9-8.6c-7.5,4.3-13.7,14.2-14.8,23.1h0l-2.7-1.6c2.2-10,9.2-20.5,17.5-25.3
			C1908,634.8,1916.1,639.5,1916.1,651.1"/>
		<linearGradient id="XMLID_18_" gradientUnits="userSpaceOnUse" x1="1851.7676" y1="772.8309" x2="2185.3562" y2="772.8309">
			<stop  offset="0.125" style="stop-color:#A2A2A2"/>
			<stop  offset="1" style="stop-color:#EFEFEF"/>
		</linearGradient>
		<polygon id="XMLID_23150_" class="st22" points="2185.4,867.3 1854.9,676.5 1851.8,678.3 2182.2,869.1 		"/>
		<linearGradient id="XMLID_19_" gradientUnits="userSpaceOnUse" x1="1828.29" y1="786.3857" x2="2161.8787" y2="786.3857">
			<stop  offset="0.125" style="stop-color:#A2A2A2"/>
			<stop  offset="1" style="stop-color:#EFEFEF"/>
		</linearGradient>
		<polygon id="XMLID_23149_" class="st23" points="2161.9,880.9 1831.4,690.1 1828.3,691.9 2158.7,882.7 		"/>
		<linearGradient id="XMLID_20_" gradientUnits="userSpaceOnUse" x1="1804.8125" y1="799.9405" x2="2138.4009" y2="799.9405">
			<stop  offset="0.125" style="stop-color:#A2A2A2"/>
			<stop  offset="1" style="stop-color:#EFEFEF"/>
		</linearGradient>
		<polygon id="XMLID_23148_" class="st24" points="2138.4,894.4 1807.9,703.6 1804.8,705.4 2135.3,896.2 		"/>
		<linearGradient id="XMLID_21_" gradientUnits="userSpaceOnUse" x1="1781.3347" y1="813.4953" x2="2114.9231" y2="813.4953">
			<stop  offset="0.125" style="stop-color:#A2A2A2"/>
			<stop  offset="1" style="stop-color:#EFEFEF"/>
		</linearGradient>
		<polygon id="XMLID_23147_" class="st25" points="2114.9,908 1784.5,717.2 1781.3,719 2111.8,909.8 		"/>
		<linearGradient id="XMLID_22_" gradientUnits="userSpaceOnUse" x1="1757.8569" y1="827.05" x2="2091.4456" y2="827.05">
			<stop  offset="0.125" style="stop-color:#A2A2A2"/>
			<stop  offset="1" style="stop-color:#EFEFEF"/>
		</linearGradient>
		<polygon id="XMLID_23146_" class="st26" points="2091.4,921.5 1761,730.8 1757.9,732.6 2088.3,923.3 		"/>
		<linearGradient id="XMLID_23_" gradientUnits="userSpaceOnUse" x1="1734.3793" y1="840.6049" x2="2067.968" y2="840.6049">
			<stop  offset="0.125" style="stop-color:#A2A2A2"/>
			<stop  offset="1" style="stop-color:#EFEFEF"/>
		</linearGradient>
		<polygon id="XMLID_23145_" class="st27" points="2068,935.1 1737.5,744.3 1734.4,746.1 2064.8,936.9 		"/>
		<linearGradient id="XMLID_24_" gradientUnits="userSpaceOnUse" x1="1710.9016" y1="854.1597" x2="2044.4902" y2="854.1597">
			<stop  offset="0.125" style="stop-color:#A2A2A2"/>
			<stop  offset="1" style="stop-color:#EFEFEF"/>
		</linearGradient>
		<polygon id="XMLID_23144_" class="st28" points="2044.5,948.7 1714,757.9 1710.9,759.7 2041.4,950.5 		"/>
		<linearGradient id="XMLID_25_" gradientUnits="userSpaceOnUse" x1="1687.424" y1="867.7145" x2="2021.0126" y2="867.7145">
			<stop  offset="0.125" style="stop-color:#A2A2A2"/>
			<stop  offset="1" style="stop-color:#EFEFEF"/>
		</linearGradient>
		<polygon id="XMLID_23143_" class="st29" points="2021,962.2 1690.6,771.4 1687.4,773.2 2017.9,964 		"/>
		<linearGradient id="XMLID_26_" gradientUnits="userSpaceOnUse" x1="1663.9462" y1="881.2693" x2="1997.5349" y2="881.2693">
			<stop  offset="0.125" style="stop-color:#A2A2A2"/>
			<stop  offset="1" style="stop-color:#EFEFEF"/>
		</linearGradient>
		<polygon id="XMLID_23142_" class="st30" points="1997.5,975.8 1667.1,785 1663.9,786.8 1994.4,977.6 		"/>
		<linearGradient id="XMLID_27_" gradientUnits="userSpaceOnUse" x1="1640.4685" y1="894.824" x2="1974.0571" y2="894.824">
			<stop  offset="0.125" style="stop-color:#A2A2A2"/>
			<stop  offset="1" style="stop-color:#EFEFEF"/>
		</linearGradient>
		<polygon id="XMLID_23141_" class="st31" points="1974.1,989.3 1643.6,798.5 1640.5,800.3 1970.9,991.1 		"/>
		<linearGradient id="XMLID_28_" gradientUnits="userSpaceOnUse" x1="1616.9908" y1="908.3788" x2="1950.5796" y2="908.3788">
			<stop  offset="0.125" style="stop-color:#A2A2A2"/>
			<stop  offset="1" style="stop-color:#EFEFEF"/>
		</linearGradient>
		<polygon id="XMLID_23140_" class="st32" points="1950.6,1002.9 1620.1,812.1 1617,813.9 1947.5,1004.7 		"/>
		<polygon id="XMLID_23139_" class="st33" points="1927.1,1016.4 1596.6,825.6 1593.5,827.4 1924,1018.2 		"/>
		<linearGradient id="XMLID_29_" gradientUnits="userSpaceOnUse" x1="1570.0354" y1="935.4884" x2="1903.6241" y2="935.4884">
			<stop  offset="0.125" style="stop-color:#A2A2A2"/>
			<stop  offset="1" style="stop-color:#EFEFEF"/>
		</linearGradient>
		<polygon id="XMLID_23138_" class="st34" points="1903.6,1030 1573.2,839.2 1570,841 1900.5,1031.8 		"/>
		<polygon id="XMLID_23137_" class="st33" points="1880.1,1043.5 1549.7,852.7 1546.6,854.6 1877,1045.3 		"/>
		<linearGradient id="XMLID_30_" gradientUnits="userSpaceOnUse" x1="1523.0801" y1="962.598" x2="1856.6686" y2="962.598">
			<stop  offset="0.125" style="stop-color:#A2A2A2"/>
			<stop  offset="1" style="stop-color:#EFEFEF"/>
		</linearGradient>
		<polygon id="XMLID_23136_" class="st35" points="1856.7,1057.1 1526.2,866.3 1523.1,868.1 1853.5,1058.9 		"/>
		<linearGradient id="XMLID_31_" gradientUnits="userSpaceOnUse" x1="1499.6025" y1="976.1528" x2="1833.191" y2="976.1528">
			<stop  offset="0.125" style="stop-color:#A2A2A2"/>
			<stop  offset="1" style="stop-color:#EFEFEF"/>
		</linearGradient>
		<polygon id="XMLID_23135_" class="st36" points="1833.2,1070.6 1502.7,879.9 1499.6,881.7 1830.1,1072.5 		"/>
		<linearGradient id="XMLID_32_" gradientUnits="userSpaceOnUse" x1="1476.1249" y1="989.7076" x2="1809.7134" y2="989.7076">
			<stop  offset="0.125" style="stop-color:#A2A2A2"/>
			<stop  offset="1" style="stop-color:#EFEFEF"/>
		</linearGradient>
		<polygon id="XMLID_23134_" class="st37" points="1809.7,1084.2 1479.3,893.4 1476.1,895.2 1806.6,1086 		"/>
		<linearGradient id="XMLID_33_" gradientUnits="userSpaceOnUse" x1="1452.6471" y1="1003.2625" x2="1786.2356" y2="1003.2625">
			<stop  offset="0.125" style="stop-color:#A2A2A2"/>
			<stop  offset="1" style="stop-color:#EFEFEF"/>
		</linearGradient>
		<polygon id="XMLID_23133_" class="st38" points="1786.2,1097.8 1455.8,907 1452.6,908.8 1783.1,1099.6 		"/>
		<linearGradient id="XMLID_34_" gradientUnits="userSpaceOnUse" x1="1429.1696" y1="1016.8171" x2="1762.7579" y2="1016.8171">
			<stop  offset="0.125" style="stop-color:#A2A2A2"/>
			<stop  offset="1" style="stop-color:#EFEFEF"/>
		</linearGradient>
		<polygon id="XMLID_23132_" class="st39" points="1762.8,1111.3 1432.3,920.5 1429.2,922.3 1759.6,1113.1 		"/>
		<linearGradient id="XMLID_35_" gradientUnits="userSpaceOnUse" x1="1405.6917" y1="1030.3719" x2="1739.2804" y2="1030.3719">
			<stop  offset="0.125" style="stop-color:#A2A2A2"/>
			<stop  offset="1" style="stop-color:#EFEFEF"/>
		</linearGradient>
		<polygon id="XMLID_23131_" class="st40" points="1739.3,1124.9 1408.8,934.1 1405.7,935.9 1736.2,1126.7 		"/>
	</g>
	<g id="XMLID_23201_">
		<g id="XMLID_23204_">
			<linearGradient id="XMLID_36_" gradientUnits="userSpaceOnUse" x1="1953.8799" y1="676.2095" x2="2043.0408" y2="676.2095">
				<stop  offset="0" style="stop-color:#3D0EAE"/>
				<stop  offset="1" style="stop-color:#7756E5"/>
			</linearGradient>
			<polygon id="XMLID_23213_" class="st41" points="1996,713.5 1953.9,640.5 1956.6,638.9 1997.3,709.4 2041.7,688.6 2043,691.5 			
				"/>
		</g>
		<g id="XMLID_23187_">
			<path id="XMLID_23196_" class="st42" d="M2002.6,437v353.2h0l0,0.1c0,1-1.7,1.9-3.8,1.9c-2.1,0-3.8-0.8-3.8-1.8v-0.1V437.1
				L2002.6,437z"/>
			<path id="XMLID_23195_" class="st43" d="M1998.8,792.1L1998.8,792.1c-2.1,0-3.8-0.7-3.9-1.7l0-353.3l3.9,0V792.1z"/>
			<path id="XMLID_23194_" class="st44" d="M1998.8,435.6c2.1,0,3.8,0.7,3.8,1.6c0,0.9-1.7,1.7-3.8,1.7c-2.1,0-3.8-0.7-3.8-1.6
				C1994.9,436.3,1996.7,435.6,1998.8,435.6L1998.8,435.6z"/>
			<linearGradient id="XMLID_37_" gradientUnits="userSpaceOnUse" x1="1984.8018" y1="614.5586" x2="2014.3959" y2="614.5586">
				<stop  offset="0" style="stop-color:#3D0EAE"/>
				<stop  offset="1" style="stop-color:#7756E5"/>
			</linearGradient>
			<path id="XMLID_23193_" class="st45" d="M2002.6,437v353.2v0.1c0,1-1.7,1.9-3.8,1.9c-2.1,0-3.8-0.8-3.8-1.8l0-0.1V437.1
				L2002.6,437z"/>
			<linearGradient id="XMLID_38_" gradientUnits="userSpaceOnUse" x1="2012.7189" y1="612.9255" x2="2020.2054" y2="612.1374">
				<stop  offset="0" style="stop-color:#3D0EAE"/>
				<stop  offset="1" style="stop-color:#7756E5"/>
			</linearGradient>
			<path id="XMLID_23192_" class="st46" d="M1998.8,792.1c-2.1,0-3.8-0.8-3.8-1.8l0-0.1V437.1l3.8,0V792.1z"/>
			<linearGradient id="XMLID_39_" gradientUnits="userSpaceOnUse" x1="1994.9451" y1="437.2316" x2="2002.6373" y2="437.2316">
				<stop  offset="0.125" style="stop-color:#A2A2A2"/>
				<stop  offset="1" style="stop-color:#EFEFEF"/>
			</linearGradient>
			<path id="XMLID_23191_" class="st47" d="M1998.8,435.6c2.1,0,3.8,0.7,3.8,1.6c0,0.9-1.7,1.7-3.8,1.7c-2.1,0-3.8-0.7-3.8-1.6
				C1994.9,436.4,1996.7,435.6,1998.8,435.6z"/>
		</g>
		<g id="XMLID_23186_">
			<linearGradient id="XMLID_40_" gradientUnits="userSpaceOnUse" x1="1861.6746" y1="674.2694" x2="2174.1663" y2="674.2694">
				<stop  offset="0.125" style="stop-color:#A2A2A2"/>
				<stop  offset="1" style="stop-color:#EFEFEF"/>
			</linearGradient>
			<path id="XMLID_23188_" class="st48" d="M1866.4,585.3l307.7,178c-1.2-0.7-2.9-0.6-4.8,0.5l-307.7-178
				C1863.5,584.7,1865.2,584.6,1866.4,585.3z"/>
			<linearGradient id="XMLID_41_" gradientUnits="userSpaceOnUse" x1="2008.7292" y1="688.7345" x2="2014.2456" y2="679.278">
				<stop  offset="0.125" style="stop-color:#A2A2A2"/>
				<stop  offset="1" style="stop-color:#EFEFEF"/>
			</linearGradient>
			<path id="XMLID_23189_" class="st49" d="M2164.7,779.6l-307.7-178c-1.2-0.7-2-2.2-2-4.3c0-4.3,3-9.5,6.7-11.6l307.7,178
				c-3.7,2.1-6.7,7.3-6.7,11.6C2162.7,777.4,2163.5,778.9,2164.7,779.6z"/>
			<linearGradient id="XMLID_42_" gradientUnits="userSpaceOnUse" x1="2162.7148" y1="771.4401" x2="2176.1277" y2="771.4401">
				<stop  offset="0.125" style="stop-color:#A2A2A2"/>
				<stop  offset="1" style="stop-color:#EFEFEF"/>
			</linearGradient>
			<path id="XMLID_23190_" class="st50" d="M2169.4,763.7c3.7-2.1,6.7-0.4,6.7,3.8c0,4.2-3,9.4-6.7,11.6c-3.7,2.1-6.7,0.4-6.7-3.8
				C2162.7,771.1,2165.7,765.9,2169.4,763.7z"/>
		</g>
		<linearGradient id="XMLID_43_" gradientUnits="userSpaceOnUse" x1="1870.799" y1="573.9305" x2="2160.4084" y2="573.9305">
			<stop  offset="0" style="stop-color:#3D0EAE"/>
			<stop  offset="1" style="stop-color:#7756E5"/>
		</linearGradient>
		<polygon id="XMLID_23185_" class="st51" points="1870.8,596.5 1870.8,384.2 2160.4,551.3 2160.4,763.7 		"/>
		<polygon id="XMLID_23199_" class="st52" points="1876.2,393.5 2153.2,555.1 2153.2,751.1 1876.2,593.4 		"/>
		<linearGradient id="XMLID_44_" gradientUnits="userSpaceOnUse" x1="1858.884" y1="464.588" x2="2169.4214" y2="464.588">
			<stop  offset="0.125" style="stop-color:#A2A2A2"/>
			<stop  offset="1" style="stop-color:#EFEFEF"/>
		</linearGradient>
		<polygon id="XMLID_23197_" class="st53" points="1858.9,377.2 2169.4,556.5 2169.4,551.3 1858.9,372.6 		"/>
		<g id="XMLID_23198_">
			<linearGradient id="XMLID_45_" gradientUnits="userSpaceOnUse" x1="1862.1825" y1="466.2087" x2="2170.2898" y2="466.2087">
				<stop  offset="0.125" style="stop-color:#A2A2A2"/>
				<stop  offset="1" style="stop-color:#EFEFEF"/>
			</linearGradient>
			<polygon id="XMLID_23212_" class="st54" points="2168.6,555.8 1997.9,443.4 1862.2,379.5 1863.5,376.7 1999.5,440.6 
				2170.3,553.1 			"/>
		</g>
		<g id="XMLID_23200_">
			<linearGradient id="XMLID_46_" gradientUnits="userSpaceOnUse" x1="1952.4885" y1="787.5744" x2="1998.5588" y2="787.5744">
				<stop  offset="0" style="stop-color:#3D0EAE"/>
				<stop  offset="1" style="stop-color:#7756E5"/>
			</linearGradient>
			<polygon id="XMLID_23215_" class="st55" points="1996.5,829.8 1993.3,829.7 1995.2,752.6 1954.6,788.7 1952.5,786.4 
				1998.6,745.4 			"/>
		</g>
		<g id="XMLID_23202_">
			<linearGradient id="XMLID_47_" gradientUnits="userSpaceOnUse" x1="1995.7914" y1="768.2525" x2="2037.3705" y2="768.2525">
				<stop  offset="0" style="stop-color:#3D0EAE"/>
				<stop  offset="1" style="stop-color:#7756E5"/>
			</linearGradient>
			<polygon id="XMLID_23214_" class="st56" points="2035.2,788.7 1995.8,750.1 1998,747.8 2037.4,786.4 			"/>
		</g>
	</g>
	<linearGradient id="XMLID_48_" gradientUnits="userSpaceOnUse" x1="1598.8314" y1="925.3697" x2="1988.6895" y2="925.3697">
		<stop  offset="0.125" style="stop-color:#A2A2A2"/>
		<stop  offset="1" style="stop-color:#EFEFEF"/>
	</linearGradient>
	<path id="XMLID_23130_" class="st57" d="M1890.8,954l76.3,22.5c-48.5,55.5-165.5,77.5-261.5,49.3c-19.2-5.7-34.1-11.9-49.4-20.7
		c-76.2-44-76.7-115.4-0.9-159.4c75.8-44,199-44,275.2,0l0,0c61,35.2,75.3,86.5,36.5,130.9L1890.8,954z"/>
	<linearGradient id="XMLID_49_" gradientUnits="userSpaceOnUse" x1="1734.1125" y1="890.3393" x2="1953.7164" y2="771.6058">
		<stop  offset="0" style="stop-color:#130E3E"/>
		<stop  offset="1" style="stop-color:#543DAB"/>
	</linearGradient>
	<polygon id="XMLID_23115_" class="st58" points="1759.4,835.9 1649,900 1648.8,981.7 1759.2,917.6 1869.6,853.4 1869.8,771.7 	"/>
	<linearGradient id="XMLID_50_" gradientUnits="userSpaceOnUse" x1="1670.5826" y1="940.8533" x2="1593.8788" y2="886.2149">
		<stop  offset="0" style="stop-color:#130E3E"/>
		<stop  offset="0.53" style="stop-color:#523CA8"/>
		<stop  offset="1" style="stop-color:#7F6EC0"/>
	</linearGradient>
	<path id="XMLID_23114_" class="st59" d="M1617.4,873.9c-2.2-2.7-4.1-5.5-5.8-8.2c-2.5-4.2-4.5-8.5-6-12.8
		c-1.9-5.8-2.9-11.6-2.9-17.4v0v0l-0.2,81.7c-0.1,23.4,15.4,46.8,46.2,64.6l0.2-81.7C1635.5,892.2,1625,883.3,1617.4,873.9"/>
	<linearGradient id="XMLID_51_" gradientUnits="userSpaceOnUse" x1="1952.1313" y1="896.2674" x2="1969.725" y2="896.2674">
		<stop  offset="0" style="stop-color:#3D0EAE"/>
		<stop  offset="1" style="stop-color:#7756E5"/>
	</linearGradient>
	<path id="XMLID_23112_" class="st60" d="M1952.2,958.7L1952.2,958.7L1952.2,958.7L1952.2,958.7l0-0.3l0,0v0l0,0l0.2-81.4l17.3-43.3
		v81.5c0.5,14.5-5.1,29.2-17.3,43.1l0,0l0,0C1952.3,958.6,1952.3,958.6,1952.2,958.7"/>
	<linearGradient id="XMLID_52_" gradientUnits="userSpaceOnUse" x1="2107.738" y1="824.3625" x2="1753.8879" y2="824.3625">
		<stop  offset="0" style="stop-color:#3D0EAE"/>
		<stop  offset="0.56" style="stop-color:#7756E5"/>
		<stop  offset="1" style="stop-color:#A0A2FF"/>
	</linearGradient>
	<path id="XMLID_23111_" class="st61" d="M1923,771.7c49.1,28.3,60.6,69.6,29.4,105.3l-139.8-41.2L1923,771.7z"/>
	<linearGradient id="XMLID_53_" gradientUnits="userSpaceOnUse" x1="1812.3379" y1="897.3021" x2="1952.3658" y2="897.3021">
		<stop  offset="0" style="stop-color:#3D0EAE"/>
		<stop  offset="1" style="stop-color:#7756E5"/>
	</linearGradient>
	<polygon id="XMLID_23110_" class="st62" points="1952.4,877 1952.1,958.8 1812.3,917.6 1812.6,835.9 	"/>
	<linearGradient id="XMLID_54_" gradientUnits="userSpaceOnUse" x1="1911.5129" y1="963.7523" x2="1520.6337" y2="963.7523">
		<stop  offset="0" style="stop-color:#FF8200"/>
		<stop  offset="1" style="stop-color:#FFC500"/>
	</linearGradient>
	<path id="XMLID_23109_" class="st63" d="M1905.6,902c-0.4,0.4-0.9,0.8-1.3,1.3c-0.9,0.8-1.7,1.7-2.6,2.5c-0.8,0.7-1.6,1.4-2.4,2.1
		c-0.7,0.6-1.3,1.2-2,1.7c-0.8,0.7-1.7,1.4-2.6,2c-0.7,0.5-1.4,1.1-2.1,1.6c-0.9,0.7-1.9,1.3-2.9,2c-0.7,0.5-1.4,1-2.2,1.5
		c-1,0.7-2.1,1.3-3.1,2c-0.7,0.5-1.5,0.9-2.2,1.4c-0.3,0.2-0.6,0.3-0.8,0.5c-1.4,0.8-2.7,1.6-4.1,2.3c-0.5,0.3-1,0.6-1.6,0.8
		c-1.3,0.7-2.6,1.3-3.9,2c-0.5,0.2-0.9,0.5-1.4,0.7c-1.7,0.8-3.5,1.7-5.3,2.5c-0.3,0.1-0.6,0.3-1,0.4c-1.5,0.7-3,1.3-4.6,1.9
		c-0.6,0.2-1.2,0.5-1.7,0.7c-1.4,0.6-2.9,1.1-4.3,1.6c-0.5,0.2-1,0.4-1.5,0.6c-1.9,0.7-3.8,1.3-5.8,2c-2.3,0.7-4.6,1.4-6.9,2.1
		l-0.4,0.1c-2.2,0.6-4.5,1.2-6.7,1.8c-0.8,0.2-1.6,0.4-2.5,0.6c-1.6,0.4-3.2,0.8-4.8,1.1c-1,0.2-2,0.4-2.9,0.6
		c-1.5,0.3-3,0.6-4.5,0.9c-0.8,0.1-1.6,0.3-2.4,0.4c-2.3,0.4-4.6,0.8-7,1.1c-0.8,0.1-1.7,0.3-2.5,0.4c-3,0.4-6,0.8-9.1,1.1
		c-0.3,0-0.6,0-0.9,0.1c-2.4,0.2-4.8,0.4-7.2,0.6c-0.9,0.1-1.8,0.1-2.8,0.2c-1.8,0.1-3.6,0.2-5.4,0.3c-1.2,0-2.3,0.1-3.5,0.1
		c-1.4,0-2.8,0.1-4.2,0.1c-1.2,0-2.4,0-3.6,0c-1.4,0-2.8,0-4.2,0c-1.2,0-2.5-0.1-3.7-0.1c-1.3,0-2.5-0.1-3.8-0.1
		c-1.3-0.1-2.5-0.1-3.8-0.2c-1.3-0.1-2.5-0.2-3.8-0.3c-1.3-0.1-2.5-0.2-3.8-0.3c-1.2-0.1-2.5-0.2-3.8-0.4c-1.3-0.1-2.5-0.3-3.8-0.4
		c-1.3-0.2-2.5-0.3-3.7-0.5c-1.2-0.2-2.5-0.3-3.7-0.5c-1.3-0.2-2.7-0.4-4-0.6c-1.2-0.2-2.4-0.4-3.6-0.6c-1.3-0.2-2.7-0.5-4-0.8
		c-1.1-0.2-2.3-0.5-3.4-0.7c-1.6-0.3-3.1-0.7-4.7-1.1c-1.1-0.3-2.2-0.5-3.2-0.8c-1.6-0.4-3.2-0.8-4.8-1.3c-1.4-0.4-2.7-0.7-4.1-1.1
		c-1.8-0.5-3.5-1.1-5.2-1.6c-0.5-0.2-1-0.3-1.6-0.5c-1.2-0.4-2.3-0.8-3.4-1.1c-0.6-0.2-1.2-0.4-1.7-0.6c-1.1-0.4-2.1-0.8-3.1-1.1
		c-0.5-0.2-1.1-0.4-1.6-0.6c-0.7-0.3-1.4-0.6-2.1-0.9c-1.2-0.5-2.3-0.9-3.5-1.4c-0.7-0.3-1.4-0.6-2-0.9c-1.1-0.5-2.2-1-3.3-1.5
		c-0.6-0.3-1.3-0.6-1.9-0.9c-1.2-0.6-2.3-1.2-3.5-1.8c-0.5-0.3-1.1-0.6-1.6-0.8c-1.7-0.9-3.4-1.8-5.1-2.8l-0.2,81.7
		c1.7,1,3.4,1.9,5.1,2.8c0.5,0.3,1.1,0.6,1.6,0.8c1.2,0.6,2.3,1.2,3.5,1.8c0.6,0.3,1.3,0.6,1.9,0.9c1.1,0.5,2.2,1,3.3,1.5
		c0.7,0.3,1.3,0.6,2,0.9c1.1,0.5,2.3,1,3.5,1.4c0.4,0.2,0.9,0.4,1.3,0.5c0.3,0.1,0.5,0.2,0.8,0.3c0.5,0.2,1.1,0.4,1.6,0.6
		c1,0.4,2.1,0.8,3.1,1.2c0.6,0.2,1.2,0.4,1.7,0.6c1.1,0.4,2.3,0.8,3.4,1.1c0.5,0.2,1,0.3,1.6,0.5c1.7,0.5,3.4,1.1,5.2,1.6
		c0.6,0.2,1.3,0.4,1.9,0.6c0.7,0.2,1.5,0.4,2.2,0.6c1.6,0.4,3.2,0.9,4.8,1.3c1.1,0.3,2.2,0.5,3.2,0.8c1.6,0.4,3.1,0.7,4.7,1.1
		c0.6,0.1,1.1,0.3,1.7,0.4c0.6,0.1,1.2,0.2,1.8,0.3c1.3,0.3,2.7,0.5,4,0.8c1.2,0.2,2.4,0.4,3.6,0.6c1.3,0.2,2.7,0.4,4,0.6
		c0.7,0.1,1.4,0.2,2.1,0.3c0.5,0.1,1.1,0.1,1.6,0.2c1.3,0.2,2.5,0.3,3.7,0.5c1.3,0.2,2.5,0.3,3.8,0.4c1.3,0.1,2.5,0.3,3.8,0.4
		c0.7,0.1,1.5,0.2,2.2,0.2c0.5,0,1.1,0.1,1.6,0.1c1.3,0.1,2.5,0.2,3.8,0.3c1.3,0.1,2.5,0.2,3.8,0.2c1.3,0.1,2.5,0.1,3.8,0.1
		c0.7,0,1.5,0.1,2.2,0.1c0.5,0,1,0,1.5,0c1.4,0,2.8,0,4.2,0c1.2,0,2.4,0,3.6,0c1.4,0,2.8,0,4.2-0.1c0.8,0,1.6,0,2.4,0
		c0.4,0,0.7,0,1.1-0.1c1.8-0.1,3.6-0.2,5.4-0.3c0.9-0.1,1.8-0.1,2.8-0.2c2.4-0.2,4.8-0.4,7.2-0.6c0.3,0,0.5,0,0.8-0.1l0.1,0
		c3.1-0.3,6.1-0.7,9.1-1.1c0.8-0.1,1.7-0.2,2.5-0.4c2.3-0.3,4.6-0.7,6.9-1.1c0.5-0.1,1-0.2,1.5-0.2c0.3-0.1,0.6-0.1,0.9-0.2
		c1.5-0.3,3-0.6,4.5-0.9c1-0.2,2-0.4,2.9-0.6c1.6-0.4,3.2-0.7,4.8-1.1c0.8-0.2,1.6-0.4,2.5-0.6c2.3-0.6,4.5-1.2,6.7-1.8l0.4-0.1
		c2.3-0.7,4.7-1.4,6.9-2.1l0.3-0.1c1.9-0.6,3.7-1.2,5.5-1.9c0.5-0.2,1-0.4,1.5-0.6c1.4-0.5,2.9-1.1,4.3-1.6c0.6-0.2,1.2-0.5,1.7-0.7
		c1.5-0.6,3.1-1.3,4.6-1.9c0.3-0.1,0.7-0.3,1-0.4c1.8-0.8,3.6-1.6,5.3-2.5c0.5-0.2,0.9-0.5,1.4-0.7c1.3-0.7,2.6-1.3,3.9-2
		c0.5-0.3,1-0.6,1.6-0.8c1.4-0.8,2.8-1.5,4.1-2.3c0.3-0.2,0.6-0.3,0.8-0.5l0.2-0.1c0.7-0.4,1.3-0.8,2-1.2c1.1-0.7,2.1-1.3,3.1-2
		c0.7-0.5,1.5-1,2.2-1.5c1-0.7,1.9-1.3,2.9-2c0.7-0.5,1.4-1.1,2.1-1.6c0.9-0.7,1.8-1.4,2.6-2.1c0.7-0.6,1.4-1.2,2-1.7
		c0.8-0.7,1.6-1.4,2.4-2.1l0.4-0.4c0.7-0.7,1.4-1.4,2.2-2.1c0.4-0.4,0.9-0.8,1.3-1.3c1.3-1.3,2.5-2.6,3.6-3.9l0.2-81.7
		C1908.1,899.4,1906.8,900.8,1905.6,902"/>
	<linearGradient id="XMLID_55_" gradientUnits="userSpaceOnUse" x1="1869.6178" y1="995.0956" x2="1743.5294" y2="869.0072">
		<stop  offset="0" style="stop-color:#FF8200"/>
		<stop  offset="1" style="stop-color:#FFC500"/>
	</linearGradient>
	<path id="XMLID_23108_" class="st64" d="M1909.2,898.1c-39,44.7-133.2,62.4-210.4,39.7c-15.4-4.6-27.5-9.6-39.7-16.7l110.4-64.2
		L1909.2,898.1z"/>
	<path id="XMLID_23093_" class="st65" d="M1596.9,1012.8c-2.3-2.3-5.1-4.5-8.5-6.4c-13.8-8-33.3-10.7-51-8.1l0,0
		c-9,1.3-17.5,4-24.6,8.1c-16,9.2-19.7,22.8-11.2,34.1v0h0c2.6,3.5,6.3,6.7,11.2,9.5c20.9,12,54.7,12,75.6,0
		c4.9-2.9,8.7-6.1,11.3-9.6l0,0C1606.3,1031.5,1605.4,1021.2,1596.9,1012.8"/>
	<linearGradient id="XMLID_56_" gradientUnits="userSpaceOnUse" x1="1351.9371" y1="782.137" x2="1723.5687" y2="782.137">
		<stop  offset="0.125" style="stop-color:#A2A2A2"/>
		<stop  offset="1" style="stop-color:#EFEFEF"/>
	</linearGradient>
	<polygon id="XMLID_23092_" class="st66" points="1410.3,889.4 1351.9,855.7 1401.4,827.2 1459.7,860.9 1401.4,827.2 1450.8,798.7 
		1450.8,798.7 1481.1,781.2 1539.4,814.9 1481.1,781.2 1530.5,752.6 1530.5,752.6 1560.8,735.1 1619.1,768.8 1560.8,735.1 
		1610.2,706.6 1610.2,706.6 1640.5,689.1 1698.9,722.8 1640.5,689.1 1665.2,674.9 1723.6,708.5 1698.9,722.8 1649.4,751.3 
		1649.4,751.3 1619.1,768.8 1569.7,797.4 1569.7,797.4 1539.4,814.9 1490,843.4 1490,843.4 1459.7,860.9 	"/>
	<g id="XMLID_23205_">
		<linearGradient id="XMLID_57_" gradientUnits="userSpaceOnUse" x1="1765.723" y1="426.4288" x2="1658.5216" y2="426.4288">
			<stop  offset="0" style="stop-color:#FF8200"/>
			<stop  offset="1" style="stop-color:#FFC500"/>
		</linearGradient>
		<polygon id="XMLID_23091_" class="st67" points="1655.7,455 1606.2,426.4 1655.7,397.9 1705.1,426.4 		"/>
		<linearGradient id="XMLID_58_" gradientUnits="userSpaceOnUse" x1="1661.9746" y1="581.9342" x2="1711.4026" y2="581.9342">
			<stop  offset="0" style="stop-color:#FF8200"/>
			<stop  offset="1" style="stop-color:#FFC500"/>
		</linearGradient>
		<polygon id="XMLID_23090_" class="st68" points="1655.7,737.4 1705.1,708.9 1705.1,426.4 1655.7,455 		"/>
		<linearGradient id="XMLID_59_" gradientUnits="userSpaceOnUse" x1="1663.276" y1="581.9342" x2="1593.8872" y2="581.9342">
			<stop  offset="0" style="stop-color:#FF8200"/>
			<stop  offset="1" style="stop-color:#FFC500"/>
		</linearGradient>
		<polygon id="XMLID_23089_" class="st69" points="1655.7,737.4 1606.2,708.9 1606.2,426.4 1655.7,455 		"/>
	</g>
	<g id="XMLID_23206_">
		<linearGradient id="XMLID_60_" gradientUnits="userSpaceOnUse" x1="1726.3203" y1="502.7652" x2="1593.2509" y2="502.7652">
			<stop  offset="0" style="stop-color:#3D0EAE"/>
			<stop  offset="0.56" style="stop-color:#7756E5"/>
			<stop  offset="1" style="stop-color:#A0A2FF"/>
		</linearGradient>
		<polygon id="XMLID_23088_" class="st70" points="1606.2,531.3 1556.8,502.8 1606.2,474.2 1655.7,502.8 		"/>
		<linearGradient id="XMLID_61_" gradientUnits="userSpaceOnUse" x1="1606.244" y1="634.3713" x2="1655.6702" y2="634.3713">
			<stop  offset="0" style="stop-color:#3D0EAE"/>
			<stop  offset="1" style="stop-color:#7756E5"/>
		</linearGradient>
		<polygon id="XMLID_23087_" class="st71" points="1606.2,766 1655.7,737.4 1655.7,502.8 1606.2,531.3 		"/>
		<linearGradient id="XMLID_62_" gradientUnits="userSpaceOnUse" x1="1682.1892" y1="634.3713" x2="1527.4237" y2="634.3713">
			<stop  offset="0" style="stop-color:#3D0EAE"/>
			<stop  offset="0.56" style="stop-color:#7756E5"/>
			<stop  offset="1" style="stop-color:#A0A2FF"/>
		</linearGradient>
		<polygon id="XMLID_23086_" class="st72" points="1606.2,766 1556.8,737.4 1556.8,502.8 1606.2,531.3 		"/>
	</g>
	<g id="XMLID_23207_">
		<linearGradient id="XMLID_63_" gradientUnits="userSpaceOnUse" x1="1635.6942" y1="601.4231" x2="1541.0457" y2="601.4231">
			<stop  offset="0" style="stop-color:#3D0EAE"/>
			<stop  offset="0.56" style="stop-color:#7756E5"/>
			<stop  offset="1" style="stop-color:#A0A2FF"/>
		</linearGradient>
		<polygon id="XMLID_23085_" class="st73" points="1556.8,630 1507.4,601.4 1556.8,572.9 1606.2,601.4 		"/>
		<linearGradient id="XMLID_64_" gradientUnits="userSpaceOnUse" x1="1556.816" y1="697.9683" x2="1606.2458" y2="697.9683">
			<stop  offset="0" style="stop-color:#3D0EAE"/>
			<stop  offset="1" style="stop-color:#7756E5"/>
		</linearGradient>
		<polygon id="XMLID_23084_" class="st74" points="1556.8,794.5 1606.2,766 1606.2,601.4 1556.8,630 		"/>
		<linearGradient id="XMLID_65_" gradientUnits="userSpaceOnUse" x1="1564.511" y1="703.2955" x2="1487.8071" y2="690.6866">
			<stop  offset="0" style="stop-color:#3D0EAE"/>
			<stop  offset="0.56" style="stop-color:#7756E5"/>
			<stop  offset="1" style="stop-color:#A0A2FF"/>
		</linearGradient>
		<polygon id="XMLID_23083_" class="st75" points="1556.8,794.5 1507.4,766 1507.4,601.4 1556.8,630 		"/>
	</g>
	<g id="XMLID_23208_">
		<linearGradient id="XMLID_66_" gradientUnits="userSpaceOnUse" x1="1586.1769" y1="588.4519" x2="1488.7861" y2="588.4519">
			<stop  offset="0" style="stop-color:#3D0EAE"/>
			<stop  offset="0.56" style="stop-color:#7756E5"/>
			<stop  offset="1" style="stop-color:#A0A2FF"/>
		</linearGradient>
		<polygon id="XMLID_23082_" class="st76" points="1505.2,617 1455.7,588.5 1505.2,559.9 1554.6,588.5 		"/>
		<linearGradient id="XMLID_67_" gradientUnits="userSpaceOnUse" x1="1503.613" y1="705.2773" x2="1553.0376" y2="705.2773">
			<stop  offset="0" style="stop-color:#7756E5"/>
			<stop  offset="1" style="stop-color:#3D0EAE"/>
		</linearGradient>
		<polygon id="XMLID_23081_" class="st77" points="1503.6,822.1 1553,793.6 1553,588.5 1503.6,617 		"/>
		<linearGradient id="XMLID_68_" gradientUnits="userSpaceOnUse" x1="1541.2579" y1="705.2773" x2="1407.8459" y2="705.2773">
			<stop  offset="0" style="stop-color:#3D0EAE"/>
			<stop  offset="0.56" style="stop-color:#7756E5"/>
			<stop  offset="1" style="stop-color:#A0A2FF"/>
		</linearGradient>
		<polygon id="XMLID_23080_" class="st78" points="1505.2,822.1 1455.7,793.6 1455.7,588.5 1505.2,617 		"/>
	</g>
	<g id="XMLID_23209_">
		<linearGradient id="XMLID_69_" gradientUnits="userSpaceOnUse" x1="1528.5189" y1="735.1309" x2="1450.9647" y2="735.1309">
			<stop  offset="0" style="stop-color:#3D0EAE"/>
			<stop  offset="0.56" style="stop-color:#7756E5"/>
			<stop  offset="1" style="stop-color:#A0A2FF"/>
		</linearGradient>
		<polygon id="XMLID_23079_" class="st79" points="1458,763.7 1408.5,735.1 1458,706.6 1507.4,735.1 		"/>
		<linearGradient id="XMLID_70_" gradientUnits="userSpaceOnUse" x1="1464.9115" y1="803.1489" x2="1542.1407" y2="760.594">
			<stop  offset="0" style="stop-color:#3D0EAE"/>
			<stop  offset="1" style="stop-color:#7756E5"/>
		</linearGradient>
		<polygon id="XMLID_23078_" class="st80" points="1458,851.6 1507.4,823 1507.4,735.1 1458,763.7 		"/>
		<linearGradient id="XMLID_71_" gradientUnits="userSpaceOnUse" x1="1486.7521" y1="792.1227" x2="1375.8744" y2="792.1227">
			<stop  offset="0" style="stop-color:#3D0EAE"/>
			<stop  offset="0.56" style="stop-color:#7756E5"/>
			<stop  offset="1" style="stop-color:#A0A2FF"/>
		</linearGradient>
		<polygon id="XMLID_23077_" class="st81" points="1458,850.3 1408.5,821.8 1408.5,733.9 1458,762.4 		"/>
	</g>
	<g id="XMLID_23210_">
		<linearGradient id="XMLID_72_" gradientUnits="userSpaceOnUse" x1="1528.5188" y1="803.2696" x2="1386.6345" y2="803.2696">
			<stop  offset="0" style="stop-color:#3D0EAE"/>
			<stop  offset="0.56" style="stop-color:#7756E5"/>
			<stop  offset="1" style="stop-color:#A0A2FF"/>
		</linearGradient>
		<polygon id="XMLID_23076_" class="st82" points="1408.5,831.8 1359.1,803.3 1408.5,774.7 1458,803.3 		"/>
		<linearGradient id="XMLID_73_" gradientUnits="userSpaceOnUse" x1="1416.4498" y1="852.0613" x2="1500.7716" y2="800.0498">
			<stop  offset="0" style="stop-color:#3D0EAE"/>
			<stop  offset="1" style="stop-color:#7756E5"/>
		</linearGradient>
		<polygon id="XMLID_23075_" class="st83" points="1408.5,880.1 1458,851.6 1458,803.3 1408.5,831.8 		"/>
		<linearGradient id="XMLID_74_" gradientUnits="userSpaceOnUse" x1="1438.6808" y1="841.6954" x2="1300.3671" y2="841.6954">
			<stop  offset="0" style="stop-color:#3D0EAE"/>
			<stop  offset="0.56" style="stop-color:#7756E5"/>
			<stop  offset="1" style="stop-color:#A0A2FF"/>
		</linearGradient>
		<polygon id="XMLID_23074_" class="st84" points="1408.5,880.1 1359.1,851.6 1359.1,803.3 1408.5,831.8 		"/>
	</g>
	<g id="XMLID_23220_">
		<linearGradient id="XMLID_75_" gradientUnits="userSpaceOnUse" x1="1950.8176" y1="618.8072" x2="1950.8176" y2="539.9388">
			<stop  offset="0" style="stop-color:#3D0EAE"/>
			<stop  offset="1" style="stop-color:#7756E5"/>
		</linearGradient>
		<polyline id="XMLID_23221_" class="st85" points="1962,530.3 1939.9,517.6 1939.7,595.6 1961.7,608.3 1962,530.3 		"/>
		<linearGradient id="XMLID_76_" gradientUnits="userSpaceOnUse" x1="1980.1542" y1="618.8072" x2="1980.1542" y2="539.9391">
			<stop  offset="0" style="stop-color:#3D0EAE"/>
			<stop  offset="1" style="stop-color:#7756E5"/>
		</linearGradient>
		<polyline id="XMLID_23222_" class="st86" points="1991.3,566.3 1969.2,553.6 1969,612.5 1991.1,625.3 1991.3,566.3 		"/>
		<linearGradient id="XMLID_77_" gradientUnits="userSpaceOnUse" x1="2009.5801" y1="618.8071" x2="2009.5801" y2="539.9388">
			<stop  offset="0" style="stop-color:#3D0EAE"/>
			<stop  offset="1" style="stop-color:#7756E5"/>
		</linearGradient>
		<polyline id="XMLID_23223_" class="st87" points="2020.8,539.2 1998.7,526.4 1998.4,629.5 2020.5,642.2 2020.8,539.2 		"/>
		<linearGradient id="XMLID_78_" gradientUnits="userSpaceOnUse" x1="2038.9904" y1="632.2041" x2="2038.9904" y2="515.402">
			<stop  offset="0" style="stop-color:#FF8200"/>
			<stop  offset="1" style="stop-color:#FFC500"/>
		</linearGradient>
		<polyline id="XMLID_23224_" class="st88" points="2050.2,523.2 2028.2,510.4 2027.8,646.4 2049.8,659.2 2050.2,523.2 		"/>
	</g>
	<g id="XMLID_23211_">
		<linearGradient id="XMLID_79_" gradientUnits="userSpaceOnUse" x1="1543.663" y1="619.0073" x2="1570.3453" y2="619.0073">
			<stop  offset="0" style="stop-color:#FF8200"/>
			<stop  offset="1" style="stop-color:#FFC500"/>
		</linearGradient>
		<path id="XMLID_23100_" class="st89" d="M1554.8,628.2c-0.3,0.2-0.5,0.4-0.8,0.5c-3.9,1.9-9.1-0.7-10.2-4.7
			c-1.2-4.8,7.2-8.4,10.4-9.9c1.8-0.9,16.6-7.7,16.2-4.7c-0.1,0.7-0.8,1.2-1.5,1.5c-2,0.9-4,1.9-6.1,2.8c-1.4,0.6-2.8,1.4-3.4,2.7
			c-0.4,0.9-0.4,1.9-0.5,2.9C1558.5,622.2,1557.3,626.3,1554.8,628.2z"/>
		<linearGradient id="XMLID_80_" gradientUnits="userSpaceOnUse" x1="1453.5507" y1="632.004" x2="1549.0942" y2="632.004">
			<stop  offset="0" style="stop-color:#3D0EAE"/>
			<stop  offset="1" style="stop-color:#7756E5"/>
		</linearGradient>
		<path id="XMLID_23105_" class="st90" d="M1496.9,628.3c16.4,0.7,32.3-5.3,47.6-11.1c3.4,3.7,5.1,8.9,4.5,13.9
			c-9.1,3.1-18.3,6.1-27.4,9.2c-5.4,1.8-10.8,3.6-16.4,4.7c-5.9,1.1-11.9,1.4-17.9,1.6c-5.7,0.2-11.4,0.5-17.1,0.2
			c-9.8-0.5-20-5.4-15.6-17.3c0.6-1.7,1.6-3.3,3.1-4.3c3.6-2.5,13.9-0.1,18.1,0.5C1482.9,626.5,1489.8,628,1496.9,628.3z"/>
		<linearGradient id="XMLID_81_" gradientUnits="userSpaceOnUse" x1="1476.494" y1="833.441" x2="1497.7222" y2="833.441">
			<stop  offset="0" style="stop-color:#130E3E"/>
			<stop  offset="1" style="stop-color:#543DAB"/>
		</linearGradient>
		<path id="XMLID_23107_" class="st91" d="M1477.2,819.1c1.3,8-2.4,18.5,0.3,22.5c3.8,5.5,9.4,7.4,15.8,7c2.7-0.2,4.9-2.1,4.3-5.7
			c-1.1-9.5-5-15.7-5.8-24.6L1477.2,819.1z"/>
		<linearGradient id="XMLID_82_" gradientUnits="userSpaceOnUse" x1="1504.0958" y1="812.4231" x2="1544.126" y2="812.4231">
			<stop  offset="0" style="stop-color:#130E3E"/>
			<stop  offset="1" style="stop-color:#543DAB"/>
		</linearGradient>
		<path id="XMLID_23104_" class="st92" d="M1505.2,800.5h12.6l4.2,1.9c8,3.9,14.4,9.4,20.8,15c4,3.6-1.5,7.6-7.8,6.9
			c-6.6-0.7-11.4-4.6-17.6-8c-4.7-2.5-9.4-3.2-13.3-6.1L1505.2,800.5z"/>
		<linearGradient id="XMLID_83_" gradientUnits="userSpaceOnUse" x1="1480.0635" y1="767.0044" x2="1492.6722" y2="729.1778">
			<stop  offset="0" style="stop-color:#130E3E"/>
			<stop  offset="1" style="stop-color:#543DAB"/>
		</linearGradient>
		<path id="XMLID_23103_" class="st93" d="M1470.8,704.8c0,0,30.3,17.1,48.5,35.3c0,0,7.5,35,6.2,61.4c0,0-6.6,9.5-22.8,6.1l-6-58.6
			l-49-26.1l-4.3-16.5L1470.8,704.8z"/>
		<linearGradient id="XMLID_84_" gradientUnits="userSpaceOnUse" x1="1458.2533" y1="765.7121" x2="1469.8114" y2="714.7513">
			<stop  offset="0" style="stop-color:#130E3E"/>
			<stop  offset="1" style="stop-color:#543DAB"/>
		</linearGradient>
		<path id="XMLID_23102_" class="st94" d="M1443.3,712.4c0,0,44.3,31.3,49,38.5c-0.6-0.2,2.3,45.1,3.2,65.5c0,0-10.7,8.2-22,2.1
			c1,0-5.8-51.6-7.3-56.8c0,0-33.9-14.3-39.3-20.3c-5.4-5.9-8.4-21.4-5.9-26.4L1443.3,712.4z"/>
		<path id="XMLID_23096_" class="st95" d="M1528.3,657.1l-3.3-1.7l-25.2,15c-5,3-9.1,7.3-11.8,12.4l-15.1,28.9l3.3,1.7L1528.3,657.1
			z"/>
		<linearGradient id="XMLID_85_" gradientUnits="userSpaceOnUse" x1="1450.4248" y1="678.6851" x2="1418.9028" y2="642.0406">
			<stop  offset="0" style="stop-color:#3D0EAE"/>
			<stop  offset="1" style="stop-color:#7756E5"/>
		</linearGradient>
		<path id="XMLID_23101_" class="st96" d="M1433.9,628.7c-4.3,2.2-8.3,4.8-11.5,8.4c-4.7,5.5-6.8,12.9-7.2,20.1
			c-0.6,12,1.7,25.1,3.1,37c0.2,2.1,1.6,20.6,2.8,20.9c0,0,28.6,5.4,50.6-10.3c-1.6-14.4,0.1-28.9,0.5-43.3
			c0.3-10.1,2.2-27-5.8-34.7c-3.9-3.8-9.6-5.5-14.9-4.8c-3.6,0.5-6.9,1.9-10.2,3.3C1438.8,626.4,1436.3,627.5,1433.9,628.7z"/>
		<linearGradient id="XMLID_86_" gradientUnits="userSpaceOnUse" x1="1439.335" y1="649.0294" x2="1456.6458" y2="649.0294">
			<stop  offset="0.125" style="stop-color:#A2A2A2"/>
			<stop  offset="1" style="stop-color:#EFEFEF"/>
		</linearGradient>
		<path id="XMLID_23219_" class="st97" d="M1456.6,640.5c-0.1-0.9-0.2-1.9-0.4-2.8c-4.9,2.5-11.3,3-16.9,1.2
			c2.1,3.1,5.2,6.2,7.2,8.9c3.1,4.2,6.2,8.3,9.3,12.4C1453,656.6,1457.1,645.2,1456.6,640.5z"/>
		<linearGradient id="XMLID_87_" gradientUnits="userSpaceOnUse" x1="1436.8275" y1="629.495" x2="1456.2189" y2="629.495">
			<stop  offset="0" style="stop-color:#FF8200"/>
			<stop  offset="1" style="stop-color:#FFC500"/>
		</linearGradient>
		<path id="XMLID_23226_" class="st98" d="M1455.1,623.1l-16-4.1c-0.4,5.2-3.6,11.7-1.7,16.6c0.4,1.1,1.1,2.3,1.9,3.4
			c5.6,1.8,12,1.3,16.9-1.2C1455.4,632.9,1454,628.1,1455.1,623.1z"/>
		
			<linearGradient id="XMLID_88_" gradientUnits="userSpaceOnUse" x1="1427.9086" y1="623.8281" x2="1463.6989" y2="623.8281" gradientTransform="matrix(0.9921 -0.1251 0.1251 0.9921 -67.6841 168.7752)">
			<stop  offset="0" style="stop-color:#FF8200"/>
			<stop  offset="1" style="stop-color:#FFC500"/>
		</linearGradient>
		<path id="XMLID_23099_" class="st99" d="M1432.8,618.5c1.8,3.9,6.4,6.3,9.7,9c1.6,1.3,3.3,2.6,5.3,3.2c2.1,0.5,4.3,0.2,6.4-0.2
			c1.3-0.2,2.6-0.5,3.6-1.2c1.7-1.2,2.3-3.4,2.8-5.4c1-4.4,3.2-12.3,1.8-16.7c-0.3-1.1-1-2-1.3-3.1c-0.4-1.3-0.1-2.7,0.1-4.1
			c2.8-19-18.9-23.9-29.6-10.6C1424.2,598.4,1424.1,604,1432.8,618.5"/>
		<linearGradient id="XMLID_89_" gradientUnits="userSpaceOnUse" x1="1422.7814" y1="599.7879" x2="1461.9932" y2="599.7879">
			<stop  offset="0" style="stop-color:#130E3E"/>
			<stop  offset="1" style="stop-color:#543DAB"/>
		</linearGradient>
		<path id="XMLID_23098_" class="st100" d="M1431.8,613.2c-0.5-2.7-1.7-7.6,2-6.3c0,0,1.4,0.7,1.4,0.7c3.3,1.7,3.9-10.9,3.9-12.7
			c0-0.7,0-1.5,0.6-2c0.5-0.4,1.2-0.3,1.9-0.2c6,1.1,12.2,1.4,18.3,0.8c0.6-0.1,1.3-0.2,1.7-0.6c0.3-0.4,0.4-1,0.4-1.5
			c0-3.2-1.6-6.3-4.1-8.4c-2.4-2.1-5.5-3.3-8.7-3.9c-6-1.1-17.5-0.1-17.5,8.3c-4.5,1.2-8.1,5.2-8.8,9.8c-0.4,2.4,0,4.9,0.5,7.4
			c0.7,3.6,1.6,7.2,3.6,10.3c0.9,1.4,6.7,7.6,8.8,5.3C1437.3,618.6,1432.1,614.9,1431.8,613.2z"/>
		<path id="XMLID_23097_" class="st101" d="M1528.3,657.1l-28.3,16.8c-3,1.8-5.4,4.3-6.9,7.3l-16.7,32.1l30.2-17.3
			c4.1-2.4,7.4-6,9.3-10.3L1528.3,657.1z"/>
		<linearGradient id="XMLID_90_" gradientUnits="userSpaceOnUse" x1="1474.4835" y1="682.8036" x2="1411.8334" y2="672.9529">
			<stop  offset="0" style="stop-color:#3D0EAE"/>
			<stop  offset="1" style="stop-color:#7756E5"/>
		</linearGradient>
		<path id="XMLID_23094_" class="st102" d="M1422.2,642c10.6,0.4,11.1,25.7,11.5,32.5c0.4,6-0.2,12.1,0.7,18
			c12.4,3.3,24.4,4.5,37,5.3c0.5,0,1,0.1,1.3,0.4c0.3,0.3,0.4,0.7,0.5,1.1c0.8,3.6,0.7,7.4-0.3,10.9c-14,0.8-28.1,0-42.1-1.5
			c-9.1-1-10.3-4.6-12.8-12.4c-1.5-4.6-2.5-9.3-3.3-14.1c-1.6-10.1-2.3-19.3-1.2-29.6C1414,647.5,1417,642.8,1422.2,642"/>
	</g>
	<g id="XMLID_23203_">
		<linearGradient id="XMLID_91_" gradientUnits="userSpaceOnUse" x1="1698.3693" y1="533.3314" x2="1706.5372" y2="533.3314">
			<stop  offset="0" style="stop-color:#130E3E"/>
			<stop  offset="1" style="stop-color:#543DAB"/>
		</linearGradient>
		<path id="XMLID_23216_" class="st103" d="M1706.5,526.4c-1.2-3.7-8.3,1.6-8.1,4.9c0.3,3.9,1.2,8.5,4.7,10.3
			c1.1-4.8,2.2-9.6,3.3-14.4C1706.5,526.9,1706.6,526.6,1706.5,526.4z"/>
		<linearGradient id="XMLID_92_" gradientUnits="userSpaceOnUse" x1="1796.6627" y1="619.1956" x2="1831.463" y2="619.1956">
			<stop  offset="0" style="stop-color:#FF8200"/>
			<stop  offset="1" style="stop-color:#FFC500"/>
		</linearGradient>
		<path id="XMLID_23117_" class="st104" d="M1800.1,616c2.7,0.1,5.5-0.2,8.1-1c3.1-0.9,6.4-2.4,9.5-1.5c-0.5,1.8-2.4,3-4.2,2.7
			c1.4-0.1,18.7,2.2,18,3.1c-3.5,4.2-9.8,5.6-15.1,5.8c-5.9,0.2-11.8-1-17.5-2.3c-0.9-0.2-2-0.9-1.5-1.7c-1.3-0.7,0-0.7,0.1-2.2
			s1.2-2.8,2.6-3.3"/>
		<linearGradient id="XMLID_93_" gradientUnits="userSpaceOnUse" x1="1625.1312" y1="610.874" x2="1653.2152" y2="610.874">
			<stop  offset="0" style="stop-color:#FF8200"/>
			<stop  offset="1" style="stop-color:#FFC500"/>
		</linearGradient>
		<path id="XMLID_23129_" class="st105" d="M1652.6,607.4c0.2,3.1,0.4,6.1,0.6,9.2c-5,1.9-11,3.4-16.2,1.3
			c-4.2-1.7-7.6-4.9-10.8-8.2c-0.9-0.9-1.7-2.5-0.6-3.2c0.4-0.3,0.9-0.2,1.4-0.2c4.2,0.2,11.4,1.9,15,0.3c-1-1.3-2.6-1.6-4.1-2.5
			c-0.4-0.2-1-0.9-0.2-1.1c2.1-0.6,4.6,0.3,6.6,1c1.4,0.4,2.8,1,4.1,1.6c0.7,0.3,1.4,0.7,2.1,1.1c0.4,0.2,1.1,0.9,1.6,0.9
			C1652.6,607.5,1652,607.5,1652.6,607.4z"/>
		<linearGradient id="XMLID_94_" gradientUnits="userSpaceOnUse" x1="1649.8904" y1="586.2845" x2="1705.9456" y2="586.2845">
			<stop  offset="0" style="stop-color:#3D0EAE"/>
			<stop  offset="1" style="stop-color:#7756E5"/>
		</linearGradient>
		<path id="XMLID_23128_" class="st106" d="M1700,555.2c-9.7-1.5-17.1,30.5-18.7,44.5c-10.8,1.8-21.3,3.9-31.4,6.4
			c3,3,3.4,6.9,1.8,11.3c12.4-1.4,24.7-3.3,36.9-5.6c8.6-11.3,14.1-25.3,17.3-45.6C1706.4,562.3,1703.3,556.4,1700,555.2"/>
		<linearGradient id="XMLID_95_" gradientUnits="userSpaceOnUse" x1="1725.0696" y1="802.6467" x2="1743.8903" y2="802.6467">
			<stop  offset="0" style="stop-color:#130E3E"/>
			<stop  offset="1" style="stop-color:#543DAB"/>
		</linearGradient>
		<path id="XMLID_23127_" class="st107" d="M1743.3,789.9c-1.1,7.1,2.1,16.4-0.3,20c-3.3,4.9-8.4,6.6-14,6.2c-2.4-0.2-4.3-1.9-3.8-5
			c1-8.4,4.4-13.9,5.1-21.8L1743.3,789.9z"/>
		<linearGradient id="XMLID_96_" gradientUnits="userSpaceOnUse" x1="1683.9283" y1="785.2921" x2="1719.4188" y2="785.2921">
			<stop  offset="0" style="stop-color:#130E3E"/>
			<stop  offset="1" style="stop-color:#543DAB"/>
		</linearGradient>
		<path id="XMLID_23126_" class="st108" d="M1718.4,774.7h-11.2l-3.7,1.7c-7.1,3.4-12.8,8.3-18.4,13.3c-3.6,3.2,1.3,6.7,6.9,6.1
			c5.8-0.7,10.1-4.1,15.6-7.1c4.1-2.2,8.3-2.8,11.8-5.4L1718.4,774.7z"/>
		<linearGradient id="XMLID_97_" gradientUnits="userSpaceOnUse" x1="1690.8821" y1="711.4374" x2="1719.8799" y2="711.4374">
			<stop  offset="0" style="stop-color:#130E3E"/>
			<stop  offset="1" style="stop-color:#543DAB"/>
		</linearGradient>
		<path id="XMLID_23125_" class="st109" d="M1718.7,657c-8.9-3.6-18.6-6.4-27.1-10.6c-0.3,10.6-1.7,21.5,0.2,31.9
			c2,10.7,4,21.5,5.9,32.2c3.7,21.1,4.1,42.7,4.8,64.2c5.6,2.5,11.3,2.4,17.1,0c-0.4-20.6,1.6-40.9-1.8-61.2
			C1714.7,694.5,1719.4,675.5,1718.7,657"/>
		<linearGradient id="XMLID_98_" gradientUnits="userSpaceOnUse" x1="1711.5383" y1="725.9456" x2="1745.3395" y2="725.9456">
			<stop  offset="0" style="stop-color:#130E3E"/>
			<stop  offset="1" style="stop-color:#543DAB"/>
		</linearGradient>
		<path id="XMLID_23124_" class="st110" d="M1744.2,672.9l-28.8-11.8l-3.9-1.7c3.1,22.3,7.8,44.7,11.7,67
			c3.7,21.1,4.1,42.7,4.8,64.2c5.6,2.5,11.3,2.4,17.1,0c-0.4-20.6,1.6-40.9-1.8-61.2C1740.2,710.5,1744.9,691.5,1744.2,672.9"/>
		<linearGradient id="XMLID_99_" gradientUnits="userSpaceOnUse" x1="1710.9634" y1="667.2686" x2="1710.9634" y2="613.9291">
			<stop  offset="0.125" style="stop-color:#A2A2A2"/>
			<stop  offset="1" style="stop-color:#EFEFEF"/>
		</linearGradient>
		<path id="XMLID_23123_" class="st111" d="M1729.9,566.5c-0.6-0.1-18.9-6.4-18.9-6.4l-8.8,1c0,0-5.9,12.9-5.9,13.7
			s-4.3,24.8-4.3,24.8l4.8,53.2l18.6,8.3l8.8-3.4l-1.3-46.8L1729.9,566.5z"/>
		<linearGradient id="XMLID_100_" gradientUnits="userSpaceOnUse" x1="1687.6827" y1="609.2738" x2="1727.9058" y2="609.2738">
			<stop  offset="0" style="stop-color:#3D0EAE"/>
			<stop  offset="1" style="stop-color:#7756E5"/>
		</linearGradient>
		<path id="XMLID_23122_" class="st112" d="M1727.9,560.9l-24.3-5.2c-13.4-2.6-16.4,18.1-15.4,28.5c2.5,24.8-0.2,56-0.5,77.7
			c3.5,1.7,6.4,1.8,8.3-0.5c3.7-31.7-2.8-62.6,11-98.9C1719.5,573,1713.6,562.7,1727.9,560.9"/>
		<linearGradient id="XMLID_101_" gradientUnits="userSpaceOnUse" x1="1706.1499" y1="562.2704" x2="1727.9399" y2="562.2704">
			<stop  offset="0" style="stop-color:#FF8200"/>
			<stop  offset="1" style="stop-color:#FFC500"/>
		</linearGradient>
		<path id="XMLID_23121_" class="st113" d="M1725.4,550.1c0,0,0.6,6.5,2.5,10.8c1,11.3-19.1,19.6-21.8,8.2c0,0,1.9-11.3,0.9-15.1
			L1725.4,550.1z"/>
		<linearGradient id="XMLID_102_" gradientUnits="userSpaceOnUse" x1="1699.5876" y1="537.7086" x2="1732.0039" y2="537.7086">
			<stop  offset="0" style="stop-color:#FF8200"/>
			<stop  offset="1" style="stop-color:#FFC500"/>
		</linearGradient>
		<path id="XMLID_23120_" class="st114" d="M1728.2,545.7c-1.8,5.7-6.8,9.3-11.5,12.5c-0.4,0.3-0.9,0.6-1.4,0.7
			c-0.5,0.1-1,0.1-1.5,0c-2.1-0.2-4.2-0.5-6.3-0.7c-1.1-0.1-2.3-0.3-3.1-1c-0.6-0.5-0.9-1.3-1.1-2c-1.1-3-2.2-6-2.4-9.2
			c-0.1-1.5,0-3-0.2-4.5c-0.2-1.8-0.8-3.5-1-5.3c-0.4-3.1,1.5-8.4,2.7-11.4c3.6-8.6,14.6-12.3,23.9-3.3
			C1733.2,528.2,1733.9,532.9,1728.2,545.7"/>
		<linearGradient id="XMLID_103_" gradientUnits="userSpaceOnUse" x1="1697.2277" y1="530.3831" x2="1735.7871" y2="530.3831">
			<stop  offset="0" style="stop-color:#130E3E"/>
			<stop  offset="1" style="stop-color:#543DAB"/>
		</linearGradient>
		<path id="XMLID_23119_" class="st115" d="M1727,548.4c0,0-1.2,0.4-1.7-0.9c-0.6-1.3,3.1-4,3.2-6.3c0.1-2.3,0.6-6.5-2.3-4.9
			l-1.1,0.8c-1,0.7-2.2-0.3-1.9-1.4c0.5-1.7,0.8-3.6,0.2-4.9c-1-2.5-10.9,0.5-12.8,0.6c-5.7,0.3-16.8-2.2-12.5-10.6
			c2.8-5.4,8.4-8.6,14.3-8.3c2.2,0.1,4.5,0.3,6.7,0.5c2.8,0.3,5.7,0.8,8.1,2.3c2.4,1.5,4.2,4.3,3.7,7.1c1.6-0.3,3.2,0.9,3.8,2.3
			C1737.6,530.9,1734.2,545.7,1727,548.4z"/>
		<linearGradient id="XMLID_104_" gradientUnits="userSpaceOnUse" x1="1712.7378" y1="619.944" x2="1748.0361" y2="619.944">
			<stop  offset="0" style="stop-color:#3D0EAE"/>
			<stop  offset="1" style="stop-color:#7756E5"/>
		</linearGradient>
		<path id="XMLID_23118_" class="st116" d="M1727.9,560.9l16.1,9.8l-5.9,63.3c-1.7,18.2,9.1,20.1,10,36.5
			c-10.7,7-21.3,12.4-31.3,4.8c-3.7-37.2-5.1-58.1-3.2-68.5C1716.5,590.1,1723.1,576.2,1727.9,560.9"/>
		<linearGradient id="XMLID_105_" gradientUnits="userSpaceOnUse" x1="1733.5155" y1="598.2535" x2="1802.9581" y2="598.2535">
			<stop  offset="0" style="stop-color:#3D0EAE"/>
			<stop  offset="1" style="stop-color:#7756E5"/>
		</linearGradient>
		<path id="XMLID_23116_" class="st117" d="M1740.8,570.8c4.9,0.1,8.3,4.1,11.3,8c4,5.2,7.5,10.7,10.5,16.5c1.8,3.3,3.4,6.9,6.3,9.3
			c3.4,2.9,8,3.8,12.4,4.6c7.2,1.3,14.3,2.6,21.5,3.9c-0.5,4.2-1.3,8.4-2.5,12.5c-12.7-2.1-26.5,0.2-38-5.6
			c-7.9-4-13.6-11.2-19-18.2c-2.6-3.4-6.3-5.3-8-9.2c-2.1-4.9-2.3-10.8-1.3-15.9c0.5-2.3,1.5-4.9,3.8-5.5
			C1738.9,570.9,1739.9,570.8,1740.8,570.8z"/>
	</g>
	<linearGradient id="XMLID_106_" gradientUnits="userSpaceOnUse" x1="1898.9944" y1="880.1439" x2="1638.4109" y2="793.9833">
		<stop  offset="0" style="stop-color:#130E3E"/>
		<stop  offset="0.53" style="stop-color:#523CA8"/>
		<stop  offset="1" style="stop-color:#7F6EC0"/>
	</linearGradient>
	<path id="XMLID_23113_" class="st118" d="M1869.8,771.7l-110.4,64.2L1649,900c-61.4-35.4-61.7-92.9-0.7-128.3
		C1709.3,736.3,1808.5,736.3,1869.8,771.7"/>
	<linearGradient id="XMLID_107_" gradientUnits="userSpaceOnUse" x1="1471.7507" y1="699.4737" x2="1497.1416" y2="699.4737">
		<stop  offset="0" style="stop-color:#FF8200"/>
		<stop  offset="1" style="stop-color:#FFC500"/>
	</linearGradient>
	<path id="XMLID_23095_" class="st119" d="M1481.7,693.7c-0.7,1.9-1.6,3.7-2.8,5.3c5.7-0.6,8.8-5.8,14.2-7.4c0.3,0.4,0.5,1,0.4,1.6
		c1.2-0.1,2.5,0,3.6,0.4c-1.9,3.8-4.5,7.2-7.7,10c-1.1,0.9-2.3,1.8-3.6,2.3c-3.3,1.1-12.7,3.1-13.8-1.2
		C1470.2,698.1,1480.2,697.6,1481.7,693.7z"/>
	<g id="XMLID_23225_">
		<linearGradient id="XMLID_108_" gradientUnits="userSpaceOnUse" x1="1583.1672" y1="837.5858" x2="1587.3701" y2="809.4786">
			<stop  offset="0" style="stop-color:#FF8200"/>
			<stop  offset="1" style="stop-color:#FFC500"/>
		</linearGradient>
		<path id="XMLID_23060_" class="st120" d="M1588,837.1c-4.5,0.7-8.1,5.1-12.5,6.6c1.8-2.6,3.5-5.2,5.3-7.8c-2-0.4-3.9,1.1-5.2,2.7
			c-2,2.3-3.4,5.1-4.3,8c-0.3,1-0.5,2-0.2,3c0.8,3,5.5,4.4,8.1,4.8c6.3,1.1,13.8-6.5,14.2-13.6
			C1593.7,833.8,1592.4,836.4,1588,837.1z"/>
		<linearGradient id="XMLID_109_" gradientUnits="userSpaceOnUse" x1="1521.3705" y1="1014.8646" x2="1548.7676" y2="1014.8646">
			<stop  offset="0" style="stop-color:#130E3E"/>
			<stop  offset="1" style="stop-color:#543DAB"/>
		</linearGradient>
		<path id="XMLID_23066_" class="st121" d="M1521.4,1021.9l15.5-17.3c6.2-1.8,12.7-2.1,11.8,3.6c-0.7,5.1-8.8,7.3-14.3,12.2
			l-5.1,4.5C1525.6,1028.1,1520.9,1025.3,1521.4,1021.9"/>
		<g id="XMLID_23218_">
			<linearGradient id="XMLID_110_" gradientUnits="userSpaceOnUse" x1="1553.9126" y1="1040.1591" x2="1595.3721" y2="1040.1591">
				<stop  offset="0" style="stop-color:#3D0EAE"/>
				<stop  offset="1" style="stop-color:#7756E5"/>
			</linearGradient>
			<path id="XMLID_23071_" class="st122" d="M1594.7,1032.4c1.8,6.1-0.7,7.5-2.8,9.4c-1.5,1.3-3.2,2.5-5.2,3
				c-5.5,1.5-11.5,1.5-17.7,1.1c-1.5-0.1-2.1,1.8-3.6,1.9c-3.7,0.4-8.2,0.4-11.5-1.2v-2.6c3.4,1.6,7.9,1.5,11.5,1.2
				c8.5-0.8,20,0.2,26.4-5.3C1593.3,1038.6,1594.3,1034,1594.7,1032.4"/>
			<g id="XMLID_23106_">
				<linearGradient id="XMLID_111_" gradientUnits="userSpaceOnUse" x1="1583.1552" y1="862.045" x2="1590.7731" y2="841.2929">
					<stop  offset="0" style="stop-color:#FF8200"/>
					<stop  offset="1" style="stop-color:#FFC500"/>
				</linearGradient>
				<path id="XMLID_23073_" class="st123" d="M1586.2,860.9c3.1-1.9,7.3-6.2,8.6-9.6c1.2-2.9,2.4-5.9,2.5-9.1c0.1-2.8-0.6-5.6-2-8.1
					c-0.1-0.2-0.2-0.4-0.4-0.5c-0.7-0.5-1.5,0.4-2,1.1c-2.6,4.1-4.8,8.6-8,12.2c0.2-1.4,0.7-3,1.3-4.3c1-2.1-0.8-2-0.8-2
					c-1.2,0.8-4.7,6.4-5.2,8.5c-0.5,2.1-1.8,7.5-1.8,7.5l0.7,0.6c-0.5,0.7-0.9,1.2-0.9,1.2C1578.3,858.3,1584,862.2,1586.2,860.9z"
					/>
				<linearGradient id="XMLID_112_" gradientUnits="userSpaceOnUse" x1="1510.0481" y1="826.3986" x2="1521.4966" y2="826.3986">
					<stop  offset="0" style="stop-color:#3D0EAE"/>
					<stop  offset="1" style="stop-color:#7756E5"/>
				</linearGradient>
				<path id="XMLID_23072_" class="st124" d="M1521.5,811c0,0-22.1,8-4.9,30.8L1521.5,811z"/>
				<linearGradient id="XMLID_113_" gradientUnits="userSpaceOnUse" x1="1535.4972" y1="798.7264" x2="1552.0463" y2="783.7534">
					<stop  offset="0" style="stop-color:#FF8200"/>
					<stop  offset="1" style="stop-color:#FFC500"/>
				</linearGradient>
				<path id="XMLID_23070_" class="st125" d="M1535.4,766.3c4.8-0.8,11.2-0.9,15.8,0.4c7.7,2.3,11.9,7.2,13.8,14.5
					c1.9,7.4,2.4,19.7-1.8,26.5c-2.6,4.3-8.5,3.5-12.7,2.4c-5.1-1.3-11.7-3.5-15.9-6.7c-5.8-4.4-8.9-14-9.2-20.9
					C1525.1,776.6,1528.2,767.5,1535.4,766.3"/>
				<linearGradient id="XMLID_114_" gradientUnits="userSpaceOnUse" x1="1531.2333" y1="808.8704" x2="1553.1088" y2="808.8704">
					<stop  offset="0" style="stop-color:#FF8200"/>
					<stop  offset="1" style="stop-color:#FFC500"/>
				</linearGradient>
				<path id="XMLID_23069_" class="st126" d="M1535.3,801.9c0.6,0.7,1.3,1.3,2,1.8c4.2,3.1,8.1,5.1,13.2,6.5
					c0.8,0.2,1.7,0.4,2.6,0.6l-0.4,4.6c-5.4,1.5-10.6-0.8-14.4-1.8c-2.8-0.8-7.1-1.5-7.1-4.4L1535.3,801.9L1535.3,801.9z"/>
				<linearGradient id="XMLID_115_" gradientUnits="userSpaceOnUse" x1="1525.3757" y1="785.7702" x2="1569.1102" y2="785.7702">
					<stop  offset="0" style="stop-color:#130E3E"/>
					<stop  offset="1" style="stop-color:#543DAB"/>
				</linearGradient>
				<path id="XMLID_23068_" class="st127" d="M1568.7,766.2c0,0-6.1,2.8-15.4-1.1c-4.7-2-17.8-1.4-21.5,2.6
					c-4.6,3.1-6.6,10-6.4,14.8c0.4,6.9,3.4,16.5,9.2,20.9c3.2,2.4,3.4,2.7,7.6,4c1.2-0.6,7.5-5.5,7.5-5.5c-2.4-1.4-4.3-9.5-1.7-10.9
					c2.6-1.4,4.3,3.6,4.3,3.6c1.5-0.5,3.8-2.3,2.5-5.3c-1.3-3,0-6.1,0-6.1c4.6,0.1,8.4-2.5,9.8-3.3
					C1564.7,780.1,1570.8,775.8,1568.7,766.2"/>
				<linearGradient id="XMLID_116_" gradientUnits="userSpaceOnUse" x1="1553.811" y1="1036.8138" x2="1595.0188" y2="1036.8138">
					<stop  offset="0" style="stop-color:#130E3E"/>
					<stop  offset="1" style="stop-color:#543DAB"/>
				</linearGradient>
				<path id="XMLID_23067_" class="st128" d="M1568.2,1028.3c0,0,2.6,4.3,6.4,1.9c1.2-0.8,13.8-1.1,16.1-0.5c1.1,0.3,3.4,1,3.9,2.2
					c1.3,3.2-0.3,5.9-2.7,8c-6.4,5.5-17.9,4.6-26.4,5.3c-3.7,0.3-8.2,0.4-11.5-1.2c0,0-0.6-13,1-14.9L1568.2,1028.3z"/>
				<linearGradient id="XMLID_117_" gradientUnits="userSpaceOnUse" x1="1521.2643" y1="1018.1809" x2="1548.7672" y2="1018.1809">
					<stop  offset="0" style="stop-color:#3D0EAE"/>
					<stop  offset="1" style="stop-color:#7756E5"/>
				</linearGradient>
				<path id="XMLID_23065_" class="st129" d="M1529.3,1024.9l5.1-4.5c5.5-4.9,13.6-7.1,14.3-12.2l0,0l0,0l0,0v0l0,0l0,0l0,0l0,0v0
					l0,0l0,0l0,0v0l0,0v0l0,0v0l0,0l0,0l0,0l0,0l0,0l0,0l0,0l0,0l0,0l0,0l0,0l0,0c0.1,0.5,0.1,1.1,0,1.7c-0.7,5.1-8.8,7.3-14.3,12.2
					l-5.1,4.5c-4.3,3.8-8.9,1.1-7.9-4.6C1520.9,1025.3,1525.6,1028.1,1529.3,1024.9"/>
				<linearGradient id="XMLID_118_" gradientUnits="userSpaceOnUse" x1="1518.4561" y1="956.853" x2="1548.5862" y2="956.853">
					<stop  offset="0" style="stop-color:#130E3E"/>
					<stop  offset="1" style="stop-color:#543DAB"/>
				</linearGradient>
				<path id="XMLID_23064_" class="st130" d="M1524.9,891.2c-5.3,7.6,3.7,42.9-2.1,66.5c-4.3,17.3-5.6,39.8-3,63.8
					c1.5,2.7,15.5,1.1,20.2-13.2c-1.9-26.3,4.8-38.9,7.3-58.4l1.3-55.9L1524.9,891.2z"/>
				<linearGradient id="XMLID_119_" gradientUnits="userSpaceOnUse" x1="1538.4982" y1="970.1072" x2="1578.8009" y2="970.1072">
					<stop  offset="0" style="stop-color:#130E3E"/>
					<stop  offset="1" style="stop-color:#543DAB"/>
				</linearGradient>
				<path id="XMLID_23063_" class="st131" d="M1538.6,901.3c-1.5,23.5,18.8,57,13.6,74.2c-5.7,18.7,0.1,42.3,0.2,63.4
					c0,0,15.8,1.5,24.3-7.9c-10.1-41.7,9.5-82.6-1.1-128.6L1538.6,901.3z"/>
				<linearGradient id="XMLID_120_" gradientUnits="userSpaceOnUse" x1="1513.0629" y1="857.5576" x2="1575.5353" y2="857.5576">
					<stop  offset="0" style="stop-color:#FF8200"/>
					<stop  offset="1" style="stop-color:#FFC500"/>
				</linearGradient>
				<path id="XMLID_23228_" class="st132" d="M1570.3,875.5c0.6-23.4-3.7-46.4-3.7-46.4c-2.1-3-4.6-5.6-7.6-7.8l-5.7-6.9
					c-7.3-1.8-14.4-4-21.4-6.5l-7,3l0,0h0l-3.4,0.1c-3.1,0.2-11.2,14.5-7.5,25.4c-0.1,0.5,12.2,23.5,13.2,32.6
					c0.1,0.9,1.6,12.7-3.2,21.7c0,0,0.5,2.4,2.2,3.8c12.5,15.6,45.2,14,45.8,10.3c3.1-0.3,3.6-3.8,3.6-6.5
					C1575.6,894.8,1570.3,875.5,1570.3,875.5z"/>
				<linearGradient id="XMLID_121_" gradientUnits="userSpaceOnUse" x1="1553.5721" y1="861.3018" x2="1586.9685" y2="861.3018">
					<stop  offset="0" style="stop-color:#3D0EAE"/>
					<stop  offset="1" style="stop-color:#7756E5"/>
				</linearGradient>
				<path id="XMLID_23061_" class="st133" d="M1579.2,855.4l-6.5,12.3c0,0,1.7-17.3,1.7-22.8c0-3.2-2.5-7.9-4.7-11.4
					c-1.9-2.9-5.7-3.9-8.8-2.2c-8.6,5-7.3,13.3-7.3,13.3l4.1,39.3c0.5,5.4,6.1,9.8,11,7.4c9.8-4.9,11.8-19.2,18.2-30.9
					C1586.2,854.9,1580.3,855.1,1579.2,855.4"/>
			</g>
		</g>
	</g>
	<linearGradient id="XMLID_122_" gradientUnits="userSpaceOnUse" x1="1634.9061" y1="852.7445" x2="1688.4972" y2="852.7445">
		<stop  offset="0.125" style="stop-color:#A2A2A2"/>
		<stop  offset="1" style="stop-color:#EFEFEF"/>
	</linearGradient>
	<polygon id="XMLID_23227_" class="st134" points="1634.9,852.5 1660.2,869 1688.5,849.6 1668.5,836.5 	"/>
	<polygon id="XMLID_23062_" class="st52" points="1632.1,853 1654.5,861.8 1679.4,838.3 1657.6,828.4 	"/>
</g>
</svg>
