<?xml version="1.0" encoding="utf-8"?>
<!-- Generator: Adobe Illustrator 23.0.1, SVG Export Plug-In . SVG Version: 6.00 Build 0)  -->
<svg version="1.1" xmlns="http://www.w3.org/2000/svg" xmlns:xlink="http://www.w3.org/1999/xlink" x="0px" y="0px"
	 viewBox="0 0 2560 1500" style="enable-background:new 0 0 2560 1500;" xml:space="preserve">
<style type="text/css">
	.st0{fill:#0A3F8E;}
	.st1{fill:#77D9DC;}
	.st2{fill:#4EAFAC;}
	.st3{fill:#58BFBF;}
	.st4{fill:#FA6B5C;}
	.st5{fill:#D75D4C;}
	.st6{fill:#BB5140;}
	.st7{fill:#FEDB59;}
	.st8{fill:#B89030;}
	.st9{fill:#CBAF46;}
	.st10{enable-background:new    ;}
	.st11{fill:#F7F8F8;}
	.st12{fill:#5678B5;}
	.st13{fill:#91B9FF;}
	.st14{fill:#325863;}
	.st15{fill:#680733;}
	.st16{fill:#3A75ED;}
	.st17{fill:#ED1C24;}
	.st18{fill:#EF7D00;}
	.st19{fill:#9B1048;}
	.st20{fill:#668ED6;}
	.st21{fill:#F0C7AD;}
	.st22{fill:#7A4B20;}
	.st23{fill:#4B4B4B;}
	.st24{fill:#6E6E6E;}
	.st25{fill:#4C3829;}
	.st26{fill:#EDA76A;}
	.st27{fill:#F7B07C;}
	.st28{fill:#AF7C44;}
	.st29{fill:#DE600C;}
	.st30{fill:#0F5B78;}
	.st31{fill:#F0C6AD;}
	.st32{fill:#3CDE7A;}
	.st33{fill:#4382E9;}
	.st34{fill:#FCB794;}
	.st35{fill:#432312;}
	.st36{fill:#35190D;}
	.st37{fill:#343254;}
	.st38{fill:#E5E5E5;}
	.st39{fill:#E9B488;}
	.st40{fill:#031E6C;}
	.st41{fill:#A78264;}
	.st42{fill:#656356;}
	.st43{fill:#713D23;}
	.st44{fill:#EFC100;}
	.st45{fill:#FDD400;}
	.st46{fill:#EC8659;}
	.st47{fill:#E8F9FF;}
	.st48{fill:#73D9FE;}
	.st49{fill:#DCDCDB;}
	.st50{fill:#FED22C;}
	.st51{fill:#EFA6FF;}
	.st52{fill:#4367C7;}
	.st53{fill:#FEFBF0;}
	.st54{fill:#713D22;}
</style>
<g id="Layer_1">
	<rect class="st0" width="2560" height="1500"/>
</g>
<g id="Layer_2">
	<g>
		<g>
			<g>
				<polygon class="st1" points="2102.1,1023.6 2055.3,1050.7 2008.2,1023.6 2055,996.4 				"/>
			</g>
			<g>
				<polygon class="st2" points="2102.1,1023.6 2101.6,1051.1 2054.8,1078.3 2055.3,1050.7 				"/>
			</g>
			<g>
				<polygon class="st3" points="2055.3,1050.7 2054.8,1078.3 2007.8,1051.1 2008.2,1023.6 				"/>
			</g>
		</g>
		<g>
			<g>
				<polygon class="st4" points="1458.4,949.6 1411.6,976.8 1364.6,949.6 1411.3,922.4 				"/>
			</g>
			<g>
				<polygon class="st5" points="1458.4,949.6 1457.9,1030.9 1411.2,1058.1 1411.6,976.8 				"/>
			</g>
			<g>
				<polygon class="st6" points="1411.6,976.8 1411.2,1058.1 1364.1,1030.9 1364.6,949.6 				"/>
			</g>
		</g>
		<g>
			<g>
				<polygon class="st7" points="1463.2,1215.3 1393.1,1256 1322.5,1215.3 1392.6,1174.6 				"/>
			</g>
			<g>
				<polygon class="st8" points="1463.2,1215.3 1462.5,1235.7 1392.4,1276.4 1393.1,1256 				"/>
			</g>
			<g>
				<polygon class="st9" points="1393.1,1256 1392.4,1276.4 1321.8,1235.7 1322.5,1215.3 				"/>
			</g>
		</g>
		<g>
			<g>
				<g>
					<g class="st10">
						<g>
							<polygon class="st11" points="1674.7,1240.7 1597.3,1285.6 1451.6,1201.5 1528.9,1156.5 							"/>
						</g>
						<g>
							<polygon class="st12" points="1674.7,1240.7 1674.6,1249.5 1597.3,1294.4 1597.3,1285.6 							"/>
						</g>
						<g>
							<polygon class="st13" points="1597.3,1285.6 1597.3,1294.4 1451.5,1210.3 1451.6,1201.5 							"/>
						</g>
					</g>
				</g>
				<g>
					<g>
						<polygon class="st13" points="1620.2,1226.6 1617.2,1228.3 1518.8,1171.5 1521.8,1169.8 						"/>
					</g>
					<g class="st10">
						<g>
							<polygon class="st13" points="1574.1,1219.6 1571.1,1221.4 1501.8,1181.4 1504.9,1179.6 							"/>
						</g>
						<g>
							<polygon class="st13" points="1626.3,1223 1623.3,1224.8 1524.9,1168 1528,1166.2 							"/>
						</g>
						<g>
							<polygon class="st13" points="1568.1,1223.1 1565,1224.9 1495.8,1184.9 1498.8,1183.1 							"/>
						</g>
						<g>
							<polygon class="st13" points="1614.1,1230.1 1611.1,1231.9 1512.7,1175.1 1515.7,1173.3 							"/>
						</g>
					</g>
				</g>
			</g>
			<g>
				<g class="st10">
					<g>
						<polygon class="st11" points="1727.3,503.3 1727.5,557 1534.1,668.7 1534,615.1 						"/>
					</g>
					<g>
						<polygon class="st4" points="1534.1,668.7 1528.3,665.3 1528.1,611.7 1534,615.1 						"/>
					</g>
					<g>
						<polygon class="st4" points="1534,615.1 1528.1,611.7 1721.5,499.9 1727.3,503.3 						"/>
					</g>
				</g>
			</g>
			<g>
				<g>
					<polygon class="st4" points="1712,541.7 1712,546.4 1549.5,640.2 1549.5,635.6 					"/>
				</g>
				<g>
					<polygon class="st4" points="1712,552.9 1712,557.6 1549.5,651.4 1549.5,646.8 					"/>
				</g>
				<g>
					<polygon class="st4" points="1711.9,522.5 1711.9,530.5 1549.4,624.4 1549.4,616.3 					"/>
				</g>
			</g>
			<g>
				<g class="st10">
					<g>
						<polygon class="st11" points="1727.3,424.4 1727.5,478.1 1534.1,589.8 1534,536.2 						"/>
					</g>
					<g>
						<polygon class="st4" points="1534.1,589.8 1528.3,586.4 1528.1,532.8 1534,536.2 						"/>
					</g>
					<g>
						<polygon class="st4" points="1534,536.2 1528.1,532.8 1721.5,421 1727.3,424.4 						"/>
					</g>
				</g>
			</g>
			<path class="st14" d="M1475.5,799.8c0,0-5.9-0.6-10.2-2.1c-4.3-1.5-8.9-1.2-9.8,0c-0.9,1.2,4.3,9.5,12.3,11.4c8,1.8,8,1.8,8,1.8
				v2.5c0,0,3.4,0.9,7.2,0c3.8-0.9,5-4.6,5-4.6l1-4.3L1475.5,799.8z"/>
			<g>
				<polygon class="st6" points="1669.3,751.9 1668.6,997.4 1595.9,955.5 1596.6,710 				"/>
			</g>
			<g>
				<polygon class="st5" points="1749.3,705.4 1748.6,950.9 1668.6,997.4 1669.3,751.9 				"/>
			</g>
			<g>
				<polygon class="st6" points="1845.7,761 1845,1006.5 1748.6,950.9 1749.3,705.4 				"/>
			</g>
			<polygon class="st5" points="1910.5,807.6 1838.3,849.5 1837.6,1095 1909.8,1053.1 1989.8,1006.5 1990.5,761 			"/>
			<polygon class="st15" points="1628.6,870.5 1627.9,1116 1780.2,1027.5 1780.8,782 			"/>
			<g>
				<polygon class="st16" points="1990.5,761 1910.5,807.6 1838.3,849.5 1765.7,807.5 1845.7,761 1749.3,705.4 1669.3,751.9 
					1596.6,710 1668.8,668 1748.8,621.5 1829.4,668 1909.9,714.5 				"/>
			</g>
			<g>
				<polygon class="st17" points="1838.3,849.5 1837.6,1095 1765,1053.1 1765.7,807.5 				"/>
			</g>
			<g>
				<polygon class="st18" points="1780.8,782 1628.6,870.5 1556,828.5 1475.4,782 1547.6,740.1 1636.1,791.1 1716.1,744.6 				"/>
			</g>
			<polygon class="st19" points="1556,828.5 1475.4,782 1474.7,1027.5 1555.3,1074 1627.9,1116 1628.6,870.5 			"/>
			<g>
				<polygon class="st13" points="1838.3,849.5 1766.1,891.4 1693.5,849.5 1765.7,807.5 				"/>
			</g>
			<g>
				<polygon class="st12" points="1838.3,849.5 1837.6,1095 1765.4,1136.9 1766.1,891.4 				"/>
			</g>
			<g>
				<polygon class="st20" points="1766.1,891.4 1765.4,1136.9 1692.8,1095 1693.5,849.5 				"/>
			</g>
			<g>
				<path class="st21" d="M1535,981.5c0,0,2.8-3.7,4.2-6.6c1.5-2.9,2.3-4.4,2.9-4.1c0.6,0.3,0.6,2,0.6,2s1.9-1.6,2.9-2.9
					c1-1.2,2-2.4,2-2.4s1.6-0.4,3.4,3.4c1.8,3.8,0.9,7.8,0,8.6s-8.8,7.5-13.3,7.6C1533.3,987.3,1535,981.5,1535,981.5z"/>
				<path class="st21" d="M1513.3,972.6c0,0,4-2.3,7.1-3.4c3.1-1.1,4.6-1.8,4.4-2.4c-0.2-0.6-2-0.8-2-0.8s1.9-1.7,3.2-2.6
					c1.3-0.9,2.6-1.7,2.6-1.7s0.6-1.5-2.9-3.8c-3.6-2.2-7.7-1.8-8.5-1.1c-0.9,0.8-8.5,7.8-9.2,12.3
					C1507.2,973.7,1513.3,972.6,1513.3,972.6z"/>
				<path class="st22" d="M1480.7,1125.5c0,0,1.9,0.6,5.9-0.9c4-1.5,5.9-2.3,8.3-1.9c2.5,0.4,1,3.1,0,4.4c0,0-6.9,7.5-17,9.4
					c0,0,0.4,0.9-0.7,2s-12.1,3.2-12.7-2.2C1465.4,1136.5,1479.7,1129.7,1480.7,1125.5z"/>
				<path class="st22" d="M1429.9,1115.5c0,0,2.2-1.6,4-1.5c1.8,0.1,1.2,3.4,1.2,6.1c0,2.8-4.2,7.8-6.6,9.5
					c-2.3,1.8-5.3,6.3-5.3,6.3s-4.7,5.9-9.1,2.5C1414.1,1138.5,1429.6,1121.8,1429.9,1115.5z"/>
				<path class="st23" d="M1482.6,1082.7c-7.3-9.2-17.8-17.4-17.8-17.4l-3.7-1c0,0-10.9-1.5-14.2,2.1c-3.3-5.5-10.3-11.3-15.3-7.6
					c0,0-5.9,23-8.5,29.9c-2.6,6.9-9.5,34-10.1,36c-0.6,2-2,7.2-1.6,10s2.8,4,2.8,4s3.8-0.1,7.9-4.7c4.1-4.5,7.9-12,7.9-12
					s2.2-11,4.1-15.4c1.7-3.9,11.5-24.1,14.1-32.1c5.9,9.7,21.8,24.7,21.8,24.7c-4.4,14.6-5.4,37.2-5.4,37.2c11.7,2.6,18-6.7,18-6.7
					s0.9-11.7,2.3-17.3c1.5-5.6,4.8-17,4.8-17S1489.9,1092,1482.6,1082.7z"/>
				<path class="st24" d="M1494.8,982.3l20-9.5l-5-9.7l-16.3,6.7C1493.5,969.9,1487.1,975.9,1494.8,982.3z"/>
				<path class="st23" d="M1473.3,977.4c0,0-3.7-0.1-7.3,2.2s-20.9,15.4-29,44.7c-8.1,29.3-5.4,34.5-5.4,34.5s6,5.3,11.4,9.5
					c5.4,4.2,7.6,4.8,7.6,4.8s9.5-3.8,14.2-7.8c0,0-0.6-19.5,1.6-25.3c2.2-5.9,8.5-14.2,12.9-25c4.4-10.8,3.2-20.3,3.2-20.3
					S1473.6,983.9,1473.3,977.4z"/>
				<path class="st24" d="M1479.7,998.9c0,0-4.7,0.1-6.9,5.9c-2.2,5.7,0.9,9.4,4.7,10.2c3.8,0.9,23.3-4.5,39.4-12.3
					c16.1-7.8,23.6-14.9,23.6-14.9l-4.8-9.4C1535.6,978.4,1502.5,996.8,1479.7,998.9z"/>
				<path class="st21" d="M1499,966.7v14.2c0,0-1.2,8-10.7,7.9l-5.8,5.9c0,0-7.7-4-8.4-10.7c-0.7-6.7,8.9-16.7,8.9-16.7
					S1495.4,961.2,1499,966.7z"/>
				<path class="st25" d="M1474.1,983.9c-2.9-3.3-3.8-9.9-3.5-14.5c0.4-4.6,3.2-12.4,11.5-14.5c8.3-2.1,13.3,2.9,14.8,4.9
					s4.6,2.6,4.6,2.6c0.3,0.9,0.3,3.6-2.5,4.2c-2.8,0.5-6.7,3.4-6.7,3.4s-1.4,1.2-2.4,2.3c0,0-1.5,2.1-1.1,4.2
					C1488.7,976.7,1483.6,984.3,1474.1,983.9z"/>
			</g>
			<g>
				<polygon class="st26" points="2028.3,1072.5 1986.9,1096.1 1986.9,1087.7 2029.1,1064.1 				"/>
				<polygon class="st26" points="1992,960.1 1950.6,983.7 1950.6,975.3 1992.8,951.7 				"/>
				<polygon class="st26" points="2005.4,997.6 1964,1021.2 1964,1012.8 2006.2,989.1 				"/>
				<polygon class="st26" points="2039.4,1103.5 1998,1127.1 1998,1118.7 2040.2,1095 				"/>
				<polygon class="st26" points="1962.3,858.1 1921,881.7 1921,873.3 1963.2,849.7 				"/>
				<polygon class="st26" points="1972.6,892.4 1931.3,916 1931.3,907.6 1973.5,883.9 				"/>
				<polygon class="st26" points="2019.2,1037.1 1977.8,1060.7 1977.8,1052.3 2020,1028.6 				"/>
				<g>
					<polygon class="st27" points="1949.9,786.7 1944.3,782.9 1936.6,787.5 1942.1,791.2 					"/>
					<polygon class="st26" points="1936.6,787.5 2040.3,1119.3 2045.6,1121.2 1955.2,819.5 1942.1,791.2 					"/>
					<polygon class="st28" points="2045.6,1121.2 1942.1,791.2 1949.9,786.7 2053.4,1116.7 					"/>
				</g>
				<polygon class="st28" points="1968.6,856.7 1921,883.9 1921,875.5 1963.2,851.8 				"/>
				<polygon class="st28" points="1978.9,891 1931.3,918.1 1931.3,909.7 1973.5,886.1 				"/>
				<polygon class="st26" points="1981.6,924.4 1940.2,948 1940.2,939.6 1982.4,916 				"/>
				<polygon class="st28" points="1987.9,923 1940.2,950.2 1940.2,941.8 1982.4,918.1 				"/>
				<polygon class="st28" points="1998.2,958.7 1950.6,985.9 1950.6,977.5 1992.8,953.9 				"/>
				<polygon class="st28" points="2011.7,996.2 1964,1023.3 1964,1014.9 2006.2,991.3 				"/>
				<polygon class="st28" points="2025.4,1035.7 1977.8,1062.9 1977.8,1054.5 2020,1030.8 				"/>
				<polygon class="st28" points="2034.6,1071.1 1986.9,1098.3 1986.9,1089.9 2029.1,1066.2 				"/>
				<polygon class="st28" points="2045.6,1102.1 1998,1129.3 1998,1120.9 2040.2,1097.2 				"/>
				<g>
					<polygon class="st27" points="1904.2,811.9 1898.7,808.1 1891,812.6 1896.4,816.4 					"/>
					<polygon class="st26" points="1891,812.6 1994.7,1144.5 2000,1146.3 1909.5,844.7 1896.4,816.4 					"/>
					<polygon class="st28" points="2000,1146.3 1896.4,816.4 1904.2,811.9 2007.7,1141.9 					"/>
				</g>
				<path class="st29" d="M2001,1028.9c0,0,4.5,1.9,5.4,4.5s0.4,5.8-1.3,7.1s-6.3,1.7-9.7,3.9c-3.5,2.2-6.5,6.3-9.3,6.9
					c-2.8,0.6-8.4-1.5-7.1-4.3c1.3-2.8,8.6-8.6,8.6-8.6L2001,1028.9z"/>
				<path class="st29" d="M2027.6,1077.3c0,0,0.2,3,0,6.5c-0.2,3.5-2.4,4.3-6.9,3.2c-4.5-1.1-4.3-5.6-9.3-7.6s-7.8-0.4-9.3-2.2
					c-1.5-1.7,0.6-3.9,4.8-5.4s11.7,0,11.7,0L2027.6,1077.3z"/>
				<path class="st30" d="M1974,970.6c9.9,0,29.8,3.5,29.8,3.5l14.4,9.1l18.2-3c0,0-1.1,13.4-4.3,23.5c-3.2,10.2-2.2,26.1-1.7,30.2
					c0.4,4.1,0.2,32.6-2.8,43.4c0,0-5.4,2.6-9.5,0s-4.8-4.3-4.8-4.3s0.6-24.4,0-31.7c-0.5-5.7-4-24-5-36.7
					c-10.8,0.1-21.7-8.2-21.7-8.2s9.6,19.2,11.6,23.1c2,3.9,4.6,9.9,4.6,9.9s-7.8,8.3-16.2,9.4c0,0-9.3-21.2-14.5-30.5
					c-5.2-9.3-12.3-22-12.1-28.1C1960.2,974,1964.1,970.6,1974,970.6z"/>
				<path class="st31" d="M1991.3,915.3l-2.1-2.1c0,0-7.1-0.6-9.6,0c-2.5,0.6-10.1,2.9-10.3,6.8c-0.2,3.9,2.1,2,5.9,0
					c3.8-2,4.8-0.6,5.1,0c0.3,0.6,1.8,3.7,0,5.2c-1.8,1.5-2.4,0.9-3.1,3.1c-0.8,2.2,2.3,0.7,5.4-2.3c3.1-3,6.7-5.4,6.7-5.4
					L1991.3,915.3z"/>
				<path class="st32" d="M2005.8,908.8c0,0-14.3,1.9-16.9,3.9v8.4c0,0,13.3,0.6,16.9,2.6c3.6,1.9,6.2-7.5,6.2-7.5L2005.8,908.8z"/>
				<path class="st31" d="M2007.3,890c0,0-6.2,3.6-7.5,6.2c-1.3,2.6,0,11.4,1.9,12.7s1.4,6.8,1.5,10.7c0,0,6.6,1.9,11.5,0
					c4.9-1.9,5.8-8.4,5.8-8.4L2007.3,890z"/>
				<path class="st32" d="M2023.3,908c0,0,7.8,1.7,11.9,5.6c4.1,3.9,3.2,16.6,1.3,21.2s-1.1,41.2,0,45.4c0,0-3.5,8.6-11,11.4
					c-7.6,2.8-16.2,3.5-22.7,0c-6.5-3.5-7.1-8.6-7.1-8.6s1.5-14.7,0.9-24c-0.6-9.3-7.1-26.3,0.6-33.9c7.8-7.6,13.6-9.9,13.6-9.9
					S2019.4,914.6,2023.3,908z"/>
				<path class="st31" d="M1947.5,938.4l-1.3-4.8c0,0-1.3-4.3-3.5-5.8c-2.2-1.5-1.3,0.4-4.1,2s-7.1,2.5-9.9,1.2
					c-2.8-1.3-3.7,0-2.4,3.5c1.3,3.5,2.4,12.1,19.9,7.8L1947.5,938.4z"/>
				<path class="st32" d="M1996.3,931.3c0,0-1.7-3.2-8,0c-6.3,3.2-11.2,13-21.2,11.4c-9.9-1.5-20.9-9.1-20.9-9.1s-6.3,5-1.9,10.8
					c0,0,8.6,12.5,25.3,13.6C1986.1,959.1,2004.1,942.3,1996.3,931.3z"/>
				<path class="st25" d="M2006,895.4c0,0-1.4-5.6,4-8.6c5.3-3,10.9,4.5,14,6.9c3,2.4,4.5,11,2.4,14.9c-2.2,3.9-4.5,6-9.7,6.5
					c-5.2,0.4-8.2-5.4-8-8.9C2008.8,902.8,2006,895.4,2006,895.4z"/>
			</g>
			<g>
				<path class="st25" d="M1516.8,676.5l-2.6-3.9c0,0-2,3.2-3.9-1.7c-2-4.9,1.6-6.8,3.9-9.5c2.3-2.6,15.1-10.5,20.7-7.5
					s8.9,9.2,8.5,14.1c-0.3,4.9-1.3,14.8-1.3,14.8l-6.6,4.9l-4.9-1.3L1516.8,676.5z"/>
				<polygon class="st23" points="1471.2,738.6 1504.5,748.3 1520.7,732.6 1517.1,723.7 1520.7,719.1 1504.5,715.5 				"/>
				<polygon class="st23" points="1504.5,682.7 1471.2,706 1471.2,738.6 1504.5,715.5 				"/>
				<polygon class="st33" points="1501.4,688 1474.4,706.9 1474.4,733.3 1501.4,714.6 				"/>
				<path class="st14" d="M1526,740.1c0,0-23,8.9-31.8,5.9c0,0-7.9,0-12.1,7.2c-4.3,7.2-6.2,21.3-6.2,25.9c0,0.6,0,1.6-0.1,2.7
					l18.5-10.7c0.2-4,1.3-4.1,1.3-4.1s19.4,14.6,34.3,18.8l5.1-42.4L1526,740.1z"/>
				<path class="st21" d="M1514.2,672.5c0,0,2.6,13.8,6.2,18.7c3.6,4.9,11.5,1.3,11.5,1.3v5.2l10.2-3.9v-11.1c0,0-7.9,2.6-10.8-1.3
					c-3-3.9-4.6-12.5-7.2-10.2c-2.6,2.3-2,4.3-2,4.3S1516.8,676.5,1514.2,672.5z"/>
				<path class="st21" d="M1517.1,721.4l-4.3-2.3c0,0-6.2-2-8.4-1.3c-2.1,0.7-7.4,2-5.1,3.6c2.3,1.6,3.3,0,5.1,0s1.2,3.6,3.5,4.4
					c2.3,0.8,4.2,2.1,6.2,0C1516.2,723.7,1517.1,721.4,1517.1,721.4z"/>
				<path class="st21" d="M1491,741.7C1491,741.7,1491,741.7,1491,741.7c-2.5,0-4-3-5-4.2c-0.5-0.2-1-0.3-1.4-0.3
					c-0.6,0.5-1.1,1.4-0.9,1.9c0.2,0.8-0.1,2.2-0.6,2.2c-0.4,0-2-0.3-2-0.3c-1.2-0.4-2.7-0.9-3.7-1.6c-1.6-1.1-3,0.5-3,0.5
					c0.5,6.8,4,7.7,4,7.7l0,0c0.8,0.4,1.8,0.9,3.2,1.3c6.5,2.1,13.4-1.4,13.4-1.4v-4.6C1495,743.1,1492.9,742.7,1491,741.7z"/>
				<polygon class="st33" points="1520.7,719.1 1512.9,719.1 1512.9,728.3 1516.8,732.6 				"/>
				<path class="st33" d="M1535.8,693.9c0,0-8.5,3.6-12.5,10.5s-6.2,17.1-6.2,17.1l-7.5,17.7c0,0-15.8,0.3-19.4,0l-1.3,11.8
					c0,0,9.2,2,16.4,3.3c7.2,1.3,14.8-1,15.7-4.3c1-3.3,2.6-3.9,2.6-3.9s1,10.2-2.3,16.4c-3.3,6.2-3.3,10.5-3.3,10.5
					s3.6,11.8,15.7,14.1c12.1,2.3,27.9-8.9,27.9-8.9s1-29.5,1.3-40.7s-0.7-36.1-4.3-41.6c-3.6-5.6-11.1-5.9-12.8-5.9
					S1538.4,692.5,1535.8,693.9z"/>
			</g>
			<g>
				<path class="st34" d="M2003.6,1215.2c0,0-3.3,0.8-4.3,4c-1,3.2,1.2,5.6,1.7,6.6c0.5,1,2.2,1.2,2.6,1.7c0.4,0.5,2.3,1.5,3.5,1.2
					c1.2-0.2,2.9-5.8,1.7-9.5C2007.6,1215.5,2003.6,1215.2,2003.6,1215.2z"/>
				<path class="st23" d="M2052.5,1234.9c1.8-8.2,0.5-25.8,0.5-25.8s-11.1-2.1-15.8,8.6c-5.7-3-24.2-1.2-24.2-1.2s-6,20.2-7,29.1
					c-1,8.9,2,20.5,5.5,28.9c3.5,8.4,6.8,33.2,7,34.8s0,4.3,0,4.3l9.2-11c0,0-0.8-16.9-1.8-26.3c-1-9.5-2.2-19.2-2.2-19.2
					s5.1-16.4,8.9-21.5l1.7-2.8c0,0,0.2-0.3,0.6-0.9c-0.7,17.7,2,35.7,2.2,40.3c0.3,5.1,0,30.9,0,30.9l7.2,2.6c0,0,0-4.1,2.3-15.6
					c2.3-11.5,3.6-40.1,3.8-45.3S2050.7,1243.1,2052.5,1234.9z"/>
				<path class="st34" d="M2020,1132.5l0.2-1.8c0,0-2.1-4-4-5.8s-8.3-5.5-9.5-6.1s-3.1-1.6-4.7-1.6c-1.6,0-0.5,2.6,2.5,4.5
					c3.1,1.9,4.5,3.2,4.5,3.2s0.5,2.1-0.6,2.1c-1.1,0-1.6,1.3-1.6,1.3s0.5,3.2,1.6,4.2c1.1,1.1,4,3.6,4,3.6l9.6,4.8L2020,1132.5z"/>
				<path class="st7" d="M2023.3,1161.7c0,0-8.2-16.8-9.3-19.5c-1.1-2.6-2.6-6.5-2.6-6.5l8.6-6c0,0,11.2,12.5,11.8,12.8
					c0.5,0.4,6.5,12.6,6.5,13.3c0,0.7-2.8,8.9-2.8,8.9L2023.3,1161.7z"/>
				<path class="st34" d="M2025.2,1156.3c0-2.7,0-5.7,0-5.7c-4.3-4-3.3-9.7-3.3-9.7l-0.1-2.8c0,0,3,4.4,5,6c2,1.6,2.6,7.4,8.9,8.2
					c0,0,2.8,8.2-3.4,7C2025.9,1158.3,2025.2,1156.3,2025.2,1156.3z"/>
				<path class="st35" d="M2023.5,1143.4c-0.2-0.6-1.8-5.2-1.8-5.2s-1-2,0-6.4c1-4.4,5.8-7.6,11.1-7.2c5.2,0.4,14.3,4,13.5,13.7
					c0,0,3.2,2,4.6,9.5c1.4,7.4-1.8,11.9-5,14.9c-3.2,3-3.8,7.8-3.8,7.8s-7.6-5.4-6.4-17.9
					C2035.6,1152.5,2028.2,1153.7,2023.5,1143.4z"/>
				<path class="st7" d="M2049.5,1154.3c11.1,7.2,2.2,18.9-0.2,26.2c-2.4,7.2-1.6,16.5,1.9,20.1s3.7,9.3,3.7,9.3
					c-1,2.6-10.7,17.5-27.2,15.5c-16.5-2-17.5-10.7-17.5-10.7s0.4-6.4,3.7-13.3s1.2-13.7,0.4-21.5c-0.8-7.8,0-15.7,0-15.7
					c10.3-9.9,23.5-12.3,23.5-12.3L2049.5,1154.3z"/>
				<path class="st7" d="M2010.3,1168.8c0,0,2.5-5.9,6.3-3.9c3.8,1.9,6.6,3.4,7.1,7c0.5,3.5-2.3,17.7-1.9,21.2s-2.4,10.1-4.2,13.4
					c-1.8,3.3-8.3,15.7-8.3,15.7l-7-5.4c0,0,5-16.1,5.5-19.2s2.6-16.4,2.6-16.4V1168.8z"/>
				<path class="st36" d="M2042,1170.4c0,0,0.6-4.8,3.8-7.8c3.2-3,6.4-7.4,5-14.9c-1.4-7.4-4.6-9.5-4.6-9.5s-7.8-0.2-10.7,14.3
					C2034.4,1165,2042,1170.4,2042,1170.4z"/>
				<path class="st37" d="M2039,1311.3c0,0,1.8-0.3,3.5,2.4c1.7,2.7,1.4,4.3,1.4,4.3h2.7c0,0,0.9-6.4-0.6-8.7
					C2044.4,1306.9,2039.5,1308.5,2039,1311.3z"/>
				<path class="st24" d="M2040.1,1302.6c0,0-1.8-0.7-3,0.5c-1.2,1.2-0.8,6.3-5.2,7.4c-4.4,1.1-1.2,7-1.2,7s3.6,1,5.7,0
					s2.4-8.8,9.6-8.3C2045.9,1309.2,2047.5,1301.3,2040.1,1302.6z"/>
				<path class="st37" d="M2025,1314.5c0,0,3,2.1,2.7,5c-0.3,3,0,5,0,5h4.1c0,0,0.5-9.2-0.9-12.8
					C2029.5,1308.1,2025,1314.5,2025,1314.5z"/>
				<path class="st24" d="M2025.9,1303.3c0,0-2.9,1.2-4.6,5.1c-1.8,4-3.3,6.3-5.7,6.6c-2.3,0.3-4.5,0.5-6,1.8c0,0-1,3,0.5,5.1
					c1.5,2.2,5.1,3.1,7.5,2.2c2.4-0.9,5.1-7.5,8.3-9.6c3.2-2.2,5.3-1.8,5.7-1.7s1.4-8.1-3.9-10.2L2025.9,1303.3z"/>
			</g>
			<g>
				<polygon class="st38" points="1487.2,1140.3 1515.1,1155.5 1484.1,1179.3 1456.1,1164.2 				"/>
				<path class="st39" d="M1488.8,1181.9c0,0,4.3-0.8,6.8-1.7c2.4-0.9,6.5-4.4,6.9-5.7c0.5-1.4,1.1-6.9,0-8.1c-1.1-1.2-5,3-6.6,4.4
					c-1.6,1.4-1.6,1.4-1.6,1.4s1.2-3.6,0.9-4.5c-0.3-0.9-2.1-1.1-4.2,1.2s-7.7,7.2-7.7,7.2L1488.8,1181.9z"/>
				<path class="st40" d="M1452,1327.9l1.5,1c0,0,3.4,0.5,7.3-0.5c3.9-1,8.3-0.7,7.6,2.9c-0.7,3.7-7.1,6.6-9.8,7.8
					c-2.7,1.2-8.1,2.9-8.8,3.9c-0.7,1-2,2.4-6.1,1.5s-4.3-2.7-4.3-2.7v-15.2L1452,1327.9z"/>
				<path class="st40" d="M1428,1316.4c0,0,4.9-2.4,6.6-2.2c1.7,0.2,3.7,2.9,0,6.9c-3.7,3.9-5.1,5.6-6.6,8.6
					c-1.5,2.9-2.4,5.1-5.9,4.9c-1-0.1-2-0.3-2.8-0.7c-2.2-0.8-3.6-2.9-3.6-5.2v-7.8l10.5-4.9L1428,1316.4z"/>
				<path class="st41" d="M1461.8,1233.6l1.1,3.7c0,0-0.4,21.7-3.8,37.4c-3.4,15.7-5.6,54.1-5.6,54.1s-0.7,3.7-5.4,3.9
					c-4.7,0.2-9.3-2.7-9.3-2.7s-0.7-22.8,0-36.2s1.6-21.5-0.3-28.4c0,0-1.6,14.9-4.1,24c-2.4,9.1-4.7,25-5.6,31.8c0,0-1,4.4-4.7,4.4
					c-3.7,0-4.9-0.7-7.3-3.7c0,0-1.2-21.8-1-31.3c0.2-9.5,5.4-22.8,5.4-22.8s-1.2-34.5-0.7-43.8c0.5-9.3,16.9-15.9,16.9-15.9
					L1461.8,1233.6z"/>
				<path class="st39" d="M1457.1,1114.7v17.9c0,0,0.2,6.1-2.2,7.1c-2.4,1-5.4,0-5.4,0v5.4c0,0-7.1,1.5-12.7-2.7v-5.6l8.8-18.1
					C1445.6,1118.6,1454.7,1112.9,1457.1,1114.7z"/>
				<path class="st42" d="M1449.5,1145c0,0,7.8,2.9,12.5,7.3c4.7,4.4,4.2,12.7,4.7,19.3c0.5,6.6,1.5,11,1.5,11s12.7-7.6,14.2-8.1
					c0,0,8.1,1.7,6.1,9.5c0,0-9.8,6.9-15.2,10.5c-5.4,3.7-10.3,6.9-13.7,6.9c0,0,1.2,6.9,3.4,15.2c2.2,8.3,1.5,19.8,1.5,19.8
					s-8.8,4.9-16.6,4.2c-7.8-0.7-11-3.2-11-3.2l-3.7-14.7v12.2c0,0-9.1-4.4-12.7-11c0,0,0.5-13.7,1.5-18.4c1-4.7-5.6-22-7.6-28.9
					s2.7-28.6,4.7-33.1c2-4.4,9.8-8.6,17.9-4.7L1449.5,1145z"/>
				<path class="st43" d="M1457.1,1114.7c0,0,0.5-4.2-3.4-6.6c-3.9-2.4-11-2.7-15.9,0c-4.9,2.7-8.6,6.6-8.1,14.9
					c0.5,8.3,7.1,14.9,7.1,14.9s2.7,0.7,8.3-5.1c5.6-5.9,7-13.5,8.3-15.9C1454.8,1114.4,1457.1,1114.7,1457.1,1114.7z"/>
			</g>
			<g>
				<g>
					<g>
						<path class="st44" d="M1697.1,1157.1c0,0.1,0,0.2,0,0.4c0,0.1,0,0.2,0,0.3c0,0.1,0,0.2-0.1,0.3c0,0.1,0,0.2-0.1,0.3
							c0,0.1-0.1,0.2-0.1,0.3c0,0.1-0.1,0.2-0.1,0.3c0,0.1-0.1,0.2-0.1,0.3c0,0.1-0.1,0.2-0.1,0.3c0,0.1-0.1,0.2-0.1,0.4
							c0,0.1-0.1,0.2-0.1,0.3c-0.1,0.1-0.1,0.2-0.2,0.4c-0.1,0.1-0.1,0.2-0.2,0.3c-0.1,0.1-0.2,0.3-0.3,0.4
							c-0.1,0.1-0.1,0.2-0.2,0.2c-0.1,0.2-0.2,0.3-0.3,0.5c0,0.1-0.1,0.1-0.1,0.2c-0.2,0.2-0.4,0.5-0.6,0.7
							c-0.1,0.1-0.1,0.1-0.2,0.2c-0.2,0.2-0.3,0.4-0.5,0.5c-0.1,0.1-0.2,0.2-0.3,0.2c-0.1,0.1-0.2,0.2-0.3,0.3
							c-0.1,0.1-0.2,0.2-0.3,0.3c-0.1,0.1-0.2,0.2-0.4,0.3c-0.1,0.1-0.2,0.2-0.3,0.3c-0.1,0.1-0.3,0.2-0.4,0.3
							c-0.1,0.1-0.2,0.2-0.4,0.3c-0.1,0.1-0.3,0.2-0.4,0.3c-0.2,0.1-0.4,0.2-0.5,0.3c-0.5,0.3-1,0.6-1.6,0.8
							c-0.1,0.1-0.3,0.1-0.4,0.2c-0.5,0.2-1,0.4-1.5,0.6c-0.1,0-0.1,0.1-0.2,0.1c-0.5,0.2-1.1,0.4-1.7,0.6c-0.4,0.1-0.8,0.2-1.2,0.3
							c-0.3,0.1-0.6,0.2-0.9,0.2c-0.4,0.1-0.9,0.2-1.3,0.3c-0.3,0.1-0.6,0.1-0.9,0.2c-0.1,0-0.3,0-0.4,0.1c-0.5,0.1-1.1,0.2-1.6,0.2
							c-0.2,0-0.3,0-0.5,0.1c-0.3,0-0.6,0.1-0.9,0.1c-0.5,0-1,0.1-1.6,0.1c-0.3,0-0.7,0-1,0c-0.4,0-0.9,0-1.3,0c-0.4,0-0.7,0-1.1,0
							c-0.4,0-0.8,0-1.2-0.1c-0.4,0-0.7-0.1-1.1-0.1c-0.4,0-0.8-0.1-1.2-0.1c-0.3,0-0.7-0.1-1-0.1c-0.4-0.1-0.8-0.1-1.2-0.2
							c-0.3-0.1-0.6-0.1-1-0.2c-0.5-0.1-1-0.2-1.4-0.4c-0.3-0.1-0.6-0.2-0.9-0.2c-0.2,0-0.3-0.1-0.5-0.2c-0.5-0.2-1-0.3-1.4-0.5
							c-0.1,0-0.3-0.1-0.4-0.1c-0.4-0.2-0.8-0.3-1.2-0.5c-0.2-0.1-0.4-0.2-0.6-0.3c-0.6-0.3-1.2-0.6-1.7-0.9c-3.2-1.8-5.2-4-6.2-6.4
							c-0.4-1.1-0.7-2.1-0.7-3.2l0,6.6c0,3.5,2.3,7,6.9,9.6c0.5,0.3,1.1,0.6,1.7,0.9c0.2,0.1,0.4,0.2,0.6,0.3c0.3,0.2,0.7,0.3,1,0.5
							c0.1,0,0.1,0,0.2,0.1c0.1,0.1,0.3,0.1,0.4,0.1c0.5,0.2,0.9,0.3,1.4,0.5c0.2,0.1,0.3,0.1,0.5,0.2c0.1,0,0.2,0.1,0.3,0.1
							c0.2,0.1,0.4,0.1,0.6,0.1c0.5,0.1,1,0.2,1.4,0.4c0.1,0,0.3,0.1,0.4,0.1c0.2,0,0.4,0.1,0.6,0.1c0.4,0.1,0.8,0.2,1.2,0.2
							c0.2,0,0.3,0.1,0.5,0.1c0.2,0,0.4,0,0.5,0.1c0.4,0,0.8,0.1,1.2,0.1c0.2,0,0.4,0,0.6,0.1c0.2,0,0.3,0,0.5,0
							c0.4,0,0.8,0,1.2,0.1c0.2,0,0.4,0,0.6,0c0.2,0,0.3,0,0.5,0c0.4,0,0.9,0,1.3,0c0.2,0,0.4,0,0.6,0c0.1,0,0.3,0,0.4,0
							c0.5,0,1-0.1,1.6-0.1c0.2,0,0.4,0,0.6,0c0.1,0,0.2,0,0.3,0c0.2,0,0.3,0,0.5-0.1c0.5-0.1,1.1-0.1,1.6-0.2c0.1,0,0.3,0,0.4-0.1
							c0.1,0,0.1,0,0.2,0c0.3,0,0.5-0.1,0.7-0.2c0.4-0.1,0.9-0.2,1.3-0.3c0.3-0.1,0.6-0.2,0.9-0.2c0.4-0.1,0.8-0.2,1.2-0.3
							c0.1,0,0.2,0,0.3-0.1c0.5-0.2,1-0.3,1.4-0.5c0.1,0,0.1-0.1,0.2-0.1c0.5-0.2,1-0.4,1.5-0.6c0.1-0.1,0.3-0.1,0.4-0.2
							c0.5-0.3,1.1-0.5,1.6-0.8c0.1-0.1,0.2-0.1,0.3-0.2c0.1-0.1,0.2-0.1,0.3-0.2c0.1-0.1,0.3-0.2,0.4-0.3c0.1-0.1,0.2-0.2,0.4-0.3
							c0.1-0.1,0.3-0.2,0.4-0.3c0.1-0.1,0.2-0.2,0.3-0.3c0.1-0.1,0.2-0.2,0.4-0.3c0.1-0.1,0.2-0.2,0.3-0.3c0.1-0.1,0.2-0.2,0.3-0.3
							c0,0,0.1-0.1,0.1-0.1c0,0,0.1-0.1,0.1-0.1c0.2-0.2,0.4-0.3,0.5-0.5c0.1-0.1,0.1-0.1,0.2-0.2c0.2-0.2,0.4-0.5,0.6-0.7
							c0,0,0,0,0,0c0-0.1,0.1-0.1,0.1-0.2c0.1-0.1,0.2-0.3,0.3-0.5c0.1-0.1,0.1-0.2,0.2-0.2c0.1-0.1,0.2-0.3,0.3-0.4
							c0,0,0-0.1,0.1-0.1c0-0.1,0.1-0.1,0.1-0.2c0.1-0.1,0.1-0.2,0.2-0.3c0-0.1,0.1-0.2,0.1-0.3c0.1-0.1,0.1-0.2,0.1-0.4
							c0-0.1,0-0.1,0.1-0.2c0,0,0-0.1,0-0.1c0-0.1,0.1-0.2,0.1-0.3c0-0.1,0.1-0.2,0.1-0.3c0-0.1,0.1-0.2,0.1-0.3c0-0.1,0-0.1,0-0.2
							c0,0,0-0.1,0-0.1c0-0.1,0-0.2,0.1-0.4c0-0.1,0-0.2,0-0.3c0-0.1,0-0.2,0-0.4c0-0.1,0-0.1,0-0.2c0-0.1,0-0.1,0-0.2l0-6.5
							C1697.1,1156.8,1697.1,1156.9,1697.1,1157.1z"/>
						<g>
							<path class="st45" d="M1690.2,1147.1c9.1,5.3,9.2,13.8,0.1,19.1c-9.1,5.3-23.8,5.3-32.9,0c-9.1-5.3-9.2-13.8-0.1-19.1
								C1666.3,1141.8,1681.1,1141.8,1690.2,1147.1z"/>
						</g>
						<g>
							<path class="st46" d="M1681.4,1155.2c2,1.2,2.3,3,0.2,4.7l2.3,1.3l-2.2,1.3l-2.1-1.2c-1.6,0.8-3.4,1.4-4.8,1.6l-2-1.9
								c1.4-0.3,3.2-0.7,4.7-1.6c1.3-0.7,1.7-1.5,0.8-2c-0.9-0.5-2.1-0.4-4.3,0.2c-3.2,0.9-6,1.2-8.1,0c-2-1.1-2.2-2.8-0.2-4.5
								l-2.1-1.2l2.2-1.3l2,1.1c1.6-0.8,2.9-1.2,4-1.5l1.9,1.9c-0.8,0.2-2.4,0.5-4,1.4c-1.4,0.8-1.3,1.5-0.7,1.8
								c0.7,0.4,2,0.3,4.6-0.4C1677.1,1153.9,1679.4,1154,1681.4,1155.2z"/>
						</g>
					</g>
				</g>
				<g>
					<g>
						<path class="st44" d="M1697.1,1146.5c0,0.1,0,0.2,0,0.4c0,0.1,0,0.2,0,0.3c0,0.1,0,0.2-0.1,0.3c0,0.1,0,0.2-0.1,0.3
							c0,0.1-0.1,0.2-0.1,0.3c0,0.1-0.1,0.2-0.1,0.3c0,0.1-0.1,0.2-0.1,0.3c0,0.1-0.1,0.2-0.1,0.3c0,0.1-0.1,0.2-0.1,0.4
							c0,0.1-0.1,0.2-0.1,0.3c-0.1,0.1-0.1,0.2-0.2,0.4c-0.1,0.1-0.1,0.2-0.2,0.3c-0.1,0.1-0.2,0.3-0.3,0.4
							c-0.1,0.1-0.1,0.2-0.2,0.2c-0.1,0.2-0.2,0.3-0.3,0.5c0,0.1-0.1,0.1-0.1,0.2c-0.2,0.2-0.4,0.5-0.6,0.7
							c-0.1,0.1-0.1,0.1-0.2,0.2c-0.2,0.2-0.3,0.4-0.5,0.5c-0.1,0.1-0.2,0.2-0.3,0.2c-0.1,0.1-0.2,0.2-0.3,0.3
							c-0.1,0.1-0.2,0.2-0.3,0.3c-0.1,0.1-0.2,0.2-0.4,0.3c-0.1,0.1-0.2,0.2-0.3,0.3c-0.1,0.1-0.3,0.2-0.4,0.3
							c-0.1,0.1-0.2,0.2-0.4,0.3c-0.1,0.1-0.3,0.2-0.4,0.3c-0.2,0.1-0.4,0.2-0.5,0.3c-0.5,0.3-1,0.6-1.6,0.8
							c-0.1,0.1-0.3,0.1-0.4,0.2c-0.5,0.2-1,0.4-1.5,0.6c-0.1,0-0.1,0.1-0.2,0.1c-0.5,0.2-1.1,0.4-1.7,0.6c-0.4,0.1-0.8,0.2-1.2,0.3
							c-0.3,0.1-0.6,0.2-0.9,0.2c-0.4,0.1-0.9,0.2-1.3,0.3c-0.3,0.1-0.6,0.1-0.9,0.2c-0.1,0-0.3,0-0.4,0.1c-0.5,0.1-1.1,0.2-1.6,0.2
							c-0.2,0-0.3,0-0.5,0.1c-0.3,0-0.6,0.1-0.9,0.1c-0.5,0-1,0.1-1.6,0.1c-0.3,0-0.7,0-1,0c-0.4,0-0.9,0-1.3,0c-0.4,0-0.7,0-1.1,0
							c-0.4,0-0.8,0-1.2-0.1c-0.4,0-0.7-0.1-1.1-0.1c-0.4,0-0.8-0.1-1.2-0.1c-0.3,0-0.7-0.1-1-0.1c-0.4-0.1-0.8-0.1-1.2-0.2
							c-0.3-0.1-0.6-0.1-1-0.2c-0.5-0.1-1-0.2-1.4-0.4c-0.3-0.1-0.6-0.2-0.9-0.2c-0.2,0-0.3-0.1-0.5-0.2c-0.5-0.2-1-0.3-1.4-0.5
							c-0.1,0-0.3-0.1-0.4-0.1c-0.4-0.2-0.8-0.3-1.2-0.5c-0.2-0.1-0.4-0.2-0.6-0.3c-0.6-0.3-1.2-0.6-1.7-0.9c-3.2-1.8-5.2-4-6.2-6.4
							c-0.4-1.1-0.7-2.1-0.7-3.2l0,6.6c0,3.5,2.3,7,6.9,9.6c0.5,0.3,1.1,0.6,1.7,0.9c0.2,0.1,0.4,0.2,0.6,0.3c0.3,0.2,0.7,0.3,1,0.5
							c0.1,0,0.1,0,0.2,0.1c0.1,0.1,0.3,0.1,0.4,0.1c0.5,0.2,0.9,0.3,1.4,0.5c0.2,0.1,0.3,0.1,0.5,0.2c0.1,0,0.2,0.1,0.3,0.1
							c0.2,0.1,0.4,0.1,0.6,0.1c0.5,0.1,1,0.2,1.4,0.4c0.1,0,0.3,0.1,0.4,0.1c0.2,0,0.4,0.1,0.6,0.1c0.4,0.1,0.8,0.2,1.2,0.2
							c0.2,0,0.3,0.1,0.5,0.1c0.2,0,0.4,0,0.5,0.1c0.4,0,0.8,0.1,1.2,0.1c0.2,0,0.4,0,0.6,0.1c0.2,0,0.3,0,0.5,0
							c0.4,0,0.8,0,1.2,0.1c0.2,0,0.4,0,0.6,0c0.2,0,0.3,0,0.5,0c0.4,0,0.9,0,1.3,0c0.2,0,0.4,0,0.6,0c0.1,0,0.3,0,0.4,0
							c0.5,0,1-0.1,1.6-0.1c0.2,0,0.4,0,0.6,0c0.1,0,0.2,0,0.3,0c0.2,0,0.3,0,0.5-0.1c0.5-0.1,1.1-0.1,1.6-0.2c0.1,0,0.3,0,0.4-0.1
							c0.1,0,0.1,0,0.2,0c0.3,0,0.5-0.1,0.7-0.2c0.4-0.1,0.9-0.2,1.3-0.3c0.3-0.1,0.6-0.2,0.9-0.2c0.4-0.1,0.8-0.2,1.2-0.3
							c0.1,0,0.2,0,0.3-0.1c0.5-0.2,1-0.3,1.4-0.5c0.1,0,0.1-0.1,0.2-0.1c0.5-0.2,1-0.4,1.5-0.6c0.1-0.1,0.3-0.1,0.4-0.2
							c0.5-0.3,1.1-0.5,1.6-0.8c0.1-0.1,0.2-0.1,0.3-0.2c0.1-0.1,0.2-0.1,0.3-0.2c0.1-0.1,0.3-0.2,0.4-0.3c0.1-0.1,0.2-0.2,0.4-0.3
							c0.1-0.1,0.3-0.2,0.4-0.3c0.1-0.1,0.2-0.2,0.3-0.3c0.1-0.1,0.2-0.2,0.4-0.3c0.1-0.1,0.2-0.2,0.3-0.3c0.1-0.1,0.2-0.2,0.3-0.3
							c0,0,0.1-0.1,0.1-0.1c0,0,0.1-0.1,0.1-0.1c0.2-0.2,0.4-0.3,0.5-0.5c0.1-0.1,0.1-0.1,0.2-0.2c0.2-0.2,0.4-0.5,0.6-0.7
							c0,0,0,0,0,0c0-0.1,0.1-0.1,0.1-0.2c0.1-0.1,0.2-0.3,0.3-0.5c0.1-0.1,0.1-0.2,0.2-0.2c0.1-0.1,0.2-0.3,0.3-0.4
							c0,0,0-0.1,0.1-0.1c0-0.1,0.1-0.1,0.1-0.2c0.1-0.1,0.1-0.2,0.2-0.3c0-0.1,0.1-0.2,0.1-0.3c0.1-0.1,0.1-0.2,0.1-0.4
							c0-0.1,0-0.1,0.1-0.2c0,0,0-0.1,0-0.1c0-0.1,0.1-0.2,0.1-0.3c0-0.1,0.1-0.2,0.1-0.3c0-0.1,0.1-0.2,0.1-0.3c0-0.1,0-0.1,0-0.2
							c0,0,0-0.1,0-0.1c0-0.1,0-0.2,0.1-0.4c0-0.1,0-0.2,0-0.3c0-0.1,0-0.2,0-0.4c0-0.1,0-0.1,0-0.2c0-0.1,0-0.1,0-0.2l0-6.5
							C1697.1,1146.2,1697.1,1146.4,1697.1,1146.5z"/>
						<g>
							<path class="st45" d="M1690.2,1136.5c9.1,5.3,9.2,13.8,0.1,19.1c-9.1,5.3-23.8,5.3-32.9,0c-9.1-5.3-9.2-13.8-0.1-19.1
								C1666.3,1131.2,1681.1,1131.2,1690.2,1136.5z"/>
						</g>
						<g>
							<path class="st46" d="M1681.4,1144.6c2,1.2,2.3,3,0.2,4.7l2.3,1.3l-2.2,1.3l-2.1-1.2c-1.6,0.8-3.4,1.4-4.8,1.6l-2-1.9
								c1.4-0.3,3.2-0.7,4.7-1.6c1.3-0.7,1.7-1.5,0.8-2c-0.9-0.5-2.1-0.4-4.3,0.2c-3.2,0.9-6,1.2-8.1,0c-2-1.1-2.2-2.8-0.2-4.5
								l-2.1-1.2l2.2-1.3l2,1.1c1.6-0.8,2.9-1.2,4-1.5l1.9,1.9c-0.8,0.2-2.4,0.5-4,1.4c-1.4,0.8-1.3,1.5-0.7,1.8
								c0.7,0.4,2,0.3,4.6-0.4C1677.1,1143.4,1679.4,1143.5,1681.4,1144.6z"/>
						</g>
					</g>
				</g>
				<g>
					<g>
						<path class="st44" d="M1692.2,1136.9c0,0.1,0,0.2,0,0.4c0,0.1,0,0.2,0,0.3c0,0.1,0,0.2-0.1,0.3c0,0.1,0,0.2-0.1,0.3
							c0,0.1-0.1,0.2-0.1,0.3c0,0.1-0.1,0.2-0.1,0.3c0,0.1-0.1,0.2-0.1,0.3c0,0.1-0.1,0.2-0.1,0.3c0,0.1-0.1,0.2-0.1,0.4
							c0,0.1-0.1,0.2-0.1,0.3c-0.1,0.1-0.1,0.2-0.2,0.4c-0.1,0.1-0.1,0.2-0.2,0.3c-0.1,0.1-0.2,0.3-0.3,0.4
							c-0.1,0.1-0.1,0.2-0.2,0.2c-0.1,0.2-0.2,0.3-0.3,0.5c0,0.1-0.1,0.1-0.1,0.2c-0.2,0.2-0.4,0.5-0.6,0.7
							c-0.1,0.1-0.1,0.1-0.2,0.2c-0.2,0.2-0.3,0.4-0.5,0.5c-0.1,0.1-0.2,0.2-0.3,0.2c-0.1,0.1-0.2,0.2-0.3,0.3
							c-0.1,0.1-0.2,0.2-0.3,0.3c-0.1,0.1-0.2,0.2-0.4,0.3c-0.1,0.1-0.2,0.2-0.3,0.3c-0.1,0.1-0.3,0.2-0.4,0.3
							c-0.1,0.1-0.2,0.2-0.4,0.2c-0.1,0.1-0.3,0.2-0.4,0.3c-0.2,0.1-0.4,0.2-0.5,0.3c-0.5,0.3-1,0.6-1.6,0.8
							c-0.1,0.1-0.3,0.1-0.4,0.2c-0.5,0.2-1,0.4-1.5,0.6c-0.1,0-0.1,0.1-0.2,0.1c-0.5,0.2-1.1,0.4-1.7,0.6c-0.4,0.1-0.8,0.2-1.2,0.3
							c-0.3,0.1-0.6,0.2-0.9,0.2c-0.4,0.1-0.9,0.2-1.3,0.3c-0.3,0.1-0.6,0.1-0.9,0.2c-0.1,0-0.3,0-0.4,0.1c-0.5,0.1-1.1,0.2-1.6,0.2
							c-0.2,0-0.3,0-0.5,0.1c-0.3,0-0.6,0.1-0.9,0.1c-0.5,0-1,0.1-1.6,0.1c-0.3,0-0.7,0-1,0c-0.4,0-0.9,0-1.3,0c-0.4,0-0.7,0-1.1,0
							c-0.4,0-0.8,0-1.2-0.1c-0.4,0-0.7-0.1-1.1-0.1c-0.4,0-0.8-0.1-1.2-0.1c-0.3,0-0.7-0.1-1-0.1c-0.4-0.1-0.8-0.1-1.2-0.2
							c-0.3-0.1-0.6-0.1-1-0.2c-0.5-0.1-1-0.2-1.4-0.4c-0.3-0.1-0.6-0.2-0.9-0.2c-0.2,0-0.3-0.1-0.5-0.2c-0.5-0.2-1-0.3-1.4-0.5
							c-0.1,0-0.3-0.1-0.4-0.1c-0.4-0.2-0.8-0.3-1.2-0.5c-0.2-0.1-0.4-0.2-0.6-0.3c-0.6-0.3-1.2-0.6-1.7-0.9c-3.2-1.8-5.2-4-6.2-6.4
							c-0.4-1.1-0.7-2.1-0.7-3.2l0,6.6c0,3.5,2.3,7,6.9,9.6c0.5,0.3,1.1,0.6,1.7,0.9c0.2,0.1,0.4,0.2,0.6,0.3c0.3,0.2,0.7,0.3,1,0.5
							c0.1,0,0.1,0,0.2,0.1c0.1,0.1,0.3,0.1,0.4,0.1c0.5,0.2,0.9,0.3,1.4,0.5c0.2,0.1,0.3,0.1,0.5,0.2c0.1,0,0.2,0.1,0.3,0.1
							c0.2,0.1,0.4,0.1,0.6,0.1c0.5,0.1,1,0.2,1.4,0.4c0.1,0,0.3,0.1,0.4,0.1c0.2,0,0.4,0.1,0.6,0.1c0.4,0.1,0.8,0.2,1.2,0.2
							c0.2,0,0.3,0.1,0.5,0.1c0.2,0,0.4,0,0.5,0.1c0.4,0,0.8,0.1,1.2,0.1c0.2,0,0.4,0,0.6,0.1c0.2,0,0.3,0,0.5,0
							c0.4,0,0.8,0,1.2,0.1c0.2,0,0.4,0,0.6,0c0.2,0,0.3,0,0.5,0c0.4,0,0.9,0,1.3,0c0.2,0,0.4,0,0.6,0c0.1,0,0.3,0,0.4,0
							c0.5,0,1-0.1,1.6-0.1c0.2,0,0.4,0,0.6,0c0.1,0,0.2,0,0.3,0c0.2,0,0.3,0,0.5-0.1c0.5-0.1,1.1-0.1,1.6-0.2c0.1,0,0.3,0,0.4-0.1
							c0.1,0,0.1,0,0.2,0c0.3,0,0.5-0.1,0.7-0.2c0.4-0.1,0.9-0.2,1.3-0.3c0.3-0.1,0.6-0.2,0.9-0.2c0.4-0.1,0.8-0.2,1.2-0.3
							c0.1,0,0.2,0,0.3-0.1c0.5-0.2,1-0.3,1.4-0.5c0.1,0,0.1-0.1,0.2-0.1c0.5-0.2,1-0.4,1.5-0.6c0.1-0.1,0.3-0.1,0.4-0.2
							c0.5-0.3,1.1-0.5,1.6-0.8c0.1-0.1,0.2-0.1,0.3-0.2c0.1-0.1,0.2-0.1,0.3-0.2c0.1-0.1,0.3-0.2,0.4-0.3c0.1-0.1,0.2-0.2,0.4-0.3
							c0.1-0.1,0.3-0.2,0.4-0.3c0.1-0.1,0.2-0.2,0.3-0.3c0.1-0.1,0.2-0.2,0.4-0.3c0.1-0.1,0.2-0.2,0.3-0.3c0.1-0.1,0.2-0.2,0.3-0.3
							c0,0,0.1-0.1,0.1-0.1c0,0,0.1-0.1,0.1-0.1c0.2-0.2,0.4-0.3,0.5-0.5c0.1-0.1,0.1-0.1,0.2-0.2c0.2-0.2,0.4-0.5,0.6-0.7
							c0,0,0,0,0,0c0-0.1,0.1-0.1,0.1-0.2c0.1-0.1,0.2-0.3,0.3-0.5c0.1-0.1,0.1-0.2,0.2-0.2c0.1-0.1,0.2-0.3,0.3-0.4
							c0,0,0-0.1,0.1-0.1c0-0.1,0.1-0.1,0.1-0.2c0.1-0.1,0.1-0.2,0.2-0.3c0-0.1,0.1-0.2,0.1-0.3c0.1-0.1,0.1-0.2,0.1-0.4
							c0-0.1,0-0.1,0.1-0.2c0,0,0-0.1,0-0.1c0-0.1,0.1-0.2,0.1-0.3c0-0.1,0.1-0.2,0.1-0.3c0-0.1,0.1-0.2,0.1-0.3c0-0.1,0-0.1,0-0.2
							c0,0,0-0.1,0-0.1c0-0.1,0-0.2,0.1-0.4c0-0.1,0-0.2,0-0.3c0-0.1,0-0.2,0-0.4c0-0.1,0-0.1,0-0.2c0-0.1,0-0.1,0-0.2l0-6.6
							C1692.2,1136.6,1692.2,1136.7,1692.2,1136.9z"/>
						<g>
							<path class="st45" d="M1685.3,1126.9c9.1,5.3,9.2,13.8,0.1,19.1c-9.1,5.3-23.8,5.3-32.9,0c-9.1-5.3-9.2-13.8-0.1-19.1
								S1676.2,1121.6,1685.3,1126.9z"/>
						</g>
						<g>
							<path class="st46" d="M1676.5,1135c2,1.2,2.3,3,0.2,4.7l2.3,1.3l-2.2,1.3l-2.1-1.2c-1.6,0.8-3.4,1.4-4.8,1.6l-2-1.9
								c1.4-0.3,3.2-0.7,4.7-1.6c1.3-0.7,1.7-1.5,0.8-2c-0.9-0.5-2.1-0.4-4.3,0.2c-3.2,0.9-6,1.2-8.1,0c-2-1.1-2.2-2.8-0.2-4.5
								l-2.1-1.2l2.2-1.3l2,1.1c1.6-0.8,2.9-1.2,4-1.5l1.9,1.9c-0.8,0.2-2.4,0.5-4,1.4c-1.4,0.8-1.3,1.5-0.7,1.8
								c0.7,0.4,2,0.3,4.6-0.4C1672.2,1133.8,1674.5,1133.8,1676.5,1135z"/>
						</g>
					</g>
				</g>
				<g>
					<g>
						<path class="st44" d="M1685.8,1124.9c0,0.1,0,0.2,0,0.4c0,0.1,0,0.2,0,0.3c0,0.1,0,0.2-0.1,0.3c0,0.1,0,0.2-0.1,0.3
							c0,0.1-0.1,0.2-0.1,0.3c0,0.1-0.1,0.2-0.1,0.3c0,0.1-0.1,0.2-0.1,0.3c0,0.1-0.1,0.2-0.1,0.3c0,0.1-0.1,0.2-0.1,0.4
							c0,0.1-0.1,0.2-0.1,0.3c-0.1,0.1-0.1,0.2-0.2,0.4c-0.1,0.1-0.1,0.2-0.2,0.3c-0.1,0.1-0.2,0.3-0.3,0.4
							c-0.1,0.1-0.1,0.2-0.2,0.2c-0.1,0.2-0.2,0.3-0.3,0.5c0,0.1-0.1,0.1-0.1,0.2c-0.2,0.2-0.4,0.5-0.6,0.7
							c-0.1,0.1-0.1,0.1-0.2,0.2c-0.2,0.2-0.3,0.4-0.5,0.5c-0.1,0.1-0.2,0.2-0.3,0.2c-0.1,0.1-0.2,0.2-0.3,0.3
							c-0.1,0.1-0.2,0.2-0.3,0.3c-0.1,0.1-0.2,0.2-0.4,0.3c-0.1,0.1-0.2,0.2-0.3,0.3c-0.1,0.1-0.3,0.2-0.4,0.3
							c-0.1,0.1-0.2,0.2-0.4,0.3c-0.1,0.1-0.3,0.2-0.4,0.3c-0.2,0.1-0.4,0.2-0.5,0.3c-0.5,0.3-1,0.6-1.6,0.8
							c-0.1,0.1-0.3,0.1-0.4,0.2c-0.5,0.2-1,0.4-1.5,0.6c-0.1,0-0.1,0.1-0.2,0.1c-0.5,0.2-1.1,0.4-1.7,0.6c-0.4,0.1-0.8,0.2-1.2,0.3
							c-0.3,0.1-0.6,0.2-0.9,0.2c-0.4,0.1-0.9,0.2-1.3,0.3c-0.3,0.1-0.6,0.1-0.9,0.2c-0.1,0-0.3,0-0.4,0.1c-0.5,0.1-1.1,0.2-1.6,0.2
							c-0.2,0-0.3,0-0.5,0.1c-0.3,0-0.6,0.1-0.9,0.1c-0.5,0-1,0.1-1.6,0.1c-0.3,0-0.7,0-1,0c-0.4,0-0.9,0-1.3,0c-0.4,0-0.7,0-1.1,0
							c-0.4,0-0.8,0-1.2-0.1c-0.4,0-0.7-0.1-1.1-0.1c-0.4,0-0.8-0.1-1.2-0.1c-0.3,0-0.7-0.1-1-0.1c-0.4-0.1-0.8-0.1-1.2-0.2
							c-0.3-0.1-0.6-0.1-1-0.2c-0.5-0.1-1-0.2-1.4-0.4c-0.3-0.1-0.6-0.2-0.9-0.2c-0.2,0-0.3-0.1-0.5-0.2c-0.5-0.2-1-0.3-1.4-0.5
							c-0.1,0-0.3-0.1-0.4-0.1c-0.4-0.2-0.8-0.3-1.2-0.5c-0.2-0.1-0.4-0.2-0.6-0.3c-0.6-0.3-1.2-0.6-1.7-0.9c-3.2-1.8-5.2-4-6.2-6.4
							c-0.4-1.1-0.7-2.1-0.7-3.2l0,6.6c0,3.5,2.3,7,6.9,9.6c0.5,0.3,1.1,0.6,1.7,0.9c0.2,0.1,0.4,0.2,0.6,0.3c0.3,0.2,0.7,0.3,1,0.5
							c0.1,0,0.1,0,0.2,0.1c0.1,0.1,0.3,0.1,0.4,0.1c0.5,0.2,0.9,0.3,1.4,0.5c0.2,0.1,0.3,0.1,0.5,0.2c0.1,0,0.2,0.1,0.3,0.1
							c0.2,0.1,0.4,0.1,0.6,0.1c0.5,0.1,1,0.2,1.4,0.4c0.1,0,0.3,0.1,0.4,0.1c0.2,0,0.4,0.1,0.6,0.1c0.4,0.1,0.8,0.2,1.2,0.2
							c0.2,0,0.3,0.1,0.5,0.1c0.2,0,0.4,0,0.5,0.1c0.4,0,0.8,0.1,1.2,0.1c0.2,0,0.4,0,0.6,0.1c0.2,0,0.3,0,0.5,0
							c0.4,0,0.8,0,1.2,0.1c0.2,0,0.4,0,0.6,0c0.2,0,0.3,0,0.5,0c0.4,0,0.9,0,1.3,0c0.2,0,0.4,0,0.6,0c0.1,0,0.3,0,0.4,0
							c0.5,0,1-0.1,1.6-0.1c0.2,0,0.4,0,0.6,0c0.1,0,0.2,0,0.3,0c0.2,0,0.3,0,0.5-0.1c0.5-0.1,1.1-0.1,1.6-0.2c0.1,0,0.3,0,0.4-0.1
							c0.1,0,0.1,0,0.2,0c0.3,0,0.5-0.1,0.7-0.2c0.4-0.1,0.9-0.2,1.3-0.3c0.3-0.1,0.6-0.2,0.9-0.2c0.4-0.1,0.8-0.2,1.2-0.3
							c0.1,0,0.2,0,0.3-0.1c0.5-0.2,1-0.3,1.4-0.5c0.1,0,0.1-0.1,0.2-0.1c0.5-0.2,1-0.4,1.5-0.6c0.1-0.1,0.3-0.1,0.4-0.2
							c0.5-0.3,1.1-0.5,1.6-0.8c0.1-0.1,0.2-0.1,0.3-0.2c0.1-0.1,0.2-0.1,0.3-0.2c0.1-0.1,0.3-0.2,0.4-0.3c0.1-0.1,0.2-0.2,0.4-0.3
							c0.1-0.1,0.3-0.2,0.4-0.3c0.1-0.1,0.2-0.2,0.3-0.3c0.1-0.1,0.2-0.2,0.4-0.3c0.1-0.1,0.2-0.2,0.3-0.3c0.1-0.1,0.2-0.2,0.3-0.3
							c0,0,0.1-0.1,0.1-0.1c0,0,0.1-0.1,0.1-0.1c0.2-0.2,0.4-0.3,0.5-0.5c0.1-0.1,0.1-0.1,0.2-0.2c0.2-0.2,0.4-0.5,0.6-0.7
							c0,0,0,0,0,0c0-0.1,0.1-0.1,0.1-0.2c0.1-0.1,0.2-0.3,0.3-0.4c0.1-0.1,0.1-0.2,0.2-0.2c0.1-0.1,0.2-0.3,0.3-0.4
							c0,0,0-0.1,0.1-0.1c0-0.1,0.1-0.1,0.1-0.2c0.1-0.1,0.1-0.2,0.2-0.3c0-0.1,0.1-0.2,0.1-0.3c0.1-0.1,0.1-0.2,0.1-0.4
							c0-0.1,0-0.1,0.1-0.2c0,0,0-0.1,0-0.1c0-0.1,0.1-0.2,0.1-0.3c0-0.1,0.1-0.2,0.1-0.3c0-0.1,0.1-0.2,0.1-0.3c0-0.1,0-0.1,0-0.2
							c0,0,0-0.1,0-0.1c0-0.1,0-0.2,0.1-0.4c0-0.1,0-0.2,0-0.3c0-0.1,0-0.2,0-0.4c0-0.1,0-0.1,0-0.2c0-0.1,0-0.1,0-0.2l0-6.6
							C1685.8,1124.7,1685.8,1124.8,1685.8,1124.9z"/>
						<g>
							<path class="st45" d="M1679,1114.9c9.1,5.3,9.2,13.8,0.1,19.1s-23.8,5.3-32.9,0c-9.1-5.3-9.2-13.8-0.1-19.1
								C1655.1,1109.6,1669.9,1109.6,1679,1114.9z"/>
						</g>
						<g>
							<path class="st46" d="M1670.2,1123.1c2,1.2,2.3,3,0.2,4.7l2.3,1.3l-2.2,1.3l-2.1-1.2c-1.6,0.8-3.4,1.4-4.8,1.6l-2-1.9
								c1.4-0.3,3.2-0.7,4.7-1.6c1.3-0.7,1.7-1.5,0.8-2c-0.9-0.5-2.1-0.4-4.3,0.2c-3.2,0.9-6,1.2-8.1,0c-2-1.1-2.2-2.8-0.2-4.5
								l-2.1-1.2l2.2-1.3l2,1.1c1.6-0.8,2.9-1.2,4-1.5l1.9,1.9c-0.8,0.2-2.4,0.5-4,1.4c-1.4,0.8-1.3,1.5-0.7,1.8
								c0.7,0.4,2,0.3,4.6-0.4C1665.8,1121.8,1668.1,1121.9,1670.2,1123.1z"/>
						</g>
					</g>
				</g>
				<g>
					<g>
						<path class="st44" d="M1698.8,1117.8c0,0.1,0,0.2,0,0.4c0,0.1,0,0.2,0,0.3c0,0.1,0,0.2-0.1,0.3c0,0.1,0,0.2-0.1,0.3
							c0,0.1-0.1,0.2-0.1,0.3c0,0.1-0.1,0.2-0.1,0.3c0,0.1-0.1,0.2-0.1,0.3c0,0.1-0.1,0.2-0.1,0.3c0,0.1-0.1,0.2-0.1,0.4
							c0,0.1-0.1,0.2-0.1,0.3c-0.1,0.1-0.1,0.2-0.2,0.4c-0.1,0.1-0.1,0.2-0.2,0.3c-0.1,0.1-0.2,0.3-0.3,0.4
							c-0.1,0.1-0.1,0.2-0.2,0.2c-0.1,0.2-0.2,0.3-0.3,0.5c0,0.1-0.1,0.1-0.1,0.2c-0.2,0.2-0.4,0.5-0.6,0.7
							c-0.1,0.1-0.1,0.1-0.2,0.2c-0.2,0.2-0.3,0.4-0.5,0.5c-0.1,0.1-0.2,0.2-0.3,0.2c-0.1,0.1-0.2,0.2-0.3,0.3
							c-0.1,0.1-0.2,0.2-0.3,0.3c-0.1,0.1-0.2,0.2-0.4,0.3c-0.1,0.1-0.2,0.2-0.3,0.3c-0.1,0.1-0.3,0.2-0.4,0.3
							c-0.1,0.1-0.2,0.2-0.4,0.3c-0.1,0.1-0.3,0.2-0.4,0.3c-0.2,0.1-0.4,0.2-0.5,0.3c-0.5,0.3-1,0.6-1.6,0.8
							c-0.1,0.1-0.3,0.1-0.4,0.2c-0.5,0.2-1,0.4-1.5,0.6c-0.1,0-0.1,0.1-0.2,0.1c-0.5,0.2-1.1,0.4-1.7,0.6c-0.4,0.1-0.8,0.2-1.2,0.3
							c-0.3,0.1-0.6,0.2-0.9,0.2c-0.4,0.1-0.9,0.2-1.3,0.3c-0.3,0.1-0.6,0.1-0.9,0.2c-0.1,0-0.3,0-0.4,0.1c-0.5,0.1-1.1,0.2-1.6,0.2
							c-0.2,0-0.3,0-0.5,0.1c-0.3,0-0.6,0.1-0.9,0.1c-0.5,0-1,0.1-1.6,0.1c-0.3,0-0.7,0-1,0c-0.4,0-0.9,0-1.3,0c-0.4,0-0.7,0-1.1,0
							c-0.4,0-0.8,0-1.2-0.1c-0.4,0-0.7-0.1-1.1-0.1c-0.4,0-0.8-0.1-1.2-0.1c-0.3,0-0.7-0.1-1-0.1c-0.4-0.1-0.8-0.1-1.2-0.2
							c-0.3-0.1-0.6-0.1-1-0.2c-0.5-0.1-1-0.2-1.4-0.4c-0.3-0.1-0.6-0.2-0.9-0.2c-0.2,0-0.3-0.1-0.5-0.2c-0.5-0.2-1-0.3-1.4-0.5
							c-0.1,0-0.3-0.1-0.4-0.1c-0.4-0.2-0.8-0.3-1.2-0.5c-0.2-0.1-0.4-0.2-0.6-0.3c-0.6-0.3-1.2-0.6-1.7-0.9c-3.2-1.8-5.2-4-6.2-6.4
							c-0.4-1.1-0.7-2.1-0.7-3.2l0,6.6c0,3.5,2.3,7,6.9,9.6c0.5,0.3,1.1,0.6,1.7,0.9c0.2,0.1,0.4,0.2,0.6,0.3c0.3,0.2,0.7,0.3,1,0.5
							c0.1,0,0.1,0,0.2,0.1c0.1,0.1,0.3,0.1,0.4,0.1c0.5,0.2,0.9,0.3,1.4,0.5c0.2,0.1,0.3,0.1,0.5,0.2c0.1,0,0.2,0.1,0.3,0.1
							c0.2,0.1,0.4,0.1,0.6,0.1c0.5,0.1,1,0.2,1.4,0.4c0.1,0,0.3,0.1,0.4,0.1c0.2,0,0.4,0.1,0.6,0.1c0.4,0.1,0.8,0.2,1.2,0.2
							c0.2,0,0.3,0.1,0.5,0.1c0.2,0,0.4,0,0.5,0.1c0.4,0,0.8,0.1,1.2,0.1c0.2,0,0.4,0,0.6,0.1c0.2,0,0.3,0,0.5,0
							c0.4,0,0.8,0,1.2,0.1c0.2,0,0.4,0,0.6,0c0.2,0,0.3,0,0.5,0c0.4,0,0.9,0,1.3,0c0.2,0,0.4,0,0.6,0c0.1,0,0.3,0,0.4,0
							c0.5,0,1-0.1,1.6-0.1c0.2,0,0.4,0,0.6,0c0.1,0,0.2,0,0.3,0c0.2,0,0.3,0,0.5-0.1c0.5-0.1,1.1-0.1,1.6-0.2c0.1,0,0.3,0,0.4-0.1
							c0.1,0,0.1,0,0.2,0c0.3,0,0.5-0.1,0.7-0.2c0.4-0.1,0.9-0.2,1.3-0.3c0.3-0.1,0.6-0.2,0.9-0.2c0.4-0.1,0.8-0.2,1.2-0.3
							c0.1,0,0.2,0,0.3-0.1c0.5-0.2,1-0.3,1.4-0.5c0.1,0,0.1-0.1,0.2-0.1c0.5-0.2,1-0.4,1.5-0.6c0.1-0.1,0.3-0.1,0.4-0.2
							c0.5-0.3,1.1-0.5,1.6-0.8c0.1-0.1,0.2-0.1,0.3-0.2c0.1-0.1,0.2-0.1,0.3-0.2c0.1-0.1,0.3-0.2,0.4-0.3c0.1-0.1,0.2-0.2,0.4-0.3
							c0.1-0.1,0.3-0.2,0.4-0.3c0.1-0.1,0.2-0.2,0.3-0.3c0.1-0.1,0.2-0.2,0.4-0.3c0.1-0.1,0.2-0.2,0.3-0.3c0.1-0.1,0.2-0.2,0.3-0.3
							c0,0,0.1-0.1,0.1-0.1c0,0,0.1-0.1,0.1-0.1c0.2-0.2,0.4-0.3,0.5-0.5c0.1-0.1,0.1-0.1,0.2-0.2c0.2-0.2,0.4-0.5,0.6-0.7
							c0,0,0,0,0,0c0-0.1,0.1-0.1,0.1-0.2c0.1-0.1,0.2-0.3,0.3-0.5c0.1-0.1,0.1-0.2,0.2-0.2c0.1-0.1,0.2-0.3,0.3-0.4
							c0,0,0-0.1,0.1-0.1c0-0.1,0.1-0.1,0.1-0.2c0.1-0.1,0.1-0.2,0.2-0.3c0-0.1,0.1-0.2,0.1-0.3c0.1-0.1,0.1-0.2,0.1-0.4
							c0-0.1,0-0.1,0.1-0.2c0,0,0-0.1,0-0.1c0-0.1,0.1-0.2,0.1-0.3c0-0.1,0.1-0.2,0.1-0.3c0-0.1,0.1-0.2,0.1-0.3c0-0.1,0-0.1,0-0.2
							c0,0,0-0.1,0-0.1c0-0.1,0-0.2,0.1-0.4c0-0.1,0-0.2,0-0.3c0-0.1,0-0.2,0-0.4c0-0.1,0-0.1,0-0.2c0-0.1,0-0.1,0-0.2l0-6.6
							C1698.8,1117.5,1698.8,1117.7,1698.8,1117.8z"/>
						<g>
							<path class="st45" d="M1691.9,1107.8c9.1,5.3,9.2,13.8,0.1,19.1c-9.1,5.3-23.8,5.3-32.9,0c-9.1-5.3-9.2-13.8-0.1-19.1
								C1668.1,1102.5,1682.8,1102.5,1691.9,1107.8z"/>
						</g>
						<g>
							<path class="st46" d="M1683.1,1115.9c2,1.2,2.3,3,0.2,4.7l2.3,1.3l-2.2,1.3l-2.1-1.2c-1.6,0.8-3.4,1.4-4.8,1.6l-2-1.9
								c1.4-0.3,3.2-0.7,4.7-1.6c1.3-0.7,1.7-1.5,0.8-2c-0.9-0.5-2.1-0.4-4.3,0.2c-3.2,0.9-6,1.2-8.1,0c-2-1.1-2.2-2.8-0.2-4.5
								l-2.1-1.2l2.2-1.3l2,1.1c1.6-0.8,2.9-1.2,4-1.5l1.9,1.9c-0.8,0.2-2.4,0.5-4,1.4c-1.4,0.8-1.3,1.5-0.7,1.8
								c0.7,0.4,2,0.3,4.6-0.4C1678.8,1114.7,1681.1,1114.8,1683.1,1115.9z"/>
						</g>
					</g>
				</g>
				<g>
					<g>
						<path class="st44" d="M1692.2,1108.7c0,0.1,0,0.2,0,0.4c0,0.1,0,0.2,0,0.3c0,0.1,0,0.2-0.1,0.3c0,0.1,0,0.2-0.1,0.3
							c0,0.1-0.1,0.2-0.1,0.3c0,0.1-0.1,0.2-0.1,0.3c0,0.1-0.1,0.2-0.1,0.3c0,0.1-0.1,0.2-0.1,0.3c0,0.1-0.1,0.2-0.1,0.4
							c0,0.1-0.1,0.2-0.1,0.3c-0.1,0.1-0.1,0.2-0.2,0.4c-0.1,0.1-0.1,0.2-0.2,0.3c-0.1,0.1-0.2,0.3-0.3,0.4
							c-0.1,0.1-0.1,0.2-0.2,0.2c-0.1,0.2-0.2,0.3-0.3,0.5c0,0.1-0.1,0.1-0.1,0.2c-0.2,0.2-0.4,0.5-0.6,0.7
							c-0.1,0.1-0.1,0.1-0.2,0.2c-0.2,0.2-0.3,0.4-0.5,0.5c-0.1,0.1-0.2,0.2-0.3,0.2c-0.1,0.1-0.2,0.2-0.3,0.3
							c-0.1,0.1-0.2,0.2-0.3,0.3c-0.1,0.1-0.2,0.2-0.4,0.3c-0.1,0.1-0.2,0.2-0.3,0.3c-0.1,0.1-0.3,0.2-0.4,0.3
							c-0.1,0.1-0.2,0.2-0.4,0.3c-0.1,0.1-0.3,0.2-0.4,0.3c-0.2,0.1-0.4,0.2-0.5,0.3c-0.5,0.3-1,0.6-1.6,0.8
							c-0.1,0.1-0.3,0.1-0.4,0.2c-0.5,0.2-1,0.4-1.5,0.6c-0.1,0-0.1,0.1-0.2,0.1c-0.5,0.2-1.1,0.4-1.7,0.6c-0.4,0.1-0.8,0.2-1.2,0.3
							c-0.3,0.1-0.6,0.2-0.9,0.2c-0.4,0.1-0.9,0.2-1.3,0.3c-0.3,0.1-0.6,0.1-0.9,0.2c-0.1,0-0.3,0-0.4,0.1c-0.5,0.1-1.1,0.2-1.6,0.2
							c-0.2,0-0.3,0-0.5,0.1c-0.3,0-0.6,0.1-0.9,0.1c-0.5,0-1,0.1-1.6,0.1c-0.3,0-0.7,0-1,0c-0.4,0-0.9,0-1.3,0c-0.4,0-0.7,0-1.1,0
							c-0.4,0-0.8,0-1.2-0.1c-0.4,0-0.7-0.1-1.1-0.1c-0.4,0-0.8-0.1-1.2-0.1c-0.3,0-0.7-0.1-1-0.1c-0.4-0.1-0.8-0.1-1.2-0.2
							c-0.3-0.1-0.6-0.1-1-0.2c-0.5-0.1-1-0.2-1.4-0.4c-0.3-0.1-0.6-0.2-0.9-0.2c-0.2,0-0.3-0.1-0.5-0.2c-0.5-0.2-1-0.3-1.4-0.5
							c-0.1,0-0.3-0.1-0.4-0.1c-0.4-0.2-0.8-0.3-1.2-0.5c-0.2-0.1-0.4-0.2-0.6-0.3c-0.6-0.3-1.2-0.6-1.7-0.9c-3.2-1.8-5.2-4-6.2-6.4
							c-0.4-1.1-0.7-2.1-0.7-3.2l0,6.6c0,3.5,2.3,7,6.9,9.6c0.5,0.3,1.1,0.6,1.7,0.9c0.2,0.1,0.4,0.2,0.6,0.3c0.3,0.2,0.7,0.3,1,0.5
							c0.1,0,0.1,0,0.2,0.1c0.1,0.1,0.3,0.1,0.4,0.1c0.5,0.2,0.9,0.3,1.4,0.5c0.2,0.1,0.3,0.1,0.5,0.2c0.1,0,0.2,0.1,0.3,0.1
							c0.2,0.1,0.4,0.1,0.6,0.1c0.5,0.1,1,0.2,1.4,0.4c0.1,0,0.3,0.1,0.4,0.1c0.2,0,0.4,0.1,0.6,0.1c0.4,0.1,0.8,0.2,1.2,0.2
							c0.2,0,0.3,0.1,0.5,0.1c0.2,0,0.4,0,0.5,0.1c0.4,0,0.8,0.1,1.2,0.1c0.2,0,0.4,0,0.6,0.1c0.2,0,0.3,0,0.5,0
							c0.4,0,0.8,0,1.2,0.1c0.2,0,0.4,0,0.6,0c0.2,0,0.3,0,0.5,0c0.4,0,0.9,0,1.3,0c0.2,0,0.4,0,0.6,0c0.1,0,0.3,0,0.4,0
							c0.5,0,1-0.1,1.6-0.1c0.2,0,0.4,0,0.6,0c0.1,0,0.2,0,0.3,0c0.2,0,0.3,0,0.5-0.1c0.5-0.1,1.1-0.1,1.6-0.2c0.1,0,0.3,0,0.4-0.1
							c0.1,0,0.1,0,0.2,0c0.3,0,0.5-0.1,0.7-0.2c0.4-0.1,0.9-0.2,1.3-0.3c0.3-0.1,0.6-0.2,0.9-0.2c0.4-0.1,0.8-0.2,1.2-0.3
							c0.1,0,0.2,0,0.3-0.1c0.5-0.2,1-0.3,1.4-0.5c0.1,0,0.1-0.1,0.2-0.1c0.5-0.2,1-0.4,1.5-0.6c0.1-0.1,0.3-0.1,0.4-0.2
							c0.5-0.3,1.1-0.5,1.6-0.8c0.1-0.1,0.2-0.1,0.3-0.2c0.1-0.1,0.2-0.1,0.3-0.2c0.1-0.1,0.3-0.2,0.4-0.3c0.1-0.1,0.2-0.2,0.4-0.3
							c0.1-0.1,0.3-0.2,0.4-0.3c0.1-0.1,0.2-0.2,0.3-0.3c0.1-0.1,0.2-0.2,0.4-0.3c0.1-0.1,0.2-0.2,0.3-0.3c0.1-0.1,0.2-0.2,0.3-0.3
							c0,0,0.1-0.1,0.1-0.1c0,0,0.1-0.1,0.1-0.1c0.2-0.2,0.4-0.3,0.5-0.5c0.1-0.1,0.1-0.1,0.2-0.2c0.2-0.2,0.4-0.5,0.6-0.7
							c0,0,0,0,0,0c0-0.1,0.1-0.1,0.1-0.2c0.1-0.1,0.2-0.3,0.3-0.5c0.1-0.1,0.1-0.2,0.2-0.2c0.1-0.1,0.2-0.3,0.3-0.4
							c0,0,0-0.1,0.1-0.1c0-0.1,0.1-0.1,0.1-0.2c0.1-0.1,0.1-0.2,0.2-0.3c0-0.1,0.1-0.2,0.1-0.3c0.1-0.1,0.1-0.2,0.1-0.4
							c0-0.1,0-0.1,0.1-0.2c0,0,0-0.1,0-0.1c0-0.1,0.1-0.2,0.1-0.3c0-0.1,0.1-0.2,0.1-0.3c0-0.1,0.1-0.2,0.1-0.3c0-0.1,0-0.1,0-0.2
							c0,0,0-0.1,0-0.1c0-0.1,0-0.2,0.1-0.4c0-0.1,0-0.2,0-0.3c0-0.1,0-0.2,0-0.4c0-0.1,0-0.1,0-0.2c0-0.1,0-0.1,0-0.2l0-6.6
							C1692.2,1108.5,1692.2,1108.6,1692.2,1108.7z"/>
						<g>
							<path class="st45" d="M1685.3,1098.7c9.1,5.3,9.2,13.8,0.1,19.1c-9.1,5.3-23.8,5.3-32.9,0c-9.1-5.3-9.2-13.8-0.1-19.1
								C1661.5,1093.5,1676.2,1093.5,1685.3,1098.7z"/>
						</g>
						<g>
							<path class="st46" d="M1676.5,1106.9c2,1.2,2.3,3,0.2,4.7l2.3,1.3l-2.2,1.3l-2.1-1.2c-1.6,0.8-3.4,1.4-4.8,1.6l-2-1.9
								c1.4-0.3,3.2-0.7,4.7-1.6c1.3-0.7,1.7-1.5,0.8-2c-0.9-0.5-2.1-0.4-4.3,0.2c-3.2,0.9-6,1.2-8.1,0c-2-1.1-2.2-2.8-0.2-4.5
								l-2.1-1.2l2.2-1.3l2,1.1c1.6-0.8,2.9-1.2,4-1.5l1.9,1.9c-0.8,0.2-2.4,0.5-4,1.4c-1.4,0.8-1.3,1.5-0.7,1.8
								c0.7,0.4,2,0.3,4.6-0.4C1672.2,1105.6,1674.5,1105.7,1676.5,1106.9z"/>
						</g>
					</g>
				</g>
				<g>
					<g>
						<path class="st44" d="M1751.8,1163.2c0,0.1,0,0.2,0,0.4c0,0.1,0,0.2,0,0.3c0,0.1,0,0.2-0.1,0.3c0,0.1,0,0.2-0.1,0.3
							c0,0.1-0.1,0.2-0.1,0.3c0,0.1-0.1,0.2-0.1,0.3c0,0.1-0.1,0.2-0.1,0.3c0,0.1-0.1,0.2-0.1,0.3c0,0.1-0.1,0.2-0.1,0.4
							c0,0.1-0.1,0.2-0.1,0.3c-0.1,0.1-0.1,0.2-0.2,0.4c-0.1,0.1-0.1,0.2-0.2,0.3c-0.1,0.1-0.2,0.3-0.3,0.4
							c-0.1,0.1-0.1,0.2-0.2,0.2c-0.1,0.2-0.2,0.3-0.3,0.5c0,0.1-0.1,0.1-0.1,0.2c-0.2,0.2-0.4,0.5-0.6,0.7
							c-0.1,0.1-0.1,0.1-0.2,0.2c-0.2,0.2-0.3,0.4-0.5,0.5c-0.1,0.1-0.2,0.2-0.3,0.2c-0.1,0.1-0.2,0.2-0.3,0.3
							c-0.1,0.1-0.2,0.2-0.3,0.3c-0.1,0.1-0.2,0.2-0.4,0.3c-0.1,0.1-0.2,0.2-0.3,0.3c-0.1,0.1-0.3,0.2-0.4,0.3
							c-0.1,0.1-0.2,0.2-0.4,0.3c-0.1,0.1-0.3,0.2-0.4,0.3c-0.2,0.1-0.4,0.2-0.5,0.3c-0.5,0.3-1,0.6-1.6,0.8
							c-0.1,0.1-0.3,0.1-0.4,0.2c-0.5,0.2-1,0.4-1.5,0.6c-0.1,0-0.1,0.1-0.2,0.1c-0.5,0.2-1.1,0.4-1.7,0.6c-0.4,0.1-0.8,0.2-1.2,0.3
							c-0.3,0.1-0.6,0.2-0.9,0.2c-0.4,0.1-0.9,0.2-1.3,0.3c-0.3,0.1-0.6,0.1-0.9,0.2c-0.1,0-0.3,0-0.4,0.1c-0.5,0.1-1.1,0.2-1.6,0.2
							c-0.2,0-0.3,0-0.5,0.1c-0.3,0-0.6,0.1-0.9,0.1c-0.5,0-1,0.1-1.6,0.1c-0.3,0-0.7,0-1,0c-0.4,0-0.9,0-1.3,0c-0.4,0-0.7,0-1.1,0
							c-0.4,0-0.8,0-1.2-0.1c-0.4,0-0.7-0.1-1.1-0.1c-0.4,0-0.8-0.1-1.2-0.1c-0.3,0-0.7-0.1-1-0.1c-0.4-0.1-0.8-0.1-1.2-0.2
							c-0.3-0.1-0.6-0.1-1-0.2c-0.5-0.1-1-0.2-1.4-0.4c-0.3-0.1-0.6-0.2-0.9-0.2c-0.2,0-0.3-0.1-0.5-0.2c-0.5-0.2-1-0.3-1.4-0.5
							c-0.1,0-0.3-0.1-0.4-0.1c-0.4-0.2-0.8-0.3-1.2-0.5c-0.2-0.1-0.4-0.2-0.6-0.3c-0.6-0.3-1.2-0.6-1.7-0.9c-3.2-1.8-5.2-4-6.2-6.4
							c-0.4-1.1-0.7-2.1-0.7-3.2l0,6.6c0,3.5,2.3,7,6.9,9.6c0.5,0.3,1.1,0.6,1.7,0.9c0.2,0.1,0.4,0.2,0.6,0.3c0.3,0.2,0.7,0.3,1,0.5
							c0.1,0,0.1,0,0.2,0.1c0.1,0.1,0.3,0.1,0.4,0.1c0.5,0.2,0.9,0.3,1.4,0.5c0.2,0.1,0.3,0.1,0.5,0.2c0.1,0,0.2,0.1,0.3,0.1
							c0.2,0.1,0.4,0.1,0.6,0.1c0.5,0.1,1,0.2,1.4,0.4c0.1,0,0.3,0.1,0.4,0.1c0.2,0,0.4,0.1,0.6,0.1c0.4,0.1,0.8,0.2,1.2,0.2
							c0.2,0,0.3,0.1,0.5,0.1c0.2,0,0.4,0,0.5,0.1c0.4,0,0.8,0.1,1.2,0.1c0.2,0,0.4,0,0.6,0.1c0.2,0,0.3,0,0.5,0
							c0.4,0,0.8,0,1.2,0.1c0.2,0,0.4,0,0.6,0c0.2,0,0.3,0,0.5,0c0.4,0,0.9,0,1.3,0c0.2,0,0.4,0,0.6,0c0.1,0,0.3,0,0.4,0
							c0.5,0,1-0.1,1.6-0.1c0.2,0,0.4,0,0.6,0c0.1,0,0.2,0,0.3,0c0.2,0,0.3,0,0.5-0.1c0.5-0.1,1.1-0.1,1.6-0.2c0.1,0,0.3,0,0.4-0.1
							c0.1,0,0.1,0,0.2,0c0.3,0,0.5-0.1,0.7-0.2c0.4-0.1,0.9-0.2,1.3-0.3c0.3-0.1,0.6-0.2,0.9-0.2c0.4-0.1,0.8-0.2,1.2-0.3
							c0.1,0,0.2,0,0.3-0.1c0.5-0.2,1-0.3,1.4-0.5c0.1,0,0.1-0.1,0.2-0.1c0.5-0.2,1-0.4,1.5-0.6c0.1-0.1,0.3-0.1,0.4-0.2
							c0.5-0.3,1.1-0.5,1.6-0.8c0.1-0.1,0.2-0.1,0.3-0.2c0.1-0.1,0.2-0.1,0.3-0.2c0.1-0.1,0.3-0.2,0.4-0.3c0.1-0.1,0.2-0.2,0.4-0.3
							c0.1-0.1,0.3-0.2,0.4-0.3c0.1-0.1,0.2-0.2,0.3-0.3c0.1-0.1,0.2-0.2,0.4-0.3c0.1-0.1,0.2-0.2,0.3-0.3c0.1-0.1,0.2-0.2,0.3-0.3
							c0,0,0.1-0.1,0.1-0.1c0,0,0.1-0.1,0.1-0.1c0.2-0.2,0.4-0.3,0.5-0.5c0.1-0.1,0.1-0.1,0.2-0.2c0.2-0.2,0.4-0.5,0.6-0.7
							c0,0,0,0,0,0c0-0.1,0.1-0.1,0.1-0.2c0.1-0.1,0.2-0.3,0.3-0.5c0.1-0.1,0.1-0.2,0.2-0.2c0.1-0.1,0.2-0.3,0.3-0.4
							c0,0,0-0.1,0.1-0.1c0-0.1,0.1-0.1,0.1-0.2c0.1-0.1,0.1-0.2,0.2-0.3c0-0.1,0.1-0.2,0.1-0.3c0.1-0.1,0.1-0.2,0.1-0.4
							c0-0.1,0-0.1,0.1-0.2c0,0,0-0.1,0-0.1c0-0.1,0.1-0.2,0.1-0.3c0-0.1,0.1-0.2,0.1-0.3c0-0.1,0.1-0.2,0.1-0.3c0-0.1,0-0.1,0-0.2
							c0,0,0-0.1,0-0.1c0-0.1,0-0.2,0.1-0.4c0-0.1,0-0.2,0-0.3c0-0.1,0-0.2,0-0.4c0-0.1,0-0.1,0-0.2c0-0.1,0-0.1,0-0.2l0-6.6
							C1751.9,1163,1751.8,1163.1,1751.8,1163.2z"/>
						<g>
							<path class="st45" d="M1745,1153.2c9.1,5.3,9.2,13.8,0.1,19.1s-23.8,5.3-32.9,0c-9.1-5.3-9.2-13.8-0.1-19.1
								S1735.9,1148,1745,1153.2z"/>
						</g>
						<g>
							<path class="st46" d="M1736.2,1161.4c2,1.2,2.3,3,0.2,4.7l2.3,1.3l-2.2,1.3l-2.1-1.2c-1.6,0.8-3.4,1.4-4.8,1.6l-2-1.9
								c1.4-0.3,3.2-0.7,4.7-1.6c1.3-0.7,1.7-1.5,0.8-2c-0.9-0.5-2.1-0.4-4.3,0.2c-3.2,0.9-6,1.2-8.1,0c-2-1.1-2.2-2.8-0.2-4.5
								l-2.1-1.2l2.2-1.3l2,1.1c1.6-0.8,2.9-1.2,4-1.5l1.9,1.9c-0.8,0.2-2.4,0.5-4,1.4c-1.4,0.8-1.3,1.5-0.7,1.8
								c0.7,0.4,2,0.3,4.6-0.4C1731.8,1160.1,1734.1,1160.2,1736.2,1161.4z"/>
						</g>
					</g>
				</g>
				<g>
					<g>
						<path class="st44" d="M1715.5,1190.6c0,0.1,0,0.2,0,0.4c0,0.1,0,0.2,0,0.3c0,0.1,0,0.2-0.1,0.3c0,0.1,0,0.2-0.1,0.3
							c0,0.1-0.1,0.2-0.1,0.3c0,0.1-0.1,0.2-0.1,0.3c0,0.1-0.1,0.2-0.1,0.3c0,0.1-0.1,0.2-0.1,0.3c0,0.1-0.1,0.2-0.1,0.4
							c0,0.1-0.1,0.2-0.1,0.3c-0.1,0.1-0.1,0.2-0.2,0.4c-0.1,0.1-0.1,0.2-0.2,0.3c-0.1,0.1-0.2,0.3-0.3,0.4
							c-0.1,0.1-0.1,0.2-0.2,0.2c-0.1,0.2-0.2,0.3-0.3,0.5c0,0.1-0.1,0.1-0.1,0.2c-0.2,0.2-0.4,0.5-0.6,0.7
							c-0.1,0.1-0.1,0.1-0.2,0.2c-0.2,0.2-0.3,0.4-0.5,0.5c-0.1,0.1-0.2,0.2-0.3,0.2c-0.1,0.1-0.2,0.2-0.3,0.3
							c-0.1,0.1-0.2,0.2-0.3,0.3c-0.1,0.1-0.2,0.2-0.4,0.3c-0.1,0.1-0.2,0.2-0.3,0.3c-0.1,0.1-0.3,0.2-0.4,0.3
							c-0.1,0.1-0.2,0.2-0.4,0.3c-0.1,0.1-0.3,0.2-0.4,0.3c-0.2,0.1-0.4,0.2-0.5,0.3c-0.5,0.3-1,0.6-1.6,0.8
							c-0.1,0.1-0.3,0.1-0.4,0.2c-0.5,0.2-1,0.4-1.5,0.6c-0.1,0-0.1,0.1-0.2,0.1c-0.5,0.2-1.1,0.4-1.7,0.6c-0.4,0.1-0.8,0.2-1.2,0.3
							c-0.3,0.1-0.6,0.2-0.9,0.2c-0.4,0.1-0.9,0.2-1.3,0.3c-0.3,0.1-0.6,0.1-0.9,0.2c-0.1,0-0.3,0-0.4,0.1c-0.5,0.1-1.1,0.2-1.6,0.2
							c-0.2,0-0.3,0-0.5,0.1c-0.3,0-0.6,0.1-0.9,0.1c-0.5,0-1,0.1-1.6,0.1c-0.3,0-0.7,0-1,0c-0.4,0-0.9,0-1.3,0c-0.4,0-0.7,0-1.1,0
							c-0.4,0-0.8,0-1.2-0.1c-0.4,0-0.7-0.1-1.1-0.1c-0.4,0-0.8-0.1-1.2-0.1c-0.3,0-0.7-0.1-1-0.1c-0.4-0.1-0.8-0.1-1.2-0.2
							c-0.3-0.1-0.6-0.1-1-0.2c-0.5-0.1-1-0.2-1.4-0.4c-0.3-0.1-0.6-0.2-0.9-0.2c-0.2,0-0.3-0.1-0.5-0.2c-0.5-0.2-1-0.3-1.4-0.5
							c-0.1,0-0.3-0.1-0.4-0.1c-0.4-0.2-0.8-0.3-1.2-0.5c-0.2-0.1-0.4-0.2-0.6-0.3c-0.6-0.3-1.2-0.6-1.7-0.9c-3.2-1.8-5.2-4-6.2-6.4
							c-0.4-1.1-0.7-2.1-0.7-3.2l0,6.6c0,3.5,2.3,7,6.9,9.6c0.5,0.3,1.1,0.6,1.7,0.9c0.2,0.1,0.4,0.2,0.6,0.3c0.3,0.2,0.7,0.3,1,0.5
							c0.1,0,0.1,0,0.2,0.1c0.1,0.1,0.3,0.1,0.4,0.1c0.5,0.2,0.9,0.3,1.4,0.5c0.2,0.1,0.3,0.1,0.5,0.2c0.1,0,0.2,0.1,0.3,0.1
							c0.2,0.1,0.4,0.1,0.6,0.1c0.5,0.1,1,0.2,1.4,0.4c0.1,0,0.3,0.1,0.4,0.1c0.2,0,0.4,0.1,0.6,0.1c0.4,0.1,0.8,0.2,1.2,0.2
							c0.2,0,0.3,0.1,0.5,0.1c0.2,0,0.4,0,0.5,0.1c0.4,0,0.8,0.1,1.2,0.1c0.2,0,0.4,0,0.6,0.1c0.2,0,0.3,0,0.5,0
							c0.4,0,0.8,0,1.2,0.1c0.2,0,0.4,0,0.6,0c0.2,0,0.3,0,0.5,0c0.4,0,0.9,0,1.3,0c0.2,0,0.4,0,0.6,0c0.1,0,0.3,0,0.4,0
							c0.5,0,1-0.1,1.6-0.1c0.2,0,0.4,0,0.6,0c0.1,0,0.2,0,0.3,0c0.2,0,0.3,0,0.5-0.1c0.5-0.1,1.1-0.1,1.6-0.2c0.1,0,0.3,0,0.4-0.1
							c0.1,0,0.1,0,0.2,0c0.3,0,0.5-0.1,0.7-0.2c0.4-0.1,0.9-0.2,1.3-0.3c0.3-0.1,0.6-0.2,0.9-0.2c0.4-0.1,0.8-0.2,1.2-0.3
							c0.1,0,0.2,0,0.3-0.1c0.5-0.2,1-0.3,1.4-0.5c0.1,0,0.1-0.1,0.2-0.1c0.5-0.2,1-0.4,1.5-0.6c0.1-0.1,0.3-0.1,0.4-0.2
							c0.5-0.3,1.1-0.5,1.6-0.8c0.1-0.1,0.2-0.1,0.3-0.2c0.1-0.1,0.2-0.1,0.3-0.2c0.1-0.1,0.3-0.2,0.4-0.3c0.1-0.1,0.2-0.2,0.4-0.3
							c0.1-0.1,0.3-0.2,0.4-0.3c0.1-0.1,0.2-0.2,0.3-0.3c0.1-0.1,0.2-0.2,0.4-0.3c0.1-0.1,0.2-0.2,0.3-0.3c0.1-0.1,0.2-0.2,0.3-0.3
							c0,0,0.1-0.1,0.1-0.1c0,0,0.1-0.1,0.1-0.1c0.2-0.2,0.4-0.3,0.5-0.5c0.1-0.1,0.1-0.1,0.2-0.2c0.2-0.2,0.4-0.5,0.6-0.7
							c0,0,0,0,0,0c0-0.1,0.1-0.1,0.1-0.2c0.1-0.1,0.2-0.3,0.3-0.5c0.1-0.1,0.1-0.2,0.2-0.2c0.1-0.1,0.2-0.3,0.3-0.4
							c0,0,0-0.1,0.1-0.1c0-0.1,0.1-0.1,0.1-0.2c0.1-0.1,0.1-0.2,0.2-0.3c0-0.1,0.1-0.2,0.1-0.3c0.1-0.1,0.1-0.2,0.1-0.4
							c0-0.1,0-0.1,0.1-0.2c0,0,0-0.1,0-0.1c0-0.1,0.1-0.2,0.1-0.3c0-0.1,0.1-0.2,0.1-0.3c0-0.1,0.1-0.2,0.1-0.3c0-0.1,0-0.1,0-0.2
							c0,0,0-0.1,0-0.1c0-0.1,0-0.2,0.1-0.4c0-0.1,0-0.2,0-0.3c0-0.1,0-0.2,0-0.4c0-0.1,0-0.1,0-0.2c0-0.1,0-0.1,0-0.2l0-6.6
							C1715.5,1190.3,1715.5,1190.4,1715.5,1190.6z"/>
						<g>
							<path class="st45" d="M1708.6,1180.6c9.1,5.3,9.2,13.8,0.1,19.1c-9.1,5.3-23.8,5.3-32.9,0c-9.1-5.3-9.2-13.8-0.1-19.1
								C1684.7,1175.3,1699.5,1175.3,1708.6,1180.6z"/>
						</g>
						<g>
							<path class="st46" d="M1699.8,1188.7c2,1.2,2.3,3,0.2,4.7l2.3,1.3l-2.2,1.3l-2.1-1.2c-1.6,0.8-3.4,1.4-4.8,1.6l-2-1.9
								c1.4-0.3,3.2-0.7,4.7-1.6c1.3-0.7,1.7-1.5,0.8-2c-0.9-0.5-2.1-0.4-4.3,0.2c-3.2,0.9-6,1.2-8.1,0c-2-1.1-2.2-2.8-0.2-4.5
								l-2.1-1.2l2.2-1.3l2,1.1c1.6-0.8,2.9-1.2,4-1.5l1.9,1.9c-0.8,0.2-2.4,0.5-4,1.4c-1.4,0.8-1.3,1.5-0.7,1.8
								c0.7,0.4,2,0.3,4.6-0.4C1695.5,1187.5,1697.8,1187.5,1699.8,1188.7z"/>
						</g>
					</g>
				</g>
				<g>
					<g>
						<path class="st44" d="M1757.4,1156.5c0,0.1,0,0.2,0,0.4c0,0.1,0,0.2,0,0.3c0,0.1,0,0.2-0.1,0.3c0,0.1,0,0.2-0.1,0.3
							c0,0.1-0.1,0.2-0.1,0.3c0,0.1-0.1,0.2-0.1,0.3c0,0.1-0.1,0.2-0.1,0.3c0,0.1-0.1,0.2-0.1,0.3c0,0.1-0.1,0.2-0.1,0.4
							c0,0.1-0.1,0.2-0.1,0.3c-0.1,0.1-0.1,0.2-0.2,0.4c-0.1,0.1-0.1,0.2-0.2,0.3c-0.1,0.1-0.2,0.3-0.3,0.4
							c-0.1,0.1-0.1,0.2-0.2,0.2c-0.1,0.2-0.2,0.3-0.3,0.5c0,0.1-0.1,0.1-0.1,0.2c-0.2,0.2-0.4,0.5-0.6,0.7
							c-0.1,0.1-0.1,0.1-0.2,0.2c-0.2,0.2-0.3,0.4-0.5,0.5c-0.1,0.1-0.2,0.2-0.3,0.2c-0.1,0.1-0.2,0.2-0.3,0.3
							c-0.1,0.1-0.2,0.2-0.3,0.3c-0.1,0.1-0.2,0.2-0.4,0.3c-0.1,0.1-0.2,0.2-0.3,0.3c-0.1,0.1-0.3,0.2-0.4,0.3
							c-0.1,0.1-0.2,0.2-0.4,0.3c-0.1,0.1-0.3,0.2-0.4,0.3c-0.2,0.1-0.4,0.2-0.5,0.3c-0.5,0.3-1,0.6-1.6,0.8
							c-0.1,0.1-0.3,0.1-0.4,0.2c-0.5,0.2-1,0.4-1.5,0.6c-0.1,0-0.1,0.1-0.2,0.1c-0.5,0.2-1.1,0.4-1.7,0.6c-0.4,0.1-0.8,0.2-1.2,0.3
							c-0.3,0.1-0.6,0.2-0.9,0.2c-0.4,0.1-0.9,0.2-1.3,0.3c-0.3,0.1-0.6,0.1-0.9,0.2c-0.1,0-0.3,0-0.4,0.1c-0.5,0.1-1.1,0.2-1.6,0.2
							c-0.2,0-0.3,0-0.5,0.1c-0.3,0-0.6,0.1-0.9,0.1c-0.5,0-1,0.1-1.6,0.1c-0.3,0-0.7,0-1,0c-0.4,0-0.9,0-1.3,0c-0.4,0-0.7,0-1.1,0
							c-0.4,0-0.8,0-1.2-0.1c-0.4,0-0.7-0.1-1.1-0.1c-0.4,0-0.8-0.1-1.2-0.1c-0.3,0-0.7-0.1-1-0.1c-0.4-0.1-0.8-0.1-1.2-0.2
							c-0.3-0.1-0.6-0.1-1-0.2c-0.5-0.1-1-0.2-1.4-0.4c-0.3-0.1-0.6-0.2-0.9-0.2c-0.2,0-0.3-0.1-0.5-0.2c-0.5-0.2-1-0.3-1.4-0.5
							c-0.1,0-0.3-0.1-0.4-0.1c-0.4-0.2-0.8-0.3-1.2-0.5c-0.2-0.1-0.4-0.2-0.6-0.3c-0.6-0.3-1.2-0.6-1.7-0.9c-3.2-1.8-5.2-4-6.2-6.4
							c-0.4-1.1-0.7-2.1-0.7-3.2l0,6.6c0,3.5,2.3,7,6.9,9.6c0.5,0.3,1.1,0.6,1.7,0.9c0.2,0.1,0.4,0.2,0.6,0.3c0.3,0.2,0.7,0.3,1,0.5
							c0.1,0,0.1,0,0.2,0.1c0.1,0.1,0.3,0.1,0.4,0.1c0.5,0.2,0.9,0.3,1.4,0.5c0.2,0.1,0.3,0.1,0.5,0.2c0.1,0,0.2,0.1,0.3,0.1
							c0.2,0.1,0.4,0.1,0.6,0.1c0.5,0.1,1,0.2,1.4,0.4c0.1,0,0.3,0.1,0.4,0.1c0.2,0,0.4,0.1,0.6,0.1c0.4,0.1,0.8,0.2,1.2,0.2
							c0.2,0,0.3,0.1,0.5,0.1c0.2,0,0.4,0,0.5,0.1c0.4,0,0.8,0.1,1.2,0.1c0.2,0,0.4,0,0.6,0.1c0.2,0,0.3,0,0.5,0
							c0.4,0,0.8,0,1.2,0.1c0.2,0,0.4,0,0.6,0c0.2,0,0.3,0,0.5,0c0.4,0,0.9,0,1.3,0c0.2,0,0.4,0,0.6,0c0.1,0,0.3,0,0.4,0
							c0.5,0,1-0.1,1.6-0.1c0.2,0,0.4,0,0.6,0c0.1,0,0.2,0,0.3,0c0.2,0,0.3,0,0.5-0.1c0.5-0.1,1.1-0.1,1.6-0.2c0.1,0,0.3,0,0.4-0.1
							c0.1,0,0.1,0,0.2,0c0.3,0,0.5-0.1,0.7-0.2c0.4-0.1,0.9-0.2,1.3-0.3c0.3-0.1,0.6-0.2,0.9-0.2c0.4-0.1,0.8-0.2,1.2-0.3
							c0.1,0,0.2,0,0.3-0.1c0.5-0.2,1-0.3,1.4-0.5c0.1,0,0.1-0.1,0.2-0.1c0.5-0.2,1-0.4,1.5-0.6c0.1-0.1,0.3-0.1,0.4-0.2
							c0.5-0.3,1.1-0.5,1.6-0.8c0.1-0.1,0.2-0.1,0.3-0.2c0.1-0.1,0.2-0.1,0.3-0.2c0.1-0.1,0.3-0.2,0.4-0.3c0.1-0.1,0.2-0.2,0.4-0.3
							c0.1-0.1,0.3-0.2,0.4-0.3c0.1-0.1,0.2-0.2,0.3-0.3c0.1-0.1,0.2-0.2,0.4-0.3c0.1-0.1,0.2-0.2,0.3-0.3c0.1-0.1,0.2-0.2,0.3-0.3
							c0,0,0.1-0.1,0.1-0.1c0,0,0.1-0.1,0.1-0.1c0.2-0.2,0.4-0.3,0.5-0.5c0.1-0.1,0.1-0.1,0.2-0.2c0.2-0.2,0.4-0.5,0.6-0.7
							c0,0,0,0,0,0c0-0.1,0.1-0.1,0.1-0.2c0.1-0.1,0.2-0.3,0.3-0.5c0.1-0.1,0.1-0.2,0.2-0.2c0.1-0.1,0.2-0.3,0.3-0.4
							c0,0,0-0.1,0.1-0.1c0-0.1,0.1-0.1,0.1-0.2c0.1-0.1,0.1-0.2,0.2-0.3c0-0.1,0.1-0.2,0.1-0.3c0.1-0.1,0.1-0.2,0.1-0.4
							c0-0.1,0-0.1,0.1-0.2c0,0,0-0.1,0-0.1c0-0.1,0.1-0.2,0.1-0.3c0-0.1,0.1-0.2,0.1-0.3c0-0.1,0.1-0.2,0.1-0.3c0-0.1,0-0.1,0-0.2
							c0,0,0-0.1,0-0.1c0-0.1,0-0.2,0.1-0.4c0-0.1,0-0.2,0-0.3c0-0.1,0-0.2,0-0.4c0-0.1,0-0.1,0-0.2c0-0.1,0-0.1,0-0.2l0-6.6
							C1757.5,1156.2,1757.5,1156.4,1757.4,1156.5z"/>
						<g>
							<path class="st45" d="M1750.6,1146.5c9.1,5.3,9.2,13.8,0.1,19.1c-9.1,5.3-23.8,5.3-32.9,0c-9.1-5.3-9.2-13.8-0.1-19.1
								C1726.7,1141.2,1741.5,1141.2,1750.6,1146.5z"/>
						</g>
						<g>
							<path class="st46" d="M1741.8,1154.7c2,1.2,2.3,3,0.2,4.7l2.3,1.3l-2.2,1.3l-2.1-1.2c-1.6,0.8-3.4,1.4-4.8,1.6l-2-1.9
								c1.4-0.3,3.2-0.7,4.7-1.6c1.3-0.7,1.7-1.5,0.8-2c-0.9-0.5-2.1-0.4-4.3,0.2c-3.2,0.9-6,1.2-8.1,0c-2-1.1-2.2-2.8-0.2-4.5
								l-2.1-1.2l2.2-1.3l2,1.1c1.6-0.8,2.9-1.2,4-1.5l1.9,1.9c-0.8,0.2-2.4,0.5-4,1.4c-1.4,0.8-1.3,1.5-0.7,1.8
								c0.7,0.4,2,0.3,4.6-0.4C1737.5,1153.4,1739.8,1153.5,1741.8,1154.7z"/>
						</g>
					</g>
				</g>
			</g>
			<g>
				<g>
					<polygon class="st3" points="1939,1114.4 1930.7,1119.2 1930.6,1143.9 1938.9,1139.1 					"/>
					<polygon class="st3" points="1834.6,1119.2 1826.2,1114.4 1826.2,1139.1 1834.5,1143.9 					"/>
					<path class="st3" d="M1858.6,1160.8c0-0.1,0-0.2,0-0.3c0-0.1,0-0.2,0.1-0.4c0-0.1,0-0.2,0.1-0.3c0-0.1,0.1-0.2,0.1-0.4
						c0-0.1,0.1-0.2,0.1-0.3c0-0.1,0.1-0.2,0.1-0.3c0-0.1,0.1-0.2,0.1-0.3c0-0.1,0.1-0.2,0.2-0.4c0-0.1,0.1-0.2,0.1-0.3
						c0.1-0.1,0.1-0.2,0.2-0.4c0.1-0.1,0.1-0.2,0.2-0.3c0.1-0.1,0.2-0.3,0.3-0.4c0.1-0.1,0.1-0.2,0.2-0.3c0.1-0.2,0.2-0.3,0.3-0.5
						c0.1-0.1,0.1-0.1,0.2-0.2c0.2-0.2,0.4-0.5,0.6-0.7c0.1-0.1,0.1-0.1,0.2-0.2c0.2-0.2,0.4-0.4,0.5-0.5c0.1-0.1,0.2-0.2,0.3-0.2
						c0.1-0.1,0.2-0.2,0.3-0.3c0.1-0.1,0.2-0.2,0.3-0.3c0.1-0.1,0.2-0.2,0.4-0.3c0.1-0.1,0.2-0.2,0.4-0.3c0.1-0.1,0.3-0.2,0.4-0.3
						c0.1-0.1,0.3-0.2,0.4-0.3c0.1-0.1,0.3-0.2,0.4-0.3c0.2-0.1,0.4-0.2,0.6-0.3c0.4-0.2,0.7-0.4,1.1-0.6c0.1-0.1,0.2-0.1,0.3-0.2
						c0.3-0.1,0.6-0.3,0.9-0.4c0.1,0,0.2-0.1,0.3-0.1c0.4-0.2,0.8-0.3,1.2-0.5c0.1,0,0.1-0.1,0.2-0.1c0.3-0.1,0.7-0.3,1-0.4
						c0.1,0,0.3-0.1,0.4-0.1c0.2-0.1,0.4-0.1,0.6-0.2c0.2,0,0.3-0.1,0.5-0.1c0.2-0.1,0.4-0.1,0.6-0.2c0.2,0,0.3-0.1,0.5-0.1
						c0.2,0,0.4-0.1,0.6-0.1c0.2,0,0.3-0.1,0.5-0.1c0.2,0,0.4-0.1,0.6-0.1c0.2,0,0.3-0.1,0.5-0.1c0.5-0.1,0.9-0.2,1.4-0.2
						c0.1,0,0.1,0,0.2,0c0.4-0.1,0.8-0.1,1.2-0.1c0.2,0,0.3,0,0.5,0c0.3,0,0.5,0,0.8-0.1c0.2,0,0.3,0,0.5,0c0.3,0,0.5,0,0.8,0
						c0.2,0,0.3,0,0.5,0c0.2,0,0.5,0,0.7,0c0.2,0,0.3,0,0.5,0c0.3,0,0.5,0,0.7,0c0.1,0,0.3,0,0.4,0c0.8,0,1.5,0.1,2.3,0.1
						c0,0,0,0,0.1,0c0.8,0.1,1.6,0.2,2.3,0.3c0.1,0,0.1,0,0.2,0c0.3,0,0.7,0.1,1,0.2c0.1,0,0.3,0.1,0.4,0.1c0.2,0,0.5,0.1,0.7,0.1
						c0.1,0,0.3,0.1,0.4,0.1c0.3,0.1,0.5,0.1,0.8,0.2c0.2,0,0.3,0.1,0.4,0.1c0.2,0.1,0.5,0.1,0.7,0.2c0.1,0,0.3,0.1,0.4,0.1
						c0.4,0.1,0.8,0.2,1.1,0.4c0.1,0,0.1,0,0.2,0.1c0.4,0.1,0.9,0.3,1.3,0.5c0.1,0,0.2,0.1,0.3,0.1c0.5,0.2,1.1,0.4,1.6,0.7
						c0.1,0,0.1,0.1,0.2,0.1c0.5,0.3,1.1,0.5,1.6,0.8c4.7,2.7,7.1,6.3,7.1,9.9l0.1-24.7c0-3.6-2.4-7.2-7.1-9.9
						c-0.5-0.3-1-0.6-1.6-0.8c-0.1,0-0.1-0.1-0.2-0.1c-0.5-0.2-1.1-0.5-1.6-0.7c0,0-0.1,0-0.1-0.1c0,0-0.1,0-0.1,0
						c-0.4-0.2-0.8-0.3-1.3-0.5c-0.1,0-0.1,0-0.2-0.1c-0.4-0.1-0.8-0.2-1.1-0.4c-0.1,0-0.1,0-0.2-0.1c-0.1,0-0.1,0-0.2-0.1
						c-0.2-0.1-0.5-0.1-0.7-0.2c-0.1,0-0.3-0.1-0.4-0.1c-0.3-0.1-0.5-0.1-0.8-0.2c-0.1,0-0.2,0-0.3-0.1c0,0-0.1,0-0.1,0
						c-0.2-0.1-0.5-0.1-0.7-0.1c-0.1,0-0.3-0.1-0.4-0.1c-0.3-0.1-0.6-0.1-1-0.2c-0.1,0-0.1,0-0.2,0c0,0,0,0,0,0
						c-0.8-0.1-1.5-0.2-2.3-0.3c0,0,0,0,0,0c0,0,0,0,0,0c-0.8-0.1-1.5-0.1-2.3-0.1c0,0,0,0,0,0c-0.1,0-0.3,0-0.4,0
						c-0.3,0-0.5,0-0.8,0c-0.2,0-0.3,0-0.5,0c-0.2,0-0.5,0-0.7,0c0,0-0.1,0-0.1,0c-0.1,0-0.2,0-0.3,0c-0.3,0-0.5,0-0.8,0
						c-0.2,0-0.3,0-0.5,0c-0.3,0-0.5,0-0.8,0.1c-0.1,0-0.2,0-0.3,0c-0.1,0-0.1,0-0.2,0c-0.4,0-0.8,0.1-1.2,0.1c-0.1,0-0.1,0-0.2,0
						c-0.5,0.1-0.9,0.1-1.4,0.2c0,0-0.1,0-0.1,0c-0.1,0-0.2,0-0.4,0.1c-0.2,0-0.4,0.1-0.6,0.1c-0.2,0-0.3,0.1-0.5,0.1
						c-0.2,0-0.4,0.1-0.6,0.1c-0.2,0-0.3,0.1-0.5,0.1c-0.2,0.1-0.4,0.1-0.6,0.2c-0.2,0-0.3,0.1-0.5,0.1c-0.2,0.1-0.4,0.1-0.6,0.2
						c-0.1,0-0.2,0.1-0.3,0.1c-0.1,0-0.1,0-0.2,0.1c-0.2,0.1-0.4,0.1-0.6,0.2l0.1-20.3l0-6.8l-0.1,24.7l0,2.4
						c-0.1,0.1-0.3,0.1-0.4,0.2c-0.1,0-0.1,0.1-0.2,0.1c-0.4,0.2-0.8,0.3-1.2,0.5c-0.1,0-0.2,0.1-0.3,0.1c-0.3,0.1-0.6,0.3-0.9,0.4
						c-0.1,0.1-0.2,0.1-0.3,0.2c-0.4,0.2-0.7,0.4-1.1,0.6c-0.1,0.1-0.2,0.1-0.3,0.2c-0.1,0.1-0.2,0.1-0.3,0.2
						c-0.1,0.1-0.3,0.2-0.4,0.3c-0.1,0.1-0.3,0.2-0.4,0.3c-0.1,0.1-0.3,0.2-0.4,0.3c-0.1,0.1-0.2,0.2-0.4,0.3
						c-0.1,0.1-0.3,0.2-0.4,0.3c-0.1,0.1-0.2,0.2-0.3,0.3c-0.1,0.1-0.2,0.2-0.3,0.3c0,0-0.1,0.1-0.1,0.1c0,0-0.1,0.1-0.1,0.1
						c-0.2,0.2-0.4,0.4-0.5,0.5c-0.1,0.1-0.1,0.1-0.2,0.2c-0.2,0.2-0.4,0.5-0.6,0.7c0,0,0,0,0,0c0,0.1-0.1,0.1-0.1,0.2
						c-0.1,0.2-0.2,0.3-0.3,0.5c-0.1,0.1-0.1,0.2-0.2,0.3c-0.1,0.1-0.2,0.3-0.3,0.4c0,0,0,0.1-0.1,0.1c0,0.1-0.1,0.1-0.1,0.2
						c-0.1,0.1-0.1,0.2-0.2,0.4c0,0.1-0.1,0.2-0.1,0.3c-0.1,0.1-0.1,0.2-0.2,0.4c0,0.1,0,0.1-0.1,0.2c0,0,0,0.1,0,0.1
						c0,0.1-0.1,0.2-0.1,0.3c0,0.1-0.1,0.2-0.1,0.3c0,0.1-0.1,0.2-0.1,0.4c0,0.1,0,0.1,0,0.2c0,0,0,0.1,0,0.1c0,0.1,0,0.2-0.1,0.4
						c0,0.1,0,0.2,0,0.3c0,0.1,0,0.2,0,0.4c0,0.1,0,0.1,0,0.2c0,0.1,0,0.1,0,0.2l-0.1,24.7c0-0.1,0-0.3,0-0.4
						C1858.6,1161,1858.6,1160.9,1858.6,1160.8z"/>
					<path class="st3" d="M1950.2,1144.1l-11.8,0c-0.2,0.4-0.3,0.8-0.5,1.3c0,0.1-0.1,0.1-0.1,0.2c-0.2,0.4-0.4,0.8-0.6,1.2
						c0,0.1-0.1,0.2-0.1,0.2c-0.2,0.4-0.5,0.8-0.7,1.2c0,0,0,0,0,0c-0.2,0.4-0.5,0.8-0.8,1.2c-0.1,0.1-0.1,0.2-0.2,0.3
						c-0.3,0.4-0.6,0.8-0.9,1.1c-0.1,0.1-0.1,0.2-0.2,0.3c-0.3,0.3-0.5,0.6-0.8,0.9c-0.1,0.1-0.2,0.2-0.3,0.4
						c-0.3,0.3-0.6,0.6-0.9,0.9c-0.1,0.1-0.2,0.2-0.2,0.2c-0.4,0.4-0.8,0.8-1.2,1.2l0,9.7l-9,5.2l-8.4-4.8c-0.9,0.3-1.8,0.6-2.7,0.9
						c-0.3,0.1-0.6,0.2-0.9,0.3c-0.5,0.2-1,0.3-1.5,0.4c-0.3,0.1-0.6,0.2-1,0.3c-0.5,0.1-1,0.3-1.6,0.4c-0.3,0.1-0.6,0.2-0.9,0.2
						c-0.6,0.1-1.2,0.3-1.8,0.4c-0.2,0.1-0.5,0.1-0.7,0.2c-0.8,0.2-1.7,0.3-2.5,0.5c-0.5,0.1-1,0.2-1.5,0.3c-0.3,0-0.5,0.1-0.8,0.1
						c-0.8,0.1-1.6,0.2-2.4,0.3l0,6.8l-24.6,0l0-6.8c-0.6-0.1-1.2-0.2-1.8-0.2c-0.6-0.1-1.1-0.2-1.7-0.3c-0.3-0.1-0.6-0.1-0.9-0.2
						c-0.7-0.1-1.3-0.2-2-0.4c-0.2,0-0.4-0.1-0.6-0.1c-0.9-0.2-1.8-0.4-2.7-0.6c-0.2-0.1-0.5-0.1-0.7-0.2c-0.7-0.2-1.3-0.3-2-0.5
						c-0.3-0.1-0.6-0.2-0.9-0.3c-0.6-0.2-1.2-0.4-1.8-0.5c-0.3-0.1-0.5-0.2-0.8-0.2c-0.8-0.3-1.7-0.6-2.5-0.9l-8.3,4.8l-9.2-5.3
						l0-9.6c-2.7-2.5-4.9-5.1-6.3-7.8c-0.5-0.9-0.9-1.8-1.3-2.8h0l0,0l0,0l-11.8,0l-0.1-14.3l-0.1,24.7l0.1,14.3l11.2,0l0,15.4
						l17.5,10.1l8.3-4.8c0.8,0.3,1.6,0.6,2.5,0.9c0.3,0.1,0.5,0.2,0.8,0.2c0.6,0.2,1.2,0.4,1.8,0.5c0.1,0,0.3,0.1,0.4,0.1
						c0.1,0,0.3,0.1,0.4,0.1c0.7,0.2,1.3,0.4,2,0.5c0.2,0.1,0.5,0.1,0.7,0.2c0.9,0.2,1.8,0.4,2.7,0.6c0,0,0.1,0,0.1,0
						c0.2,0,0.3,0.1,0.5,0.1c0.7,0.1,1.3,0.3,2,0.4c0.3,0.1,0.6,0.1,0.9,0.2c0.6,0.1,1.1,0.2,1.7,0.3c0.2,0,0.3,0.1,0.5,0.1
						c0.4,0.1,0.9,0.1,1.3,0.2l0,6.8l24.7,0l0-6.8c0.8-0.1,1.5-0.2,2.3-0.3c0.3,0,0.5-0.1,0.8-0.1c0.5-0.1,1-0.2,1.5-0.2
						c0,0,0,0,0.1,0c0.9-0.2,1.7-0.3,2.5-0.5c0.2,0,0.5-0.1,0.7-0.2c0.6-0.1,1.2-0.3,1.8-0.4c0.3-0.1,0.6-0.2,0.9-0.2
						c0.5-0.1,1-0.3,1.6-0.4c0.3-0.1,0.6-0.2,1-0.3c0.5-0.1,1-0.3,1.5-0.4c0.2-0.1,0.4-0.1,0.5-0.2c0.1,0,0.2-0.1,0.3-0.1
						c0.9-0.3,1.8-0.6,2.7-0.9l8.4,4.8l17.4-10.1l0-15.4l10.9,0L1950.2,1144.1z"/>
				</g>
				<path class="st1" d="M1938.4,1144.1l11.8,0l-0.1-14.3l-11.8,0c-1.4-3.7-4-7.3-7.6-10.6l8.3-4.8l-17.5-10.1l-8.3,4.8
					c-5.7-2.1-11.9-3.6-18.3-4.4l0-6.8l-24.7,0l0,6.8c-6.4,0.8-12.6,2.3-18.3,4.4l-8.4-4.8l-17.4,10.1l8.4,4.8
					c-3.6,3.3-6.1,6.9-7.5,10.6l-11.8,0l0.1,14.3l11.8,0c1.4,3.7,4,7.3,7.6,10.6l-8.3,4.8l17.5,10.1l8.3-4.8
					c5.7,2.1,11.9,3.6,18.3,4.4l0,6.8l24.7,0l0-6.8c6.4-0.8,12.6-2.3,18.3-4.4l8.4,4.8l17.4-10.1l-8.4-4.8
					C1934.5,1151.4,1937,1147.8,1938.4,1144.1z M1899.8,1146.8c-9.4,5.4-24.6,5.4-34.1,0c-9.4-5.4-9.5-14.3-0.1-19.7
					c9.4-5.4,24.6-5.4,34.1,0C1909.2,1132.5,1909.2,1141.4,1899.8,1146.8z"/>
			</g>
			<g>
				<polygon class="st47" points="1699.4,951 1699.8,1077.3 1862.3,983.5 1861.9,857.2 				"/>
			</g>
			<polygon class="st48" points="1862,892.2 1699.5,986.1 1699.4,951 1861.9,857.2 			"/>
			<g>
				<polygon class="st49" points="1786.7,960.1 1786.7,966 1717.4,1006.1 1717.3,1000.2 				"/>
			</g>
			<g>
				<polygon class="st49" points="1786.7,973.4 1786.7,979.3 1717.4,1019.3 1717.3,1013.5 				"/>
			</g>
			<g>
				<polygon class="st49" points="1786.7,986.7 1786.7,992.5 1717.4,1032.6 1717.3,1026.7 				"/>
			</g>
			<g>
				<polygon class="st49" points="1786.7,999.9 1786.7,1005.8 1717.4,1045.9 1717.3,1040 				"/>
			</g>
			<g>
				<g>
					<polygon class="st4" points="1817.6,955.4 1817.7,986.9 1811.9,990.3 1811.8,958.8 					"/>
				</g>
				<g>
					<polygon class="st50" points="1827.4,926.4 1827.5,981.2 1822.1,984.4 1821.9,929.6 					"/>
				</g>
				<g>
					<polygon class="st51" points="1839.4,927.8 1839.6,974.3 1833.2,978 1833,931.5 					"/>
				</g>
				<g>
					<polygon class="st52" points="1848.9,951.8 1849,968.9 1843.2,972.2 1843.2,955.2 					"/>
				</g>
			</g>
			<g>
				<g class="st10">
					<g>
						<polygon class="st11" points="2011.1,557.7 2010.5,743.2 1756.9,596.8 1757.5,411.3 						"/>
					</g>
					<g>
						<polygon class="st7" points="2011.1,557.7 2019.8,552.6 2019.3,738.1 2010.5,743.2 						"/>
					</g>
					<g>
						<polygon class="st7" points="1757.5,411.3 1766.2,406.2 2019.8,552.6 2011.1,557.7 						"/>
					</g>
				</g>
			</g>
			<g>
				<g class="st10">
					<g>
						<polygon class="st13" points="1825.4,589.7 1825.3,612.5 1809.7,603.5 1809.7,580.7 						"/>
					</g>
					<g>
						<polygon class="st13" points="1831.8,616.3 1831.9,584.3 1847.5,593.3 1847.4,625.3 						"/>
					</g>
					<g>
						<polygon class="st13" points="1831.9,567.2 1847.5,576.2 1847.5,591.1 1831.9,582.1 						"/>
					</g>
					<g>
						<polygon class="st13" points="1869.6,623 1869.5,638.1 1853.9,629 1854,614 						"/>
					</g>
					<g>
						<polygon class="st13" points="1876,641.8 1876.1,609.9 1891.8,618.9 1891.7,650.8 						"/>
					</g>
					<g>
						<polygon class="st13" points="1876.2,585 1891.8,594 1891.8,616.6 1876.1,607.6 						"/>
					</g>
					<g>
						<polygon class="st13" points="1898.2,654.6 1898.3,622.6 1913.9,631.6 1913.8,663.6 						"/>
					</g>
					<g>
						<polygon class="st13" points="1920.3,667.4 1920.4,635.4 1936,644.4 1935.9,676.4 						"/>
					</g>
					<g>
						<polygon class="st13" points="1898.3,620.4 1898.4,588.4 1914,597.5 1913.9,629.4 						"/>
					</g>
					<g>
						<polygon class="st13" points="1980.7,702.2 1980.7,704.5 1787,592.6 1787,590.4 1809.7,603.5 1825.3,612.5 1831.8,616.3 
							1847.4,625.3 1853.9,629 1869.5,638.1 1876,641.8 1891.7,650.8 1898.2,654.6 1913.8,663.6 1920.3,667.4 1935.9,676.4 
							1942.4,680.1 1958,689.2 						"/>
					</g>
					<g>
						<polygon class="st13" points="1920.4,615.9 1936.1,624.9 1936,642.2 1920.4,633.2 						"/>
					</g>
					<g>
						<polygon class="st13" points="1898.4,573.4 1914,582.4 1914,595.2 1898.4,586.2 						"/>
					</g>
					<g>
						<polygon class="st13" points="1942.4,680.1 1942.5,648.2 1958.1,657.2 1958,689.2 						"/>
					</g>
					<g>
						<polygon class="st13" points="1942.5,624.5 1958.1,633.5 1958.1,655 1942.5,646 						"/>
					</g>
					<g>
						<polygon class="st13" points="1980.8,668.1 1980.8,670.3 1958.1,657.2 1942.5,648.2 1936,644.4 1920.4,635.4 1913.9,631.6 
							1898.3,622.6 1891.8,618.9 1876.1,609.9 1847.5,593.3 1831.9,584.3 1787.1,558.5 1787.1,556.2 1831.9,582.1 1847.5,591.1 
							1876.1,607.6 1891.8,616.6 1898.3,620.4 1913.9,629.4 1920.4,633.2 1936,642.2 1942.5,646 1958.1,655 						"/>
					</g>
					<g>
						<polygon class="st13" points="1907.2,528.2 1907.2,532.6 1863.4,507.3 1863.4,502.9 						"/>
					</g>
					<g>
						<polygon class="st13" points="1920.7,545.2 1920.7,549.6 1863.4,516.5 1863.4,512.1 						"/>
					</g>
					<g>
						<polygon class="st13" points="1980.9,633.9 1980.9,636.1 1914,597.5 1898.4,588.4 1787.2,524.3 1787.2,522 1898.4,586.2 
							1914,595.2 						"/>
					</g>
					<g>
						<polygon class="st13" points="1981,599.7 1981,601.9 1787.3,490.1 1787.3,487.9 						"/>
					</g>
				</g>
				<g>
					<polygon class="st13" points="1831.2,484.3 1831.2,488.7 1787.4,463.4 1787.4,459 					"/>
				</g>
				<g>
					<polygon class="st13" points="1844.7,501.3 1844.6,505.7 1787.3,472.6 1787.4,468.3 					"/>
				</g>
				<g>
					<polygon class="st13" points="1812.9,464.7 1812.9,469.2 1787.4,454.5 1787.4,450 					"/>
				</g>
				<g>
					<polygon class="st13" points="1888.9,508.6 1888.9,513.1 1863.4,498.4 1863.4,493.9 					"/>
				</g>
			</g>
			<g>
				<path class="st21" d="M1659.4,565.4c0,0-11.1-7.4-20.9-17.8c0,0-6.6-0.4-10.6-3.4c-4-3-4-3.2-4.6-4.6c-0.6-1.4-1.6-5-1.6-5
					s-4.8-1.6-6.2-3.8c-1.4-2.2,2.6-2,5.6-0.8c3,1.2,10,4.8,10,4.8s8,3.2,10.4,4.8c2.4,1.6,22.7,12.8,22.7,12.8L1659.4,565.4z"/>
				<path class="st53" d="M1687.3,690.5c0,0-8.7-0.8-13.8-1.4c0,0-4.3-0.7-4.6,3.3c-0.3,4,2.2,7,9.2,10.5l9.2,4.1
					c0,0,3.5,2.4,6.7,2.4c3.3,0,5.7-1.1,6-3.5V685L1687.3,690.5z"/>
				<path class="st53" d="M1704.7,678.3c0,0-8.7-0.8-13.8-1.4c0,0-4.3-0.7-4.6,3.3c-0.3,4,2.2,7,9.2,10.5l9.2,4.1
					c0,0,3.5,2.4,6.7,2.4s5.7-1.1,6-3.5v-20.9L1704.7,678.3z"/>
				<path class="st7" d="M1678.1,591l-2.7-0.5c0,0-0.8,18.4,1.4,32c2.2,13.5,3.5,26,6.8,41.4c3.3,15.4,1.6,28.4,1.6,28.4
					s-0.3,5.1,5.1,6.8c5.4,1.6,9.8-3.5,9.8-3.5s-0.8-42.5-1.1-47.9s-3-14.6-3-14.6s3.8,7.6,5.1,15.7v34.1c0,0,0.5,4.3,7.3,5.1
					c6.8,0.8,9-5.4,9-5.4v-29c0,0-1-9.3-2.2-17.8c-1-7.1-0.9-14.3,0.1-21.3c1.4-9.6,3-23.4,2.1-31.3
					C1716,582.9,1678.1,591,1678.1,591z"/>
				<path class="st21" d="M1681.1,492.7V503c0,0-1.1,9.5,4.9,9.5v8.1h14.9v-8.9l-12.7-21.1l-7.1-1.9L1681.1,492.7z"/>
				<path class="st54" d="M1681.1,492.7c0,0,0.8,0,1.9,1.6c1.1,1.6,1.9,4.9,1.9,4.9s1.6-0.3,2.4,2.2c0.8,2.4,0.8,2.4,0.8,2.4
					s4.6,1.4,6,4.3c1.4,3,3.5,4.1,6.8,3.5c0,0,3.3-0.5,5.4-5.7c2.2-5.1,3.5-12.7-1.4-18.4c-4.9-5.7-7.9-6.5-15.7-6.5
					C1681.3,481.1,1678.4,489.5,1681.1,492.7z"/>
				<path class="st23" d="M1690.9,518.4c0,0-6.3,1.6-15.3,9.2c-8.9,7.6-16.3,24.6-16.3,24.6s-3.5,6.8-1.6,10.8c0,0,2.2,4.1,5.1,4.1
					s9.3-7,11.1-9.5c1.9-2.4,3.2-4.1,3.2-4.1s0.5,8.1,0,13.5s-1.9,23.3-1.9,23.3s0.1,12.2,5.6,17.3c5.5,5.1,14.4,0.3,21.5-2.7
					c7-3,11.9-7.9,13.5-10.6c1.6-2.7,2.2-16.3,0-23.8c-2.2-7.6-3.8-16.8-2.2-25.2c1.6-8.4,5.4-18.4,1.6-27.1
					C1711.7,509.8,1701.2,513.1,1690.9,518.4z"/>
			</g>
			<g>
				<polygon class="st9" points="1838.3,818.1 1766.1,860.1 1693.5,818.1 1765.7,776.2 				"/>
			</g>
			<g>
				<polygon class="st7" points="1838.3,818.1 1837.6,838.3 1765.4,880.2 1766.1,860.1 				"/>
			</g>
			<g>
				<polygon class="st8" points="1766.1,860.1 1765.4,880.2 1692.8,838.3 1693.5,818.1 				"/>
			</g>
			<path class="st47" d="M1770,810.7c3.1,1.8,8,1.8,11.1,0c3.1-1.8,3-4.7,0-6.4s-8-1.8-11.1,0C1766.9,806,1766.9,808.9,1770,810.7z"
				/>
			<polygon class="st47" points="1784.8,840.5 1796.9,833.5 1795.4,818.9 1756.7,818.9 1757.1,803.2 1732.3,802.8 1706.8,817.7 
				1765.6,851.6 1784.8,840.5 			"/>
		</g>
		<g>
			<polygon class="st13" points="1825.4,1252.9 1768.2,1286.2 1710.6,1252.9 1767.8,1219.7 			"/>
		</g>
		<g>
			<polygon class="st12" points="1825.4,1252.9 1824.8,1269.6 1767.6,1302.8 1768.2,1286.2 			"/>
		</g>
		<g>
			<polygon class="st20" points="1768.2,1286.2 1767.6,1302.8 1710,1269.6 1710.6,1252.9 			"/>
		</g>
		<g>
			<polygon class="st7" points="1879.6,1239.7 1822.4,1272.9 1764.8,1239.7 1822,1206.4 			"/>
		</g>
		<g>
			<polygon class="st8" points="1879.6,1239.7 1879.1,1256.3 1821.9,1289.5 1822.4,1272.9 			"/>
		</g>
		<g>
			<polygon class="st9" points="1822.4,1272.9 1821.9,1289.5 1764.3,1256.3 1764.8,1239.7 			"/>
		</g>
	</g>
</g>
</svg>
