<?xml version="1.0" encoding="utf-8"?>
<!-- Generator: Adobe Illustrator 23.0.1, SVG Export Plug-In . SVG Version: 6.00 Build 0)  -->
<svg version="1.1" id="Layer_1" xmlns="http://www.w3.org/2000/svg" xmlns:xlink="http://www.w3.org/1999/xlink" x="0px" y="0px"
	 viewBox="0 0 2560 1500" style="enable-background:new 0 0 2560 1500;" xml:space="preserve">
<style type="text/css">
	.st0{fill:#0A3F8E;}
	.st1{fill:url(#SVGID_1_);}
	.st2{fill:url(#SVGID_2_);}
	.st3{fill:url(#SVGID_3_);}
	.st4{fill:url(#SVGID_4_);}
	.st5{fill:url(#SVGID_5_);}
	.st6{fill:url(#SVGID_6_);}
	.st7{fill:url(#SVGID_7_);}
	.st8{fill:url(#SVGID_8_);}
	.st9{fill:url(#SVGID_9_);}
	.st10{fill:url(#SVGID_10_);}
	.st11{fill:url(#SVGID_11_);}
	.st12{fill:url(#SVGID_12_);}
	.st13{fill:url(#SVGID_13_);}
	.st14{fill:url(#SVGID_14_);}
	.st15{fill:url(#SVGID_15_);}
	.st16{fill:url(#SVGID_16_);}
	.st17{fill:url(#SVGID_17_);}
	.st18{fill:url(#SVGID_18_);}
	.st19{fill:url(#SVGID_19_);}
	.st20{fill:url(#SVGID_20_);}
	.st21{fill:url(#SVGID_21_);}
	.st22{fill:url(#SVGID_22_);}
	.st23{fill:url(#SVGID_23_);}
	.st24{fill:url(#SVGID_24_);}
	.st25{fill:url(#SVGID_25_);}
	.st26{fill:url(#SVGID_26_);}
	.st27{fill:url(#SVGID_27_);}
	.st28{fill:url(#SVGID_28_);}
	.st29{fill:url(#SVGID_29_);}
	.st30{fill:url(#SVGID_30_);}
	.st31{fill:url(#SVGID_31_);}
	.st32{fill:url(#SVGID_32_);}
	.st33{fill:url(#SVGID_33_);}
	.st34{fill:url(#SVGID_34_);}
	.st35{fill:url(#SVGID_35_);}
	.st36{fill:url(#SVGID_36_);}
	.st37{fill:url(#SVGID_37_);}
	.st38{fill:url(#SVGID_38_);}
	.st39{fill:url(#SVGID_39_);}
	.st40{fill:url(#SVGID_40_);}
	.st41{fill:url(#SVGID_41_);}
	.st42{fill:url(#SVGID_42_);}
	.st43{fill:url(#SVGID_43_);}
	.st44{fill:url(#SVGID_44_);}
	.st45{fill:url(#SVGID_45_);}
	.st46{fill:url(#SVGID_46_);}
	.st47{fill:url(#SVGID_47_);}
	.st48{fill:url(#SVGID_48_);}
	.st49{fill:url(#SVGID_49_);}
	.st50{fill:url(#SVGID_50_);}
	.st51{fill:url(#SVGID_51_);}
	.st52{fill:url(#SVGID_52_);}
	.st53{fill:url(#SVGID_53_);}
	.st54{fill:url(#SVGID_54_);}
	.st55{fill:url(#SVGID_55_);}
	.st56{fill:url(#SVGID_56_);}
	.st57{fill:url(#SVGID_57_);}
	.st58{fill:url(#SVGID_58_);}
	.st59{fill:url(#SVGID_59_);}
	.st60{fill:url(#SVGID_60_);}
	.st61{fill:url(#SVGID_61_);}
	.st62{fill:url(#SVGID_62_);}
	.st63{fill:url(#SVGID_63_);}
	.st64{fill:url(#SVGID_64_);}
	.st65{fill:url(#SVGID_65_);}
	.st66{fill:url(#SVGID_66_);}
	.st67{fill:url(#SVGID_67_);}
	.st68{fill:url(#SVGID_68_);}
	.st69{fill:url(#SVGID_69_);}
	.st70{fill:url(#SVGID_70_);}
	.st71{fill:url(#SVGID_71_);}
	.st72{fill:url(#SVGID_72_);}
	.st73{fill:url(#SVGID_73_);}
	.st74{fill:url(#SVGID_74_);}
	.st75{fill:url(#SVGID_75_);}
	.st76{fill:url(#SVGID_76_);}
	.st77{fill:url(#SVGID_77_);}
</style>
<rect class="st0" width="2560" height="1500"/>
<g>
	<linearGradient id="SVGID_1_" gradientUnits="userSpaceOnUse" x1="1541.645" y1="1015.5652" x2="1790.8112" y2="1264.7313">
		<stop  offset="0" style="stop-color:#ECE83B"/>
		<stop  offset="1" style="stop-color:#EF2B5C"/>
	</linearGradient>
	<polygon class="st1" points="1526.1,1031.1 1526.1,1186.5 1743.6,1312 1743.6,1031.1 	"/>
	<linearGradient id="SVGID_2_" gradientUnits="userSpaceOnUse" x1="1727.6719" y1="1046.9452" x2="1914.0781" y2="1233.3513">
		<stop  offset="0" style="stop-color:#ECE83B"/>
		<stop  offset="1" style="stop-color:#EF2B5C"/>
	</linearGradient>
	<polygon class="st2" points="1961,1031.1 1961,1186.5 1743.6,1312 1743.6,1031.1 	"/>
	<linearGradient id="SVGID_3_" gradientUnits="userSpaceOnUse" x1="1945.0787" y1="921.4252" x2="2131.4849" y2="1107.8314">
		<stop  offset="0" style="stop-color:#EF2B5C"/>
		<stop  offset="1" style="stop-color:#33308E"/>
	</linearGradient>
	<polygon class="st3" points="2178.4,905.5 2178.4,1061 1961,1186.5 1961,905.5 	"/>
	<linearGradient id="SVGID_4_" gradientUnits="userSpaceOnUse" x1="1417.4414" y1="1186.4709" x2="1417.4414" y2="905.5455">
		<stop  offset="0" style="stop-color:#ECE83B"/>
		<stop  offset="1" style="stop-color:#00A2A5"/>
	</linearGradient>
	<polygon class="st4" points="1308.7,905.5 1308.7,1061 1526.1,1186.5 1526.1,905.5 	"/>
	<g>
		<linearGradient id="SVGID_5_" gradientUnits="userSpaceOnUse" x1="1526.1448" y1="1005.4534" x2="1614.8673" y2="1005.4534">
			<stop  offset="0" style="stop-color:#00A2A5"/>
			<stop  offset="1" style="stop-color:#33308E"/>
		</linearGradient>
		<polygon class="st5" points="1614.9,979.8 1526.1,1031.1 1614.9,979.8 		"/>
		<linearGradient id="SVGID_6_" gradientUnits="userSpaceOnUse" x1="1872.236" y1="1005.4535" x2="1960.9583" y2="1005.4535">
			<stop  offset="0" style="stop-color:#00A2A5"/>
			<stop  offset="1" style="stop-color:#33308E"/>
		</linearGradient>
		<polygon class="st6" points="1872.2,979.8 1961,1031.1 1872.2,979.8 		"/>
		<linearGradient id="SVGID_7_" gradientUnits="userSpaceOnUse" x1="1654.829" y1="879.9336" x2="1743.5515" y2="879.9336">
			<stop  offset="0" style="stop-color:#00A2A5"/>
			<stop  offset="1" style="stop-color:#33308E"/>
		</linearGradient>
		<polygon class="st7" points="1654.8,854.3 1743.6,905.5 1654.8,854.3 		"/>
		<linearGradient id="SVGID_8_" gradientUnits="userSpaceOnUse" x1="1308.7371" y1="943.3501" x2="1743.5515" y2="943.3501">
			<stop  offset="0" style="stop-color:#00A2A5"/>
			<stop  offset="1" style="stop-color:#33308E"/>
		</linearGradient>
		<path class="st8" d="M1640,923.5c-22.8-13.1-60-13.1-82.8,0c-22.8,13.1-22.8,34.7,0,47.8c15.5,9,37.8,11.8,57.7,8.5l128.7-74.3
			l-88.7,51.2C1660.5,945.3,1655.6,932.5,1640,923.5z"/>
		<linearGradient id="SVGID_9_" gradientUnits="userSpaceOnUse" x1="1595.4342" y1="882.9482" x2="1852.2549" y2="1139.7689">
			<stop  offset="0" style="stop-color:#ECE83B"/>
			<stop  offset="1" style="stop-color:#EF2B5C"/>
		</linearGradient>
		<path class="st9" d="M1872.2,979.8c5.7,11.4,0.7,24.3-14.8,33.3c-22.8,13.1-60,13.1-82.8,0c-22.8-13.1-22.8-34.7,0-47.8
			c15.5-9,37.8-11.8,57.7-8.5l-88.7-51.2l-88.7,51.2c5.7-11.4,0.7-24.3-14.8-33.3c-22.8-13.1-60-13.1-82.8,0
			c-22.8,13.1-22.8,34.7,0,47.8c15.5,9,37.8,11.8,57.7,8.5l-88.7,51.2l217.4,125.5l217.4-125.5L1872.2,979.8z"/>
		<linearGradient id="SVGID_10_" gradientUnits="userSpaceOnUse" x1="1526.1442" y1="964.2709" x2="1960.9575" y2="964.2709">
			<stop  offset="0" style="stop-color:#00A2A5"/>
			<stop  offset="1" style="stop-color:#33308E"/>
		</linearGradient>
		<path class="st10" d="M1774.6,965.3c-22.8,13.1-22.8,34.7,0,47.8c22.8,13.1,60,13.1,82.8,0c15.5-9,20.5-21.8,14.8-33.3
			l-128.7-74.3l88.7,51.2C1812.4,953.5,1790.2,956.3,1774.6,965.3z"/>
		<linearGradient id="SVGID_11_" gradientUnits="userSpaceOnUse" x1="1832.548" y1="816.5491" x2="2049.9548" y2="1033.9559">
			<stop  offset="0" style="stop-color:#EF2B5C"/>
			<stop  offset="1" style="stop-color:#33308E"/>
		</linearGradient>
		<path class="st11" d="M2178.4,905.5L1961,780l-88.7,51.2c19.8-3.3,42.1-0.4,57.7,8.5c22.8,13.1,22.8,34.7,0,47.8
			c-22.8,13.1-60,13.1-82.8,0c-15.5-9-20.5-21.8-14.8-33.3l-88.7,51.2l88.7,51.2c-19.8-3.3-42.1-0.4-57.7,8.5
			c-22.8,13.1-22.8,34.7,0,47.8c22.8,13.1,60,13.1,82.8,0c15.5-9,20.5-21.8,14.8-33.3v0l88.7,51.2L2178.4,905.5z"/>
		<linearGradient id="SVGID_12_" gradientUnits="userSpaceOnUse" x1="1308.7385" y1="817.8303" x2="1743.5531" y2="817.8303">
			<stop  offset="0" style="stop-color:#00A2A5"/>
			<stop  offset="1" style="stop-color:#33308E"/>
		</linearGradient>
		<path class="st12" d="M1712.5,845.8c22.8-13.1,22.8-34.7,0-47.8c-22.8-13.1-60-13.1-82.8,0c-15.5,9-20.5,21.8-14.8,33.3
			l-88.7-51.2l128.7,74.3C1674.7,857.6,1697,854.7,1712.5,845.8z"/>
		<linearGradient id="SVGID_13_" gradientUnits="userSpaceOnUse" x1="1437.1483" y1="777.1353" x2="1654.5551" y2="994.5421">
			<stop  offset="0" style="stop-color:#ECE83B"/>
			<stop  offset="1" style="stop-color:#00A2A5"/>
		</linearGradient>
		<path class="st13" d="M1743.6,905.5l-88.7-51.2h0c19.8,3.3,42.1,0.4,57.7-8.5c22.8-13.1,22.8-34.7,0-47.8
			c-22.8-13.1-60-13.1-82.8,0c-15.5,9-20.5,21.8-14.8,33.3l-88.7-51.2l-217.4,125.5l217.4,125.5l88.7-51.2
			c-19.8,3.3-42.1,0.4-57.7-8.5c-22.8-13.1-22.8-34.7,0-47.8c22.8-13.1,60-13.1,82.8,0c15.5,9,20.5,21.8,14.8,33.3L1743.6,905.5z"/>
		<linearGradient id="SVGID_14_" gradientUnits="userSpaceOnUse" x1="1743.5515" y1="842.7857" x2="2178.365" y2="842.7857">
			<stop  offset="0" style="stop-color:#00A2A5"/>
			<stop  offset="1" style="stop-color:#33308E"/>
		</linearGradient>
		<path class="st14" d="M1832.3,854.3c-5.7,11.4-0.7,24.3,14.8,33.3c22.8,13.1,60,13.1,82.8,0c22.8-13.1,22.8-34.7,0-47.8
			c-15.5-9-37.8-11.8-57.7-8.5L1961,780l-217.4,125.5L1832.3,854.3z"/>
		<linearGradient id="SVGID_15_" gradientUnits="userSpaceOnUse" x1="1634.8481" y1="671.3224" x2="1891.6688" y2="928.1431">
			<stop  offset="0" style="stop-color:#00A2A5"/>
			<stop  offset="1" style="stop-color:#33308E"/>
		</linearGradient>
		<path class="st15" d="M1929.9,839.8c-15.5-9-37.8-11.8-57.7-8.5L1961,780l-217.4-125.5L1526.1,780l88.7,51.2
			c-5.7-11.4-0.7-24.3,14.8-33.3c22.8-13.1,60-13.1,82.8,0c22.8,13.1,22.8,34.7,0,47.8c-15.5,9-37.8,11.8-57.7,8.5l88.7,51.2
			l88.7-51.2c-5.7,11.4-0.7,24.3,14.8,33.3c22.8,13.1,60,13.1,82.8,0C1952.7,874.5,1952.7,852.9,1929.9,839.8z"/>
	</g>
</g>
<g>
	<g>
		
			<linearGradient id="SVGID_16_" gradientUnits="userSpaceOnUse" x1="811.0912" y1="954.9644" x2="718.6602" y2="1047.3953" gradientTransform="matrix(-1 0 0 1 2529.1326 0)">
			<stop  offset="1.075270e-02" style="stop-color:#10395F"/>
			<stop  offset="0.9892" style="stop-color:#001135"/>
		</linearGradient>
		<polygon class="st16" points="1785,905.5 1785,1072.9 1743.6,1096.8 1743.6,929.5 		"/>
		
			<linearGradient id="SVGID_17_" gradientUnits="userSpaceOnUse" x1="839.9614" y1="975.0834" x2="751.9059" y2="1063.1389" gradientTransform="matrix(-1 0 0 1 2529.1326 0)">
			<stop  offset="1.075270e-02" style="stop-color:#10395F"/>
			<stop  offset="0.9892" style="stop-color:#001135"/>
		</linearGradient>
		<polygon class="st17" points="1743.6,953.4 1743.6,1096.8 1722.8,1084.9 1722.8,941.4 		"/>
		<linearGradient id="SVGID_18_" gradientUnits="userSpaceOnUse" x1="1707.1025" y1="909.335" x2="1759.2953" y2="961.5277">
			<stop  offset="0" style="stop-color:#FFDFB4"/>
			<stop  offset="0.2129" style="stop-color:#FEDAB0"/>
			<stop  offset="0.4519" style="stop-color:#FDCDA5"/>
			<stop  offset="0.7034" style="stop-color:#FAB693"/>
			<stop  offset="0.9622" style="stop-color:#F79779"/>
			<stop  offset="1" style="stop-color:#F69275"/>
		</linearGradient>
		<polygon class="st18" points="1743.6,881.6 1722.8,893.6 1722.8,989.2 1743.6,977.3 		"/>
		<linearGradient id="SVGID_19_" gradientUnits="userSpaceOnUse" x1="1680.42" y1="903.3578" x2="1744.5669" y2="967.5047">
			<stop  offset="0" style="stop-color:#FFDFB4"/>
			<stop  offset="0.2129" style="stop-color:#FEDAB0"/>
			<stop  offset="0.4519" style="stop-color:#FDCDA5"/>
			<stop  offset="0.7034" style="stop-color:#FAB693"/>
			<stop  offset="0.9622" style="stop-color:#F79779"/>
			<stop  offset="1" style="stop-color:#F69275"/>
		</linearGradient>
		<polygon class="st19" points="1702.1,881.6 1702.1,977.3 1722.8,989.2 1722.8,893.6 		"/>
		<linearGradient id="SVGID_20_" gradientUnits="userSpaceOnUse" x1="1769.2188" y1="873.472" x2="1821.4114" y2="925.6647">
			<stop  offset="0" style="stop-color:#FFDFB4"/>
			<stop  offset="0.2129" style="stop-color:#FEDAB0"/>
			<stop  offset="0.4519" style="stop-color:#FDCDA5"/>
			<stop  offset="0.7034" style="stop-color:#FAB693"/>
			<stop  offset="0.9622" style="stop-color:#F79779"/>
			<stop  offset="1" style="stop-color:#F69275"/>
		</linearGradient>
		<polygon class="st20" points="1805.7,845.8 1785,857.7 1785,953.4 1805.7,941.4 		"/>
		<linearGradient id="SVGID_21_" gradientUnits="userSpaceOnUse" x1="1707.1025" y1="828.8582" x2="1783.2036" y2="904.9594">
			<stop  offset="0" style="stop-color:#00A2A5"/>
			<stop  offset="1" style="stop-color:#33308E"/>
		</linearGradient>
		<polygon class="st21" points="1785,786 1702.1,833.8 1702.1,953.4 1722.8,965.3 1805.7,798 		"/>
		<linearGradient id="SVGID_22_" gradientUnits="userSpaceOnUse" x1="1725.6201" y1="843.0002" x2="1802.8937" y2="920.2738">
			<stop  offset="0" style="stop-color:#00A2A5"/>
			<stop  offset="1" style="stop-color:#33308E"/>
		</linearGradient>
		<polygon class="st22" points="1722.8,845.8 1722.8,965.3 1805.7,917.5 1805.7,798 		"/>
		<linearGradient id="SVGID_23_" gradientUnits="userSpaceOnUse" x1="1736.9882" y1="798.9725" x2="1770.8203" y2="832.8046">
			<stop  offset="0" style="stop-color:#00A2A5"/>
			<stop  offset="1" style="stop-color:#33308E"/>
		</linearGradient>
		<polygon class="st23" points="1785,786 1702.1,833.8 1722.8,845.8 1805.7,798 		"/>
		
			<linearGradient id="SVGID_24_" gradientUnits="userSpaceOnUse" x1="744.1702" y1="756.1172" x2="806.2866" y2="756.1172" gradientTransform="matrix(-1 0 0 1 2529.1326 0)">
			<stop  offset="0" style="stop-color:#283453"/>
			<stop  offset="1" style="stop-color:#6A7490"/>
		</linearGradient>
		<polygon class="st24" points="1743.6,774 1722.8,762.1 1764.3,738.2 1785,750.1 		"/>
		<linearGradient id="SVGID_25_" gradientUnits="userSpaceOnUse" x1="1753.9042" y1="809.9114" x2="1774.6095" y2="809.9114">
			<stop  offset="0" style="stop-color:#FFDFB4"/>
			<stop  offset="0.2129" style="stop-color:#FEDAB0"/>
			<stop  offset="0.4519" style="stop-color:#FDCDA5"/>
			<stop  offset="0.7034" style="stop-color:#FAB693"/>
			<stop  offset="0.9622" style="stop-color:#F79779"/>
			<stop  offset="1" style="stop-color:#F69275"/>
		</linearGradient>
		<polygon class="st25" points="1753.9,803.9 1753.9,827.8 1774.6,815.9 1774.6,792 		"/>
		<linearGradient id="SVGID_26_" gradientUnits="userSpaceOnUse" x1="1733.199" y1="809.9114" x2="1753.9043" y2="809.9114">
			<stop  offset="0" style="stop-color:#FFDFB4"/>
			<stop  offset="0.2129" style="stop-color:#FEDAB0"/>
			<stop  offset="0.4519" style="stop-color:#FDCDA5"/>
			<stop  offset="0.7034" style="stop-color:#FAB693"/>
			<stop  offset="0.9622" style="stop-color:#F79779"/>
			<stop  offset="1" style="stop-color:#F69275"/>
		</linearGradient>
		<polygon class="st26" points="1733.2,792 1733.2,815.9 1753.9,827.8 1753.9,803.9 		"/>
		<linearGradient id="SVGID_27_" gradientUnits="userSpaceOnUse" x1="1729.4094" y1="755.531" x2="1769.6478" y2="795.7694">
			<stop  offset="0" style="stop-color:#FFDFB4"/>
			<stop  offset="0.2129" style="stop-color:#FEDAB0"/>
			<stop  offset="0.4519" style="stop-color:#FDCDA5"/>
			<stop  offset="0.7034" style="stop-color:#FAB693"/>
			<stop  offset="0.9622" style="stop-color:#F79779"/>
			<stop  offset="1" style="stop-color:#F69275"/>
		</linearGradient>
		<polygon class="st27" points="1764.3,738.2 1722.8,762.1 1722.8,809.9 1743.6,821.9 1785,750.1 		"/>
		
			<linearGradient id="SVGID_28_" gradientUnits="userSpaceOnUse" x1="736.5915" y1="757.7187" x2="793.1598" y2="814.287" gradientTransform="matrix(-1 0 0 1 2529.1326 0)">
			<stop  offset="0" style="stop-color:#FFDFB4"/>
			<stop  offset="0.2129" style="stop-color:#FEDAB0"/>
			<stop  offset="0.4519" style="stop-color:#FDCDA5"/>
			<stop  offset="0.7034" style="stop-color:#FAB693"/>
			<stop  offset="0.9622" style="stop-color:#F79779"/>
			<stop  offset="1" style="stop-color:#F69275"/>
		</linearGradient>
		<polygon class="st28" points="1785,750.1 1785,798 1743.6,821.9 1743.6,774 		"/>
		
			<linearGradient id="SVGID_29_" gradientUnits="userSpaceOnUse" x1="797.5353" y1="753.3431" x2="748.5458" y2="802.3327" gradientTransform="matrix(-1 0 0 1 2529.1326 0)">
			<stop  offset="1.075270e-02" style="stop-color:#10395F"/>
			<stop  offset="0.9892" style="stop-color:#001135"/>
		</linearGradient>
		<polygon class="st29" points="1785,798 1743.6,821.9 1743.6,798 1733.2,792 1733.2,780 1722.8,774 1722.8,762.1 1764.3,738.2 
			1785,750.1 		"/>
		<linearGradient id="SVGID_30_" gradientUnits="userSpaceOnUse" x1="1741.3636" y1="743.5767" x2="1766.4447" y2="768.6577">
			<stop  offset="1.075270e-02" style="stop-color:#10395F"/>
			<stop  offset="0.9892" style="stop-color:#001135"/>
		</linearGradient>
		<polygon class="st30" points="1722.8,762.1 1743.6,774 1785,750.1 1764.3,738.2 		"/>
	</g>
	<g>
		
			<linearGradient id="SVGID_31_" gradientUnits="userSpaceOnUse" x1="521.2155" y1="787.6046" x2="428.7846" y2="880.0355" gradientTransform="matrix(-1 0 0 1 2529.1326 0)">
			<stop  offset="1.075270e-02" style="stop-color:#10395F"/>
			<stop  offset="0.9892" style="stop-color:#001135"/>
		</linearGradient>
		<polygon class="st31" points="2074.8,738.2 2074.8,905.5 2033.4,929.5 2033.4,762.1 		"/>
		
			<linearGradient id="SVGID_32_" gradientUnits="userSpaceOnUse" x1="550.0858" y1="807.7236" x2="462.0303" y2="895.7791" gradientTransform="matrix(-1 0 0 1 2529.1326 0)">
			<stop  offset="1.075270e-02" style="stop-color:#10395F"/>
			<stop  offset="0.9892" style="stop-color:#001135"/>
		</linearGradient>
		<polygon class="st32" points="2033.4,786 2033.4,929.5 2012.7,917.5 2012.7,774 		"/>
		<linearGradient id="SVGID_33_" gradientUnits="userSpaceOnUse" x1="1996.9781" y1="741.9751" x2="2049.1709" y2="794.1678">
			<stop  offset="0" style="stop-color:#FFDFB4"/>
			<stop  offset="0.2129" style="stop-color:#FEDAB0"/>
			<stop  offset="0.4519" style="stop-color:#FDCDA5"/>
			<stop  offset="0.7034" style="stop-color:#FAB693"/>
			<stop  offset="0.9622" style="stop-color:#F79779"/>
			<stop  offset="1" style="stop-color:#F69275"/>
		</linearGradient>
		<polygon class="st33" points="2033.4,714.3 2012.7,726.2 2012.7,821.9 2033.4,809.9 		"/>
		<linearGradient id="SVGID_34_" gradientUnits="userSpaceOnUse" x1="1970.2957" y1="735.998" x2="2034.4425" y2="800.1448">
			<stop  offset="0" style="stop-color:#FFDFB4"/>
			<stop  offset="0.2129" style="stop-color:#FEDAB0"/>
			<stop  offset="0.4519" style="stop-color:#FDCDA5"/>
			<stop  offset="0.7034" style="stop-color:#FAB693"/>
			<stop  offset="0.9622" style="stop-color:#F79779"/>
			<stop  offset="1" style="stop-color:#F69275"/>
		</linearGradient>
		<polygon class="st34" points="1992,714.3 1992,809.9 2012.7,821.9 2012.7,726.2 		"/>
		<linearGradient id="SVGID_35_" gradientUnits="userSpaceOnUse" x1="2059.0942" y1="706.1122" x2="2111.2871" y2="758.305">
			<stop  offset="0" style="stop-color:#FFDFB4"/>
			<stop  offset="0.2129" style="stop-color:#FEDAB0"/>
			<stop  offset="0.4519" style="stop-color:#FDCDA5"/>
			<stop  offset="0.7034" style="stop-color:#FAB693"/>
			<stop  offset="0.9622" style="stop-color:#F79779"/>
			<stop  offset="1" style="stop-color:#F69275"/>
		</linearGradient>
		<polygon class="st35" points="2095.5,678.4 2074.8,690.4 2074.8,786 2095.5,774 		"/>
		<linearGradient id="SVGID_36_" gradientUnits="userSpaceOnUse" x1="1996.9781" y1="661.4984" x2="2073.0793" y2="737.5997">
			<stop  offset="0" style="stop-color:#ECE83B"/>
			<stop  offset="1" style="stop-color:#00A2A5"/>
		</linearGradient>
		<polygon class="st36" points="2074.8,618.6 1992,666.5 1992,786 2012.7,798 2095.5,630.6 		"/>
		<linearGradient id="SVGID_37_" gradientUnits="userSpaceOnUse" x1="2015.4958" y1="675.6404" x2="2092.7693" y2="752.914">
			<stop  offset="0" style="stop-color:#ECE83B"/>
			<stop  offset="1" style="stop-color:#00A2A5"/>
		</linearGradient>
		<polygon class="st37" points="2012.7,678.4 2012.7,798 2095.5,750.1 2095.5,630.6 		"/>
		<linearGradient id="SVGID_38_" gradientUnits="userSpaceOnUse" x1="2026.8638" y1="631.6127" x2="2060.6958" y2="665.4448">
			<stop  offset="0" style="stop-color:#ECE83B"/>
			<stop  offset="1" style="stop-color:#00A2A5"/>
		</linearGradient>
		<polygon class="st38" points="2074.8,618.6 1992,666.5 2012.7,678.4 2095.5,630.6 		"/>
		
			<linearGradient id="SVGID_39_" gradientUnits="userSpaceOnUse" x1="454.2945" y1="588.7574" x2="516.4109" y2="588.7574" gradientTransform="matrix(-1 0 0 1 2529.1326 0)">
			<stop  offset="0" style="stop-color:#283453"/>
			<stop  offset="1" style="stop-color:#6A7490"/>
		</linearGradient>
		<polygon class="st39" points="2033.4,606.7 2012.7,594.7 2054.1,570.8 2074.8,582.8 		"/>
		<linearGradient id="SVGID_40_" gradientUnits="userSpaceOnUse" x1="2043.7799" y1="642.5516" x2="2064.4854" y2="642.5516">
			<stop  offset="0" style="stop-color:#FFDFB4"/>
			<stop  offset="0.2129" style="stop-color:#FEDAB0"/>
			<stop  offset="0.4519" style="stop-color:#FDCDA5"/>
			<stop  offset="0.7034" style="stop-color:#FAB693"/>
			<stop  offset="0.9622" style="stop-color:#F79779"/>
			<stop  offset="1" style="stop-color:#F69275"/>
		</linearGradient>
		<polygon class="st40" points="2043.8,636.6 2043.8,660.5 2064.5,648.5 2064.5,624.6 		"/>
		<linearGradient id="SVGID_41_" gradientUnits="userSpaceOnUse" x1="2023.0746" y1="642.5516" x2="2043.78" y2="642.5516">
			<stop  offset="0" style="stop-color:#FFDFB4"/>
			<stop  offset="0.2129" style="stop-color:#FEDAB0"/>
			<stop  offset="0.4519" style="stop-color:#FDCDA5"/>
			<stop  offset="0.7034" style="stop-color:#FAB693"/>
			<stop  offset="0.9622" style="stop-color:#F79779"/>
			<stop  offset="1" style="stop-color:#F69275"/>
		</linearGradient>
		<polygon class="st41" points="2023.1,624.6 2023.1,648.5 2043.8,660.5 2043.8,636.6 		"/>
		<linearGradient id="SVGID_42_" gradientUnits="userSpaceOnUse" x1="2019.2852" y1="588.1711" x2="2059.5234" y2="628.4095">
			<stop  offset="0" style="stop-color:#FFDFB4"/>
			<stop  offset="0.2129" style="stop-color:#FEDAB0"/>
			<stop  offset="0.4519" style="stop-color:#FDCDA5"/>
			<stop  offset="0.7034" style="stop-color:#FAB693"/>
			<stop  offset="0.9622" style="stop-color:#F79779"/>
			<stop  offset="1" style="stop-color:#F69275"/>
		</linearGradient>
		<polygon class="st42" points="2054.1,570.8 2012.7,594.7 2012.7,642.6 2033.4,654.5 2074.8,582.8 		"/>
		
			<linearGradient id="SVGID_43_" gradientUnits="userSpaceOnUse" x1="446.7159" y1="590.3589" x2="503.2841" y2="646.9272" gradientTransform="matrix(-1 0 0 1 2529.1326 0)">
			<stop  offset="0" style="stop-color:#FFDFB4"/>
			<stop  offset="0.2129" style="stop-color:#FEDAB0"/>
			<stop  offset="0.4519" style="stop-color:#FDCDA5"/>
			<stop  offset="0.7034" style="stop-color:#FAB693"/>
			<stop  offset="0.9622" style="stop-color:#F79779"/>
			<stop  offset="1" style="stop-color:#F69275"/>
		</linearGradient>
		<polygon class="st43" points="2074.8,582.8 2074.8,630.6 2033.4,654.5 2033.4,606.7 		"/>
		
			<linearGradient id="SVGID_44_" gradientUnits="userSpaceOnUse" x1="507.6597" y1="585.9833" x2="458.6701" y2="634.9729" gradientTransform="matrix(-1 0 0 1 2529.1326 0)">
			<stop  offset="1.075270e-02" style="stop-color:#10395F"/>
			<stop  offset="0.9892" style="stop-color:#001135"/>
		</linearGradient>
		<polygon class="st44" points="2074.8,630.6 2033.4,654.5 2033.4,630.6 2023.1,624.6 2023.1,612.7 2012.7,606.7 2012.7,594.7 
			2054.1,570.8 2074.8,582.8 		"/>
		<linearGradient id="SVGID_45_" gradientUnits="userSpaceOnUse" x1="2031.2394" y1="576.2169" x2="2056.3203" y2="601.298">
			<stop  offset="1.075270e-02" style="stop-color:#10395F"/>
			<stop  offset="0.9892" style="stop-color:#001135"/>
		</linearGradient>
		<polygon class="st45" points="2012.7,594.7 2033.4,606.7 2074.8,582.8 2054.1,570.8 		"/>
	</g>
	<g>
		
			<linearGradient id="SVGID_46_" gradientUnits="userSpaceOnUse" x1="-408.3059" y1="775.6503" x2="-500.7368" y2="868.0812" gradientTransform="matrix(-1 0 0 1 999.1544 0)">
			<stop  offset="1.075270e-02" style="stop-color:#10395F"/>
			<stop  offset="0.9892" style="stop-color:#001135"/>
		</linearGradient>
		<polygon class="st46" points="1474.4,726.2 1474.4,893.6 1433,917.5 1433,750.1 		"/>
		
			<linearGradient id="SVGID_47_" gradientUnits="userSpaceOnUse" x1="-379.4356" y1="795.7693" x2="-467.4911" y2="883.8248" gradientTransform="matrix(-1 0 0 1 999.1544 0)">
			<stop  offset="1.075270e-02" style="stop-color:#10395F"/>
			<stop  offset="0.9892" style="stop-color:#001135"/>
		</linearGradient>
		<polygon class="st47" points="1433,774 1433,917.5 1412.3,905.5 1412.3,762.1 		"/>
		<linearGradient id="SVGID_48_" gradientUnits="userSpaceOnUse" x1="1396.5214" y1="730.0209" x2="1448.714" y2="782.2136">
			<stop  offset="0" style="stop-color:#FFDFB4"/>
			<stop  offset="0.2129" style="stop-color:#FEDAB0"/>
			<stop  offset="0.4519" style="stop-color:#FDCDA5"/>
			<stop  offset="0.7034" style="stop-color:#FAB693"/>
			<stop  offset="0.9622" style="stop-color:#F79779"/>
			<stop  offset="1" style="stop-color:#F69275"/>
		</linearGradient>
		<polygon class="st48" points="1433,702.3 1412.3,714.3 1412.3,809.9 1433,798 		"/>
		<linearGradient id="SVGID_49_" gradientUnits="userSpaceOnUse" x1="1369.8389" y1="724.0438" x2="1433.9857" y2="788.1907">
			<stop  offset="0" style="stop-color:#FFDFB4"/>
			<stop  offset="0.2129" style="stop-color:#FEDAB0"/>
			<stop  offset="0.4519" style="stop-color:#FDCDA5"/>
			<stop  offset="0.7034" style="stop-color:#FAB693"/>
			<stop  offset="0.9622" style="stop-color:#F79779"/>
			<stop  offset="1" style="stop-color:#F69275"/>
		</linearGradient>
		<polygon class="st49" points="1391.6,702.3 1391.6,798 1412.3,809.9 1412.3,714.3 		"/>
		<linearGradient id="SVGID_50_" gradientUnits="userSpaceOnUse" x1="1458.6376" y1="694.158" x2="1510.8303" y2="746.3507">
			<stop  offset="0" style="stop-color:#FFDFB4"/>
			<stop  offset="0.2129" style="stop-color:#FEDAB0"/>
			<stop  offset="0.4519" style="stop-color:#FDCDA5"/>
			<stop  offset="0.7034" style="stop-color:#FAB693"/>
			<stop  offset="0.9622" style="stop-color:#F79779"/>
			<stop  offset="1" style="stop-color:#F69275"/>
		</linearGradient>
		<polygon class="st50" points="1495.1,666.5 1474.4,678.4 1474.4,774 1495.1,762.1 		"/>
		<linearGradient id="SVGID_51_" gradientUnits="userSpaceOnUse" x1="1396.5214" y1="649.5441" x2="1472.6226" y2="725.6453">
			<stop  offset="0" style="stop-color:#EF2B5C"/>
			<stop  offset="1" style="stop-color:#33308E"/>
		</linearGradient>
		<polygon class="st51" points="1474.4,606.7 1391.6,654.5 1391.6,774 1412.3,786 1495.1,618.6 		"/>
		<linearGradient id="SVGID_52_" gradientUnits="userSpaceOnUse" x1="1415.0389" y1="663.6862" x2="1492.3126" y2="740.9598">
			<stop  offset="0" style="stop-color:#EF2B5C"/>
			<stop  offset="1" style="stop-color:#33308E"/>
		</linearGradient>
		<polygon class="st52" points="1412.3,666.5 1412.3,786 1495.1,738.2 1495.1,618.6 		"/>
		<linearGradient id="SVGID_53_" gradientUnits="userSpaceOnUse" x1="1391.5596" y1="636.5745" x2="1495.0867" y2="636.5745">
			<stop  offset="0" style="stop-color:#EF2B5C"/>
			<stop  offset="1" style="stop-color:#33308E"/>
		</linearGradient>
		<polygon class="st53" points="1474.4,606.7 1391.6,654.5 1412.3,666.5 1495.1,618.6 		"/>
		
			<linearGradient id="SVGID_54_" gradientUnits="userSpaceOnUse" x1="-475.2269" y1="576.8032" x2="-413.1104" y2="576.8032" gradientTransform="matrix(-1 0 0 1 999.1544 0)">
			<stop  offset="0" style="stop-color:#283453"/>
			<stop  offset="1" style="stop-color:#6A7490"/>
		</linearGradient>
		<polygon class="st54" points="1433,594.7 1412.3,582.8 1453.7,558.9 1474.4,570.8 		"/>
		<linearGradient id="SVGID_55_" gradientUnits="userSpaceOnUse" x1="1419.4146" y1="668.0618" x2="1487.937" y2="736.5842">
			<stop  offset="0" style="stop-color:#FFFFFF"/>
			<stop  offset="1" style="stop-color:#B3C9D5"/>
		</linearGradient>
		<polygon class="st55" points="1433,654.5 1433,774 1474.4,750.1 1474.4,630.6 		"/>
		<linearGradient id="SVGID_56_" gradientUnits="userSpaceOnUse" x1="1443.323" y1="630.5974" x2="1464.0284" y2="630.5974">
			<stop  offset="0" style="stop-color:#FFDFB4"/>
			<stop  offset="0.2129" style="stop-color:#FEDAB0"/>
			<stop  offset="0.4519" style="stop-color:#FDCDA5"/>
			<stop  offset="0.7034" style="stop-color:#FAB693"/>
			<stop  offset="0.9622" style="stop-color:#F79779"/>
			<stop  offset="1" style="stop-color:#F69275"/>
		</linearGradient>
		<polygon class="st56" points="1443.3,624.6 1443.3,648.5 1464,636.6 1464,612.7 		"/>
		<linearGradient id="SVGID_57_" gradientUnits="userSpaceOnUse" x1="1422.6178" y1="630.5974" x2="1443.3232" y2="630.5974">
			<stop  offset="0" style="stop-color:#FFDFB4"/>
			<stop  offset="0.2129" style="stop-color:#FEDAB0"/>
			<stop  offset="0.4519" style="stop-color:#FDCDA5"/>
			<stop  offset="0.7034" style="stop-color:#FAB693"/>
			<stop  offset="0.9622" style="stop-color:#F79779"/>
			<stop  offset="1" style="stop-color:#F69275"/>
		</linearGradient>
		<polygon class="st57" points="1422.6,612.7 1422.6,636.6 1443.3,648.5 1443.3,624.6 		"/>
		<linearGradient id="SVGID_58_" gradientUnits="userSpaceOnUse" x1="1418.8284" y1="576.2169" x2="1459.0668" y2="616.4553">
			<stop  offset="0" style="stop-color:#FFDFB4"/>
			<stop  offset="0.2129" style="stop-color:#FEDAB0"/>
			<stop  offset="0.4519" style="stop-color:#FDCDA5"/>
			<stop  offset="0.7034" style="stop-color:#FAB693"/>
			<stop  offset="0.9622" style="stop-color:#F79779"/>
			<stop  offset="1" style="stop-color:#F69275"/>
		</linearGradient>
		<polygon class="st58" points="1453.7,558.9 1412.3,582.8 1412.3,630.6 1433,642.6 1474.4,570.8 		"/>
		<linearGradient id="SVGID_59_" gradientUnits="userSpaceOnUse" x1="1437.3459" y1="590.3589" x2="1470.0056" y2="623.0186">
			<stop  offset="0" style="stop-color:#FFDFB4"/>
			<stop  offset="0.2129" style="stop-color:#FEDAB0"/>
			<stop  offset="0.4519" style="stop-color:#FDCDA5"/>
			<stop  offset="0.7034" style="stop-color:#FAB693"/>
			<stop  offset="0.9622" style="stop-color:#F79779"/>
			<stop  offset="1" style="stop-color:#F69275"/>
		</linearGradient>
		<polygon class="st59" points="1433,594.7 1433,642.6 1474.4,618.6 1474.4,570.8 		"/>
		
			<linearGradient id="SVGID_60_" gradientUnits="userSpaceOnUse" x1="-425.6511" y1="570.2397" x2="-456.7093" y2="601.298" gradientTransform="matrix(-1 0 0 1 999.1544 0)">
			<stop  offset="1.075270e-02" style="stop-color:#10395F"/>
			<stop  offset="0.9892" style="stop-color:#001135"/>
		</linearGradient>
		<polygon class="st60" points="1474.4,582.8 1433,606.7 1422.6,600.7 1422.6,612.7 1412.3,606.7 1412.3,582.8 1453.7,558.9 
			1474.4,570.8 		"/>
		
			<linearGradient id="SVGID_61_" gradientUnits="userSpaceOnUse" x1="-447.1572" y1="581.3932" x2="-461.8856" y2="596.1216" gradientTransform="matrix(-1 0 0 1 999.1544 0)">
			<stop  offset="1.075270e-02" style="stop-color:#10395F"/>
			<stop  offset="0.9892" style="stop-color:#001135"/>
		</linearGradient>
		<polygon class="st61" points="1474.4,570.8 1474.4,570.8 1474.4,582.8 1433,606.7 1433,594.7 		"/>
	</g>
	<g>
		
			<linearGradient id="SVGID_62_" gradientUnits="userSpaceOnUse" x1="-698.1819" y1="608.2905" x2="-790.6129" y2="700.7214" gradientTransform="matrix(-1 0 0 1 999.1544 0)">
			<stop  offset="1.075270e-02" style="stop-color:#10395F"/>
			<stop  offset="0.9892" style="stop-color:#001135"/>
		</linearGradient>
		<polygon class="st62" points="1764.3,558.9 1764.3,726.2 1722.8,750.1 1722.8,582.8 		"/>
		
			<linearGradient id="SVGID_63_" gradientUnits="userSpaceOnUse" x1="-669.3116" y1="628.4095" x2="-757.3671" y2="716.465" gradientTransform="matrix(-1 0 0 1 999.1544 0)">
			<stop  offset="1.075270e-02" style="stop-color:#10395F"/>
			<stop  offset="0.9892" style="stop-color:#001135"/>
		</linearGradient>
		<polygon class="st63" points="1722.8,606.7 1722.8,750.1 1702.1,738.2 1702.1,594.7 		"/>
		<linearGradient id="SVGID_64_" gradientUnits="userSpaceOnUse" x1="1686.3973" y1="562.6611" x2="1738.5901" y2="614.8538">
			<stop  offset="0" style="stop-color:#FFDFB4"/>
			<stop  offset="0.2129" style="stop-color:#FEDAB0"/>
			<stop  offset="0.4519" style="stop-color:#FDCDA5"/>
			<stop  offset="0.7034" style="stop-color:#FAB693"/>
			<stop  offset="0.9622" style="stop-color:#F79779"/>
			<stop  offset="1" style="stop-color:#F69275"/>
		</linearGradient>
		<polygon class="st64" points="1722.8,535 1702.1,546.9 1702.1,642.6 1722.8,630.6 		"/>
		<linearGradient id="SVGID_65_" gradientUnits="userSpaceOnUse" x1="1659.7148" y1="556.684" x2="1723.8617" y2="620.8308">
			<stop  offset="0" style="stop-color:#FFDFB4"/>
			<stop  offset="0.2129" style="stop-color:#FEDAB0"/>
			<stop  offset="0.4519" style="stop-color:#FDCDA5"/>
			<stop  offset="0.7034" style="stop-color:#FAB693"/>
			<stop  offset="0.9622" style="stop-color:#F79779"/>
			<stop  offset="1" style="stop-color:#F69275"/>
		</linearGradient>
		<polygon class="st65" points="1681.4,535 1681.4,630.6 1702.1,642.6 1702.1,546.9 		"/>
		<linearGradient id="SVGID_66_" gradientUnits="userSpaceOnUse" x1="1748.5135" y1="526.7982" x2="1800.7062" y2="578.9909">
			<stop  offset="0" style="stop-color:#FFDFB4"/>
			<stop  offset="0.2129" style="stop-color:#FEDAB0"/>
			<stop  offset="0.4519" style="stop-color:#FDCDA5"/>
			<stop  offset="0.7034" style="stop-color:#FAB693"/>
			<stop  offset="0.9622" style="stop-color:#F79779"/>
			<stop  offset="1" style="stop-color:#F69275"/>
		</linearGradient>
		<polygon class="st66" points="1785,499.1 1764.3,511.1 1764.3,606.7 1785,594.7 		"/>
		<linearGradient id="SVGID_67_" gradientUnits="userSpaceOnUse" x1="1686.3973" y1="482.1844" x2="1762.4985" y2="558.2856">
			<stop  offset="0" style="stop-color:#ECE83B"/>
			<stop  offset="1" style="stop-color:#EF2B5C"/>
		</linearGradient>
		<polygon class="st67" points="1764.3,439.3 1681.4,487.1 1681.4,606.7 1702.1,618.6 1785,451.3 		"/>
		<linearGradient id="SVGID_68_" gradientUnits="userSpaceOnUse" x1="1704.915" y1="496.3264" x2="1782.1886" y2="573.5999">
			<stop  offset="0" style="stop-color:#ECE83B"/>
			<stop  offset="1" style="stop-color:#EF2B5C"/>
		</linearGradient>
		<polygon class="st68" points="1702.1,499.1 1702.1,618.6 1785,570.8 1785,451.3 		"/>
		<linearGradient id="SVGID_69_" gradientUnits="userSpaceOnUse" x1="1716.2831" y1="452.2987" x2="1750.1151" y2="486.1307">
			<stop  offset="0" style="stop-color:#ECE83B"/>
			<stop  offset="1" style="stop-color:#EF2B5C"/>
		</linearGradient>
		<polygon class="st69" points="1764.3,439.3 1681.4,487.1 1702.1,499.1 1785,451.3 		"/>
		
			<linearGradient id="SVGID_70_" gradientUnits="userSpaceOnUse" x1="-765.1029" y1="409.4434" x2="-702.9865" y2="409.4434" gradientTransform="matrix(-1 0 0 1 999.1544 0)">
			<stop  offset="0" style="stop-color:#283453"/>
			<stop  offset="1" style="stop-color:#6A7490"/>
		</linearGradient>
		<polygon class="st70" points="1722.8,427.4 1702.1,415.4 1743.6,391.5 1764.3,403.5 		"/>
		<linearGradient id="SVGID_71_" gradientUnits="userSpaceOnUse" x1="1709.2906" y1="500.702" x2="1777.813" y2="569.2244">
			<stop  offset="0" style="stop-color:#FFFFFF"/>
			<stop  offset="1" style="stop-color:#B3C9D5"/>
		</linearGradient>
		<polygon class="st71" points="1722.8,487.1 1722.8,606.7 1764.3,582.8 1764.3,463.2 		"/>
		<linearGradient id="SVGID_72_" gradientUnits="userSpaceOnUse" x1="1733.199" y1="463.2375" x2="1753.9043" y2="463.2375">
			<stop  offset="0" style="stop-color:#FFDFB4"/>
			<stop  offset="0.2129" style="stop-color:#FEDAB0"/>
			<stop  offset="0.4519" style="stop-color:#FDCDA5"/>
			<stop  offset="0.7034" style="stop-color:#FAB693"/>
			<stop  offset="0.9622" style="stop-color:#F79779"/>
			<stop  offset="1" style="stop-color:#F69275"/>
		</linearGradient>
		<polygon class="st72" points="1733.2,457.3 1733.2,481.2 1753.9,469.2 1753.9,445.3 		"/>
		<linearGradient id="SVGID_73_" gradientUnits="userSpaceOnUse" x1="1712.4938" y1="463.2375" x2="1733.1991" y2="463.2375">
			<stop  offset="0" style="stop-color:#FFDFB4"/>
			<stop  offset="0.2129" style="stop-color:#FEDAB0"/>
			<stop  offset="0.4519" style="stop-color:#FDCDA5"/>
			<stop  offset="0.7034" style="stop-color:#FAB693"/>
			<stop  offset="0.9622" style="stop-color:#F79779"/>
			<stop  offset="1" style="stop-color:#F69275"/>
		</linearGradient>
		<polygon class="st73" points="1712.5,445.3 1712.5,469.2 1733.2,481.2 1733.2,457.3 		"/>
		<linearGradient id="SVGID_74_" gradientUnits="userSpaceOnUse" x1="1708.7043" y1="408.8571" x2="1748.9427" y2="449.0955">
			<stop  offset="0" style="stop-color:#FFDFB4"/>
			<stop  offset="0.2129" style="stop-color:#FEDAB0"/>
			<stop  offset="0.4519" style="stop-color:#FDCDA5"/>
			<stop  offset="0.7034" style="stop-color:#FAB693"/>
			<stop  offset="0.9622" style="stop-color:#F79779"/>
			<stop  offset="1" style="stop-color:#F69275"/>
		</linearGradient>
		<polygon class="st74" points="1743.6,391.5 1702.1,415.4 1702.1,463.2 1722.8,475.2 1764.3,403.5 		"/>
		<linearGradient id="SVGID_75_" gradientUnits="userSpaceOnUse" x1="1727.2219" y1="422.9991" x2="1759.8816" y2="455.6588">
			<stop  offset="0" style="stop-color:#FFDFB4"/>
			<stop  offset="0.2129" style="stop-color:#FEDAB0"/>
			<stop  offset="0.4519" style="stop-color:#FDCDA5"/>
			<stop  offset="0.7034" style="stop-color:#FAB693"/>
			<stop  offset="0.9622" style="stop-color:#F79779"/>
			<stop  offset="1" style="stop-color:#F69275"/>
		</linearGradient>
		<polygon class="st75" points="1722.8,427.4 1722.8,475.2 1764.3,451.3 1764.3,403.5 		"/>
		
			<linearGradient id="SVGID_76_" gradientUnits="userSpaceOnUse" x1="-715.527" y1="402.8799" x2="-746.5853" y2="433.9382" gradientTransform="matrix(-1 0 0 1 999.1544 0)">
			<stop  offset="1.075270e-02" style="stop-color:#10395F"/>
			<stop  offset="0.9892" style="stop-color:#001135"/>
		</linearGradient>
		<polygon class="st76" points="1764.3,415.4 1722.8,439.3 1712.5,433.4 1712.5,445.3 1702.1,439.3 1702.1,415.4 1743.6,391.5 
			1764.3,403.5 		"/>
		
			<linearGradient id="SVGID_77_" gradientUnits="userSpaceOnUse" x1="-737.0332" y1="414.0334" x2="-751.7616" y2="428.7618" gradientTransform="matrix(-1 0 0 1 999.1544 0)">
			<stop  offset="1.075270e-02" style="stop-color:#10395F"/>
			<stop  offset="0.9892" style="stop-color:#001135"/>
		</linearGradient>
		<polygon class="st77" points="1764.3,403.5 1764.3,403.5 1764.3,415.4 1722.8,439.3 1722.8,427.4 		"/>
	</g>
</g>
</svg>
