<?xml version="1.0" encoding="utf-8"?>
<!-- Generator: Adobe Illustrator 23.0.1, SVG Export Plug-In . SVG Version: 6.00 Build 0)  -->
<svg version="1.1" id="Layer_1" xmlns="http://www.w3.org/2000/svg" xmlns:xlink="http://www.w3.org/1999/xlink" x="0px" y="0px"
	 viewBox="0 0 2560 1500" style="enable-background:new 0 0 2560 1500;" xml:space="preserve">
<style type="text/css">
	.st0{fill:#296EC1;}
	.st1{fill:url(#SVGID_1_);}
	.st2{fill:url(#SVGID_2_);}
	.st3{fill:url(#SVGID_3_);}
	.st4{fill:url(#SVGID_4_);}
	.st5{fill:url(#SVGID_5_);}
	.st6{fill:url(#SVGID_6_);}
	.st7{fill:url(#SVGID_7_);}
	.st8{fill:url(#SVGID_8_);}
	.st9{fill:url(#SVGID_9_);}
	.st10{fill:url(#SVGID_10_);}
	.st11{fill:url(#SVGID_11_);}
	.st12{fill:url(#SVGID_12_);}
	.st13{fill:url(#SVGID_13_);}
	.st14{fill:url(#SVGID_14_);}
	.st15{fill:url(#SVGID_15_);}
	.st16{fill:url(#SVGID_16_);}
	.st17{fill:url(#SVGID_17_);}
	.st18{fill:url(#SVGID_18_);}
	.st19{fill:url(#SVGID_19_);}
	.st20{fill:url(#SVGID_20_);}
	.st21{fill:url(#SVGID_21_);}
	.st22{fill:url(#SVGID_22_);}
	.st23{fill:url(#SVGID_23_);}
	.st24{fill:url(#SVGID_24_);}
	.st25{fill:url(#SVGID_25_);}
	.st26{fill:url(#SVGID_26_);}
	.st27{fill:url(#SVGID_27_);}
	.st28{fill:url(#SVGID_28_);}
	.st29{fill:url(#SVGID_29_);}
	.st30{fill:url(#SVGID_30_);}
	.st31{fill:url(#SVGID_31_);}
	.st32{fill:url(#SVGID_32_);}
	.st33{fill:url(#SVGID_33_);}
	.st34{fill:url(#SVGID_34_);}
	.st35{fill:url(#SVGID_35_);}
	.st36{fill:url(#SVGID_36_);}
	.st37{fill:url(#SVGID_37_);}
	.st38{fill:url(#SVGID_38_);}
	.st39{fill:url(#SVGID_39_);}
	.st40{fill:url(#SVGID_40_);}
	.st41{fill:url(#SVGID_41_);}
	.st42{fill:url(#SVGID_42_);}
	.st43{fill:url(#SVGID_43_);}
	.st44{fill:url(#SVGID_44_);}
	.st45{fill:url(#SVGID_45_);}
	.st46{fill:url(#SVGID_46_);}
	.st47{fill:url(#SVGID_47_);}
	.st48{fill:url(#SVGID_48_);}
	.st49{fill:url(#SVGID_49_);}
	.st50{fill:url(#SVGID_50_);}
	.st51{fill:url(#SVGID_51_);}
	.st52{fill:url(#SVGID_52_);}
	.st53{fill:url(#SVGID_53_);}
	.st54{fill:url(#SVGID_54_);}
	.st55{fill:url(#SVGID_55_);}
	.st56{fill:url(#SVGID_56_);}
	.st57{fill:url(#SVGID_57_);}
	.st58{fill:url(#SVGID_58_);}
	.st59{fill:url(#SVGID_59_);}
	.st60{fill:url(#SVGID_60_);}
	.st61{fill:url(#SVGID_61_);}
	.st62{fill:url(#SVGID_62_);}
	.st63{fill:url(#SVGID_63_);}
	.st64{fill:url(#SVGID_64_);}
	.st65{fill:url(#SVGID_65_);}
	.st66{fill:url(#SVGID_66_);}
	.st67{fill:url(#SVGID_67_);}
	.st68{fill:url(#SVGID_68_);}
	.st69{fill:url(#SVGID_69_);}
	.st70{fill:url(#SVGID_70_);}
	.st71{fill:url(#SVGID_71_);}
	.st72{fill:url(#SVGID_72_);}
	.st73{fill:url(#SVGID_73_);}
	.st74{fill:url(#SVGID_74_);}
	.st75{fill:url(#SVGID_75_);}
	.st76{fill:url(#SVGID_76_);}
	.st77{fill:url(#SVGID_77_);}
</style>
<rect class="st0" width="2560" height="1500"/>
<g>
	
		<linearGradient id="SVGID_1_" gradientUnits="userSpaceOnUse" x1="1541.625" y1="484.425" x2="1790.825" y2="235.225" gradientTransform="matrix(1 0 0 -1 0 1500)">
		<stop  offset="0" style="stop-color:#ECE83B"/>
		<stop  offset="1" style="stop-color:#EF2B5C"/>
	</linearGradient>
	<polygon class="st1" points="1526.1,1031.1 1526.1,1186.5 1743.6,1312 1743.6,1031.1 	"/>
	
		<linearGradient id="SVGID_2_" gradientUnits="userSpaceOnUse" x1="1727.725" y1="453.025" x2="1914.125" y2="266.625" gradientTransform="matrix(1 0 0 -1 0 1500)">
		<stop  offset="0" style="stop-color:#ECE83B"/>
		<stop  offset="1" style="stop-color:#EF2B5C"/>
	</linearGradient>
	<polygon class="st2" points="1961,1031.1 1961,1186.5 1743.6,1312 1743.6,1031.1 	"/>
	
		<linearGradient id="SVGID_3_" gradientUnits="userSpaceOnUse" x1="1945.1" y1="578.6" x2="2131.5498" y2="392.15" gradientTransform="matrix(1 0 0 -1 0 1500)">
		<stop  offset="0" style="stop-color:#EF2B5C"/>
		<stop  offset="1" style="stop-color:#33308E"/>
	</linearGradient>
	<polygon class="st3" points="2178.4,905.5 2178.4,1061 1961,1186.5 1961,905.5 	"/>
	
		<linearGradient id="SVGID_4_" gradientUnits="userSpaceOnUse" x1="1417.3999" y1="313.5" x2="1417.3999" y2="594.5" gradientTransform="matrix(1 0 0 -1 0 1500)">
		<stop  offset="0" style="stop-color:#ECE83B"/>
		<stop  offset="1" style="stop-color:#00A2A5"/>
	</linearGradient>
	<polygon class="st4" points="1308.7,905.5 1308.7,1061 1526.1,1186.5 1526.1,905.5 	"/>
	<g>
		
			<linearGradient id="SVGID_5_" gradientUnits="userSpaceOnUse" x1="1526.1" y1="494.55" x2="1614.9" y2="494.55" gradientTransform="matrix(1 0 0 -1 0 1500)">
			<stop  offset="0" style="stop-color:#00A2A5"/>
			<stop  offset="1" style="stop-color:#33308E"/>
		</linearGradient>
		<path class="st5" d="M1614.9,979.8l-88.8,51.3L1614.9,979.8z"/>
		
			<linearGradient id="SVGID_6_" gradientUnits="userSpaceOnUse" x1="1872.2" y1="494.55" x2="1961" y2="494.55" gradientTransform="matrix(1 0 0 -1 0 1500)">
			<stop  offset="0" style="stop-color:#00A2A5"/>
			<stop  offset="1" style="stop-color:#33308E"/>
		</linearGradient>
		<path class="st6" d="M1872.2,979.8l88.8,51.3L1872.2,979.8z"/>
		
			<linearGradient id="SVGID_7_" gradientUnits="userSpaceOnUse" x1="1654.8" y1="620.1" x2="1743.6" y2="620.1" gradientTransform="matrix(1 0 0 -1 0 1500)">
			<stop  offset="0" style="stop-color:#00A2A5"/>
			<stop  offset="1" style="stop-color:#33308E"/>
		</linearGradient>
		<path class="st7" d="M1654.8,854.3l88.8,51.2L1654.8,854.3z"/>
		
			<linearGradient id="SVGID_8_" gradientUnits="userSpaceOnUse" x1="1308.7371" y1="556.6815" x2="1743.5515" y2="556.6815" gradientTransform="matrix(1 0 0 -1 0 1500)">
			<stop  offset="0" style="stop-color:#00A2A5"/>
			<stop  offset="1" style="stop-color:#33308E"/>
		</linearGradient>
		<path class="st8" d="M1640,923.5c-22.8-13.1-60-13.1-82.8,0s-22.8,34.7,0,47.8c15.5,9,37.8,11.8,57.7,8.5l128.7-74.3l-88.7,51.2
			C1660.5,945.3,1655.6,932.5,1640,923.5z"/>
		
			<linearGradient id="SVGID_9_" gradientUnits="userSpaceOnUse" x1="1595.5887" y1="617.1111" x2="1852.3998" y2="360.3" gradientTransform="matrix(1 0 0 -1 0 1500)">
			<stop  offset="0" style="stop-color:#ECE83B"/>
			<stop  offset="1" style="stop-color:#EF2B5C"/>
		</linearGradient>
		<path class="st9" d="M1872.2,979.8c5.7,11.4,0.7,24.3-14.8,33.3c-22.8,13.1-60,13.1-82.8,0s-22.8-34.7,0-47.8
			c15.5-9,37.8-11.8,57.7-8.5l-88.7-51.2l-88.7,51.2c5.7-11.4,0.7-24.3-14.8-33.3c-22.8-13.1-60-13.1-82.8,0s-22.8,34.7,0,47.8
			c15.5,9,37.8,11.8,57.7,8.5l-88.7,51.2l217.4,125.5l217.4-125.5L1872.2,979.8z"/>
		
			<linearGradient id="SVGID_10_" gradientUnits="userSpaceOnUse" x1="1526.1442" y1="535.7875" x2="1960.9575" y2="535.7875" gradientTransform="matrix(1 0 0 -1 0 1500)">
			<stop  offset="0" style="stop-color:#00A2A5"/>
			<stop  offset="1" style="stop-color:#33308E"/>
		</linearGradient>
		<path class="st10" d="M1774.6,965.3c-22.8,13.1-22.8,34.7,0,47.8s60,13.1,82.8,0c15.5-9,20.5-21.8,14.8-33.3l-128.7-74.3
			l88.7,51.2C1812.4,953.5,1790.2,956.3,1774.6,965.3z"/>
		
			<linearGradient id="SVGID_11_" gradientUnits="userSpaceOnUse" x1="1832.6444" y1="683.5444" x2="2050.0444" y2="466.1445" gradientTransform="matrix(1 0 0 -1 0 1500)">
			<stop  offset="0" style="stop-color:#EF2B5C"/>
			<stop  offset="1" style="stop-color:#33308E"/>
		</linearGradient>
		<path class="st11" d="M2178.4,905.5L1961,780l-88.7,51.2c19.8-3.3,42.1-0.4,57.7,8.5c22.8,13.1,22.8,34.7,0,47.8s-60,13.1-82.8,0
			c-15.5-9-20.5-21.8-14.8-33.3l-88.7,51.2l88.7,51.2c-19.8-3.3-42.1-0.4-57.7,8.5c-22.8,13.1-22.8,34.7,0,47.8s60,13.1,82.8,0
			c15.5-9,20.5-21.8,14.8-33.3l0,0l88.7,51.2L2178.4,905.5z"/>
		
			<linearGradient id="SVGID_12_" gradientUnits="userSpaceOnUse" x1="1308.7385" y1="682.1196" x2="1743.5531" y2="682.1196" gradientTransform="matrix(1 0 0 -1 0 1500)">
			<stop  offset="0" style="stop-color:#00A2A5"/>
			<stop  offset="1" style="stop-color:#33308E"/>
		</linearGradient>
		<path class="st12" d="M1712.5,845.8c22.8-13.1,22.8-34.7,0-47.8s-60-13.1-82.8,0c-15.5,9-20.5,21.8-14.8,33.3l-88.7-51.2
			l128.7,74.3C1674.7,857.6,1697,854.7,1712.5,845.8z"/>
		
			<linearGradient id="SVGID_13_" gradientUnits="userSpaceOnUse" x1="1437.3055" y1="722.8056" x2="1654.6055" y2="505.5055" gradientTransform="matrix(1 0 0 -1 0 1500)">
			<stop  offset="0" style="stop-color:#ECE83B"/>
			<stop  offset="1" style="stop-color:#00A2A5"/>
		</linearGradient>
		<path class="st13" d="M1743.6,905.5l-88.7-51.2l0,0c19.8,3.3,42.1,0.4,57.7-8.5c22.8-13.1,22.8-34.7,0-47.8s-60-13.1-82.8,0
			c-15.5,9-20.5,21.8-14.8,33.3l-88.7-51.2l-217.4,125.5l217.4,125.5l88.7-51.2c-19.8,3.3-42.1,0.4-57.7-8.5
			c-22.8-13.1-22.8-34.7,0-47.8s60-13.1,82.8,0c15.5,9,20.5,21.8,14.8,33.3L1743.6,905.5z"/>
		
			<linearGradient id="SVGID_14_" gradientUnits="userSpaceOnUse" x1="1743.6" y1="657.25" x2="2178.3999" y2="657.25" gradientTransform="matrix(1 0 0 -1 0 1500)">
			<stop  offset="0" style="stop-color:#00A2A5"/>
			<stop  offset="1" style="stop-color:#33308E"/>
		</linearGradient>
		<path class="st14" d="M1832.3,854.3c-5.7,11.4-0.7,24.3,14.8,33.3c22.8,13.1,60,13.1,82.8,0s22.8-34.7,0-47.8
			c-15.5-9-37.8-11.8-57.7-8.5L1961,780l-217.4,125.5L1832.3,854.3z"/>
		
			<linearGradient id="SVGID_15_" gradientUnits="userSpaceOnUse" x1="1634.825" y1="828.725" x2="1891.5984" y2="571.9515" gradientTransform="matrix(1 0 0 -1 0 1500)">
			<stop  offset="0" style="stop-color:#00A2A5"/>
			<stop  offset="1" style="stop-color:#33308E"/>
		</linearGradient>
		<path class="st15" d="M1929.9,839.8c-15.5-9-37.8-11.8-57.7-8.5L1961,780l-217.4-125.5L1526.1,780l88.7,51.2
			c-5.7-11.4-0.7-24.3,14.8-33.3c22.8-13.1,60-13.1,82.8,0s22.8,34.7,0,47.8c-15.5,9-37.8,11.8-57.7,8.5l88.7,51.2l88.7-51.2
			c-5.7,11.4-0.7,24.3,14.8,33.3c22.8,13.1,60,13.1,82.8,0C1952.7,874.5,1952.7,852.9,1929.9,839.8z"/>
	</g>
</g>
<g>
	<g>
		
			<linearGradient id="SVGID_16_" gradientUnits="userSpaceOnUse" x1="811.0076" y1="545.025" x2="718.6075" y2="452.625" gradientTransform="matrix(-1 0 0 -1 2529.1326 1500)">
			<stop  offset="1.075270e-02" style="stop-color:#10395F"/>
			<stop  offset="0.9892" style="stop-color:#001135"/>
		</linearGradient>
		<polygon class="st16" points="1785,905.5 1785,1072.9 1743.6,1096.8 1743.6,929.5 		"/>
		
			<linearGradient id="SVGID_17_" gradientUnits="userSpaceOnUse" x1="840.0076" y1="524.9249" x2="751.9076" y2="436.825" gradientTransform="matrix(-1 0 0 -1 2529.1326 1500)">
			<stop  offset="1.075270e-02" style="stop-color:#10395F"/>
			<stop  offset="0.9892" style="stop-color:#001135"/>
		</linearGradient>
		<polygon class="st17" points="1743.6,953.4 1743.6,1096.8 1722.8,1084.9 1722.8,941.4 		"/>
		
			<linearGradient id="SVGID_18_" gradientUnits="userSpaceOnUse" x1="1707.1" y1="590.7" x2="1759.2927" y2="538.5073" gradientTransform="matrix(1 0 0 -1 0 1500)">
			<stop  offset="0" style="stop-color:#FFDFB4"/>
			<stop  offset="0.2129" style="stop-color:#FEDAB0"/>
			<stop  offset="0.4519" style="stop-color:#FDCDA5"/>
			<stop  offset="0.7034" style="stop-color:#FAB693"/>
			<stop  offset="0.9622" style="stop-color:#F79779"/>
			<stop  offset="1" style="stop-color:#F69275"/>
		</linearGradient>
		<polygon class="st18" points="1743.6,881.6 1722.8,893.6 1722.8,989.2 1743.6,977.3 		"/>
		
			<linearGradient id="SVGID_19_" gradientUnits="userSpaceOnUse" x1="1680.35" y1="596.6501" x2="1744.5" y2="532.4999" gradientTransform="matrix(1 0 0 -1 0 1500)">
			<stop  offset="0" style="stop-color:#FFDFB4"/>
			<stop  offset="0.2129" style="stop-color:#FEDAB0"/>
			<stop  offset="0.4519" style="stop-color:#FDCDA5"/>
			<stop  offset="0.7034" style="stop-color:#FAB693"/>
			<stop  offset="0.9622" style="stop-color:#F79779"/>
			<stop  offset="1" style="stop-color:#F69275"/>
		</linearGradient>
		<polygon class="st19" points="1702.1,881.6 1702.1,977.3 1722.8,989.2 1722.8,893.6 		"/>
		
			<linearGradient id="SVGID_20_" gradientUnits="userSpaceOnUse" x1="1769.225" y1="626.525" x2="1821.4249" y2="574.325" gradientTransform="matrix(1 0 0 -1 0 1500)">
			<stop  offset="0" style="stop-color:#FFDFB4"/>
			<stop  offset="0.2129" style="stop-color:#FEDAB0"/>
			<stop  offset="0.4519" style="stop-color:#FDCDA5"/>
			<stop  offset="0.7034" style="stop-color:#FAB693"/>
			<stop  offset="0.9622" style="stop-color:#F79779"/>
			<stop  offset="1" style="stop-color:#F69275"/>
		</linearGradient>
		<polygon class="st20" points="1805.7,845.8 1785,857.7 1785,953.4 1805.7,941.4 		"/>
		
			<linearGradient id="SVGID_21_" gradientUnits="userSpaceOnUse" x1="1707.05" y1="671.15" x2="1783.15" y2="595.0499" gradientTransform="matrix(1 0 0 -1 0 1500)">
			<stop  offset="0" style="stop-color:#00A2A5"/>
			<stop  offset="1" style="stop-color:#33308E"/>
		</linearGradient>
		<polygon class="st21" points="1785,786 1702.1,833.8 1702.1,953.4 1722.8,965.3 1805.7,798 		"/>
		
			<linearGradient id="SVGID_22_" gradientUnits="userSpaceOnUse" x1="1725.6001" y1="657" x2="1802.8999" y2="579.7" gradientTransform="matrix(1 0 0 -1 0 1500)">
			<stop  offset="0" style="stop-color:#00A2A5"/>
			<stop  offset="1" style="stop-color:#33308E"/>
		</linearGradient>
		<polygon class="st22" points="1722.8,845.8 1722.8,965.3 1805.7,917.5 1805.7,798 		"/>
		
			<linearGradient id="SVGID_23_" gradientUnits="userSpaceOnUse" x1="1736.95" y1="701.05" x2="1770.7821" y2="667.2178" gradientTransform="matrix(1 0 0 -1 0 1500)">
			<stop  offset="0" style="stop-color:#00A2A5"/>
			<stop  offset="1" style="stop-color:#33308E"/>
		</linearGradient>
		<polygon class="st23" points="1785,786 1702.1,833.8 1722.8,845.8 1805.7,798 		"/>
		
			<linearGradient id="SVGID_24_" gradientUnits="userSpaceOnUse" x1="744.1326" y1="743.9" x2="806.249" y2="743.9" gradientTransform="matrix(-1 0 0 -1 2529.1326 1500)">
			<stop  offset="0" style="stop-color:#283453"/>
			<stop  offset="1" style="stop-color:#6A7490"/>
		</linearGradient>
		<polygon class="st24" points="1743.6,774 1722.8,762.1 1764.3,738.2 1785,750.1 		"/>
		
			<linearGradient id="SVGID_25_" gradientUnits="userSpaceOnUse" x1="1753.9" y1="690.1" x2="1774.6" y2="690.1" gradientTransform="matrix(1 0 0 -1 0 1500)">
			<stop  offset="0" style="stop-color:#FFDFB4"/>
			<stop  offset="0.2129" style="stop-color:#FEDAB0"/>
			<stop  offset="0.4519" style="stop-color:#FDCDA5"/>
			<stop  offset="0.7034" style="stop-color:#FAB693"/>
			<stop  offset="0.9622" style="stop-color:#F79779"/>
			<stop  offset="1" style="stop-color:#F69275"/>
		</linearGradient>
		<polygon class="st25" points="1753.9,803.9 1753.9,827.8 1774.6,815.9 1774.6,792 		"/>
		
			<linearGradient id="SVGID_26_" gradientUnits="userSpaceOnUse" x1="1733.2" y1="690.1" x2="1753.9" y2="690.1" gradientTransform="matrix(1 0 0 -1 0 1500)">
			<stop  offset="0" style="stop-color:#FFDFB4"/>
			<stop  offset="0.2129" style="stop-color:#FEDAB0"/>
			<stop  offset="0.4519" style="stop-color:#FDCDA5"/>
			<stop  offset="0.7034" style="stop-color:#FAB693"/>
			<stop  offset="0.9622" style="stop-color:#F79779"/>
			<stop  offset="1" style="stop-color:#F69275"/>
		</linearGradient>
		<polygon class="st26" points="1733.2,792 1733.2,815.9 1753.9,827.8 1753.9,803.9 		"/>
		
			<linearGradient id="SVGID_27_" gradientUnits="userSpaceOnUse" x1="1729.4" y1="744.5" x2="1769.6384" y2="704.2616" gradientTransform="matrix(1 0 0 -1 0 1500)">
			<stop  offset="0" style="stop-color:#FFDFB4"/>
			<stop  offset="0.2129" style="stop-color:#FEDAB0"/>
			<stop  offset="0.4519" style="stop-color:#FDCDA5"/>
			<stop  offset="0.7034" style="stop-color:#FAB693"/>
			<stop  offset="0.9622" style="stop-color:#F79779"/>
			<stop  offset="1" style="stop-color:#F69275"/>
		</linearGradient>
		<polygon class="st27" points="1764.3,738.2 1722.8,762.1 1722.8,809.9 1743.6,821.9 1785,750.1 		"/>
		
			<linearGradient id="SVGID_28_" gradientUnits="userSpaceOnUse" x1="736.5325" y1="742.3" x2="793.1326" y2="685.7" gradientTransform="matrix(-1 0 0 -1 2529.1326 1500)">
			<stop  offset="0" style="stop-color:#FFDFB4"/>
			<stop  offset="0.2129" style="stop-color:#FEDAB0"/>
			<stop  offset="0.4519" style="stop-color:#FDCDA5"/>
			<stop  offset="0.7034" style="stop-color:#FAB693"/>
			<stop  offset="0.9622" style="stop-color:#F79779"/>
			<stop  offset="1" style="stop-color:#F69275"/>
		</linearGradient>
		<polygon class="st28" points="1785,750.1 1785,798 1743.6,821.9 1743.6,774 		"/>
		
			<linearGradient id="SVGID_29_" gradientUnits="userSpaceOnUse" x1="797.5325" y1="746.7" x2="748.543" y2="697.7104" gradientTransform="matrix(-1 0 0 -1 2529.1326 1500)">
			<stop  offset="1.075270e-02" style="stop-color:#10395F"/>
			<stop  offset="0.9892" style="stop-color:#001135"/>
		</linearGradient>
		<polygon class="st29" points="1785,798 1743.6,821.9 1743.6,798 1733.2,792 1733.2,780 1722.8,774 1722.8,762.1 1764.3,738.2 
			1785,750.1 		"/>
		
			<linearGradient id="SVGID_30_" gradientUnits="userSpaceOnUse" x1="1741.35" y1="756.45" x2="1766.4501" y2="731.35" gradientTransform="matrix(1 0 0 -1 0 1500)">
			<stop  offset="1.075270e-02" style="stop-color:#10395F"/>
			<stop  offset="0.9892" style="stop-color:#001135"/>
		</linearGradient>
		<polygon class="st30" points="1722.8,762.1 1743.6,774 1785,750.1 1764.3,738.2 		"/>
	</g>
	<g>
		
			<linearGradient id="SVGID_31_" gradientUnits="userSpaceOnUse" x1="521.2576" y1="712.375" x2="428.8575" y2="619.975" gradientTransform="matrix(-1 0 0 -1 2529.1326 1500)">
			<stop  offset="1.075270e-02" style="stop-color:#10395F"/>
			<stop  offset="0.9892" style="stop-color:#001135"/>
		</linearGradient>
		<polygon class="st31" points="2074.8,738.2 2074.8,905.5 2033.4,929.5 2033.4,762.1 		"/>
		
			<linearGradient id="SVGID_32_" gradientUnits="userSpaceOnUse" x1="550.1326" y1="692.3" x2="462.0326" y2="604.2" gradientTransform="matrix(-1 0 0 -1 2529.1326 1500)">
			<stop  offset="1.075270e-02" style="stop-color:#10395F"/>
			<stop  offset="0.9892" style="stop-color:#001135"/>
		</linearGradient>
		<polygon class="st32" points="2033.4,786 2033.4,929.5 2012.7,917.5 2012.7,774 		"/>
		
			<linearGradient id="SVGID_33_" gradientUnits="userSpaceOnUse" x1="1996.9249" y1="758.025" x2="2049.125" y2="705.825" gradientTransform="matrix(1 0 0 -1 0 1500)">
			<stop  offset="0" style="stop-color:#FFDFB4"/>
			<stop  offset="0.2129" style="stop-color:#FEDAB0"/>
			<stop  offset="0.4519" style="stop-color:#FDCDA5"/>
			<stop  offset="0.7034" style="stop-color:#FAB693"/>
			<stop  offset="0.9622" style="stop-color:#F79779"/>
			<stop  offset="1" style="stop-color:#F69275"/>
		</linearGradient>
		<polygon class="st33" points="2033.4,714.3 2012.7,726.2 2012.7,821.9 2033.4,809.9 		"/>
		
			<linearGradient id="SVGID_34_" gradientUnits="userSpaceOnUse" x1="1970.2999" y1="763.9999" x2="2034.45" y2="699.85" gradientTransform="matrix(1 0 0 -1 0 1500)">
			<stop  offset="0" style="stop-color:#FFDFB4"/>
			<stop  offset="0.2129" style="stop-color:#FEDAB0"/>
			<stop  offset="0.4519" style="stop-color:#FDCDA5"/>
			<stop  offset="0.7034" style="stop-color:#FAB693"/>
			<stop  offset="0.9622" style="stop-color:#F79779"/>
			<stop  offset="1" style="stop-color:#F69275"/>
		</linearGradient>
		<polygon class="st34" points="1992,714.3 1992,809.9 2012.7,821.9 2012.7,726.2 		"/>
		
			<linearGradient id="SVGID_35_" gradientUnits="userSpaceOnUse" x1="2059.075" y1="793.8749" x2="2111.2251" y2="741.725" gradientTransform="matrix(1 0 0 -1 0 1500)">
			<stop  offset="0" style="stop-color:#FFDFB4"/>
			<stop  offset="0.2129" style="stop-color:#FEDAB0"/>
			<stop  offset="0.4519" style="stop-color:#FDCDA5"/>
			<stop  offset="0.7034" style="stop-color:#FAB693"/>
			<stop  offset="0.9622" style="stop-color:#F79779"/>
			<stop  offset="1" style="stop-color:#F69275"/>
		</linearGradient>
		<polygon class="st35" points="2095.5,678.4 2074.8,690.4 2074.8,786 2095.5,774 		"/>
		
			<linearGradient id="SVGID_36_" gradientUnits="userSpaceOnUse" x1="1996.975" y1="838.475" x2="2073.075" y2="762.375" gradientTransform="matrix(1 0 0 -1 0 1500)">
			<stop  offset="0" style="stop-color:#ECE83B"/>
			<stop  offset="1" style="stop-color:#00A2A5"/>
		</linearGradient>
		<polygon class="st36" points="2074.8,618.6 1992,666.5 1992,786 2012.7,798 2095.5,630.6 		"/>
		
			<linearGradient id="SVGID_37_" gradientUnits="userSpaceOnUse" x1="2015.4501" y1="824.35" x2="2092.7" y2="747.1" gradientTransform="matrix(1 0 0 -1 0 1500)">
			<stop  offset="0" style="stop-color:#ECE83B"/>
			<stop  offset="1" style="stop-color:#00A2A5"/>
		</linearGradient>
		<polygon class="st37" points="2012.7,678.4 2012.7,798 2095.5,750.1 2095.5,630.6 		"/>
		
			<linearGradient id="SVGID_38_" gradientUnits="userSpaceOnUse" x1="2026.8501" y1="868.35" x2="2060.6499" y2="834.55" gradientTransform="matrix(1 0 0 -1 0 1500)">
			<stop  offset="0" style="stop-color:#ECE83B"/>
			<stop  offset="1" style="stop-color:#00A2A5"/>
		</linearGradient>
		<polygon class="st38" points="2074.8,618.6 1992,666.5 2012.7,678.4 2095.5,630.6 		"/>
		
			<linearGradient id="SVGID_39_" gradientUnits="userSpaceOnUse" x1="454.3325" y1="911.25" x2="516.4326" y2="911.25" gradientTransform="matrix(-1 0 0 -1 2529.1326 1500)">
			<stop  offset="0" style="stop-color:#283453"/>
			<stop  offset="1" style="stop-color:#6A7490"/>
		</linearGradient>
		<polygon class="st39" points="2033.4,606.7 2012.7,594.7 2054.1,570.8 2074.8,582.8 		"/>
		
			<linearGradient id="SVGID_40_" gradientUnits="userSpaceOnUse" x1="2043.8" y1="857.45" x2="2064.5" y2="857.45" gradientTransform="matrix(1 0 0 -1 0 1500)">
			<stop  offset="0" style="stop-color:#FFDFB4"/>
			<stop  offset="0.2129" style="stop-color:#FEDAB0"/>
			<stop  offset="0.4519" style="stop-color:#FDCDA5"/>
			<stop  offset="0.7034" style="stop-color:#FAB693"/>
			<stop  offset="0.9622" style="stop-color:#F79779"/>
			<stop  offset="1" style="stop-color:#F69275"/>
		</linearGradient>
		<polygon class="st40" points="2043.8,636.6 2043.8,660.5 2064.5,648.5 2064.5,624.6 		"/>
		
			<linearGradient id="SVGID_41_" gradientUnits="userSpaceOnUse" x1="2023.0746" y1="857.45" x2="2043.7747" y2="857.45" gradientTransform="matrix(1 0 0 -1 0 1500)">
			<stop  offset="0" style="stop-color:#FFDFB4"/>
			<stop  offset="0.2129" style="stop-color:#FEDAB0"/>
			<stop  offset="0.4519" style="stop-color:#FDCDA5"/>
			<stop  offset="0.7034" style="stop-color:#FAB693"/>
			<stop  offset="0.9622" style="stop-color:#F79779"/>
			<stop  offset="1" style="stop-color:#F69275"/>
		</linearGradient>
		<polygon class="st41" points="2023.1,624.6 2023.1,648.5 2043.8,660.5 2043.8,636.6 		"/>
		
			<linearGradient id="SVGID_42_" gradientUnits="userSpaceOnUse" x1="2019.2251" y1="911.8251" x2="2059.4751" y2="871.575" gradientTransform="matrix(1 0 0 -1 0 1500)">
			<stop  offset="0" style="stop-color:#FFDFB4"/>
			<stop  offset="0.2129" style="stop-color:#FEDAB0"/>
			<stop  offset="0.4519" style="stop-color:#FDCDA5"/>
			<stop  offset="0.7034" style="stop-color:#FAB693"/>
			<stop  offset="0.9622" style="stop-color:#F79779"/>
			<stop  offset="1" style="stop-color:#F69275"/>
		</linearGradient>
		<polygon class="st42" points="2054.1,570.8 2012.7,594.7 2012.7,642.6 2033.4,654.5 2074.8,582.8 		"/>
		
			<linearGradient id="SVGID_43_" gradientUnits="userSpaceOnUse" x1="446.7575" y1="909.6251" x2="503.3075" y2="853.075" gradientTransform="matrix(-1 0 0 -1 2529.1326 1500)">
			<stop  offset="0" style="stop-color:#FFDFB4"/>
			<stop  offset="0.2129" style="stop-color:#FEDAB0"/>
			<stop  offset="0.4519" style="stop-color:#FDCDA5"/>
			<stop  offset="0.7034" style="stop-color:#FAB693"/>
			<stop  offset="0.9622" style="stop-color:#F79779"/>
			<stop  offset="1" style="stop-color:#F69275"/>
		</linearGradient>
		<polygon class="st43" points="2074.8,582.8 2074.8,630.6 2033.4,654.5 2033.4,606.7 		"/>
		
			<linearGradient id="SVGID_44_" gradientUnits="userSpaceOnUse" x1="507.7076" y1="914.025" x2="458.7076" y2="865.025" gradientTransform="matrix(-1 0 0 -1 2529.1326 1500)">
			<stop  offset="1.075270e-02" style="stop-color:#10395F"/>
			<stop  offset="0.9892" style="stop-color:#001135"/>
		</linearGradient>
		<polygon class="st44" points="2074.8,630.6 2033.4,654.5 2033.4,630.6 2023.1,624.6 2023.1,612.7 2012.7,606.7 2012.7,594.7 
			2054.1,570.8 2074.8,582.8 		"/>
		
			<linearGradient id="SVGID_45_" gradientUnits="userSpaceOnUse" x1="2031.2281" y1="923.7719" x2="2056.3281" y2="898.6719" gradientTransform="matrix(1 0 0 -1 0 1500)">
			<stop  offset="1.075270e-02" style="stop-color:#10395F"/>
			<stop  offset="0.9892" style="stop-color:#001135"/>
		</linearGradient>
		<polygon class="st45" points="2012.7,594.7 2033.4,606.7 2074.8,582.8 2054.1,570.8 		"/>
	</g>
	<g>
		
			<linearGradient id="SVGID_46_" gradientUnits="userSpaceOnUse" x1="-408.3206" y1="724.375" x2="-500.7706" y2="631.925" gradientTransform="matrix(-1 0 0 -1 999.1544 1500)">
			<stop  offset="1.075270e-02" style="stop-color:#10395F"/>
			<stop  offset="0.9892" style="stop-color:#001135"/>
		</linearGradient>
		<polygon class="st46" points="1474.4,726.2 1474.4,893.6 1433,917.5 1433,750.1 		"/>
		
			<linearGradient id="SVGID_47_" gradientUnits="userSpaceOnUse" x1="-379.4956" y1="704.25" x2="-467.5456" y2="616.2" gradientTransform="matrix(-1 0 0 -1 999.1544 1500)">
			<stop  offset="1.075270e-02" style="stop-color:#10395F"/>
			<stop  offset="0.9892" style="stop-color:#001135"/>
		</linearGradient>
		<polygon class="st47" points="1433,774 1433,917.5 1412.3,905.5 1412.3,762.1 		"/>
		
			<linearGradient id="SVGID_48_" gradientUnits="userSpaceOnUse" x1="1396.5751" y1="769.975" x2="1448.775" y2="717.775" gradientTransform="matrix(1 0 0 -1 0 1500)">
			<stop  offset="0" style="stop-color:#FFDFB4"/>
			<stop  offset="0.2129" style="stop-color:#FEDAB0"/>
			<stop  offset="0.4519" style="stop-color:#FDCDA5"/>
			<stop  offset="0.7034" style="stop-color:#FAB693"/>
			<stop  offset="0.9622" style="stop-color:#F79779"/>
			<stop  offset="1" style="stop-color:#F69275"/>
		</linearGradient>
		<polygon class="st48" points="1433,702.3 1412.3,714.3 1412.3,809.9 1433,798 		"/>
		
			<linearGradient id="SVGID_49_" gradientUnits="userSpaceOnUse" x1="1369.85" y1="775.95" x2="1434" y2="711.8" gradientTransform="matrix(1 0 0 -1 0 1500)">
			<stop  offset="0" style="stop-color:#FFDFB4"/>
			<stop  offset="0.2129" style="stop-color:#FEDAB0"/>
			<stop  offset="0.4519" style="stop-color:#FDCDA5"/>
			<stop  offset="0.7034" style="stop-color:#FAB693"/>
			<stop  offset="0.9622" style="stop-color:#F79779"/>
			<stop  offset="1" style="stop-color:#F69275"/>
		</linearGradient>
		<polygon class="st49" points="1391.6,702.3 1391.6,798 1412.3,809.9 1412.3,714.3 		"/>
		
			<linearGradient id="SVGID_50_" gradientUnits="userSpaceOnUse" x1="1458.65" y1="805.85" x2="1510.85" y2="753.65" gradientTransform="matrix(1 0 0 -1 0 1500)">
			<stop  offset="0" style="stop-color:#FFDFB4"/>
			<stop  offset="0.2129" style="stop-color:#FEDAB0"/>
			<stop  offset="0.4519" style="stop-color:#FDCDA5"/>
			<stop  offset="0.7034" style="stop-color:#FAB693"/>
			<stop  offset="0.9622" style="stop-color:#F79779"/>
			<stop  offset="1" style="stop-color:#F69275"/>
		</linearGradient>
		<polygon class="st50" points="1495.1,666.5 1474.4,678.4 1474.4,774 1495.1,762.1 		"/>
		
			<linearGradient id="SVGID_51_" gradientUnits="userSpaceOnUse" x1="1396.575" y1="850.475" x2="1472.675" y2="774.3749" gradientTransform="matrix(1 0 0 -1 0 1500)">
			<stop  offset="0" style="stop-color:#EF2B5C"/>
			<stop  offset="1" style="stop-color:#33308E"/>
		</linearGradient>
		<polygon class="st51" points="1474.4,606.7 1391.6,654.5 1391.6,774 1412.3,786 1495.1,618.6 		"/>
		
			<linearGradient id="SVGID_52_" gradientUnits="userSpaceOnUse" x1="1415.1" y1="836.3" x2="1492.3501" y2="759.05" gradientTransform="matrix(1 0 0 -1 0 1500)">
			<stop  offset="0" style="stop-color:#EF2B5C"/>
			<stop  offset="1" style="stop-color:#33308E"/>
		</linearGradient>
		<polygon class="st52" points="1412.3,666.5 1412.3,786 1495.1,738.2 1495.1,618.6 		"/>
		
			<linearGradient id="SVGID_53_" gradientUnits="userSpaceOnUse" x1="1391.6" y1="863.4" x2="1495.1" y2="863.4" gradientTransform="matrix(1 0 0 -1 0 1500)">
			<stop  offset="0" style="stop-color:#EF2B5C"/>
			<stop  offset="1" style="stop-color:#33308E"/>
		</linearGradient>
		<polygon class="st53" points="1474.4,606.7 1391.6,654.5 1412.3,666.5 1495.1,618.6 		"/>
		
			<linearGradient id="SVGID_54_" gradientUnits="userSpaceOnUse" x1="-475.2456" y1="923.2" x2="-413.1456" y2="923.2" gradientTransform="matrix(-1 0 0 -1 999.1544 1500)">
			<stop  offset="0" style="stop-color:#283453"/>
			<stop  offset="1" style="stop-color:#6A7490"/>
		</linearGradient>
		<polygon class="st54" points="1433,594.7 1412.3,582.8 1453.7,558.9 1474.4,570.8 		"/>
		
			<linearGradient id="SVGID_55_" gradientUnits="userSpaceOnUse" x1="1419.45" y1="831.95" x2="1487.9501" y2="763.45" gradientTransform="matrix(1 0 0 -1 0 1500)">
			<stop  offset="0" style="stop-color:#FFFFFF"/>
			<stop  offset="1" style="stop-color:#B3C9D5"/>
		</linearGradient>
		<polygon class="st55" points="1433,654.5 1433,774 1474.4,750.1 1474.4,630.6 		"/>
		
			<linearGradient id="SVGID_56_" gradientUnits="userSpaceOnUse" x1="1443.323" y1="869.4" x2="1464.0229" y2="869.4" gradientTransform="matrix(1 0 0 -1 0 1500)">
			<stop  offset="0" style="stop-color:#FFDFB4"/>
			<stop  offset="0.2129" style="stop-color:#FEDAB0"/>
			<stop  offset="0.4519" style="stop-color:#FDCDA5"/>
			<stop  offset="0.7034" style="stop-color:#FAB693"/>
			<stop  offset="0.9622" style="stop-color:#F79779"/>
			<stop  offset="1" style="stop-color:#F69275"/>
		</linearGradient>
		<polygon class="st56" points="1443.3,624.6 1443.3,648.5 1464,636.6 1464,612.7 		"/>
		
			<linearGradient id="SVGID_57_" gradientUnits="userSpaceOnUse" x1="1422.6" y1="869.4" x2="1443.3" y2="869.4" gradientTransform="matrix(1 0 0 -1 0 1500)">
			<stop  offset="0" style="stop-color:#FFDFB4"/>
			<stop  offset="0.2129" style="stop-color:#FEDAB0"/>
			<stop  offset="0.4519" style="stop-color:#FDCDA5"/>
			<stop  offset="0.7034" style="stop-color:#FAB693"/>
			<stop  offset="0.9622" style="stop-color:#F79779"/>
			<stop  offset="1" style="stop-color:#F69275"/>
		</linearGradient>
		<polygon class="st57" points="1422.6,612.7 1422.6,636.6 1443.3,648.5 1443.3,624.6 		"/>
		
			<linearGradient id="SVGID_58_" gradientUnits="userSpaceOnUse" x1="1418.875" y1="923.775" x2="1459.125" y2="883.525" gradientTransform="matrix(1 0 0 -1 0 1500)">
			<stop  offset="0" style="stop-color:#FFDFB4"/>
			<stop  offset="0.2129" style="stop-color:#FEDAB0"/>
			<stop  offset="0.4519" style="stop-color:#FDCDA5"/>
			<stop  offset="0.7034" style="stop-color:#FAB693"/>
			<stop  offset="0.9622" style="stop-color:#F79779"/>
			<stop  offset="1" style="stop-color:#F69275"/>
		</linearGradient>
		<polygon class="st58" points="1453.7,558.9 1412.3,582.8 1412.3,630.6 1433,642.6 1474.4,570.8 		"/>
		
			<linearGradient id="SVGID_59_" gradientUnits="userSpaceOnUse" x1="1437.3501" y1="909.65" x2="1470" y2="877" gradientTransform="matrix(1 0 0 -1 0 1500)">
			<stop  offset="0" style="stop-color:#FFDFB4"/>
			<stop  offset="0.2129" style="stop-color:#FEDAB0"/>
			<stop  offset="0.4519" style="stop-color:#FDCDA5"/>
			<stop  offset="0.7034" style="stop-color:#FAB693"/>
			<stop  offset="0.9622" style="stop-color:#F79779"/>
			<stop  offset="1" style="stop-color:#F69275"/>
		</linearGradient>
		<polygon class="st59" points="1433,594.7 1433,642.6 1474.4,618.6 1474.4,570.8 		"/>
		
			<linearGradient id="SVGID_60_" gradientUnits="userSpaceOnUse" x1="-425.6957" y1="929.75" x2="-456.7455" y2="898.7" gradientTransform="matrix(-1 0 0 -1 999.1544 1500)">
			<stop  offset="1.075270e-02" style="stop-color:#10395F"/>
			<stop  offset="0.9892" style="stop-color:#001135"/>
		</linearGradient>
		<polygon class="st60" points="1474.4,582.8 1433,606.7 1422.6,600.7 1422.6,612.7 1412.3,606.7 1412.3,582.8 1453.7,558.9 
			1474.4,570.8 		"/>
		
			<linearGradient id="SVGID_61_" gradientUnits="userSpaceOnUse" x1="-447.1706" y1="918.625" x2="-461.899" y2="903.8966" gradientTransform="matrix(-1 0 0 -1 999.1544 1500)">
			<stop  offset="1.075270e-02" style="stop-color:#10395F"/>
			<stop  offset="0.9892" style="stop-color:#001135"/>
		</linearGradient>
		<polygon class="st61" points="1474.4,570.8 1474.4,570.8 1474.4,582.8 1433,606.7 1433,594.7 		"/>
	</g>
	<g>
		
			<linearGradient id="SVGID_62_" gradientUnits="userSpaceOnUse" x1="-698.1706" y1="891.7249" x2="-790.6207" y2="799.2751" gradientTransform="matrix(-1 0 0 -1 999.1544 1500)">
			<stop  offset="1.075270e-02" style="stop-color:#10395F"/>
			<stop  offset="0.9892" style="stop-color:#001135"/>
		</linearGradient>
		<polygon class="st62" points="1764.3,558.9 1764.3,726.2 1722.8,750.1 1722.8,582.8 		"/>
		
			<linearGradient id="SVGID_63_" gradientUnits="userSpaceOnUse" x1="-669.2456" y1="871.6" x2="-757.2956" y2="783.55" gradientTransform="matrix(-1 0 0 -1 999.1544 1500)">
			<stop  offset="1.075270e-02" style="stop-color:#10395F"/>
			<stop  offset="0.9892" style="stop-color:#001135"/>
		</linearGradient>
		<polygon class="st63" points="1722.8,606.7 1722.8,750.1 1702.1,738.2 1702.1,594.7 		"/>
		
			<linearGradient id="SVGID_64_" gradientUnits="userSpaceOnUse" x1="1686.325" y1="937.325" x2="1738.525" y2="885.125" gradientTransform="matrix(1 0 0 -1 0 1500)">
			<stop  offset="0" style="stop-color:#FFDFB4"/>
			<stop  offset="0.2129" style="stop-color:#FEDAB0"/>
			<stop  offset="0.4519" style="stop-color:#FDCDA5"/>
			<stop  offset="0.7034" style="stop-color:#FAB693"/>
			<stop  offset="0.9622" style="stop-color:#F79779"/>
			<stop  offset="1" style="stop-color:#F69275"/>
		</linearGradient>
		<polygon class="st64" points="1722.8,535 1702.1,546.9 1702.1,642.6 1722.8,630.6 		"/>
		
			<linearGradient id="SVGID_65_" gradientUnits="userSpaceOnUse" x1="1659.7" y1="943.3" x2="1723.85" y2="879.15" gradientTransform="matrix(1 0 0 -1 0 1500)">
			<stop  offset="0" style="stop-color:#FFDFB4"/>
			<stop  offset="0.2129" style="stop-color:#FEDAB0"/>
			<stop  offset="0.4519" style="stop-color:#FDCDA5"/>
			<stop  offset="0.7034" style="stop-color:#FAB693"/>
			<stop  offset="0.9622" style="stop-color:#F79779"/>
			<stop  offset="1" style="stop-color:#F69275"/>
		</linearGradient>
		<polygon class="st65" points="1681.4,535 1681.4,630.6 1702.1,642.6 1702.1,546.9 		"/>
		
			<linearGradient id="SVGID_66_" gradientUnits="userSpaceOnUse" x1="1748.5751" y1="973.175" x2="1800.725" y2="921.025" gradientTransform="matrix(1 0 0 -1 0 1500)">
			<stop  offset="0" style="stop-color:#FFDFB4"/>
			<stop  offset="0.2129" style="stop-color:#FEDAB0"/>
			<stop  offset="0.4519" style="stop-color:#FDCDA5"/>
			<stop  offset="0.7034" style="stop-color:#FAB693"/>
			<stop  offset="0.9622" style="stop-color:#F79779"/>
			<stop  offset="1" style="stop-color:#F69275"/>
		</linearGradient>
		<polygon class="st66" points="1785,499.1 1764.3,511.1 1764.3,606.7 1785,594.7 		"/>
		
			<linearGradient id="SVGID_67_" gradientUnits="userSpaceOnUse" x1="1686.35" y1="1017.85" x2="1762.45" y2="941.7501" gradientTransform="matrix(1 0 0 -1 0 1500)">
			<stop  offset="0" style="stop-color:#ECE83B"/>
			<stop  offset="1" style="stop-color:#EF2B5C"/>
		</linearGradient>
		<polygon class="st67" points="1764.3,439.3 1681.4,487.1 1681.4,606.7 1702.1,618.6 1785,451.3 		"/>
		
			<linearGradient id="SVGID_68_" gradientUnits="userSpaceOnUse" x1="1704.9" y1="1003.7" x2="1782.2" y2="926.4" gradientTransform="matrix(1 0 0 -1 0 1500)">
			<stop  offset="0" style="stop-color:#ECE83B"/>
			<stop  offset="1" style="stop-color:#EF2B5C"/>
		</linearGradient>
		<polygon class="st68" points="1702.1,499.1 1702.1,618.6 1785,570.8 1785,451.3 		"/>
		
			<linearGradient id="SVGID_69_" gradientUnits="userSpaceOnUse" x1="1716.2909" y1="1047.7091" x2="1750.1229" y2="1013.8771" gradientTransform="matrix(1 0 0 -1 0 1500)">
			<stop  offset="0" style="stop-color:#ECE83B"/>
			<stop  offset="1" style="stop-color:#EF2B5C"/>
		</linearGradient>
		<polygon class="st69" points="1764.3,439.3 1681.4,487.1 1702.1,499.1 1785,451.3 		"/>
		
			<linearGradient id="SVGID_70_" gradientUnits="userSpaceOnUse" x1="-765.1456" y1="1090.55" x2="-703.0292" y2="1090.55" gradientTransform="matrix(-1 0 0 -1 999.1544 1500)">
			<stop  offset="0" style="stop-color:#283453"/>
			<stop  offset="1" style="stop-color:#6A7490"/>
		</linearGradient>
		<polygon class="st70" points="1722.8,427.4 1702.1,415.4 1743.6,391.5 1764.3,403.5 		"/>
		
			<linearGradient id="SVGID_71_" gradientUnits="userSpaceOnUse" x1="1709.25" y1="999.35" x2="1777.7725" y2="930.8276" gradientTransform="matrix(1 0 0 -1 0 1500)">
			<stop  offset="0" style="stop-color:#FFFFFF"/>
			<stop  offset="1" style="stop-color:#B3C9D5"/>
		</linearGradient>
		<polygon class="st71" points="1722.8,487.1 1722.8,606.7 1764.3,582.8 1764.3,463.2 		"/>
		
			<linearGradient id="SVGID_72_" gradientUnits="userSpaceOnUse" x1="1733.2" y1="1036.75" x2="1753.9" y2="1036.75" gradientTransform="matrix(1 0 0 -1 0 1500)">
			<stop  offset="0" style="stop-color:#FFDFB4"/>
			<stop  offset="0.2129" style="stop-color:#FEDAB0"/>
			<stop  offset="0.4519" style="stop-color:#FDCDA5"/>
			<stop  offset="0.7034" style="stop-color:#FAB693"/>
			<stop  offset="0.9622" style="stop-color:#F79779"/>
			<stop  offset="1" style="stop-color:#F69275"/>
		</linearGradient>
		<polygon class="st72" points="1733.2,457.3 1733.2,481.2 1753.9,469.2 1753.9,445.3 		"/>
		
			<linearGradient id="SVGID_73_" gradientUnits="userSpaceOnUse" x1="1712.5" y1="1036.75" x2="1733.2" y2="1036.75" gradientTransform="matrix(1 0 0 -1 0 1500)">
			<stop  offset="0" style="stop-color:#FFDFB4"/>
			<stop  offset="0.2129" style="stop-color:#FEDAB0"/>
			<stop  offset="0.4519" style="stop-color:#FDCDA5"/>
			<stop  offset="0.7034" style="stop-color:#FAB693"/>
			<stop  offset="0.9622" style="stop-color:#F79779"/>
			<stop  offset="1" style="stop-color:#F69275"/>
		</linearGradient>
		<polygon class="st73" points="1712.5,445.3 1712.5,469.2 1733.2,481.2 1733.2,457.3 		"/>
		
			<linearGradient id="SVGID_74_" gradientUnits="userSpaceOnUse" x1="1708.675" y1="1091.175" x2="1748.925" y2="1050.9249" gradientTransform="matrix(1 0 0 -1 0 1500)">
			<stop  offset="0" style="stop-color:#FFDFB4"/>
			<stop  offset="0.2129" style="stop-color:#FEDAB0"/>
			<stop  offset="0.4519" style="stop-color:#FDCDA5"/>
			<stop  offset="0.7034" style="stop-color:#FAB693"/>
			<stop  offset="0.9622" style="stop-color:#F79779"/>
			<stop  offset="1" style="stop-color:#F69275"/>
		</linearGradient>
		<polygon class="st74" points="1743.6,391.5 1702.1,415.4 1702.1,463.2 1722.8,475.2 1764.3,403.5 		"/>
		
			<linearGradient id="SVGID_75_" gradientUnits="userSpaceOnUse" x1="1727.2001" y1="1077" x2="1759.8597" y2="1044.3403" gradientTransform="matrix(1 0 0 -1 0 1500)">
			<stop  offset="0" style="stop-color:#FFDFB4"/>
			<stop  offset="0.2129" style="stop-color:#FEDAB0"/>
			<stop  offset="0.4519" style="stop-color:#FDCDA5"/>
			<stop  offset="0.7034" style="stop-color:#FAB693"/>
			<stop  offset="0.9622" style="stop-color:#F79779"/>
			<stop  offset="1" style="stop-color:#F69275"/>
		</linearGradient>
		<polygon class="st75" points="1722.8,427.4 1722.8,475.2 1764.3,451.3 1764.3,403.5 		"/>
		
			<linearGradient id="SVGID_76_" gradientUnits="userSpaceOnUse" x1="-715.4955" y1="1097.15" x2="-746.5539" y2="1066.0917" gradientTransform="matrix(-1 0 0 -1 999.1544 1500)">
			<stop  offset="1.075270e-02" style="stop-color:#10395F"/>
			<stop  offset="0.9892" style="stop-color:#001135"/>
		</linearGradient>
		<polygon class="st76" points="1764.3,415.4 1722.8,439.3 1712.5,433.4 1712.5,445.3 1702.1,439.3 1702.1,415.4 1743.6,391.5 
			1764.3,403.5 		"/>
		
			<linearGradient id="SVGID_77_" gradientUnits="userSpaceOnUse" x1="-737.0206" y1="1085.975" x2="-751.749" y2="1071.2466" gradientTransform="matrix(-1 0 0 -1 999.1544 1500)">
			<stop  offset="1.075270e-02" style="stop-color:#10395F"/>
			<stop  offset="0.9892" style="stop-color:#001135"/>
		</linearGradient>
		<polygon class="st77" points="1764.3,403.5 1764.3,403.5 1764.3,415.4 1722.8,439.3 1722.8,427.4 		"/>
	</g>
</g>
</svg>
